<svg class="main-svg" xmlns="http://www.w3.org/2000/svg" xmlns:xlink="http://www.w3.org/1999/xlink" width="700" height="500" style="" viewBox="0 0 700 500"><rect x="0" y="0" width="700" height="500" style="fill: rgb(255, 255, 255); fill-opacity: 1;"/><defs id="defs-0f878e"><g class="clips"><clipPath id="clip0f878exyplot" class="plotclip"><rect width="499" height="320"/></clipPath><clipPath class="axesclip" id="clip0f878ex"><rect x="80" y="0" width="499" height="500"/></clipPath><clipPath class="axesclip" id="clip0f878ey"><rect x="0" y="100" width="700" height="320"/></clipPath><clipPath class="axesclip" id="clip0f878exy"><rect x="80" y="100" width="499" height="320"/></clipPath></g><g class="gradients"/><g class="patterns"/></defs><g class="bglayer"><rect class="bg" x="80" y="100" width="499" height="320" style="fill: rgb(229, 236, 246); fill-opacity: 1; stroke-width: 0;"/></g><g class="layer-below"><g class="imagelayer"/><g class="shapelayer"/></g><g class="cartesianlayer"><g class="subplot xy"><g class="layer-subplot"><g class="shapelayer"/><g class="imagelayer"/></g><g class="minor-gridlayer"><g class="x"/><g class="y"/></g><g class="gridlayer"><g class="x"><path class="xgrid crisp" transform="translate(179.82,0)" d="M0,100v320" style="stroke: rgb(255, 255, 255); stroke-opacity: 1; stroke-width: 1px;"/><path class="xgrid crisp" transform="translate(279.64,0)" d="M0,100v320" style="stroke: rgb(255, 255, 255); stroke-opacity: 1; stroke-width: 1px;"/><path class="xgrid crisp" transform="translate(379.46,0)" d="M0,100v320" style="stroke: rgb(255, 255, 255); stroke-opacity: 1; stroke-width: 1px;"/><path class="xgrid crisp" transform="translate(479.28,0)" d="M0,100v320" style="stroke: rgb(255, 255, 255); stroke-opacity: 1; stroke-width: 1px;"/></g><g class="y"><path class="ygrid crisp" transform="translate(0,382.92)" d="M80,0h499" style="stroke: rgb(255, 255, 255); stroke-opacity: 1; stroke-width: 1px;"/><path class="ygrid crisp" transform="translate(0,346.53999999999996)" d="M80,0h499" style="stroke: rgb(255, 255, 255); stroke-opacity: 1; stroke-width: 1px;"/><path class="ygrid crisp" transform="translate(0,310.15999999999997)" d="M80,0h499" style="stroke: rgb(255, 255, 255); stroke-opacity: 1; stroke-width: 1px;"/><path class="ygrid crisp" transform="translate(0,273.77)" d="M80,0h499" style="stroke: rgb(255, 255, 255); stroke-opacity: 1; stroke-width: 1px;"/><path class="ygrid crisp" transform="translate(0,237.39)" d="M80,0h499" style="stroke: rgb(255, 255, 255); stroke-opacity: 1; stroke-width: 1px;"/><path class="ygrid crisp" transform="translate(0,201.01)" d="M80,0h499" style="stroke: rgb(255, 255, 255); stroke-opacity: 1; stroke-width: 1px;"/><path class="ygrid crisp" transform="translate(0,164.63)" d="M80,0h499" style="stroke: rgb(255, 255, 255); stroke-opacity: 1; stroke-width: 1px;"/><path class="ygrid crisp" transform="translate(0,128.25)" d="M80,0h499" style="stroke: rgb(255, 255, 255); stroke-opacity: 1; stroke-width: 1px;"/></g></g><g class="zerolinelayer"><path class="xzl zl crisp" transform="translate(80,0)" d="M0,100v320" style="stroke: rgb(255, 255, 255); stroke-opacity: 1; stroke-width: 2px;"/></g><path class="xlines-below"/><path class="ylines-below"/><g class="overlines-below"/><g class="xaxislayer-below"/><g class="yaxislayer-below"/><g class="overaxes-below"/><g class="plot" transform="translate(80,100)" clip-path="url(#clip0f878exyplot)"><g class="scatterlayer mlayer"><g class="trace scatter trace27a7b7" style="stroke-miterlimit: 2; opacity: 0.05;"><g class="fills"/><g class="errorbars"/><g class="lines"><path class="js-line" d="M0,18.63L0.8,19.35L0.9,21.13L2.2,21.69L2.3,22L2.99,22L3.09,23.85L3.39,23.85L3.49,24.86L4.49,24.86L4.59,25.67L8.78,25.67L8.88,27.24L21.06,27.87L21.16,28.04L29.15,28.25L29.25,32.21L58.59,32.21L58.69,33.67L70.77,34.11L70.87,38.95L73.27,38.95L73.37,40.11L78.56,40.26L78.66,41.38L79.86,42.92L79.96,42.92L80.36,42.92L80.45,47.28L81.35,47.91L81.45,47.91L82.35,48.83L82.45,48.86L83.25,49.08L83.35,49.95L84.65,52.02L84.75,52.02L85.85,52.39L85.94,53.57L86.44,53.57L86.54,55.59L87.64,57.37L87.74,57.37L88.34,57.37L88.44,60.1L91.34,60.62L91.44,61.56L93.93,62.16L94.03,63.13L94.73,63.13L94.83,65.61L96.13,65.61L96.23,66.84L99.72,67.57L99.82,68.13L100.62,68.36L100.72,69.08L101.32,69.57L101.42,71.4L104.21,72.12L104.31,73.26L105.41,75.06L105.51,77.24L106.11,77.51L106.21,78.67L107.31,78.74L107.41,83.63L111.2,83.63L111.3,86.33L112.4,86.33L112.5,87.22L114.19,87.52L114.29,90.09L114.99,90.09L115.09,92.3L117.69,93.01L117.79,94.14L119.48,96.72L119.58,100.13L120.48,100.32L120.58,107.09L123.88,107.09L123.98,108.22L124.58,108.76L124.68,110.78L126.17,110.78L126.27,112.52L127.77,112.68L127.87,117.36L130.56,117.36L130.66,118.44L132.06,119.04L132.16,123.42L135.85,123.42L135.95,124.92L136.85,126.35L136.95,126.35L139.15,128.77L139.25,128.77L139.85,129.16L139.95,130.22L140.75,130.22L140.85,131.88L141.44,131.9L141.54,134.48L142.54,137.09L142.64,137.09L143.14,137.2L143.24,137.91L144.04,140.21L144.14,140.21L144.54,140.21L144.64,141.65L145.54,141.65L145.64,146.15L147.33,146.15L147.43,148.06L147.63,148.06L147.73,149.26L148.13,149.26L148.23,150.62L148.53,150.62L148.63,151.87L149.33,152.34L149.43,154.31L150.03,155.22L150.13,157.22L150.33,157.22L150.43,159.93L153.12,159.93L153.22,161.16L154.12,163.79L154.22,164.07L155.12,167.24L155.22,167.24L156.42,169.9L156.52,169.9L157.42,172.25L157.52,172.25L158.31,172.52L158.41,173.67L158.71,173.67L158.81,174.48L159.21,174.48L159.31,175.28L160.61,175.64L160.71,181.63L162.61,181.89L162.71,182.73L163.31,183.04L163.41,183.89L164,184.69L164.1,185.33L164.3,185.33L164.4,186.44L164.7,186.69L164.8,187.81L166.4,198.53L166.5,198.53L168.1,198.8L168.2,199.34L168.6,199.34L168.7,201.14L169.1,201.14L169.19,203.41L169.89,204.06L169.99,207.15L171.19,207.21L171.29,209.43L172.59,209.43L172.69,210.26L173.59,211L173.69,214.46L174.98,214.46L175.08,216.34L175.88,216.34L175.98,217.79L177.68,217.88L177.78,219.75L178.08,219.75L178.18,220.61L178.58,220.61L178.68,222.4L179.08,222.4L179.18,224.98L180.57,225.3L180.67,226.24L181.67,226.97L181.77,227.35L182.27,227.57L182.37,229.32L183.87,229.36L183.97,230.13L184.37,230.16L184.47,230.95L185.07,230.95L185.17,231.93L186.06,233.58L186.16,233.58L186.96,233.94L187.06,235.75L187.46,235.75L187.56,236.52L188.16,237.13L188.26,237.28L189.16,239.29L189.26,239.29L190.56,241.29L190.66,243.69L191.75,243.69L191.85,244.58L192.05,244.58L192.15,245.38L192.65,245.49L192.75,247.1L193.55,247.36L193.65,248.05L194.15,248.79L194.25,249.63L194.55,249.69L194.65,251.98L195.55,254.71L195.65,254.71L196.65,256.53L196.75,256.53L197.54,259.98L197.64,259.98L198.24,260.36L198.34,261.47L199.24,262.15L199.34,262.63L199.64,262.72L199.74,263.77L201.04,266.16L201.14,266.16L202.14,267.66L202.24,268.96L202.83,269.25L202.93,271.17L203.33,271.17L203.43,276.16L205.43,276.21L205.53,277.12L207.03,281.41L207.13,281.41L207.43,281.41L207.53,285.5L210.02,285.96L210.12,286.63L210.32,286.63L210.42,290.1L211.32,290.79L211.42,291.62L212.32,292.35L212.42,294.66L213.32,295.92L213.42,295.92L213.91,295.92L214.01,300L215.21,300L215.31,300.85L215.61,300.85L215.71,301.81L215.91,301.81L216.01,302.76L218.71,302.76L218.81,303.92L499,303.92" style="vector-effect: none; fill: none; stroke: rgb(0, 0, 255); stroke-opacity: 1; stroke-width: 2px; opacity: 1;"/></g><g class="points"/><g class="text"/></g><g class="trace scatter trace35942c" style="stroke-miterlimit: 2; opacity: 1;"><g class="fills"/><g class="errorbars"/><g class="lines"><path class="js-line" d="M0,16.34L1,17.48L1.1,17.48L2,19.74L2.1,20.04L3.29,20.55L3.39,20.55L4.19,22.55L4.29,22.55L7.99,23.29L8.09,23.41L9.68,23.75L9.78,24.73L15.87,25.44L15.97,25.49L27.05,26.21L27.15,27.39L35.64,27.95L35.74,28.94L44.22,29.14L44.32,30.52L53.9,30.98L54,31.4L56.2,31.4L56.3,32.55L66.88,33.2L66.98,33.35L69.37,33.96L69.47,34.13L73.67,34.86L73.77,35.09L79.06,35.75L79.16,37.22L84.45,37.54L84.55,38.05L91.53,38.79L91.63,38.83L92.83,39.36L92.93,39.36L96.23,39.79L96.33,40.13L98.42,40.36L98.52,41.18L100.12,41.61L100.22,42.09L100.62,42.1L100.72,42.87L101.32,43.13L101.42,45.07L102.12,45.16L102.22,48.46L105.21,48.75L105.31,50.02L106.41,50.02L106.51,51.34L108.01,51.91L108.11,52.49L109.7,57.43L109.8,57.43L110.1,57.8L110.2,60.27L110.8,60.27L110.9,61.56L112,62.09L112.1,65.29L114.59,65.82L114.69,67.15L116.79,67.81L116.89,68.04L117.79,69.8L117.89,69.8L118.89,69.96L118.99,71.04L119.19,71.04L119.28,73.53L121.08,74.26L121.18,74.38L121.58,74.38L121.68,75.67L122.78,76.36L122.88,77.76L123.78,77.92L123.88,79.23L124.68,79.58L124.77,79.58L125.97,79.86L126.07,80.8L127.57,84.52L127.67,84.52L128.57,84.52L128.67,85.36L129.07,86.01L129.17,86.17L129.37,86.17L129.47,87.53L129.87,87.7L129.97,90.97L132.86,91.59L132.96,92.16L133.76,92.43L133.86,93.88L135.26,93.88L135.36,96.35L135.76,96.35L135.85,97.27L137.05,100.87L137.15,100.87L138.15,102.76L138.25,102.76L139.65,107.59L139.75,107.59L140.95,110.14L141.05,110.14L141.35,110.14L141.44,112.24L142.24,113.08L142.34,113.08L142.74,113.26L142.84,119.22L145.14,119.4L145.24,121.87L146.74,122.25L146.84,123.48L147.33,123.86L147.43,124.91L147.63,124.91L147.73,126.25L148.13,126.25L148.23,127.55L149.13,128.13L149.23,128.44L150.13,129.19L150.23,130.14L151.23,133.79L151.33,133.79L152.52,134.39L152.62,135.32L153.02,135.32L153.12,136.58L155.02,141.61L155.12,141.61L156.02,142.52L156.12,142.52L156.82,143.1L156.92,147.31L158.91,147.72L159.01,148.55L159.61,148.55L159.71,149.82L160.81,150.53L160.91,151.78L161.41,152.04L161.51,153.08L161.81,153.08L161.91,154.44L162.71,157.04L162.81,157.04L164,158.76L164.1,158.76L165.7,162.56L165.8,162.56L166.1,162.56L166.2,165.01L167.7,165.01L167.8,168.11L169.59,168.4L169.69,170.8L170.19,170.97L170.29,172.63L171.49,172.63L171.59,174.77L172.39,175.5L172.49,176.47L173.19,176.47L173.29,177.95L174.19,180.68L174.29,180.68L175.78,183.02L175.88,183.02L176.28,183.02L176.38,186.24L178.08,186.64L178.18,188.84L178.98,190.1L179.08,190.1L179.98,190.89L180.08,196.31L180.97,196.92L181.07,196.92L182.67,197.51L182.77,197.76L183.47,199.86L183.57,203.67L184.57,203.86L184.67,206.01L186.16,210.63L186.26,212.54L186.76,212.54L186.86,216.17L188.16,216.92L188.26,217.63L188.76,218.27L188.86,219.42L190.06,223.48L190.16,223.48L191.16,223.48L191.26,224.65L191.75,224.65L191.85,225.79L192.55,226.48L192.65,227.61L192.95,227.61L193.05,231.12L194.45,231.12L194.55,232.02L194.95,232.5L195.05,233.18L195.35,233.18L195.45,236.46L196.25,236.46L196.35,237.75L197.14,239.94L197.24,239.94L197.94,239.94L198.04,243.46L199.24,243.46L199.34,244.41L199.54,244.41L199.64,245.48L200.34,245.48L200.44,246.31L201.34,247.13L201.44,247.65L201.64,247.65L201.74,248.71L202.63,249.24L202.73,250.37L203.63,252.39L203.73,252.39L204.73,257.04L204.83,257.04L205.73,257.26L205.83,259.53L207.03,266.37L207.13,266.37L208.32,266.37L208.42,269.01L209.32,269.16L209.42,272.04L210.92,272.71L211.02,273.67L212.02,277.68L212.12,277.68L214.51,282.55L214.61,282.55L215.21,282.87L215.31,283.34L215.51,283.34L215.61,285.66L217.81,289.82L217.91,289.82L218.11,289.87L218.21,290.78L218.41,290.78L218.51,293.05L218.91,293.19L219.01,294.31L219.9,297.08L220,297.08L220.3,297.08L220.4,298.03L221.4,303.92L221.5,303.92L499,304" style="vector-effect: none; fill: none; stroke: rgb(255, 0, 0); stroke-opacity: 1; stroke-width: 2px; opacity: 1;"/></g><g class="points"/><g class="text"/></g><g class="trace scatter trace6baf3a" style="stroke-miterlimit: 2; opacity: 0.05;"><g class="fills"/><g class="errorbars"/><g class="lines"><path class="js-line" d="M0,16.08L0.9,19.26L1,19.31L2,21.21L2.1,21.26L2.99,22.51L3.09,22.76L6.19,23.38L6.29,23.83L13.87,24.33L13.97,24.92L17.87,25.34L17.97,25.76L18.57,25.76L18.67,27.29L21.96,27.34L22.06,27.34L34.24,28.08L34.34,28.44L41.03,28.6L41.13,29.59L52.01,30.26L52.11,30.47L54.7,31.01L54.8,31.32L55.8,31.32L55.9,32.3L60.29,33.01L60.39,33.8L64.28,34.51L64.38,35.69L64.68,35.69L64.78,37.12L67.48,37.12L67.58,38.14L68.28,38.35L68.38,40.73L73.07,41.38L73.17,41.98L74.86,43.81L74.96,44.5L75.96,47.39L76.06,47.39L76.86,49.34L76.96,49.34L77.16,49.34L77.26,51.33L78.76,51.33L78.86,52.75L79.76,52.75L79.86,55.07L82.25,55.76L82.35,56.14L83.25,56.14L83.35,57.04L83.75,57.04L83.85,58.17L84.25,58.54L84.35,59.01L85.85,59.21L85.94,61.02L86.84,61.02L86.94,62.27L89.24,62.97L89.34,64.7L91.83,65.21L91.93,67.57L92.93,67.57L93.03,69.8L95.63,69.8L95.73,70.58L97.72,71.28L97.82,72.56L98.22,72.56L98.32,73.42L98.62,73.42L98.72,74.19L100.32,74.19L100.42,76.13L101.32,76.33L101.42,76.96L102.32,80.06L102.42,80.06L103.31,80.72L103.41,81.62L106.21,82.2L106.31,85.5L107.71,86.06L107.81,86.81L109.4,87.36L109.5,88.41L110.3,90.22L110.4,90.22L110.8,90.22L110.9,91.37L111.8,93.51L111.9,93.51L113.2,94.08L113.3,94.73L113.69,95.46L113.79,96.06L114.39,96.06L114.49,97.07L115.29,98.21L115.39,99.27L117.49,101.02L117.59,101.02L118.49,101.49L118.59,103.02L120.18,104.62L120.28,104.62L120.88,106.52L120.98,108.43L121.18,108.67L121.28,111.34L123.28,111.34L123.38,112.9L124.28,114.08L124.38,114.08L126.67,114.46L126.77,116.11L128.07,118.8L128.17,118.8L129.07,123.2L129.17,123.2L130.27,123.65L130.36,124.33L130.86,124.33L130.96,128.86L131.96,128.93L132.06,130.13L133.16,130.57L133.26,131.93L134.76,132.31L134.86,133.61L135.06,133.61L135.16,134.46L135.36,134.46L135.46,135.77L136.05,136.48L136.15,138.26L137.05,139.67L137.15,139.67L138.15,139.89L138.25,141.25L138.75,141.4L138.85,143.35L139.05,143.35L139.15,144.13L139.95,144.13L140.05,145.82L141.64,152.84L141.74,152.84L142.04,152.84L142.14,153.85L144.04,154.55L144.14,155.81L145.54,155.81L145.64,156.69L145.94,156.69L146.04,161.04L146.74,161.04L146.84,162.5L148.13,162.94L148.23,163.49L149.13,167.71L149.23,167.71L150.73,167.78L150.83,169.42L152.52,171.19L152.62,171.19L154.82,177L154.92,177L156.82,183.41L156.92,183.41L157.12,183.41L157.22,184.43L158.61,184.7L158.71,186.17L159.91,186.83L160.01,187.42L161.11,189.79L161.21,191.26L162.01,192.96L162.11,192.96L163.01,195.18L163.11,195.18L163.31,195.18L163.41,196.15L163.8,196.9L163.9,198.54L164.8,198.71L164.9,198.71L165.8,199.64L165.9,199.64L166.1,199.64L166.2,201.04L166.4,201.04L166.5,202.96L167.3,203.33L167.4,205.16L167.7,205.16L167.8,206.42L168.8,207.09L168.9,209.52L169.99,209.95L170.09,210.48L170.29,210.48L170.39,211.87L170.79,212.06L170.89,215.2L172.09,219.29L172.19,219.29L173.19,220.73L173.29,223.46L173.59,223.68L173.69,226.61L173.89,226.61L173.99,228.44L174.78,228.44L174.88,230.28L175.38,230.99L175.48,233.12L176.28,234.23L176.38,234.69L177.88,239.48L177.98,239.48L178.98,243.54L179.08,243.54L179.58,243.82L179.68,244.99L179.98,244.99L180.08,247.03L180.37,247.03L180.47,249.72L181.07,249.72L181.17,250.9L181.57,250.9L181.67,254.19L182.77,254.19L182.87,256.94L183.57,256.94L183.67,262.1L186.56,262.18L186.66,263.77L187.26,263.77L187.36,264.89L188.26,265.11L188.36,267.33L189.16,267.8L189.26,268.22L191.06,273.69L191.16,273.69L191.95,275.94L192.05,275.94L192.85,277.86L192.95,277.86L193.25,278.1L193.35,279.61L193.65,280.11L193.75,280.39L194.65,280.83L194.75,281.39L195.65,283.82L195.75,283.82L196.45,283.82L196.55,284.75L196.75,284.75L196.84,285.94L197.34,285.94L197.44,287.03L198.14,287.66L198.24,288.65L199.54,292.93L199.64,292.93L200.44,292.93L200.54,293.71L201.54,297.45L201.64,297.45L202.83,300.04L202.93,300.04L203.93,300.09L204.03,301.75L204.23,301.75L204.33,303.92L499,303.92" style="vector-effect: none; fill: none; stroke: rgb(0, 0, 255); stroke-opacity: 1; stroke-width: 2px; opacity: 1;"/></g><g class="points"/><g class="text"/></g><g class="trace scatter trace7fdfb6" style="stroke-miterlimit: 2; opacity: 0.05;"><g class="fills"/><g class="errorbars"/><g class="lines"><path class="js-line" d="M0,17.1L0.4,17.1L0.5,17.93L1.4,19.43L1.5,21.31L3.49,21.75L3.59,23.55L6.69,23.73L6.79,24.6L9.88,25.08L9.98,25.59L12.08,26.11L12.18,27.21L14.77,27.61L14.87,28.19L17.17,28.9L17.27,28.9L19.17,28.9L19.27,30.1L30.05,30.55L30.15,31.37L30.45,31.37L30.54,34.5L36.33,34.75L36.43,37.79L42.12,37.79L42.22,39.69L66.38,40.08L66.48,40.94L66.78,40.94L66.88,43.35L68.18,43.35L68.28,44.13L74.37,44.13L74.47,48.7L77.46,48.7L77.56,51.48L80.45,51.48L80.55,52.31L81.15,53.04L81.25,53.07L82.15,53.14L82.25,54.84L82.45,54.98L82.55,56.1L83.45,59.37L83.55,59.37L85.05,59.49L85.15,61.23L86.34,61.37L86.44,62.49L89.24,62.85L89.34,63.27L90.14,65.15L90.24,65.15L93.13,65.7L93.23,68.36L94.13,68.36L94.23,70.73L95.23,71.03L95.33,71.84L97.03,71.96L97.12,74.18L98.82,74.71L98.92,76.05L99.72,77.56L99.82,77.56L100.82,78.53L100.92,78.53L101.82,82.3L101.92,82.3L103.11,83.05L103.21,86.35L104.61,86.84L104.71,87.61L105.11,87.99L105.21,89.58L106.21,89.58L106.31,91.42L107.61,91.65L107.71,92.96L108.2,92.96L108.3,93.98L109.1,94.98L109.2,94.98L109.4,94.98L109.5,96.19L110.4,99.17L110.5,99.17L112.5,99.17L112.6,99.97L113.89,100.58L113.99,104.11L115.49,104.49L115.59,105.01L115.79,105.01L115.89,106.53L116.39,106.54L116.49,107.33L117.09,107.57L117.19,109.29L117.89,109.6L117.99,110.85L118.19,110.85L118.29,113.54L119.09,114.06L119.19,114.06L122.48,122.82L122.58,126.89L123.98,127L124.08,130.09L126.07,130.81L126.17,131.09L127.37,132.19L127.47,133.97L128.17,133.97L128.27,135.29L129.77,135.37L129.87,137.26L131.36,137.3L131.46,138.19L132.36,139.74L132.46,139.74L133.26,139.74L133.36,142.86L134.66,143.52L134.76,144.03L135.66,144.12L135.76,144.8L136.45,144.8L136.55,146.35L138.35,146.89L138.45,147.3L139.35,151.54L139.45,151.54L139.95,151.54L140.05,153.43L142.34,153.43L142.44,156.21L142.94,156.45L143.04,157.58L143.44,157.58L143.54,160.84L145.94,160.95L146.04,162.45L146.74,162.74L146.84,163.29L147.03,163.29L147.13,165.27L147.33,165.27L147.43,166.32L148.03,166.32L148.13,167.45L149.03,167.82L149.13,168.99L150.03,169.13L150.13,172.36L151.83,172.36L151.93,174.92L153.92,175.39L154.02,177.43L154.62,177.43L154.72,178.42L154.92,178.42L155.02,179.39L155.62,179.55L155.72,181.77L156.92,183.79L157.02,183.79L157.92,187.47L158.02,187.47L158.51,187.47L158.61,189.89L160.11,190.52L160.21,190.69L160.71,190.69L160.81,192.52L161.31,192.75L161.41,193.83L162.31,193.83L162.41,195.81L164.2,196.53L164.3,196.98L165.4,198.64L165.5,198.64L166.5,199.45L166.6,202.69L168.1,202.91L168.2,203.48L169.59,204.1L169.69,204.46L170.59,208.09L170.69,208.09L171.09,208.81L171.19,211.66L171.99,211.92L172.09,214.21L172.89,214.5L172.99,215.35L173.99,221.64L174.09,221.64L175.38,226.19L175.48,226.61L175.88,226.83L175.98,227.49L176.48,227.49L176.58,230.13L178.08,230.71L178.18,230.9L179.98,238.41L180.08,238.41L181.27,241.1L181.37,241.1L181.77,241.3L181.87,242.56L183.07,244.03L183.17,245.32L184.57,246.06L184.67,246.08L184.97,246.83L185.07,247.31L186.56,249.44L186.66,250.15L187.46,250.16L187.56,251.03L188.46,252.33L188.56,252.33L189.06,252.69L189.16,253.82L189.56,254.52L189.66,255.82L189.96,256.24L190.06,257.47L190.46,257.47L190.56,259.13L191.95,259.3L192.05,260L192.95,262.62L193.05,262.62L193.75,262.62L193.85,264.44L194.75,266.07L194.85,266.07L195.95,269.4L196.05,269.57L196.55,269.67L196.65,275.29L198.14,275.76L198.24,277.4L199.14,281.28L199.24,281.28L199.84,281.28L199.94,282.07L200.74,282.52L200.84,286.23L201.74,286.41L201.84,287.86L202.14,287.86L202.24,289.14L203.83,289.59L203.93,290.39L204.73,294.17L204.83,294.17L205.43,294.66L205.53,298.03L206.23,298.64L206.33,299.05L206.83,299.31L206.93,300.9L207.43,300.9L207.53,301.75L207.92,301.81L208.02,302.76L208.82,303.92L208.92,303.92L499,303.92" style="vector-effect: none; fill: none; stroke: rgb(0, 0, 255); stroke-opacity: 1; stroke-width: 2px; opacity: 1;"/></g><g class="points"/><g class="text"/></g><g class="trace scatter trace47db04" style="stroke-miterlimit: 2; opacity: 0.05;"><g class="fills"/><g class="errorbars"/><g class="lines"><path class="js-line" d="M0,16L1,18.18L1.1,18.18L1.9,18.88L2,19.1L4.39,19.85L4.49,20.26L6.79,21.49L6.89,22.03L11.28,22.55L11.38,22.92L14.17,23.45L14.27,24.3L17.67,24.66L17.77,25.62L19.96,25.62L20.06,26.83L24.76,26.83L24.86,29.47L36.53,30.08L36.63,30.43L39.33,30.43L39.43,32.35L47.12,32.49L47.21,33.11L49.11,33.11L49.21,35.25L50.01,36.55L50.11,36.55L53.7,36.55L53.8,40.88L56.1,40.88L56.2,41.89L63.29,42.33L63.39,43.01L63.59,43.01L63.69,44.41L64.58,44.99L64.68,45.92L66.58,46.21L66.68,47.67L67.48,48.08L67.58,53.22L71.27,53.55L71.37,55.31L71.67,55.31L71.77,58.56L73.77,58.56L73.87,60.06L75.46,60.15L75.56,60.84L77.36,61.39L77.46,61.76L78.06,62.35L78.16,62.56L78.96,65.44L79.06,65.44L80.45,65.44L80.55,66.76L80.95,66.76L81.05,67.6L82.15,68.25L82.25,68.39L84.65,69.05L84.75,69.42L85.55,71.39L85.65,71.39L86.94,71.95L87.04,72.97L88.04,74.2L88.14,74.2L88.44,74.2L88.54,76.89L90.34,77.52L90.44,77.98L91.44,77.98L91.53,78.97L92.33,80.54L92.43,80.54L93.83,80.54L93.93,82.02L94.43,82.33L94.53,84.09L96.53,84.76L96.63,85.6L97.42,87.17L97.52,87.17L98.62,87.45L98.72,88.27L98.92,88.27L99.02,89.05L101.02,89.05L101.12,90.52L103.11,91.26L103.21,91.46L104.11,93.48L104.21,93.48L104.41,93.48L104.51,94.37L105.41,95.04L105.51,96.2L106.41,96.58L106.51,96.58L107.51,98.2L107.61,98.53L108.8,104.16L108.9,104.16L109.6,104.16L109.7,105.7L112,106.05L112.1,108.63L112.8,108.63L112.9,110.1L114.49,110.73L114.59,111.07L114.99,111.43L115.09,114.45L115.99,114.45L116.09,116.56L116.29,116.56L116.39,118.37L116.99,118.37L117.09,120.79L117.89,122.3L117.99,122.3L118.39,122.3L118.49,124.89L120.18,124.89L120.28,127.76L120.58,127.76L120.68,128.91L121.38,128.91L121.48,129.99L122.18,130.58L122.28,134.94L123.28,134.94L123.38,135.82L124.87,136.14L124.97,138.29L126.57,138.29L126.67,140.16L127.67,140.66L127.77,142.98L128.57,145.5L128.67,145.5L130.17,145.84L130.27,148.35L131.36,148.57L131.46,150.5L132.36,150.5L132.46,151.46L132.86,151.46L132.96,152.74L133.76,153.44L133.86,154.21L134.96,155.34L135.06,156.07L136.05,156.07L136.15,157.3L136.55,157.3L136.65,158.3L137.95,158.59L138.05,161.11L139.95,161.43L140.05,162.41L140.25,162.41L140.35,163.57L140.65,163.57L140.75,165.3L141.74,165.64L141.84,166.6L143.04,167.14L143.14,167.96L143.54,168.58L143.64,169.04L143.84,169.04L143.94,170.07L144.54,170.79L144.64,170.96L145.84,173.17L145.94,173.17L146.34,173.42L146.44,176.45L148.03,176.49L148.13,177.81L148.93,178.21L149.03,178.71L149.33,178.71L149.43,180.92L150.23,185.01L150.33,185.01L151.23,185.01L151.33,186.18L151.63,186.18L151.73,187.81L152.52,188.3L152.62,188.99L153.22,189.06L153.32,190.83L154.12,191.07L154.22,196.09L155.72,196.56L155.82,197.19L156.12,197.19L156.22,202.04L158.71,202.51L158.81,203.62L159.71,205.93L159.81,205.93L161.21,208.67L161.31,208.67L162.11,209.61L162.21,209.61L163.11,211.76L163.21,211.76L163.6,211.76L163.7,213.46L164,213.46L164.1,214.23L165,218.71L165.1,218.71L166,218.95L166.1,219.84L166.9,219.84L167,221.85L167.3,221.85L167.4,222.82L168.6,224.84L168.7,226.81L169.39,226.81L169.49,228.07L169.69,228.07L169.79,228.89L170.99,229.47L171.09,229.66L171.29,229.66L171.39,232.65L172.99,233.2L173.09,234.75L173.89,235.45L173.99,237.34L174.68,237.65L174.78,238.72L175.78,239.35L175.88,239.98L176.08,240.45L176.18,242.64L177.28,244.26L177.38,244.26L177.78,244.26L177.88,245.06L178.98,246.81L179.08,251.79L179.88,251.79L179.98,254.78L181.97,255.06L182.07,255.77L183.27,260.88L183.37,260.88L184.37,262.69L184.47,265.11L185.47,265.34L185.57,266.91L185.76,267.22L185.86,269.2L186.46,269.2L186.56,272.61L187.96,272.61L188.06,273.83L188.66,273.83L188.76,275.97L189.66,277.26L189.76,277.26L189.96,277.26L190.06,278.27L191.06,282.45L191.16,282.45L193.35,289.6L193.45,289.74L195.65,293.71L195.75,293.71L196.55,294.43L196.65,294.99L197.24,295.45L197.34,297.88L198.44,298.03L198.54,299.76L200.24,300.09L200.34,301.75L201.24,302.76L201.34,302.76L216.71,302.76L216.81,303.92L499,303.92" style="vector-effect: none; fill: none; stroke: rgb(0, 0, 255); stroke-opacity: 1; stroke-width: 2px; opacity: 1;"/></g><g class="points"/><g class="text"/></g><g class="trace scatter trace71aff8" style="stroke-miterlimit: 2; opacity: 0.05;"><g class="fills"/><g class="errorbars"/><g class="lines"><path class="js-line" d="M0,16.96L0.2,16.96L0.3,17.81L0.8,17.81L0.9,18.77L1.9,18.99L2,20.29L2.99,21.63L3.09,21.63L4.39,22.28L4.49,23.21L7.39,23.36L7.49,24.12L8.38,24.61L8.48,25.16L10.58,25.82L10.68,26.03L11.88,26.43L11.98,26.96L12.98,27.47L13.08,27.77L15.77,27.77L15.87,31.52L27.65,31.64L27.75,35.57L58.1,35.73L58.2,42.68L68.38,42.68L68.48,44.35L73.57,44.35L73.67,49.88L76.26,50.4L76.36,54.26L77.76,54.56L77.86,55.08L78.26,55.08L78.36,55.85L78.76,56.48L78.86,58.1L79.36,60.45L79.46,62.43L81.25,62.87L81.35,64.73L81.75,64.73L81.85,69.05L83.45,69.46L83.55,70.45L85.05,78.16L85.15,78.16L86.34,78.16L86.44,82.16L88.94,82.22L89.04,84.52L90.24,86.84L90.34,86.84L90.74,86.84L90.84,91.16L91.73,91.16L91.83,95.11L93.73,95.11L93.83,96.6L94.73,97.94L94.83,97.94L95.73,100.43L95.83,100.43L97.03,100.71L97.12,101.22L99.62,101.82L99.72,102.07L108.8,102.85L108.9,102.86L499,102.93" style="vector-effect: none; fill: none; stroke: rgb(0, 0, 255); stroke-opacity: 1; stroke-width: 2px; opacity: 1;"/></g><g class="points"/><g class="text"/></g><g class="trace scatter tracec0352e" style="stroke-miterlimit: 2; opacity: 0.05;"><g class="fills"/><g class="errorbars"/><g class="lines"><path class="js-line" d="M0,16.44L0.3,16.76L0.4,18.94L1.5,19.35L1.6,22.74L2.3,22.95L2.4,23.57L2.89,23.57L2.99,26.75L7.89,27.37L7.99,27.68L15.87,28.06L15.97,29.08L18.77,29.08L18.87,30.27L19.86,30.29L19.96,31.14L21.36,31.14L21.46,32.33L25.05,32.42L25.15,33.56L41.13,34.23L41.23,38L43.92,38L44.02,38.97L49.81,38.99L49.91,39.89L52.9,40.14L53,40.97L54.7,40.97L54.8,42.53L57.8,42.53L57.9,43.48L62.59,43.91L62.69,45.2L63.49,45.2L63.59,46.28L64.38,46.28L64.48,47.93L65.48,48.55L65.58,49.59L66.58,49.93L66.68,49.93L67.18,50.2L67.28,51.99L67.58,51.99L67.68,53.86L68.48,55.04L68.58,55.04L70.07,55.04L70.17,56.14L71.27,56.14L71.37,57.78L72.57,57.78L72.67,60.6L74.47,61.11L74.57,63.22L77.66,63.22L77.76,64.63L78.16,64.63L78.26,66.31L80.26,66.76L80.36,68.44L82.35,68.44L82.45,70.04L83.85,70.49L83.95,71.74L86.44,72.05L86.54,72.74L87.14,72.83L87.24,75.6L89.44,76.13L89.54,76.65L90.84,80.23L90.94,80.23L92.43,80.32L92.53,82.11L92.93,82.48L93.03,83.22L93.83,84.66L93.93,84.66L96.13,85.03L96.23,86.6L97.52,86.6L97.62,88.12L100.42,88.12L100.52,91.25L101.32,91.25L101.42,93.86L102.52,93.86L102.61,94.69L103.41,94.69L103.51,96.32L104.51,96.32L104.61,97.45L106.01,97.69L106.11,98.4L106.91,99.65L107.01,99.65L107.91,102.04L108.01,102.04L108.4,102.04L108.5,104.55L109.9,104.56L110,105.81L110.8,105.81L110.9,107L111.3,107.26L111.4,110.02L111.9,110.17L112,111.4L112.9,114.18L113,114.18L113.79,114.18L113.89,115.87L118.49,115.9L118.59,117.33L119.09,117.82L119.19,119.57L119.38,119.57L119.48,122.03L120.38,122.03L120.48,122.98L121.68,122.99L121.78,124.15L122.68,125.87L122.78,125.87L123.58,126.11L123.68,126.68L123.98,127.03L124.08,127.81L124.38,127.81L124.48,128.86L127.57,133.65L127.67,133.65L128.47,133.69L128.57,136.87L131.56,137.51L131.66,140.57L131.96,140.57L132.06,144.01L134.06,144.01L134.16,147.36L135.16,147.36L135.26,148.26L135.76,148.26L135.85,150.55L137.35,150.92L137.45,151.83L139.15,157.07L139.25,157.07L139.45,157.07L139.55,158.31L139.95,158.31L140.05,160.59L140.95,160.59L141.05,161.7L141.25,161.7L141.35,162.5L142.34,163.43L142.44,163.43L143.84,167.44L143.94,167.44L145.14,173.73L145.24,173.73L146.44,174.28L146.54,174.95L150.13,182.97L150.23,182.97L151.43,183.59L151.53,184.45L152.03,184.63L152.13,185.59L152.52,186.14L152.62,189.99L152.82,189.99L152.92,191.87L153.72,192.53L153.82,193.46L154.42,193.88L154.52,195.36L155.62,196.11L155.72,196.62L156.42,197.12L156.52,198.5L157.02,198.83L157.12,200.89L158.02,200.89L158.11,202.16L158.51,202.16L158.61,204.4L161.81,210.13L161.91,210.13L162.91,211.42L163.01,211.42L163.31,212.06L163.41,213.98L164.3,213.98L164.4,215.78L165.3,215.8L165.4,217.39L166.2,219.73L166.3,219.73L168.3,221.28L168.4,222.95L168.6,222.95L168.7,225.4L169.99,225.4L170.09,226.84L171.09,226.85L171.19,231.4L175.08,232.04L175.18,233.25L175.38,233.25L175.48,234.2L176.08,234.92L176.18,235.32L176.98,235.46L177.08,236.23L178.18,237.97L178.28,239.59L179.18,240.26L179.28,240.76L180.47,243.4L180.57,243.4L181.07,243.94L181.17,245.16L181.77,245.76L181.87,248.64L183.77,248.64L183.87,250.31L184.57,250.31L184.67,251.13L185.37,251.13L185.47,252.23L185.76,252.23L185.86,253.01L187.06,255.76L187.16,255.76L187.46,255.76L187.56,259.48L188.66,260.84L188.76,262.35L188.96,262.35L189.06,263.15L189.56,263.51L189.66,264.01L190.96,267.55L191.06,267.55L191.55,267.55L191.65,269.99L192.45,269.99L192.55,273.43L193.35,273.66L193.45,274.71L193.65,274.71L193.75,277.66L194.65,277.83L194.75,280.4L195.55,280.4L195.65,282.48L196.45,282.48L196.55,283.92L197.24,284.65L197.34,284.86L197.64,285.14L197.74,286.22L199.74,289.07L199.84,291.01L201.04,291.56L201.14,293.27L202.34,295.48L202.43,295.48L203.93,295.48L204.03,299.27L205.43,299.27L205.53,300.85L206.93,300.9L207.03,301.81L207.23,301.81L207.33,303.92L499,304" style="vector-effect: none; fill: none; stroke: rgb(0, 0, 255); stroke-opacity: 1; stroke-width: 2px; opacity: 1;"/></g><g class="points"/><g class="text"/></g><g class="trace scatter traceef9e45" style="stroke-miterlimit: 2; opacity: 0.05;"><g class="fills"/><g class="errorbars"/><g class="lines"><path class="js-line" d="M0,18.68L0.8,19.98L0.9,19.98L1.7,21.6L1.8,21.6L3.49,22.09L3.59,22.44L6.09,23.06L6.19,23.43L9.98,24.01L10.08,25L11.48,25.1L11.58,26.1L15.37,26.76L15.47,27.15L24.06,27.6L24.16,27.94L34.94,28.68L35.04,29.06L46.32,29.7L46.42,31.67L58.59,31.98L58.69,32.55L62.09,33.01L62.19,34.16L63.19,34.26L63.29,35.96L70.47,36.59L70.57,36.94L73.87,37.42L73.97,38.18L75.76,38.91L75.86,38.97L77.16,39.51L77.26,40.56L79.16,40.83L79.26,41.62L79.56,41.62L79.66,43.81L80.26,43.81L80.36,44.78L81.25,44.78L81.35,45.79L83.65,45.79L83.75,47.13L85.45,47.48L85.55,48.31L86.84,48.46L86.94,50.46L87.84,50.46L87.94,53.25L89.14,53.61L89.24,57.29L92.33,57.97L92.43,58.49L94.53,59.04L94.63,59.38L95.23,60.75L95.33,64.96L99.42,65.54L99.52,66.35L100.12,66.35L100.22,67.18L102.71,67.41L102.81,68.23L103.41,68.23L103.51,69.71L104.31,72L104.41,72L104.81,72L104.91,73.04L105.71,73.64L105.81,74.68L106.21,75.03L106.31,75.5L107.61,75.98L107.71,77.95L108.11,77.95L108.2,78.75L109.5,84.17L109.6,84.17L110.1,84.3L110.2,84.97L110.7,84.97L110.8,86.97L112.5,87.63L112.6,88.56L114.29,88.56L114.39,89.5L115.39,90L115.49,90.9L116.79,93.87L116.89,95.29L118.49,95.29L118.59,96.88L119.68,97.02L119.78,97.94L120.18,97.94L120.28,99.01L120.68,99.01L120.78,99.92L122.68,99.92L122.78,102.11L124.48,102.11L124.58,104L125.97,104L126.07,105.69L126.97,107.61L127.07,107.61L128.37,107.68L128.47,109.31L128.87,109.31L128.97,110.75L129.87,110.75L129.97,112.21L130.27,112.21L130.36,113.36L131.26,113.36L131.36,114.35L132.26,115.85L132.36,115.85L132.66,115.85L132.76,116.81L133.66,116.99L133.76,118.62L135.16,120.06L135.26,123.16L136.15,123.5L136.25,124.19L138.35,129.59L138.45,129.59L139.25,132.32L139.35,132.32L140.15,132.32L140.25,133.21L141.15,134.9L141.25,135.13L141.74,135.42L141.84,136.82L142.24,137.29L142.34,137.9L144.44,143.93L144.54,149.53L148.03,149.77L148.13,151.4L149.93,151.95L150.03,153.11L150.23,153.11L150.33,153.95L151.43,153.95L151.53,155.7L152.43,156.24L152.52,162.68L154.52,162.68L154.62,163.72L155.42,164.3L155.52,165.25L156.82,165.91L156.92,166.48L157.22,166.48L157.32,168.01L157.52,168.01L157.62,170.24L158.81,170.24L158.91,171.72L159.31,171.72L159.41,174.09L161.01,174.09L161.11,175.93L162.01,175.93L162.11,176.82L162.91,178.29L163.01,178.29L163.51,178.29L163.6,179.14L164.2,179.14L164.3,180.63L164.7,180.63L164.8,182.81L166.8,187.01L166.9,189.5L167.8,189.5L167.9,190.69L168.4,190.69L168.5,194.26L169.99,194.43L170.09,199.52L172.79,200.12L172.89,201.34L173.39,201.34L173.49,202.3L175.58,207.03L175.68,207.03L176.58,210.69L176.68,210.69L177.68,210.69L177.78,212.01L178.78,212.46L178.88,213.99L179.68,215.45L179.78,216.17L180.87,219.11L180.97,223.18L182.27,223.18L182.37,224.17L182.67,224.17L182.77,226L183.57,227.49L183.67,227.49L184.27,227.49L184.37,229.01L185.37,232.43L185.47,232.84L185.67,232.84L185.76,236.45L186.46,236.98L186.56,237.91L188.36,240.3L188.46,241.39L188.66,241.39L188.76,242.98L190.06,243.53L190.16,244.48L191.16,245.3L191.26,245.3L192.35,251.06L192.45,251.06L192.65,251.06L192.75,252.55L193.55,252.55L193.65,254.88L195.35,259.83L195.45,259.83L195.75,259.83L195.85,264.98L196.65,264.98L196.75,266.42L197.14,266.42L197.24,267.54L197.94,268.2L198.04,269.83L198.64,273.21L198.74,275.62L199.64,275.62L199.74,277.44L200.04,277.44L200.14,279.74L201.04,279.79L201.14,280.95L202.14,283.41L202.24,283.41L203.13,286.11L203.23,286.11L204.13,286.58L204.23,287.79L205.13,292.85L205.23,292.85L205.53,292.85L205.63,294.06L205.83,294.33L205.93,297.81L206.83,297.99L206.93,300.04L207.23,300.04L207.33,300.85L207.92,300.85L208.02,301.81L208.22,301.81L208.32,302.69L209.12,302.83L209.22,303.92L499,304" style="vector-effect: none; fill: none; stroke: rgb(0, 0, 255); stroke-opacity: 1; stroke-width: 2px; opacity: 1;"/></g><g class="points"/><g class="text"/></g><g class="trace scatter tracee5b7ee" style="stroke-miterlimit: 2; opacity: 0.05;"><g class="fills"/><g class="errorbars"/><g class="lines"><path class="js-line" d="M0,17.06L0.8,18.29L0.9,18.29L1.9,21.09L2,21.09L3.19,21.8L3.29,22.09L3.69,22.09L3.79,23.71L4.19,23.71L4.29,24.51L8.58,24.61L8.68,24.61L9.28,24.68L9.38,25.51L19.66,25.51L19.76,26.33L38.13,26.89L38.23,27.43L44.02,28.06L44.12,28.39L50.51,29.12L50.61,29.22L53.4,29.82L53.5,30.08L57.7,30.29L57.8,30.88L71.47,31.42L71.57,31.69L74.17,32.44L74.27,32.63L75.66,32.72L75.76,33.57L77.96,34.2L78.06,34.53L78.96,35.66L79.06,35.66L79.76,36.05L79.86,36.48L80.06,36.48L80.16,37.38L81.35,40.59L81.45,40.59L82.35,40.59L82.45,43.27L85.05,43.43L85.15,44.43L87.24,45.19L87.34,48.49L89.04,48.49L89.14,49.98L90.94,50.22L91.04,51.26L91.53,51.26L91.63,52.96L92.53,54.48L92.63,54.48L95.53,55.08L95.63,55.75L96.43,57.88L96.53,57.88L97.82,57.88L97.92,59.63L99.72,60.28L99.82,60.82L100.62,64.16L100.72,64.16L102.12,64.16L102.22,65.06L102.81,65.06L102.91,66.04L103.11,66.04L103.21,66.82L103.41,66.82L103.51,68.17L104.41,68.17L104.51,69.02L105.91,70.72L106.01,72.1L107.11,74.64L107.21,74.64L108.8,75.21L108.9,75.98L109.1,75.98L109.2,79.1L110.6,79.1L110.7,80.48L112.5,81.01L112.6,83.91L113.4,83.91L113.5,87.97L116.59,88.7L116.69,89.8L117.59,89.8L117.69,90.85L118.99,91.28L119.09,92.47L119.48,92.47L119.58,94.52L119.88,94.52L119.98,95.41L120.38,95.41L120.48,96.41L121.48,96.41L121.58,98.07L121.98,98.07L122.08,98.99L122.98,99.71L123.08,99.71L123.88,100.54L123.98,103.65L124.97,103.7L125.07,105.13L125.57,107.29L125.67,111.57L127.17,111.7L127.27,113.1L128.17,115.06L128.27,115.06L129.07,117.7L129.17,117.7L129.47,117.7L129.57,118.49L130.46,119.66L130.56,119.66L131.46,121.69L131.56,121.69L131.86,121.69L131.96,125.31L133.36,125.93L133.46,126.4L134.56,129.07L134.66,129.07L135.36,129.07L135.46,131.09L136.35,131.09L136.45,132.73L137.55,132.87L137.65,135.04L138.35,135.04L138.45,136.65L138.65,136.65L138.75,139.89L141.05,140.23L141.15,145.62L142.54,145.7L142.64,147.51L143.34,147.51L143.44,149.79L145.74,150.38L145.84,151.84L146.24,151.84L146.34,153.33L147.13,160.77L147.23,160.77L148.53,161.03L148.63,163.2L148.93,163.2L149.03,166.17L149.23,166.17L149.33,167.86L149.53,167.86L149.63,169.82L149.93,169.82L150.03,171.35L151.83,171.35L151.93,172.44L152.43,172.44L152.52,173.86L152.82,173.86L152.92,176.13L154.32,176.73L154.42,179.18L154.92,179.18L155.02,180.54L156.52,186.57L156.62,186.57L157.52,186.57L157.62,187.94L158.81,188.53L158.91,189.43L159.21,189.69L159.31,193.39L160.01,193.39L160.11,194.39L161.31,194.39L161.41,195.74L163.11,198.95L163.21,200.4L163.41,200.45L163.51,201.8L164.4,204.37L164.5,204.37L165.9,208.56L166,208.56L167.1,209.29L167.2,210.11L167.4,210.11L167.5,210.91L168.9,215.97L169,215.97L169.89,216.08L169.99,222.33L171.99,222.78L172.09,227.28L175.18,227.57L175.28,229.24L175.78,229.24L175.88,230.52L176.88,234.39L176.98,234.39L177.78,239.18L177.88,239.18L178.98,239.18L179.08,240.16L179.98,241.44L180.08,241.44L181.57,246.84L181.67,246.84L182.67,251.08L182.77,251.08L183.77,252.75L183.87,253.11L185.17,262.8L185.27,262.8L186.16,263.92L186.26,263.92L186.46,263.97L186.56,266.13L186.76,266.13L186.86,269.35L187.96,269.83L188.06,270.2L188.96,274.42L189.06,274.42L189.36,274.6L189.46,275.87L189.76,276L189.86,278.34L190.56,278.34L190.66,279.8L191.06,280.44L191.16,281.29L191.35,281.29L191.45,284.62L193.65,285.07L193.75,289.21L194.05,289.21L194.15,290.68L195.25,291.41L195.35,291.69L195.75,293.13L195.85,294.66L196.65,294.66L196.75,295.48L197.44,295.75L197.54,296.39L199.04,297.39L199.14,297.39L499,297.95" style="vector-effect: none; fill: none; stroke: rgb(0, 0, 255); stroke-opacity: 1; stroke-width: 2px; opacity: 1;"/></g><g class="points"/><g class="text"/></g><g class="trace scatter trace4d113a" style="stroke-miterlimit: 2; opacity: 0.05;"><g class="fills"/><g class="errorbars"/><g class="lines"><path class="js-line" d="M0,17.52L1.4,18.6L1.5,20.69L2.1,20.86L2.2,21.77L3.09,21.93L3.19,21.93L5.29,22.6L5.39,22.88L6.39,23.02L6.49,23.02L7.29,23.33L7.39,23.33L8.88,23.51L8.98,24.28L10.78,25.93L10.88,25.93L13.48,26.08L13.58,27.38L21.06,27.88L21.16,28.52L34.14,28.97L34.24,29.55L42.72,30.09L42.82,30.34L44.02,30.7L44.12,31.13L47.31,31.18L47.41,31.96L50.81,32.65L50.91,32.85L51.91,33.27L52.01,34.57L52.9,34.57L53,36.14L56.2,36.14L56.3,38.32L59.49,38.32L59.59,40.03L62.89,40.03L62.99,41.6L64.08,41.6L64.18,42.45L66.68,43.12L66.78,44.91L67.08,44.91L67.18,48.38L67.68,48.38L67.78,50.32L73.27,50.84L73.37,52.65L76.46,53.26L76.56,53.8L77.56,56.69L77.66,56.69L79.06,58.96L79.16,58.96L80.06,59.76L80.16,59.76L81.25,59.84L81.35,60.67L81.55,60.67L81.65,62.55L82.05,62.55L82.15,64.57L83.05,64.57L83.15,65.61L84.65,65.61L84.75,66.69L85.45,66.7L85.55,68L85.94,68L86.04,70.69L86.94,71.24L87.04,72.78L89.64,72.78L89.74,74.49L90.64,75.02L90.74,75.34L91.24,75.34L91.34,77.02L91.93,77.02L92.03,78.79L92.33,78.79L92.43,79.91L93.63,79.91L93.73,81.47L94.93,81.47L95.03,82.33L95.33,82.33L95.43,83.37L97.32,83.37L97.42,85.34L99.22,85.73L99.32,86.53L100.12,86.71L100.22,87.79L100.52,88.15L100.62,89.84L102.02,90.27L102.12,91.99L103.41,92.73L103.51,92.73L104.01,92.73L104.11,95.24L105.21,95.24L105.31,98.43L106.51,98.43L106.61,101.62L108.9,102.12L109,102.47L109.8,102.47L109.9,104.58L111.7,104.58L111.8,105.45L112.9,105.89L113,107.05L113.89,107.05L113.99,108.45L115.19,109.45L115.29,111.2L116.39,111.8L116.49,113.86L117.59,113.86L117.69,115.07L118.59,119.88L118.69,119.88L120.58,120.49L120.68,121.55L121.58,122.93L121.68,122.93L121.88,122.93L121.98,124.73L123.28,124.98L123.38,125.98L124.38,126.67L124.48,128.64L125.37,128.74L125.47,130.61L126.17,130.74L126.27,131.68L127.07,132.49L127.17,133.32L128.17,136.58L128.27,136.58L129.07,138.09L129.17,138.09L131.16,144.43L131.26,144.43L132.56,144.43L132.66,145.91L133.26,146.33L133.36,146.71L133.66,146.71L133.76,147.6L134.76,151.69L134.86,151.69L136.65,151.72L136.75,153.49L137.55,155.81L137.65,155.81L138.15,156.01L138.25,157.38L138.45,157.38L138.55,158.5L138.95,158.5L139.05,159.74L139.95,161.5L140.05,161.5L140.35,161.61L140.45,163.11L140.65,163.11L140.75,166.58L141.05,166.58L141.15,168.38L141.84,168.66L141.94,170.7L143.04,171.45L143.14,171.75L143.84,172.24L143.94,173.19L145.34,175.58L145.44,179.33L145.84,179.33L145.94,180.5L146.64,180.5L146.74,182.42L147.43,182.71L147.53,183.71L148.23,184.19L148.33,185.47L149.13,187.01L149.23,187.01L150.03,190.18L150.13,190.18L150.53,190.25L150.63,193.14L152.33,193.56L152.43,194.63L154.82,200.8L154.92,203.06L155.72,203.06L155.82,204.64L156.62,207.65L156.72,207.65L157.12,207.65L157.22,210.62L158.02,212.07L158.11,212.07L159.61,212.77L159.71,215.56L161.31,215.56L161.41,217.22L161.91,217.58L162.01,218.23L162.31,218.23L162.41,219.6L162.71,219.7L162.81,221.29L163.6,221.96L163.7,221.96L164.6,224.04L164.7,224.38L165.9,229.18L166,229.18L166.8,229.93L166.9,230.28L167.9,231.46L168,231.52L169.1,237.25L169.19,237.25L170.79,237.43L170.89,238.16L171.39,238.16L171.49,239.31L171.79,239.31L171.89,241.34L172.29,242.53L172.39,249.54L174.39,249.54L174.49,250.5L176.88,252.16L176.98,253.17L177.18,253.17L177.28,256.2L178.98,256.67L179.08,258.78L180.27,258.78L180.37,261.57L181.67,262.3L181.77,263.13L182.07,263.13L182.17,263.99L182.77,263.99L182.87,266.17L183.77,266.38L183.87,267.21L184.27,267.21L184.37,271L185.27,271L185.37,271.88L186.36,271.93L186.46,273.67L186.86,273.76L186.96,276.22L187.66,276.39L187.76,278.57L188.46,278.83L188.56,280.27L189.16,280.94L189.26,282.42L190.06,282.93L190.16,283.47L190.86,286.17L190.96,288.36L191.75,288.95L191.85,289.4L192.75,292.95L192.85,292.95L193.35,292.95L193.45,295.09L194.55,295.75L194.65,298.41L195.65,298.68L195.75,299.85L197.64,301.81L197.74,302.76L198.64,302.83L198.74,304L499,304" style="vector-effect: none; fill: none; stroke: rgb(0, 0, 255); stroke-opacity: 1; stroke-width: 2px; opacity: 1;"/></g><g class="points"/><g class="text"/></g></g></g><g class="overplot"/><path class="xlines-above crisp" d="M0,0" style="fill: none;"/><path class="ylines-above crisp" d="M0,0" style="fill: none;"/><g class="overlines-above"/><g class="xaxislayer-above"><g class="xtick"><text text-anchor="middle" x="0" y="433" transform="translate(80,0)" style="font-family: 'Open Sans', verdana, arial, sans-serif; font-size: 12px; fill: rgb(42, 63, 95); fill-opacity: 1; white-space: pre; opacity: 1;">0</text></g><g class="xtick"><text text-anchor="middle" x="0" y="433" style="font-family: 'Open Sans', verdana, arial, sans-serif; font-size: 12px; fill: rgb(42, 63, 95); fill-opacity: 1; white-space: pre; opacity: 1;" transform="translate(179.82,0)">1000</text></g><g class="xtick"><text text-anchor="middle" x="0" y="433" style="font-family: 'Open Sans', verdana, arial, sans-serif; font-size: 12px; fill: rgb(42, 63, 95); fill-opacity: 1; white-space: pre; opacity: 1;" transform="translate(279.64,0)">2000</text></g><g class="xtick"><text text-anchor="middle" x="0" y="433" style="font-family: 'Open Sans', verdana, arial, sans-serif; font-size: 12px; fill: rgb(42, 63, 95); fill-opacity: 1; white-space: pre; opacity: 1;" transform="translate(379.46,0)">3000</text></g><g class="xtick"><text text-anchor="middle" x="0" y="433" style="font-family: 'Open Sans', verdana, arial, sans-serif; font-size: 12px; fill: rgb(42, 63, 95); fill-opacity: 1; white-space: pre; opacity: 1;" transform="translate(479.28,0)">4000</text></g></g><g class="yaxislayer-above"><g class="ytick"><text text-anchor="end" x="79" y="5.25" transform="translate(0,419.3)" style="font-family: 'Open Sans', verdana, arial, sans-serif; font-size: 15px; fill: rgb(42, 63, 95); fill-opacity: 1; white-space: pre; opacity: 1;">10​<tspan style="font-size:70%" dy="-0.6em">−16</tspan><tspan dy="0.42em">​</tspan></text></g><g class="ytick"><text text-anchor="end" x="79" y="4.199999999999999" style="font-family: 'Open Sans', verdana, arial, sans-serif; font-size: 12px; fill: rgb(42, 63, 95); fill-opacity: 1; white-space: pre; opacity: 1;" transform="translate(0,382.92)">10f</text></g><g class="ytick"><text text-anchor="end" x="79" y="4.199999999999999" style="font-family: 'Open Sans', verdana, arial, sans-serif; font-size: 12px; fill: rgb(42, 63, 95); fill-opacity: 1; white-space: pre; opacity: 1;" transform="translate(0,346.53999999999996)">1p</text></g><g class="ytick"><text text-anchor="end" x="79" y="4.199999999999999" style="font-family: 'Open Sans', verdana, arial, sans-serif; font-size: 12px; fill: rgb(42, 63, 95); fill-opacity: 1; white-space: pre; opacity: 1;" transform="translate(0,310.15999999999997)">100p</text></g><g class="ytick"><text text-anchor="end" x="79" y="4.199999999999999" style="font-family: 'Open Sans', verdana, arial, sans-serif; font-size: 12px; fill: rgb(42, 63, 95); fill-opacity: 1; white-space: pre; opacity: 1;" transform="translate(0,273.77)">10n</text></g><g class="ytick"><text text-anchor="end" x="79" y="4.199999999999999" style="font-family: 'Open Sans', verdana, arial, sans-serif; font-size: 12px; fill: rgb(42, 63, 95); fill-opacity: 1; white-space: pre; opacity: 1;" transform="translate(0,237.39)">1μ</text></g><g class="ytick"><text text-anchor="end" x="79" y="4.199999999999999" style="font-family: 'Open Sans', verdana, arial, sans-serif; font-size: 12px; fill: rgb(42, 63, 95); fill-opacity: 1; white-space: pre; opacity: 1;" transform="translate(0,201.01)">100μ</text></g><g class="ytick"><text text-anchor="end" x="79" y="4.199999999999999" style="font-family: 'Open Sans', verdana, arial, sans-serif; font-size: 12px; fill: rgb(42, 63, 95); fill-opacity: 1; white-space: pre; opacity: 1;" transform="translate(0,164.63)">0.01</text></g><g class="ytick"><text text-anchor="end" x="79" y="4.199999999999999" style="font-family: 'Open Sans', verdana, arial, sans-serif; font-size: 12px; fill: rgb(42, 63, 95); fill-opacity: 1; white-space: pre; opacity: 1;" transform="translate(0,128.25)">1</text></g></g><g class="overaxes-above"/></g></g><g class="polarlayer"/><g class="smithlayer"/><g class="ternarylayer"/><g class="geolayer"/><g class="funnelarealayer"/><g class="pielayer"/><g class="iciclelayer"/><g class="treemaplayer"/><g class="sunburstlayer"/><g class="glimages"/><defs id="topdefs-0f878e"><g class="clips"/><clipPath id="legend0f878e"><rect width="99" height="29" x="0" y="0"/></clipPath></defs><g class="layer-above"><g class="imagelayer"/><g class="shapelayer"/></g><g class="infolayer"><g class="legend" pointer-events="all" transform="translate(588.98,100)"><rect class="bg" shape-rendering="crispEdges" style="stroke: rgb(68, 68, 68); stroke-opacity: 1; fill: rgb(255, 255, 255); fill-opacity: 1; stroke-width: 0px;" width="99" height="29" x="0" y="0"/><g class="scrollbox" transform="" clip-path="url(#legend0f878e)"><g class="groups"><g class="traces" transform="translate(0,14.5)" style="opacity: 1;"><text class="legendtext" text-anchor="start" x="40" y="4.680000000000001" style="font-family: 'Open Sans', verdana, arial, sans-serif; font-size: 12px; fill: rgb(42, 63, 95); fill-opacity: 1; white-space: pre;">Best Run</text><g class="layers" style="opacity: 1;"><g class="legendfill"/><g class="legendlines"><path class="js-line" d="M5,0h30" style="fill: none; stroke: rgb(255, 0, 0); stroke-opacity: 1; stroke-width: 2px;"/></g><g class="legendsymbols"><g class="legendpoints"/></g></g><rect class="legendtoggle" x="0" y="-9.5" width="94" height="19" style="fill: rgb(0, 0, 0); fill-opacity: 0;"/></g></g></g><rect class="scrollbar" rx="20" ry="3" width="0" height="0" style="fill: rgb(128, 139, 164); fill-opacity: 1;" x="0" y="0"/></g><g class="g-gtitle"><text class="gtitle" x="35" y="50" text-anchor="start" dy="0em" style="font-family: 'Open Sans', verdana, arial, sans-serif; font-size: 17px; fill: rgb(42, 63, 95); opacity: 1; font-weight: normal; white-space: pre;">Fitness history | COMDE - P1</text></g><g class="g-xtitle"><text class="xtitle" x="329.5" y="460.3" text-anchor="middle" style="font-family: 'Open Sans', verdana, arial, sans-serif; font-size: 14px; fill: rgb(42, 63, 95); opacity: 1; font-weight: normal; white-space: pre;">Generation</text></g><g class="g-ytitle" transform="translate(0.3154296875,0)"><text class="ytitle" transform="rotate(-90,13.684375000000003,260)" x="13.684375000000003" y="260" text-anchor="middle" style="font-family: 'Open Sans', verdana, arial, sans-serif; font-size: 14px; fill: rgb(42, 63, 95); opacity: 1; font-weight: normal; white-space: pre;">Fitness (log scale)</text></g></g></svg>