<svg class="main-svg" xmlns="http://www.w3.org/2000/svg" xmlns:xlink="http://www.w3.org/1999/xlink" width="700" height="500" style="" viewBox="0 0 700 500"><rect x="0" y="0" width="700" height="500" style="fill: rgb(255, 255, 255); fill-opacity: 1;"/><defs id="defs-3cb1d8"><g class="clips"><clipPath id="clip3cb1d8xyplot" class="plotclip"><rect width="503" height="320"/></clipPath><clipPath class="axesclip" id="clip3cb1d8x"><rect x="80" y="0" width="503" height="500"/></clipPath><clipPath class="axesclip" id="clip3cb1d8y"><rect x="0" y="100" width="700" height="320"/></clipPath><clipPath class="axesclip" id="clip3cb1d8xy"><rect x="80" y="100" width="503" height="320"/></clipPath></g><g class="gradients"/><g class="patterns"/></defs><g class="bglayer"><rect class="bg" x="80" y="100" width="503" height="320" style="fill: rgb(229, 236, 246); fill-opacity: 1; stroke-width: 0;"/></g><g class="layer-below"><g class="imagelayer"/><g class="shapelayer"/></g><g class="cartesianlayer"><g class="subplot xy"><g class="layer-subplot"><g class="shapelayer"/><g class="imagelayer"/></g><g class="minor-gridlayer"><g class="x"/><g class="y"/></g><g class="gridlayer"><g class="x"><path class="xgrid crisp" transform="translate(180.62,0)" d="M0,100v320" style="stroke: rgb(255, 255, 255); stroke-opacity: 1; stroke-width: 1px;"/><path class="xgrid crisp" transform="translate(281.24,0)" d="M0,100v320" style="stroke: rgb(255, 255, 255); stroke-opacity: 1; stroke-width: 1px;"/><path class="xgrid crisp" transform="translate(381.86,0)" d="M0,100v320" style="stroke: rgb(255, 255, 255); stroke-opacity: 1; stroke-width: 1px;"/><path class="xgrid crisp" transform="translate(482.48,0)" d="M0,100v320" style="stroke: rgb(255, 255, 255); stroke-opacity: 1; stroke-width: 1px;"/></g><g class="y"><path class="ygrid crisp" transform="translate(0,394.41)" d="M80,0h503" style="stroke: rgb(255, 255, 255); stroke-opacity: 1; stroke-width: 1px;"/><path class="ygrid crisp" transform="translate(0,362.81)" d="M80,0h503" style="stroke: rgb(255, 255, 255); stroke-opacity: 1; stroke-width: 1px;"/><path class="ygrid crisp" transform="translate(0,340.39)" d="M80,0h503" style="stroke: rgb(255, 255, 255); stroke-opacity: 1; stroke-width: 1px;"/><path class="ygrid crisp" transform="translate(0,323)" d="M80,0h503" style="stroke: rgb(255, 255, 255); stroke-opacity: 1; stroke-width: 1px;"/><path class="ygrid crisp" transform="translate(0,308.78999999999996)" d="M80,0h503" style="stroke: rgb(255, 255, 255); stroke-opacity: 1; stroke-width: 1px;"/><path class="ygrid crisp" transform="translate(0,296.78)" d="M80,0h503" style="stroke: rgb(255, 255, 255); stroke-opacity: 1; stroke-width: 1px;"/><path class="ygrid crisp" transform="translate(0,286.37)" d="M80,0h503" style="stroke: rgb(255, 255, 255); stroke-opacity: 1; stroke-width: 1px;"/><path class="ygrid crisp" transform="translate(0,277.19)" d="M80,0h503" style="stroke: rgb(255, 255, 255); stroke-opacity: 1; stroke-width: 1px;"/><path class="ygrid crisp" transform="translate(0,268.98)" d="M80,0h503" style="stroke: rgb(255, 255, 255); stroke-opacity: 1; stroke-width: 1px;"/><path class="ygrid crisp" transform="translate(0,214.97)" d="M80,0h503" style="stroke: rgb(255, 255, 255); stroke-opacity: 1; stroke-width: 1px;"/><path class="ygrid crisp" transform="translate(0,183.37)" d="M80,0h503" style="stroke: rgb(255, 255, 255); stroke-opacity: 1; stroke-width: 1px;"/><path class="ygrid crisp" transform="translate(0,160.95)" d="M80,0h503" style="stroke: rgb(255, 255, 255); stroke-opacity: 1; stroke-width: 1px;"/><path class="ygrid crisp" transform="translate(0,143.56)" d="M80,0h503" style="stroke: rgb(255, 255, 255); stroke-opacity: 1; stroke-width: 1px;"/><path class="ygrid crisp" transform="translate(0,129.35)" d="M80,0h503" style="stroke: rgb(255, 255, 255); stroke-opacity: 1; stroke-width: 1px;"/><path class="ygrid crisp" transform="translate(0,117.34)" d="M80,0h503" style="stroke: rgb(255, 255, 255); stroke-opacity: 1; stroke-width: 1px;"/><path class="ygrid crisp" transform="translate(0,106.93)" d="M80,0h503" style="stroke: rgb(255, 255, 255); stroke-opacity: 1; stroke-width: 1px;"/></g></g><g class="zerolinelayer"><path class="xzl zl crisp" transform="translate(80,0)" d="M0,100v320" style="stroke: rgb(255, 255, 255); stroke-opacity: 1; stroke-width: 2px;"/></g><g class="layer-between"><g class="shapelayer"/><g class="imagelayer"/></g><path class="xlines-below"/><path class="ylines-below"/><g class="overlines-below"/><g class="xaxislayer-below"/><g class="yaxislayer-below"/><g class="overaxes-below"/><g class="plot" transform="translate(80,100)" clip-path="url(#clip3cb1d8xyplot)"><g class="scatterlayer mlayer"><g class="trace scatter tracef203ba" style="stroke-miterlimit: 2; opacity: 0.05;"><g class="fills"/><g class="errorbars"/><g class="lines"><path class="js-line" d="M0,74.3L1.71,208.41L1.81,208.41L2.11,208.41L2.21,236.59L2.72,236.59L2.82,243.12L5.03,243.12L5.13,254.71L29.18,254.86L29.28,267.61L30.49,267.61L30.59,274.44L132.01,274.44L132.11,280.85L165.42,280.85L165.52,299.65L503,299.65" style="vector-effect: none; fill: none; stroke: rgb(0, 0, 255); stroke-opacity: 1; stroke-width: 2px; opacity: 1;"/></g><g class="points"/><g class="text"/></g><g class="trace scatter tracecbb510" style="stroke-miterlimit: 2; opacity: 0.05;"><g class="fills"/><g class="errorbars"/><g class="lines"><path class="js-line" d="M0,97.61L1.91,226.42L2.01,226.42L4.43,226.42L4.53,238.91L6.34,238.91L6.44,243.47L6.64,243.47L6.74,260.35L13.89,260.35L13.99,272.61L26.26,272.61L26.36,284.96L57.76,284.96L57.86,286.1L503,286.1" style="vector-effect: none; fill: none; stroke: rgb(0, 0, 255); stroke-opacity: 1; stroke-width: 2px; opacity: 1;"/></g><g class="points"/><g class="text"/></g><g class="trace scatter trace12fef6" style="stroke-miterlimit: 2; opacity: 0.05;"><g class="fills"/><g class="errorbars"/><g class="lines"><path class="js-line" d="M0,111.01L1.61,228.16L1.71,228.16L2.01,228.52L2.11,241.92L9.76,241.92L9.86,277.12L70.33,277.12L70.43,280.82L176.09,280.82L176.19,283.5L347.84,283.5L347.94,289.06L503,289.06" style="vector-effect: none; fill: none; stroke: rgb(0, 0, 255); stroke-opacity: 1; stroke-width: 2px; opacity: 1;"/></g><g class="points"/><g class="text"/></g><g class="trace scatter trace248fe9" style="stroke-miterlimit: 2; opacity: 0.05;"><g class="fills"/><g class="errorbars"/><g class="lines"><path class="js-line" d="M0,59.17L1.61,211.1L1.71,211.1L1.91,211.1L2.01,268.66L90.96,268.66L91.06,271.71L122.76,271.71L122.86,273.62L134.33,273.62L134.43,282.38L279.32,282.38L279.42,290.57L503,290.57" style="vector-effect: none; fill: none; stroke: rgb(0, 0, 255); stroke-opacity: 1; stroke-width: 2px; opacity: 1;"/></g><g class="points"/><g class="text"/></g><g class="trace scatter trace9703ce" style="stroke-miterlimit: 2; opacity: 0.05;"><g class="fills"/><g class="errorbars"/><g class="lines"><path class="js-line" d="M0,101.01L1.61,224.21L1.71,224.21L2.21,224.21L2.31,250.47L3.32,250.47L3.42,255.94L4.53,255.94L4.63,281.94L503,282.41" style="vector-effect: none; fill: none; stroke: rgb(0, 0, 255); stroke-opacity: 1; stroke-width: 2px; opacity: 1;"/></g><g class="points"/><g class="text"/></g><g class="trace scatter trace7c30f5" style="stroke-miterlimit: 2; opacity: 0.05;"><g class="fills"/><g class="errorbars"/><g class="lines"><path class="js-line" d="M0,36.27L1.91,229.74L2.01,229.74L4.53,229.8L4.63,247.68L5.03,247.68L5.13,251.13L5.43,251.13L5.53,254.8L8.35,254.8L8.45,259.66L13.89,259.66L13.99,272.27L24.25,272.27L24.35,291.99L503,291.99" style="vector-effect: none; fill: none; stroke: rgb(0, 0, 255); stroke-opacity: 1; stroke-width: 2px; opacity: 1;"/></g><g class="points"/><g class="text"/></g><g class="trace scatter traced76f19" style="stroke-miterlimit: 2; opacity: 0.05;"><g class="fills"/><g class="errorbars"/><g class="lines"><path class="js-line" d="M0,99.6L0.91,157.68L1.01,157.74L1.11,160.46L1.21,187.13L1.41,187.13L1.51,212.27L1.71,212.27L1.81,219.69L2.11,219.69L2.21,255.91L11.67,255.91L11.77,266.6L47.49,266.6L47.59,284.56L280.53,284.56L280.63,288.35L385.98,288.35L386.08,293.61L503,293.61" style="vector-effect: none; fill: none; stroke: rgb(0, 0, 255); stroke-opacity: 1; stroke-width: 2px; opacity: 1;"/></g><g class="points"/><g class="text"/></g><g class="trace scatter trace1d61b0" style="stroke-miterlimit: 2; opacity: 0.05;"><g class="fills"/><g class="errorbars"/><g class="lines"><path class="js-line" d="M0,25.4L1.31,212.59L1.41,212.59L1.81,212.59L1.91,214.36L2.41,214.36L2.52,224.88L3.12,224.88L3.22,239.35L4.33,239.35L4.43,263.9L52.93,263.9L53.03,267.88L62.99,267.88L63.09,268.95L87.34,268.95L87.44,280.65L175.08,280.65L175.18,297.82L503,297.82" style="vector-effect: none; fill: none; stroke: rgb(0, 0, 255); stroke-opacity: 1; stroke-width: 2px; opacity: 1;"/></g><g class="points"/><g class="text"/></g><g class="trace scatter trace41b051" style="stroke-miterlimit: 2; opacity: 0.05;"><g class="fills"/><g class="errorbars"/><g class="lines"><path class="js-line" d="M0,46.24L0.91,161.72L1.01,165.68L2.01,236.33L2.11,236.33L3.22,241.92L3.32,241.92L4.63,255.62L4.73,255.62L9.96,255.62L10.06,261.15L28.78,261.15L28.88,273.43L107.76,273.43L107.86,278.29L159.38,278.29L159.48,284.36L503,284.36" style="vector-effect: none; fill: none; stroke: rgb(0, 0, 255); stroke-opacity: 1; stroke-width: 2px; opacity: 1;"/></g><g class="points"/><g class="text"/></g><g class="trace scatter trace75435a" style="stroke-miterlimit: 2; opacity: 0.05;"><g class="fills"/><g class="errorbars"/><g class="lines"><path class="js-line" d="M0,59.6L1.51,215.57L1.61,215.57L2.41,215.57L2.52,220.03L2.92,220.03L3.02,226.56L5.84,226.56L5.94,231.45L7.04,243.7L7.14,243.7L11.77,243.7L11.87,261.23L17.51,261.23L17.61,267.54L42.66,267.54L42.76,277.96L106.86,277.96L106.96,289.3L498.37,289.3L498.47,301.53L503,301.53" style="vector-effect: none; fill: none; stroke: rgb(0, 0, 255); stroke-opacity: 1; stroke-width: 2px; opacity: 1;"/></g><g class="points"/><g class="text"/></g><g class="trace scatter tracea2ba3a" style="stroke-miterlimit: 2; opacity: 0.05;"><g class="fills"/><g class="errorbars"/><g class="lines"><path class="js-line" d="M0,72.44L1.01,143.66L1.11,145.71L2.01,154.87L2.11,154.87L3.82,211.22L3.92,211.22L4.93,211.22L5.03,213.7L5.94,226.52L6.04,235.21L7.55,235.21L7.65,240.33L8.55,240.33L8.65,242.11L8.85,242.11L8.96,250.26L13.48,250.26L13.58,258.82L13.89,258.82L13.99,271.19L31.29,271.19L31.39,279.82L60.47,279.82L60.57,280.69L106.46,280.69L106.56,281.94L361.43,281.94L361.53,284.71L412.14,284.71L412.24,292.06L503,292.06" style="vector-effect: none; fill: none; stroke: rgb(0, 0, 255); stroke-opacity: 1; stroke-width: 2px; opacity: 1;"/></g><g class="points"/><g class="text"/></g><g class="trace scatter trace3b5274" style="stroke-miterlimit: 2; opacity: 0.05;"><g class="fills"/><g class="errorbars"/><g class="lines"><path class="js-line" d="M0,80.65L1.51,229.49L1.61,229.49L2.52,229.67L2.62,229.67L3.12,229.67L3.22,237.35L4.23,237.35L4.33,242.27L12.28,242.27L12.38,246.39L24.35,246.39L24.45,251.18L26.26,251.18L26.36,278.52L122.56,278.52L122.66,282.26L253.26,282.26L253.36,289.8L503,289.8" style="vector-effect: none; fill: none; stroke: rgb(0, 0, 255); stroke-opacity: 1; stroke-width: 2px; opacity: 1;"/></g><g class="points"/><g class="text"/></g><g class="trace scatter trace5e3ebc" style="stroke-miterlimit: 2; opacity: 0.05;"><g class="fills"/><g class="errorbars"/><g class="lines"><path class="js-line" d="M0,78.7L1.31,175.83L1.41,183.39L1.61,183.39L1.71,199.31L1.91,199.31L2.01,207.85L2.52,207.85L2.62,249.8L5.33,249.8L5.43,261.41L13.99,261.41L14.09,272.17L57.15,272.17L57.25,275.12L64.2,275.12L64.3,285.28L224.58,285.28L224.68,288.05L291.8,288.05L291.9,292.9L503,292.9" style="vector-effect: none; fill: none; stroke: rgb(0, 0, 255); stroke-opacity: 1; stroke-width: 2px; opacity: 1;"/></g><g class="points"/><g class="text"/></g><g class="trace scatter trace4c2f23" style="stroke-miterlimit: 2; opacity: 0.05;"><g class="fills"/><g class="errorbars"/><g class="lines"><path class="js-line" d="M0,66.4L0.91,156.73L1.01,156.73L2.52,222.62L2.62,222.62L3.82,250.85L3.92,250.85L9.26,250.85L9.36,255.99L17.71,255.99L17.81,281.31L20.12,281.31L20.22,290.06L503,290.06" style="vector-effect: none; fill: none; stroke: rgb(0, 0, 255); stroke-opacity: 1; stroke-width: 2px; opacity: 1;"/></g><g class="points"/><g class="text"/></g><g class="trace scatter traceac41b3" style="stroke-miterlimit: 2; opacity: 0.05;"><g class="fills"/><g class="errorbars"/><g class="lines"><path class="js-line" d="M0,87.11L0.1,87.97L0.2,99.38L1.11,206.63L1.21,206.63L1.31,210L1.41,239.14L6.24,239.14L6.34,248.68L8.35,248.68L8.45,267.17L116.92,267.82L117.02,270.56L149.32,270.56L149.42,274.17L162.9,274.17L163,277.81L279.02,277.81L279.12,289.36L503,289.36" style="vector-effect: none; fill: none; stroke: rgb(0, 0, 255); stroke-opacity: 1; stroke-width: 2px; opacity: 1;"/></g><g class="points"/><g class="text"/></g><g class="trace scatter trace23c6a7" style="stroke-miterlimit: 2; opacity: 0.05;"><g class="fills"/><g class="errorbars"/><g class="lines"><path class="js-line" d="M0,63.99L1.11,187.29L1.21,187.29L2.41,232.22L2.52,232.22L2.72,232.22L2.82,236.75L4.02,236.75L4.13,254.01L28.68,254.01L28.78,259.1L30.29,259.1L30.39,260.39L35.52,260.39L35.62,263.14L41.05,263.14L41.15,264.3L63.99,264.3L64.1,265.09L67.52,265.09L67.62,270.13L72.35,270.13L72.45,276.51L230.22,276.51L230.32,279.13L275.1,279.13L275.2,286.06L464.66,286.06L464.76,286.88L503,286.88" style="vector-effect: none; fill: none; stroke: rgb(0, 0, 255); stroke-opacity: 1; stroke-width: 2px; opacity: 1;"/></g><g class="points"/><g class="text"/></g><g class="trace scatter traceadcb39" style="stroke-miterlimit: 2; opacity: 0.05;"><g class="fills"/><g class="errorbars"/><g class="lines"><path class="js-line" d="M0,49.69L1.31,162.26L1.41,162.26L1.61,162.26L1.71,167.77L2.01,167.77L2.11,184.04L2.31,184.04L2.41,194.11L3.22,214.15L3.32,214.15L3.92,214.15L4.02,227.76L6.14,227.76L6.24,239.26L11.27,239.26L11.37,253.92L17.71,253.92L17.81,260.18L38.54,260.18L38.64,270.36L66.81,270.36L66.91,281.23L223.28,281.23L223.38,295.83L503,295.83" style="vector-effect: none; fill: none; stroke: rgb(0, 0, 255); stroke-opacity: 1; stroke-width: 2px; opacity: 1;"/></g><g class="points"/><g class="text"/></g><g class="trace scatter traceae8296" style="stroke-miterlimit: 2; opacity: 0.05;"><g class="fills"/><g class="errorbars"/><g class="lines"><path class="js-line" d="M0,81.91L1.11,194.41L1.21,194.41L1.41,195.6L1.51,207.75L2.31,230.91L2.41,230.91L3.92,230.91L4.02,265.52L15.39,265.52L15.5,267.03L48.3,267.2L48.4,267.92L75.67,267.92L75.77,271.44L234.34,271.66L234.44,275.49L246.12,275.49L246.22,286.5L359.31,286.5L359.42,288.54L503,288.54" style="vector-effect: none; fill: none; stroke: rgb(0, 0, 255); stroke-opacity: 1; stroke-width: 2px; opacity: 1;"/></g><g class="points"/><g class="text"/></g><g class="trace scatter trace3448e9" style="stroke-miterlimit: 2; opacity: 0.05;"><g class="fills"/><g class="errorbars"/><g class="lines"><path class="js-line" d="M0,40.27L1.11,224.76L1.21,224.76L1.81,224.76L1.91,245.93L3.22,245.93L3.32,250.85L4.33,250.85L4.43,252.65L6.24,252.65L6.34,262.85L16.2,262.85L16.3,269.88L43.57,269.88L43.67,285.67L391.81,285.67L391.92,287.73L503,287.73" style="vector-effect: none; fill: none; stroke: rgb(0, 0, 255); stroke-opacity: 1; stroke-width: 2px; opacity: 1;"/></g><g class="points"/><g class="text"/></g><g class="trace scatter traced7b0c1" style="stroke-miterlimit: 2; opacity: 0.05;"><g class="fills"/><g class="errorbars"/><g class="lines"><path class="js-line" d="M0,89.24L1.31,232.41L1.41,232.41L1.91,232.41L2.01,242.06L7.95,242.06L8.05,245L9.16,245.7L9.26,246.04L12.58,246.04L12.68,248.14L18.31,248.14L18.41,251.66L21.94,251.66L22.04,259.37L46.79,259.54L46.89,289.8L459.43,289.8L459.53,291.36L503,291.36" style="vector-effect: none; fill: none; stroke: rgb(0, 0, 255); stroke-opacity: 1; stroke-width: 2px; opacity: 1;"/></g><g class="points"/><g class="text"/></g><g class="trace scatter tracef845b9" style="stroke-miterlimit: 2; opacity: 0.05;"><g class="fills"/><g class="errorbars"/><g class="lines"><path class="js-line" d="M0,97.06L0.2,99.59L0.3,112.25L2.21,206.78L2.31,206.78L3.42,242.8L3.52,242.8L8.55,242.8L8.65,263.49L18.61,263.59L18.72,274.66L100.12,274.66L100.22,284.01L316.15,284.01L316.25,292.44L503,292.44" style="vector-effect: none; fill: none; stroke: rgb(0, 0, 255); stroke-opacity: 1; stroke-width: 2px; opacity: 1;"/></g><g class="points"/><g class="text"/></g><g class="trace scatter trace14c154" style="stroke-miterlimit: 2; opacity: 0.05;"><g class="fills"/><g class="errorbars"/><g class="lines"><path class="js-line" d="M0,90.09L2.01,236.54L2.11,236.54L4.43,236.54L4.53,244.1L4.83,250.01L4.93,283.96L128.59,283.96L128.69,289.93L503,289.93" style="vector-effect: none; fill: none; stroke: rgb(0, 0, 255); stroke-opacity: 1; stroke-width: 2px; opacity: 1;"/></g><g class="points"/><g class="text"/></g><g class="trace scatter trace6673d0" style="stroke-miterlimit: 2; opacity: 0.05;"><g class="fills"/><g class="errorbars"/><g class="lines"><path class="js-line" d="M0,72.66L0.1,77.66L0.2,130.43L1.11,180.56L1.21,180.56L2.01,229.52L2.11,229.52L3.32,230.23L3.42,240.24L7.45,240.24L7.55,248.81L7.75,248.81L7.85,259.79L9.86,259.79L9.96,266.91L62.79,266.91L62.89,278.7L169.24,278.7L169.34,281.21L314.44,281.21L314.54,293.17L503,293.34" style="vector-effect: none; fill: none; stroke: rgb(0, 0, 255); stroke-opacity: 1; stroke-width: 2px; opacity: 1;"/></g><g class="points"/><g class="text"/></g><g class="trace scatter trace5fe9c8" style="stroke-miterlimit: 2; opacity: 0.05;"><g class="fills"/><g class="errorbars"/><g class="lines"><path class="js-line" d="M0,77L1.21,162.67L1.31,162.67L1.61,162.75L1.71,185.37L2.01,185.37L2.11,193.85L3.12,243.95L3.22,243.95L9.46,243.95L9.56,250.25L25.05,250.25L25.16,251.63L49,251.63L49.1,256.71L50.31,256.71L50.41,271.25L216.64,271.25L216.74,273.8L274.09,273.8L274.19,277.72L503,277.72" style="vector-effect: none; fill: none; stroke: rgb(0, 0, 255); stroke-opacity: 1; stroke-width: 2px; opacity: 1;"/></g><g class="points"/><g class="text"/></g><g class="trace scatter trace473d66" style="stroke-miterlimit: 2; opacity: 0.05;"><g class="fills"/><g class="errorbars"/><g class="lines"><path class="js-line" d="M0,59.75L1.11,160.87L1.21,161.08L2.01,161.08L2.11,162.5L2.52,224.59L2.62,238.63L6.54,238.63L6.64,260.33L69.73,260.33L69.83,268.63L87.64,268.63L87.74,273.75L119.84,273.75L119.94,278.72L261.51,278.72L261.61,282.46L314.74,282.46L314.84,285.77L503,285.77" style="vector-effect: none; fill: none; stroke: rgb(0, 0, 255); stroke-opacity: 1; stroke-width: 2px; opacity: 1;"/></g><g class="points"/><g class="text"/></g><g class="trace scatter trace1023f2" style="stroke-miterlimit: 2; opacity: 1;"><g class="fills"/><g class="errorbars"/><g class="lines"><path class="js-line" d="M0,103.48L1.81,203.15L1.91,204.53L2.82,224.65L2.92,224.65L3.22,224.65L3.32,234.63L5.74,234.63L5.84,240.33L7.95,240.33L8.05,261.79L14.59,261.79L14.69,262.57L23.75,262.57L23.85,264.03L55.74,264.03L55.84,267.68L182.83,267.9L182.93,270.48L186.45,270.48L186.55,281.48L356.5,281.56L356.6,304L503,304" style="vector-effect: none; fill: none; stroke: rgb(255, 0, 0); stroke-opacity: 1; stroke-width: 2px; opacity: 1;"/></g><g class="points"/><g class="text"/></g><g class="trace scatter traceca8596" style="stroke-miterlimit: 2; opacity: 0.05;"><g class="fills"/><g class="errorbars"/><g class="lines"><path class="js-line" d="M0,59.2L1.01,157.79L1.11,163.13L2.11,208.28L2.21,208.28L3.22,208.28L3.32,220.93L4.33,220.93L4.43,234.03L5.33,241.83L5.43,241.83L7.85,241.83L7.95,243.74L12.28,243.74L12.38,259.35L19.92,259.35L20.02,283.72L206.27,283.99L206.37,293.42L503,293.83" style="vector-effect: none; fill: none; stroke: rgb(0, 0, 255); stroke-opacity: 1; stroke-width: 2px; opacity: 1;"/></g><g class="points"/><g class="text"/></g><g class="trace scatter traceb1d132" style="stroke-miterlimit: 2; opacity: 0.05;"><g class="fills"/><g class="errorbars"/><g class="lines"><path class="js-line" d="M0,65.61L1.41,170.26L1.51,170.26L2.72,229.32L2.82,229.32L3.22,229.32L3.32,232.7L5.23,232.7L5.33,249.81L12.88,249.81L12.98,258.47L25.66,258.47L25.76,265.12L53.63,265.12L53.73,269.24L62.49,269.24L62.59,277.95L154.75,277.95L154.85,286.15L452.99,286.15L453.09,290.2L503,290.2" style="vector-effect: none; fill: none; stroke: rgb(0, 0, 255); stroke-opacity: 1; stroke-width: 2px; opacity: 1;"/></g><g class="points"/><g class="text"/></g><g class="trace scatter tracecf8f5d" style="stroke-miterlimit: 2; opacity: 0.05;"><g class="fills"/><g class="errorbars"/><g class="lines"><path class="js-line" d="M0,56.7L2.72,239.24L2.82,239.24L3.12,239.24L3.22,281.92L9.46,281.92L9.56,283.5L159.89,283.5L159.99,286.14L316.35,286.14L316.45,288.4L452.79,288.4L452.89,295.7L503,295.7" style="vector-effect: none; fill: none; stroke: rgb(0, 0, 255); stroke-opacity: 1; stroke-width: 2px; opacity: 1;"/></g><g class="points"/><g class="text"/></g><g class="trace scatter trace36f758" style="stroke-miterlimit: 2; opacity: 0.05;"><g class="fills"/><g class="errorbars"/><g class="lines"><path class="js-line" d="M0,73.2L1.21,200.6L1.31,200.6L2.11,229L2.21,229L4.53,229L4.63,264.09L8.55,264.09L8.65,267.54L52.52,267.67L52.62,272.76L124.17,272.76L124.27,276.88L347.84,276.88L347.94,299.26L503,299.26" style="vector-effect: none; fill: none; stroke: rgb(0, 0, 255); stroke-opacity: 1; stroke-width: 2px; opacity: 1;"/></g><g class="points"/><g class="text"/></g><g class="trace scatter trace81ac5c" style="stroke-miterlimit: 2; opacity: 0.05;"><g class="fills"/><g class="errorbars"/><g class="lines"><path class="js-line" d="M0,70.31L1.01,235.12L1.11,235.12L1.71,235.12L1.81,236.02L2.72,244.11L2.82,244.11L3.22,244.11L3.32,251.34L5.13,251.34L5.23,257.03L12.18,257.03L12.28,273.69L231.53,273.69L231.63,285.32L503,285.93" style="vector-effect: none; fill: none; stroke: rgb(0, 0, 255); stroke-opacity: 1; stroke-width: 2px; opacity: 1;"/></g><g class="points"/><g class="text"/></g><g class="trace scatter trace10076b" style="stroke-miterlimit: 2; opacity: 0.05;"><g class="fills"/><g class="errorbars"/><g class="lines"><path class="js-line" d="M0,52.46L2.01,168.9L2.11,168.9L2.92,182.88L3.02,228.52L3.32,228.52L3.42,234.48L5.74,234.48L5.84,244.72L7.35,244.72L7.45,246.01L12.68,246.01L12.78,268.54L13.58,284.83L13.68,284.83L28.37,284.83L28.48,287.56L37.03,287.56L37.13,290.42L503,290.42" style="vector-effect: none; fill: none; stroke: rgb(0, 0, 255); stroke-opacity: 1; stroke-width: 2px; opacity: 1;"/></g><g class="points"/><g class="text"/></g><g class="trace scatter trace90c131" style="stroke-miterlimit: 2; opacity: 0.05;"><g class="fills"/><g class="errorbars"/><g class="lines"><path class="js-line" d="M0,39.81L1.21,159.21L1.31,167.24L1.81,167.24L1.91,193.89L3.52,242.97L3.62,242.97L5.43,242.97L5.53,260.02L89.05,260.02L89.15,267.31L105.35,267.31L105.45,268.29L209.89,268.29L209.99,273.25L236.36,273.25L236.46,286.01L503,286.01" style="vector-effect: none; fill: none; stroke: rgb(0, 0, 255); stroke-opacity: 1; stroke-width: 2px; opacity: 1;"/></g><g class="points"/><g class="text"/></g><g class="trace scatter trace19525e" style="stroke-miterlimit: 2; opacity: 0.05;"><g class="fills"/><g class="errorbars"/><g class="lines"><path class="js-line" d="M0,104.6L1.91,256.54L2.01,256.54L6.64,256.54L6.74,258.76L7.55,271.09L7.65,271.09L91.56,271.09L91.66,285.25L503,285.25" style="vector-effect: none; fill: none; stroke: rgb(0, 0, 255); stroke-opacity: 1; stroke-width: 2px; opacity: 1;"/></g><g class="points"/><g class="text"/></g><g class="trace scatter trace1ce5db" style="stroke-miterlimit: 2; opacity: 0.05;"><g class="fills"/><g class="errorbars"/><g class="lines"><path class="js-line" d="M0,40.03L2.01,218.3L2.11,218.3L2.72,225.61L2.82,234.81L4.53,234.81L4.63,239.87L5.74,239.87L5.84,240.92L9.16,241.45L9.26,247.74L10.06,250.28L10.16,250.28L17.91,250.28L18.01,256.6L39.24,256.6L39.34,259.77L52.52,259.77L52.62,260.59L84.62,260.59L84.72,272.82L121.85,272.82L121.95,276.59L185.85,276.59L185.95,283.92L503,283.92" style="vector-effect: none; fill: none; stroke: rgb(0, 0, 255); stroke-opacity: 1; stroke-width: 2px; opacity: 1;"/></g><g class="points"/><g class="text"/></g><g class="trace scatter trace0103f2" style="stroke-miterlimit: 2; opacity: 0.05;"><g class="fills"/><g class="errorbars"/><g class="lines"><path class="js-line" d="M0,56.72L0.91,153.88L1.01,153.88L1.81,168.04L1.91,168.04L2.01,169.1L2.11,200.53L2.72,200.53L2.82,201.43L4.73,201.99L4.83,225.66L5.13,225.66L5.23,227.39L6.24,266.04L6.34,266.04L74.36,266.04L74.46,274.36L135.94,274.36L136.04,275.83L209.89,276.42L209.99,282.35L503,282.35" style="vector-effect: none; fill: none; stroke: rgb(0, 0, 255); stroke-opacity: 1; stroke-width: 2px; opacity: 1;"/></g><g class="points"/><g class="text"/></g><g class="trace scatter trace10b75e" style="stroke-miterlimit: 2; opacity: 0.05;"><g class="fills"/><g class="errorbars"/><g class="lines"><path class="js-line" d="M0,44.39L1.41,231.37L1.51,231.37L2.31,246.28L2.41,246.28L7.55,246.28L7.65,266.96L44.37,266.96L44.47,270.16L92.47,270.16L92.57,276.4L222.67,276.4L222.77,285.12L503,285.12" style="vector-effect: none; fill: none; stroke: rgb(0, 0, 255); stroke-opacity: 1; stroke-width: 2px; opacity: 1;"/></g><g class="points"/><g class="text"/></g><g class="trace scatter traceee7053" style="stroke-miterlimit: 2; opacity: 0.05;"><g class="fills"/><g class="errorbars"/><g class="lines"><path class="js-line" d="M0,85.93L0.1,88.14L0.2,109.69L1.71,229.56L1.81,229.56L2.11,229.56L2.21,252.06L6.94,252.3L7.04,258.29L8.85,258.29L8.96,265.95L22.64,265.95L22.74,274.72L45.98,274.72L46.08,277.43L149.62,277.43L149.72,288.51L503,288.51" style="vector-effect: none; fill: none; stroke: rgb(0, 0, 255); stroke-opacity: 1; stroke-width: 2px; opacity: 1;"/></g><g class="points"/><g class="text"/></g><g class="trace scatter trace93d23e" style="stroke-miterlimit: 2; opacity: 0.05;"><g class="fills"/><g class="errorbars"/><g class="lines"><path class="js-line" d="M0,91.53L1.31,157.33L1.41,160.04L3.42,199.8L3.52,276.72L60.27,276.72L60.37,294.52L503,294.52" style="vector-effect: none; fill: none; stroke: rgb(0, 0, 255); stroke-opacity: 1; stroke-width: 2px; opacity: 1;"/></g><g class="points"/><g class="text"/></g><g class="trace scatter tracef64f46" style="stroke-miterlimit: 2; opacity: 0.05;"><g class="fills"/><g class="errorbars"/><g class="lines"><path class="js-line" d="M0,22.94L1.11,194.97L1.21,194.97L1.41,194.97L1.51,219.15L2.52,234.56L2.62,234.56L4.43,234.56L4.53,235.66L5.94,235.66L6.04,263.95L35.62,263.95L35.72,271.47L60.37,271.47L60.47,275.99L103.14,275.99L103.24,282.78L265.74,282.78L265.84,301.56L503,301.56" style="vector-effect: none; fill: none; stroke: rgb(0, 0, 255); stroke-opacity: 1; stroke-width: 2px; opacity: 1;"/></g><g class="points"/><g class="text"/></g><g class="trace scatter trace02c3da" style="stroke-miterlimit: 2; opacity: 0.05;"><g class="fills"/><g class="errorbars"/><g class="lines"><path class="js-line" d="M0,16L1.11,146.17L1.21,152.28L2.62,249.21L2.72,249.21L4.23,249.21L4.33,267.92L43.87,267.92L43.97,275.69L280.93,275.69L281.03,278.78L314.94,278.78L315.04,285.85L398.66,285.85L398.76,288.93L402.18,288.93L402.28,301.29L503,301.29" style="vector-effect: none; fill: none; stroke: rgb(0, 0, 255); stroke-opacity: 1; stroke-width: 2px; opacity: 1;"/></g><g class="points"/><g class="text"/></g><g class="trace scatter traceca54e4" style="stroke-miterlimit: 2; opacity: 0.05;"><g class="fills"/><g class="errorbars"/><g class="lines"><path class="js-line" d="M0,75.84L1.11,201.85L1.21,201.85L2.11,239.2L2.21,239.2L8.45,239.2L8.55,256.12L12.28,256.12L12.38,256.92L14.99,256.92L15.09,261.64L40.45,261.64L40.55,263.54L76.37,263.54L76.47,264.94L88.34,264.94L88.45,268.05L101.12,268.05L101.22,275.71L147.81,275.71L147.91,276.8L480.26,277.55L480.36,290.22L503,290.22" style="vector-effect: none; fill: none; stroke: rgb(0, 0, 255); stroke-opacity: 1; stroke-width: 2px; opacity: 1;"/></g><g class="points"/><g class="text"/></g><g class="trace scatter trace8c63fe" style="stroke-miterlimit: 2; opacity: 0.05;"><g class="fills"/><g class="errorbars"/><g class="lines"><path class="js-line" d="M0,37.46L1.41,250.43L1.51,250.43L4.43,250.43L4.53,260.99L22.84,260.99L22.94,268.29L87.84,268.29L87.94,289.95L503,289.95" style="vector-effect: none; fill: none; stroke: rgb(0, 0, 255); stroke-opacity: 1; stroke-width: 2px; opacity: 1;"/></g><g class="points"/><g class="text"/></g><g class="trace scatter trace763d32" style="stroke-miterlimit: 2; opacity: 0.05;"><g class="fills"/><g class="errorbars"/><g class="lines"><path class="js-line" d="M0,42.89L1.31,160.56L1.41,160.56L2.62,208.89L2.72,208.89L3.12,208.89L3.22,227.64L5.03,227.64L5.13,278.62L68.92,278.62L69.03,282.11L453.7,282.11L453.8,284.13L503,284.13" style="vector-effect: none; fill: none; stroke: rgb(0, 0, 255); stroke-opacity: 1; stroke-width: 2px; opacity: 1;"/></g><g class="points"/><g class="text"/></g><g class="trace scatter tracef5db1a" style="stroke-miterlimit: 2; opacity: 0.05;"><g class="fills"/><g class="errorbars"/><g class="lines"><path class="js-line" d="M0,129.1L0.1,130.24L0.2,140.04L2.72,231.95L2.82,231.95L3.62,246.88L3.72,246.88L4.43,246.88L4.53,254.01L23.14,254.76L23.24,263.97L35.52,263.97L35.62,265.04L46.89,265.04L46.99,266.28L78.38,266.28L78.48,274.96L244.21,274.96L244.31,286.53L503,286.53" style="vector-effect: none; fill: none; stroke: rgb(0, 0, 255); stroke-opacity: 1; stroke-width: 2px; opacity: 1;"/></g><g class="points"/><g class="text"/></g><g class="trace scatter trace06bb8a" style="stroke-miterlimit: 2; opacity: 0.05;"><g class="fills"/><g class="errorbars"/><g class="lines"><path class="js-line" d="M0,35.93L1.21,168.4L1.31,183.61L2.11,225.54L2.21,225.54L4.93,225.54L5.03,233.35L9.56,233.35L9.66,245.99L32.4,246.04L32.5,254.72L37.63,254.72L37.73,256.05L46.08,256.05L46.18,270.31L203.86,270.31L203.96,273.46L234.04,273.46L234.14,293.27L432.67,293.27L432.77,298.1L503,298.1" style="vector-effect: none; fill: none; stroke: rgb(0, 0, 255); stroke-opacity: 1; stroke-width: 2px; opacity: 1;"/></g><g class="points"/><g class="text"/></g><g class="trace scatter tracedbeb56" style="stroke-miterlimit: 2; opacity: 0.05;"><g class="fills"/><g class="errorbars"/><g class="lines"><path class="js-line" d="M0,32.63L1.31,167.69L1.41,167.69L2.41,167.69L2.52,173.03L2.72,173.03L2.82,196.45L3.22,196.45L3.32,230.09L4.73,230.09L4.83,233.8L6.14,233.8L6.24,237.21L7.45,254.9L7.55,254.9L10.77,254.9L10.87,273.87L167.53,273.87L167.63,281.42L451.58,281.42L451.68,282.48L503,282.48" style="vector-effect: none; fill: none; stroke: rgb(0, 0, 255); stroke-opacity: 1; stroke-width: 2px; opacity: 1;"/></g><g class="points"/><g class="text"/></g><g class="trace scatter tracec25cbd" style="stroke-miterlimit: 2; opacity: 0.05;"><g class="fills"/><g class="errorbars"/><g class="lines"><path class="js-line" d="M0,61.43L1.71,159.97L1.81,159.97L2.01,159.97L2.11,166.64L2.41,166.64L2.52,176.82L2.82,176.82L2.92,183.72L4.13,232.48L4.23,234.42L8.55,234.52L8.65,248.16L12.78,248.16L12.88,253.72L28.68,253.72L28.78,261.4L48.7,261.4L48.8,270.28L168.34,270.28L168.44,273.23L174.27,273.23L174.37,283.57L390,283.57L390.1,285.13L473.62,285.13L473.72,286.16L503,286.16" style="vector-effect: none; fill: none; stroke: rgb(0, 0, 255); stroke-opacity: 1; stroke-width: 2px; opacity: 1;"/></g><g class="points"/><g class="text"/></g><g class="trace scatter trace1453e5" style="stroke-miterlimit: 2; opacity: 0.05;"><g class="fills"/><g class="errorbars"/><g class="lines"><path class="js-line" d="M0,58.75L1.51,249.94L1.61,249.94L5.53,249.94L5.63,267.89L21.73,267.89L21.83,269.94L29.38,269.94L29.48,273.58L148.82,273.58L148.92,292.1L199.53,292.1L199.63,293.3L503,293.3" style="vector-effect: none; fill: none; stroke: rgb(0, 0, 255); stroke-opacity: 1; stroke-width: 2px; opacity: 1;"/></g><g class="points"/><g class="text"/></g><g class="trace scatter traceaa8028" style="stroke-miterlimit: 2; opacity: 0.05;"><g class="fills"/><g class="errorbars"/><g class="lines"><path class="js-line" d="M0,39.66L1.01,203.98L1.11,208.04L1.41,208.04L1.51,221.55L3.22,221.55L3.32,233.49L6.44,233.49L6.54,262.63L7.65,262.63L7.75,270.3L106.76,270.3L106.86,272.24L149.82,272.24L149.92,275.27L503,275.83" style="vector-effect: none; fill: none; stroke: rgb(0, 0, 255); stroke-opacity: 1; stroke-width: 2px; opacity: 1;"/></g><g class="points"/><g class="text"/></g></g></g><g class="overplot"/><path class="xlines-above crisp" d="M0,0" style="fill: none;"/><path class="ylines-above crisp" d="M0,0" style="fill: none;"/><g class="overlines-above"/><g class="xaxislayer-above"><g class="xtick"><text text-anchor="middle" x="0" y="433" transform="translate(80,0)" style="font-family: 'Open Sans', verdana, arial, sans-serif; font-size: 12px; fill: rgb(42, 63, 95); fill-opacity: 1; white-space: pre; opacity: 1;">0</text></g><g class="xtick"><text text-anchor="middle" x="0" y="433" style="font-family: 'Open Sans', verdana, arial, sans-serif; font-size: 12px; fill: rgb(42, 63, 95); fill-opacity: 1; white-space: pre; opacity: 1;" transform="translate(180.62,0)">1000</text></g><g class="xtick"><text text-anchor="middle" x="0" y="433" style="font-family: 'Open Sans', verdana, arial, sans-serif; font-size: 12px; fill: rgb(42, 63, 95); fill-opacity: 1; white-space: pre; opacity: 1;" transform="translate(281.24,0)">2000</text></g><g class="xtick"><text text-anchor="middle" x="0" y="433" style="font-family: 'Open Sans', verdana, arial, sans-serif; font-size: 12px; fill: rgb(42, 63, 95); fill-opacity: 1; white-space: pre; opacity: 1;" transform="translate(381.86,0)">3000</text></g><g class="xtick"><text text-anchor="middle" x="0" y="433" style="font-family: 'Open Sans', verdana, arial, sans-serif; font-size: 12px; fill: rgb(42, 63, 95); fill-opacity: 1; white-space: pre; opacity: 1;" transform="translate(482.48,0)">4000</text></g></g><g class="yaxislayer-above"><g class="ytick"><text text-anchor="end" x="79" y="3.15" transform="translate(0,394.41)" style="font-family: 'Open Sans', verdana, arial, sans-serif; font-size: 9px; fill: rgb(42, 63, 95); fill-opacity: 1; white-space: pre; opacity: 1;">2</text></g><g class="ytick"><text text-anchor="end" x="79" y="3.15" style="font-family: 'Open Sans', verdana, arial, sans-serif; font-size: 9px; fill: rgb(42, 63, 95); fill-opacity: 1; white-space: pre; opacity: 1;" transform="translate(0,362.81)">3</text></g><g class="ytick"><text text-anchor="end" x="79" y="3.15" style="font-family: 'Open Sans', verdana, arial, sans-serif; font-size: 9px; fill: rgb(42, 63, 95); fill-opacity: 1; white-space: pre; opacity: 1;" transform="translate(0,340.39)">4</text></g><g class="ytick"><text text-anchor="end" x="79" y="3.15" style="font-family: 'Open Sans', verdana, arial, sans-serif; font-size: 9px; fill: rgb(42, 63, 95); fill-opacity: 1; white-space: pre; opacity: 1;" transform="translate(0,323)">5</text></g><g class="ytick"><text text-anchor="end" x="79" y="3.15" style="font-family: 'Open Sans', verdana, arial, sans-serif; font-size: 9px; fill: rgb(42, 63, 95); fill-opacity: 1; white-space: pre; opacity: 1;" transform="translate(0,308.78999999999996)">6</text></g><g class="ytick"><text text-anchor="end" x="79" y="3.15" style="font-family: 'Open Sans', verdana, arial, sans-serif; font-size: 9px; fill: rgb(42, 63, 95); fill-opacity: 1; white-space: pre; opacity: 1;" transform="translate(0,296.78)">7</text></g><g class="ytick"><text text-anchor="end" x="79" y="3.15" style="font-family: 'Open Sans', verdana, arial, sans-serif; font-size: 9px; fill: rgb(42, 63, 95); fill-opacity: 1; white-space: pre; opacity: 1;" transform="translate(0,286.37)">8</text></g><g class="ytick"><text text-anchor="end" x="79" y="3.15" style="font-family: 'Open Sans', verdana, arial, sans-serif; font-size: 9px; fill: rgb(42, 63, 95); fill-opacity: 1; white-space: pre; opacity: 1;" transform="translate(0,277.19)">9</text></g><g class="ytick"><text text-anchor="end" x="76" y="2.1999999999999993" style="font-family: 'Open Sans', verdana, arial, sans-serif; font-size: 12px; fill: rgb(42, 63, 95); fill-opacity: 1; white-space: pre; opacity: 1;" transform="translate(0,268.98)">1</text></g><g class="ytick"><text text-anchor="end" x="79" y="3.15" style="font-family: 'Open Sans', verdana, arial, sans-serif; font-size: 9px; fill: rgb(42, 63, 95); fill-opacity: 1; white-space: pre; opacity: 1;" transform="translate(0,214.97)">2</text></g><g class="ytick"><text text-anchor="end" x="79" y="3.15" style="font-family: 'Open Sans', verdana, arial, sans-serif; font-size: 9px; fill: rgb(42, 63, 95); fill-opacity: 1; white-space: pre; opacity: 1;" transform="translate(0,183.37)">3</text></g><g class="ytick"><text text-anchor="end" x="79" y="3.15" style="font-family: 'Open Sans', verdana, arial, sans-serif; font-size: 9px; fill: rgb(42, 63, 95); fill-opacity: 1; white-space: pre; opacity: 1;" transform="translate(0,160.95)">4</text></g><g class="ytick"><text text-anchor="end" x="79" y="3.15" style="font-family: 'Open Sans', verdana, arial, sans-serif; font-size: 9px; fill: rgb(42, 63, 95); fill-opacity: 1; white-space: pre; opacity: 1;" transform="translate(0,143.56)">5</text></g><g class="ytick"><text text-anchor="end" x="79" y="3.15" style="font-family: 'Open Sans', verdana, arial, sans-serif; font-size: 9px; fill: rgb(42, 63, 95); fill-opacity: 1; white-space: pre; opacity: 1;" transform="translate(0,129.35)">6</text></g><g class="ytick"><text text-anchor="end" x="79" y="3.15" style="font-family: 'Open Sans', verdana, arial, sans-serif; font-size: 9px; fill: rgb(42, 63, 95); fill-opacity: 1; white-space: pre; opacity: 1;" transform="translate(0,117.34)">7</text></g><g class="ytick"><text text-anchor="end" x="79" y="3.15" style="font-family: 'Open Sans', verdana, arial, sans-serif; font-size: 9px; fill: rgb(42, 63, 95); fill-opacity: 1; white-space: pre; opacity: 1;" transform="translate(0,106.93)">8</text></g></g><g class="overaxes-above"/></g></g><g class="polarlayer"/><g class="smithlayer"/><g class="ternarylayer"/><g class="geolayer"/><g class="funnelarealayer"/><g class="pielayer"/><g class="iciclelayer"/><g class="treemaplayer"/><g class="sunburstlayer"/><g class="glimages"/><defs id="topdefs-3cb1d8"><g class="clips"/><clipPath id="legend3cb1d8"><rect width="95" height="29" x="0" y="0"/></clipPath></defs><g class="layer-above"><g class="imagelayer"/><g class="shapelayer"/></g><g class="infolayer"><g class="legend" pointer-events="all" transform="translate(593.0600000000001,100)"><rect class="bg" shape-rendering="crispEdges" width="95" height="29" x="0" y="0" style="stroke: rgb(68, 68, 68); stroke-opacity: 1; fill: rgb(255, 255, 255); fill-opacity: 1; stroke-width: 0px;"/><g class="scrollbox" transform="" clip-path="url(#legend3cb1d8)"><g class="groups"><g class="traces" transform="translate(0,14.5)" style="opacity: 1;"><text class="legendtext" text-anchor="start" x="40" y="4.680000000000001" style="font-family: 'Open Sans', verdana, arial, sans-serif; font-size: 12px; fill: rgb(42, 63, 95); fill-opacity: 1; white-space: pre;">Best Run</text><g class="layers" style="opacity: 1;"><g class="legendfill"/><g class="legendlines"><path class="js-line" d="M5,0h30" style="fill: none; stroke: rgb(255, 0, 0); stroke-opacity: 1; stroke-width: 2px;"/></g><g class="legendsymbols"><g class="legendpoints"/></g></g><rect class="legendtoggle" x="0" y="-9.5" width="89.359375" height="19" style="fill: rgb(0, 0, 0); fill-opacity: 0;"/></g></g></g><rect class="scrollbar" rx="20" ry="3" width="0" height="0" x="0" y="0" style="fill: rgb(128, 139, 164); fill-opacity: 1;"/></g><g class="g-gtitle"><text class="gtitle" x="35" y="50" text-anchor="start" dy="0em" style="font-family: 'Open Sans', verdana, arial, sans-serif; font-size: 17px; fill: rgb(42, 63, 95); opacity: 1; white-space: pre;">Fitness history | ES - P1</text></g><g class="g-xtitle"><text class="xtitle" x="331.5" y="460.3" text-anchor="middle" style="font-family: 'Open Sans', verdana, arial, sans-serif; font-size: 14px; fill: rgb(42, 63, 95); opacity: 1; white-space: pre;">Generation</text></g><g class="g-ytitle"><text class="ytitle" transform="rotate(-90,49.9125,260)" x="49.9125" y="260" text-anchor="middle" style="font-family: 'Open Sans', verdana, arial, sans-serif; font-size: 14px; fill: rgb(42, 63, 95); opacity: 1; white-space: pre;">Fitness (log scale)</text></g></g></svg>