<svg class="main-svg" xmlns="http://www.w3.org/2000/svg" xmlns:xlink="http://www.w3.org/1999/xlink" width="700" height="500" style="" viewBox="0 0 700 500"><rect x="0" y="0" width="700" height="500" style="fill: rgb(255, 255, 255); fill-opacity: 1;"/><defs id="defs-a5b429"><g class="clips"><clipPath id="clipa5b429xyplot" class="plotclip"><rect width="499" height="320"/></clipPath><clipPath class="axesclip" id="clipa5b429x"><rect x="80" y="0" width="499" height="500"/></clipPath><clipPath class="axesclip" id="clipa5b429y"><rect x="0" y="100" width="700" height="320"/></clipPath><clipPath class="axesclip" id="clipa5b429xy"><rect x="80" y="100" width="499" height="320"/></clipPath></g><g class="gradients"/><g class="patterns"/></defs><g class="bglayer"><rect class="bg" x="80" y="100" width="499" height="320" style="fill: rgb(229, 236, 246); fill-opacity: 1; stroke-width: 0;"/></g><g class="layer-below"><g class="imagelayer"/><g class="shapelayer"/></g><g class="cartesianlayer"><g class="subplot xy"><g class="layer-subplot"><g class="shapelayer"/><g class="imagelayer"/></g><g class="minor-gridlayer"><g class="x"/><g class="y"/></g><g class="gridlayer"><g class="x"><path class="xgrid crisp" transform="translate(179.82,0)" d="M0,100v320" style="stroke: rgb(255, 255, 255); stroke-opacity: 1; stroke-width: 1px;"/><path class="xgrid crisp" transform="translate(279.64,0)" d="M0,100v320" style="stroke: rgb(255, 255, 255); stroke-opacity: 1; stroke-width: 1px;"/><path class="xgrid crisp" transform="translate(379.46,0)" d="M0,100v320" style="stroke: rgb(255, 255, 255); stroke-opacity: 1; stroke-width: 1px;"/><path class="xgrid crisp" transform="translate(479.28,0)" d="M0,100v320" style="stroke: rgb(255, 255, 255); stroke-opacity: 1; stroke-width: 1px;"/></g><g class="y"><path class="ygrid crisp" transform="translate(0,385.7)" d="M80,0h499" style="stroke: rgb(255, 255, 255); stroke-opacity: 1; stroke-width: 1px;"/><path class="ygrid crisp" transform="translate(0,354.06)" d="M80,0h499" style="stroke: rgb(255, 255, 255); stroke-opacity: 1; stroke-width: 1px;"/><path class="ygrid crisp" transform="translate(0,331.61)" d="M80,0h499" style="stroke: rgb(255, 255, 255); stroke-opacity: 1; stroke-width: 1px;"/><path class="ygrid crisp" transform="translate(0,314.2)" d="M80,0h499" style="stroke: rgb(255, 255, 255); stroke-opacity: 1; stroke-width: 1px;"/><path class="ygrid crisp" transform="translate(0,299.97)" d="M80,0h499" style="stroke: rgb(255, 255, 255); stroke-opacity: 1; stroke-width: 1px;"/><path class="ygrid crisp" transform="translate(0,287.95)" d="M80,0h499" style="stroke: rgb(255, 255, 255); stroke-opacity: 1; stroke-width: 1px;"/><path class="ygrid crisp" transform="translate(0,277.53)" d="M80,0h499" style="stroke: rgb(255, 255, 255); stroke-opacity: 1; stroke-width: 1px;"/><path class="ygrid crisp" transform="translate(0,268.34000000000003)" d="M80,0h499" style="stroke: rgb(255, 255, 255); stroke-opacity: 1; stroke-width: 1px;"/><path class="ygrid crisp" transform="translate(0,260.12)" d="M80,0h499" style="stroke: rgb(255, 255, 255); stroke-opacity: 1; stroke-width: 1px;"/><path class="ygrid crisp" transform="translate(0,206.03)" d="M80,0h499" style="stroke: rgb(255, 255, 255); stroke-opacity: 1; stroke-width: 1px;"/><path class="ygrid crisp" transform="translate(0,174.39)" d="M80,0h499" style="stroke: rgb(255, 255, 255); stroke-opacity: 1; stroke-width: 1px;"/><path class="ygrid crisp" transform="translate(0,151.95)" d="M80,0h499" style="stroke: rgb(255, 255, 255); stroke-opacity: 1; stroke-width: 1px;"/><path class="ygrid crisp" transform="translate(0,134.54)" d="M80,0h499" style="stroke: rgb(255, 255, 255); stroke-opacity: 1; stroke-width: 1px;"/><path class="ygrid crisp" transform="translate(0,120.31)" d="M80,0h499" style="stroke: rgb(255, 255, 255); stroke-opacity: 1; stroke-width: 1px;"/><path class="ygrid crisp" transform="translate(0,108.28)" d="M80,0h499" style="stroke: rgb(255, 255, 255); stroke-opacity: 1; stroke-width: 1px;"/></g></g><g class="zerolinelayer"><path class="xzl zl crisp" transform="translate(80,0)" d="M0,100v320" style="stroke: rgb(255, 255, 255); stroke-opacity: 1; stroke-width: 2px;"/></g><path class="xlines-below"/><path class="ylines-below"/><g class="overlines-below"/><g class="xaxislayer-below"/><g class="yaxislayer-below"/><g class="overaxes-below"/><g class="plot" transform="translate(80,100)" clip-path="url(#clipa5b429xyplot)"><g class="scatterlayer mlayer"><g class="trace scatter trace657f4e" style="stroke-miterlimit: 2; opacity: 0.05;"><g class="fills"/><g class="errorbars"/><g class="lines"><path class="js-line" d="M0,60.39L1.8,230.22L1.9,230.22L4.79,230.24L4.89,253.94L34.64,253.94L34.74,263.16L37.33,263.16L37.43,265.78L217.81,265.78L217.91,280.68L499,280.68" style="vector-effect: none; fill: none; stroke: rgb(0, 0, 255); stroke-opacity: 1; stroke-width: 2px; opacity: 1;"/></g><g class="points"/><g class="text"/></g><g class="trace scatter traceeef9ad" style="stroke-miterlimit: 2; opacity: 0.05;"><g class="fills"/><g class="errorbars"/><g class="lines"><path class="js-line" d="M0,46.08L1.2,169.24L1.3,170.92L2.3,215.44L2.4,215.44L3.29,234.5L3.39,272.79L4.19,273.63L4.29,273.63L194.65,273.63L194.75,274.89L499,274.89" style="vector-effect: none; fill: none; stroke: rgb(0, 0, 255); stroke-opacity: 1; stroke-width: 2px; opacity: 1;"/></g><g class="points"/><g class="text"/></g><g class="trace scatter tracecfde52" style="stroke-miterlimit: 2; opacity: 0.05;"><g class="fills"/><g class="errorbars"/><g class="lines"><path class="js-line" d="M0,96.59L0.9,169.86L1,174.35L2.1,211.67L2.2,211.67L2.99,211.67L3.09,221.89L3.59,221.89L3.69,225.2L4.89,225.2L4.99,231.65L7.19,231.65L7.29,237.19L11.08,237.83L11.18,248.06L11.88,248.06L11.98,265.66L41.72,265.66L41.82,267.72L99.62,267.72L99.72,285.26L499,285.26" style="vector-effect: none; fill: none; stroke: rgb(0, 0, 255); stroke-opacity: 1; stroke-width: 2px; opacity: 1;"/></g><g class="points"/><g class="text"/></g><g class="trace scatter trace4e0dfc" style="stroke-miterlimit: 2; opacity: 0.05;"><g class="fills"/><g class="errorbars"/><g class="lines"><path class="js-line" d="M0,93.93L0.6,163.5L0.7,200.98L1,206.16L1.1,217.88L3.19,217.88L3.29,222.38L4.29,230.62L4.39,230.62L5.59,230.62L5.69,251.21L17.57,251.21L17.67,254.35L22.96,254.35L23.06,268.64L89.84,268.91L89.94,272.97L488.22,272.97L488.32,283.55L499,283.55" style="vector-effect: none; fill: none; stroke: rgb(0, 0, 255); stroke-opacity: 1; stroke-width: 2px; opacity: 1;"/></g><g class="points"/><g class="text"/></g><g class="trace scatter trace5a166d" style="stroke-miterlimit: 2; opacity: 0.05;"><g class="fills"/><g class="errorbars"/><g class="lines"><path class="js-line" d="M0,69.79L0.2,100.87L0.3,128.55L1.4,197.71L1.5,197.71L2.6,236.95L2.7,236.95L9.28,236.95L9.38,243.34L40.53,243.34L40.63,249.57L57.4,249.57L57.5,257.38L57.8,257.38L57.9,259.67L65.58,259.67L65.68,260.93L88.54,260.93L88.64,272.9L168.6,272.9L168.7,284.78L413.65,284.78L413.75,289.55L499,289.55" style="vector-effect: none; fill: none; stroke: rgb(0, 0, 255); stroke-opacity: 1; stroke-width: 2px; opacity: 1;"/></g><g class="points"/><g class="text"/></g><g class="trace scatter tracef6353f" style="stroke-miterlimit: 2; opacity: 0.05;"><g class="fills"/><g class="errorbars"/><g class="lines"><path class="js-line" d="M0,68.72L1.5,223.76L1.6,223.76L2.4,277.26L2.5,277.26L40.93,277.26L41.03,293.4L499,293.4" style="vector-effect: none; fill: none; stroke: rgb(0, 0, 255); stroke-opacity: 1; stroke-width: 2px; opacity: 1;"/></g><g class="points"/><g class="text"/></g><g class="trace scatter trace9bdc3a" style="stroke-miterlimit: 2; opacity: 0.05;"><g class="fills"/><g class="errorbars"/><g class="lines"><path class="js-line" d="M0,94.38L1.2,192.85L1.3,192.85L2.2,229.98L2.3,229.98L3.09,235.37L3.19,235.37L3.79,235.37L3.89,239.26L11.28,239.26L11.38,246.11L13.48,246.11L13.58,251.82L24.46,251.82L24.56,274.55L94.13,274.55L94.23,276.88L223.9,276.88L224,279.74L439.81,279.74L439.91,283.05L468.46,283.05L468.55,284.2L499,284.2" style="vector-effect: none; fill: none; stroke: rgb(0, 0, 255); stroke-opacity: 1; stroke-width: 2px; opacity: 1;"/></g><g class="points"/><g class="text"/></g><g class="trace scatter trace3b889c" style="stroke-miterlimit: 2; opacity: 0.05;"><g class="fills"/><g class="errorbars"/><g class="lines"><path class="js-line" d="M0,45.9L1,136.54L1.1,145.93L2.2,166.51L2.3,194.71L2.6,194.71L2.7,197.52L2.79,197.82L2.89,209.7L3.29,209.7L3.39,222.23L4.29,231.26L4.39,231.26L8.29,231.26L8.38,238.82L8.98,238.82L9.08,259.2L98.92,259.84L99.02,271.35L268.72,271.35L268.82,274.51L351.77,274.51L351.87,295.21L499,295.21" style="vector-effect: none; fill: none; stroke: rgb(0, 0, 255); stroke-opacity: 1; stroke-width: 2px; opacity: 1;"/></g><g class="points"/><g class="text"/></g><g class="trace scatter traceeb496e" style="stroke-miterlimit: 2; opacity: 0.05;"><g class="fills"/><g class="errorbars"/><g class="lines"><path class="js-line" d="M0,45.24L1.1,143.96L1.2,143.96L2.2,159.55L2.3,159.55L2.7,165L2.79,179.42L3.09,179.42L3.19,183.27L3.99,194.44L4.09,194.44L4.39,194.44L4.49,196.3L5.39,259.61L5.49,259.61L15.07,259.61L15.17,279.38L233.18,279.38L233.28,281.27L499,281.27" style="vector-effect: none; fill: none; stroke: rgb(0, 0, 255); stroke-opacity: 1; stroke-width: 2px; opacity: 1;"/></g><g class="points"/><g class="text"/></g><g class="trace scatter trace005c7c" style="stroke-miterlimit: 2; opacity: 0.05;"><g class="fills"/><g class="errorbars"/><g class="lines"><path class="js-line" d="M0,16L1.5,166.56L1.6,166.56L2.6,217.6L2.7,217.6L2.89,217.6L2.99,220.63L3.59,221.34L3.69,245.57L11.28,245.57L11.38,246.72L17.77,246.72L17.87,249.25L27.55,249.62L27.65,250.38L32.94,250.38L33.04,253.79L43.52,253.79L43.62,255.82L122.28,255.82L122.38,260.6L144.14,260.6L144.24,271.17L499,271.17" style="vector-effect: none; fill: none; stroke: rgb(0, 0, 255); stroke-opacity: 1; stroke-width: 2px; opacity: 1;"/></g><g class="points"/><g class="text"/></g><g class="trace scatter trace42359e" style="stroke-miterlimit: 2; opacity: 0.05;"><g class="fills"/><g class="errorbars"/><g class="lines"><path class="js-line" d="M0,70.67L1.1,202.83L1.2,230.45L3.59,230.45L3.69,239.33L7.89,239.33L7.99,245.21L51.31,245.21L51.41,256.19L58.99,256.19L59.09,269.2L174.19,269.2L174.29,272.18L259.93,272.18L260.03,283.34L260.83,289.98L260.93,289.98L499,289.98" style="vector-effect: none; fill: none; stroke: rgb(0, 0, 255); stroke-opacity: 1; stroke-width: 2px; opacity: 1;"/></g><g class="points"/><g class="text"/></g><g class="trace scatter tracebb3219" style="stroke-miterlimit: 2; opacity: 0.05;"><g class="fills"/><g class="errorbars"/><g class="lines"><path class="js-line" d="M0,45.53L0.9,155.57L1,177.81L1.6,177.88L1.7,180.78L2.5,223.27L2.6,223.27L5.19,223.27L5.29,246.07L6.29,246.07L6.39,247.77L20.26,247.77L20.36,255.66L43.72,255.66L43.82,278.61L499,278.61" style="vector-effect: none; fill: none; stroke: rgb(0, 0, 255); stroke-opacity: 1; stroke-width: 2px; opacity: 1;"/></g><g class="points"/><g class="text"/></g><g class="trace scatter trace9c0d9a" style="stroke-miterlimit: 2; opacity: 0.05;"><g class="fills"/><g class="errorbars"/><g class="lines"><path class="js-line" d="M0,63.14L0.4,124.86L0.5,143.7L1.6,233.14L1.7,233.14L2.7,233.14L2.79,250.19L14.77,250.19L14.87,257.26L124.48,257.41L124.58,261.14L160.31,261.14L160.41,263.44L234.98,263.44L235.08,281.78L499,281.78" style="vector-effect: none; fill: none; stroke: rgb(0, 0, 255); stroke-opacity: 1; stroke-width: 2px; opacity: 1;"/></g><g class="points"/><g class="text"/></g><g class="trace scatter trace0c8778" style="stroke-miterlimit: 2; opacity: 0.05;"><g class="fills"/><g class="errorbars"/><g class="lines"><path class="js-line" d="M0,97.5L1.2,211.5L1.3,211.5L2.2,214.81L2.3,214.81L2.89,216.82L2.99,256.58L39.63,256.58L39.73,288.72L499,288.72" style="vector-effect: none; fill: none; stroke: rgb(0, 0, 255); stroke-opacity: 1; stroke-width: 2px; opacity: 1;"/></g><g class="points"/><g class="text"/></g><g class="trace scatter trace438488" style="stroke-miterlimit: 2; opacity: 0.05;"><g class="fills"/><g class="errorbars"/><g class="lines"><path class="js-line" d="M0,44.32L1.6,232.82L1.7,232.82L3.99,232.82L4.09,237.33L12.18,237.33L12.28,256.09L16.37,256.09L16.47,262.95L32.74,262.95L32.84,268.9L85.15,268.9L85.25,277.79L260.43,277.79L260.53,279.16L499,279.16" style="vector-effect: none; fill: none; stroke: rgb(0, 0, 255); stroke-opacity: 1; stroke-width: 2px; opacity: 1;"/></g><g class="points"/><g class="text"/></g><g class="trace scatter tracef4964d" style="stroke-miterlimit: 2; opacity: 0.05;"><g class="fills"/><g class="errorbars"/><g class="lines"><path class="js-line" d="M0,76.16L0.8,148.5L0.9,173.79L1.1,174.96L1.2,191.38L2.1,206.16L2.2,208.49L2.99,208.49L3.09,213.44L3.49,213.44L3.59,219.34L4.69,219.34L4.79,221.18L8.88,221.21L8.98,222.31L9.98,222.31L10.08,227.84L10.98,236.87L11.08,236.87L14.07,236.87L14.17,243.91L55,243.91L55.1,259.01L69.67,259.01L69.77,262.69L83.35,262.69L83.45,282.78L499,282.78" style="vector-effect: none; fill: none; stroke: rgb(0, 0, 255); stroke-opacity: 1; stroke-width: 2px; opacity: 1;"/></g><g class="points"/><g class="text"/></g><g class="trace scatter traceb4fc42" style="stroke-miterlimit: 2; opacity: 0.05;"><g class="fills"/><g class="errorbars"/><g class="lines"><path class="js-line" d="M0,47.35L1,137.33L1.1,137.33L2.4,210.35L2.5,210.35L4.29,210.35L4.39,250.97L7.89,250.97L7.99,253.12L21.46,253.12L21.56,267.75L223.8,267.75L223.9,273.36L440.41,273.36L440.51,282.75L499,282.75" style="vector-effect: none; fill: none; stroke: rgb(0, 0, 255); stroke-opacity: 1; stroke-width: 2px; opacity: 1;"/></g><g class="points"/><g class="text"/></g><g class="trace scatter trace29a7d1" style="stroke-miterlimit: 2; opacity: 0.05;"><g class="fills"/><g class="errorbars"/><g class="lines"><path class="js-line" d="M0,76.62L1.4,164.08L1.5,164.08L2.7,219.95L2.79,219.95L3.59,222.22L3.69,222.22L3.99,222.22L4.09,224.78L5.59,224.78L5.69,225.94L8.88,225.94L8.98,232.34L9.18,232.34L9.28,241.52L13.38,241.52L13.48,242.45L21.06,242.45L21.16,248.34L36.83,248.34L36.93,260.52L55,260.52L55.1,262.14L155.22,262.39L155.32,272.01L499,272.01" style="vector-effect: none; fill: none; stroke: rgb(0, 0, 255); stroke-opacity: 1; stroke-width: 2px; opacity: 1;"/></g><g class="points"/><g class="text"/></g><g class="trace scatter trace4fd9a4" style="stroke-miterlimit: 2; opacity: 0.05;"><g class="fills"/><g class="errorbars"/><g class="lines"><path class="js-line" d="M0,60.5L1.3,181.45L1.4,184.67L1.7,184.67L1.8,220.35L2,220.35L2.1,245.98L3.29,245.98L3.39,248.97L4.29,248.97L4.39,250.34L13.58,250.34L13.68,251.44L28.45,251.44L28.55,261.84L39.03,261.84L39.13,265.91L69.08,265.91L69.18,269.11L100.52,269.11L100.62,269.88L319.22,269.88L319.32,273.38L324.71,273.38L324.81,281.66L499,281.66" style="vector-effect: none; fill: none; stroke: rgb(0, 0, 255); stroke-opacity: 1; stroke-width: 2px; opacity: 1;"/></g><g class="points"/><g class="text"/></g><g class="trace scatter trace6e99bc" style="stroke-miterlimit: 2; opacity: 0.05;"><g class="fills"/><g class="errorbars"/><g class="lines"><path class="js-line" d="M0,73.18L1.5,192.76L1.6,192.76L1.9,192.76L2,200.99L2.99,234.36L3.09,234.36L7.29,234.36L7.39,249.37L28.55,249.37L28.65,256.33L63.29,256.33L63.39,257.78L68.18,257.78L68.28,273.95L68.48,273.95L68.58,285.73L499,285.73" style="vector-effect: none; fill: none; stroke: rgb(0, 0, 255); stroke-opacity: 1; stroke-width: 2px; opacity: 1;"/></g><g class="points"/><g class="text"/></g><g class="trace scatter trace7d7315" style="stroke-miterlimit: 2; opacity: 0.05;"><g class="fills"/><g class="errorbars"/><g class="lines"><path class="js-line" d="M0,25.22L0.2,60.64L0.3,101.74L2.1,176.86L2.2,176.86L3.19,224.13L3.29,224.13L4.69,234.46L4.79,234.46L6.09,234.46L6.19,236.06L6.69,236.06L6.79,266.13L81.75,266.13L81.85,288.85L150.93,288.85L151.03,293.71L499,293.71" style="vector-effect: none; fill: none; stroke: rgb(0, 0, 255); stroke-opacity: 1; stroke-width: 2px; opacity: 1;"/></g><g class="points"/><g class="text"/></g><g class="trace scatter trace79954b" style="stroke-miterlimit: 2; opacity: 0.05;"><g class="fills"/><g class="errorbars"/><g class="lines"><path class="js-line" d="M0,45.72L1.4,213.28L1.5,213.28L1.8,213.28L1.9,216.4L7.19,216.4L7.29,232.52L7.49,232.52L7.59,256.02L80.45,256.02L80.55,260.44L81.65,260.44L81.75,269.69L129.77,269.69L129.87,279.77L499,279.77" style="vector-effect: none; fill: none; stroke: rgb(0, 0, 255); stroke-opacity: 1; stroke-width: 2px; opacity: 1;"/></g><g class="points"/><g class="text"/></g><g class="trace scatter traceca1b87" style="stroke-miterlimit: 2; opacity: 0.05;"><g class="fills"/><g class="errorbars"/><g class="lines"><path class="js-line" d="M0,53.99L0.7,146L0.8,171.8L1.9,204.97L2,204.97L2.79,229.9L2.89,229.9L7.19,229.9L7.29,242.84L18.57,242.84L18.67,266.82L41.82,266.82L41.92,275.21L127.27,275.21L127.37,276.58L294.67,276.58L294.77,285.3L499,285.3" style="vector-effect: none; fill: none; stroke: rgb(0, 0, 255); stroke-opacity: 1; stroke-width: 2px; opacity: 1;"/></g><g class="points"/><g class="text"/></g><g class="trace scatter trace197c99" style="stroke-miterlimit: 2; opacity: 0.05;"><g class="fills"/><g class="errorbars"/><g class="lines"><path class="js-line" d="M0,22.49L1.7,228.21L1.8,228.21L3.59,228.21L3.69,235.58L11.18,235.58L11.28,254.83L19.76,254.83L19.86,269.92L204.23,269.92L204.33,273.25L211.12,273.25L211.22,282.59L499,282.59" style="vector-effect: none; fill: none; stroke: rgb(0, 0, 255); stroke-opacity: 1; stroke-width: 2px; opacity: 1;"/></g><g class="points"/><g class="text"/></g><g class="trace scatter trace31be8b" style="stroke-miterlimit: 2; opacity: 0.05;"><g class="fills"/><g class="errorbars"/><g class="lines"><path class="js-line" d="M0,93.33L0.1,94.03L0.2,109.61L1.2,157.77L1.3,157.77L2.5,255.26L2.6,255.26L23.96,255.26L24.06,261.5L32.64,261.5L32.74,272.61L45.62,272.61L45.72,273.96L499,274.12" style="vector-effect: none; fill: none; stroke: rgb(0, 0, 255); stroke-opacity: 1; stroke-width: 2px; opacity: 1;"/></g><g class="points"/><g class="text"/></g><g class="trace scatter traceaccf6e" style="stroke-miterlimit: 2; opacity: 0.05;"><g class="fills"/><g class="errorbars"/><g class="lines"><path class="js-line" d="M0,65.59L1.1,194.53L1.2,196.23L2.3,210.69L2.4,210.69L2.6,210.69L2.7,252.25L9.68,252.25L9.78,257.79L133.86,257.79L133.96,259.34L220.3,259.34L220.4,280.52L499,280.52" style="vector-effect: none; fill: none; stroke: rgb(0, 0, 255); stroke-opacity: 1; stroke-width: 2px; opacity: 1;"/></g><g class="points"/><g class="text"/></g><g class="trace scatter tracec488dc" style="stroke-miterlimit: 2; opacity: 0.05;"><g class="fills"/><g class="errorbars"/><g class="lines"><path class="js-line" d="M0,59.55L1.5,190.6L1.6,190.6L1.9,190.6L2,197.99L3.09,247.62L3.19,247.62L12.18,247.62L12.28,252.13L13.97,252.13L14.07,253.61L24.36,253.61L24.46,254.7L33.14,254.7L33.24,255.53L161.61,255.81L161.71,258.39L163.9,258.39L164,291.25L419.74,291.79L419.84,304L499,304" style="vector-effect: none; fill: none; stroke: rgb(0, 0, 255); stroke-opacity: 1; stroke-width: 2px; opacity: 1;"/></g><g class="points"/><g class="text"/></g><g class="trace scatter trace44165f" style="stroke-miterlimit: 2; opacity: 0.05;"><g class="fills"/><g class="errorbars"/><g class="lines"><path class="js-line" d="M0,52.85L1.2,203.02L1.3,209.8L1.9,209.8L2,223.25L2.5,223.25L2.6,229.58L3.29,229.58L3.39,241.01L5.39,241.01L5.49,250L8.38,250L8.48,263.1L171.99,263.1L172.09,267.48L409.26,268.17L409.36,271.54L499,271.54" style="vector-effect: none; fill: none; stroke: rgb(0, 0, 255); stroke-opacity: 1; stroke-width: 2px; opacity: 1;"/></g><g class="points"/><g class="text"/></g><g class="trace scatter trace4eeecf" style="stroke-miterlimit: 2; opacity: 0.05;"><g class="fills"/><g class="errorbars"/><g class="lines"><path class="js-line" d="M0,38.68L1.2,171.02L1.3,176.95L2.2,197.35L2.3,197.35L2.5,197.35L2.6,226.64L3.29,226.64L3.39,232.15L5.29,232.15L5.39,248.45L8.29,248.45L8.38,255.78L16.27,255.78L16.37,276.84L499,276.84" style="vector-effect: none; fill: none; stroke: rgb(0, 0, 255); stroke-opacity: 1; stroke-width: 2px; opacity: 1;"/></g><g class="points"/><g class="text"/></g><g class="trace scatter trace077d93" style="stroke-miterlimit: 2; opacity: 0.05;"><g class="fills"/><g class="errorbars"/><g class="lines"><path class="js-line" d="M0,78.11L1.4,186.58L1.5,186.58L2,186.58L2.1,217.57L2.3,217.57L2.4,224.09L2.79,224.09L2.89,251.27L14.07,251.33L14.17,260.2L17.37,260.2L17.47,287.14L499,287.14" style="vector-effect: none; fill: none; stroke: rgb(0, 0, 255); stroke-opacity: 1; stroke-width: 2px; opacity: 1;"/></g><g class="points"/><g class="text"/></g><g class="trace scatter trace5bffe7" style="stroke-miterlimit: 2; opacity: 0.05;"><g class="fills"/><g class="errorbars"/><g class="lines"><path class="js-line" d="M0,83.85L1.9,188.63L2,188.63L3.89,188.63L3.99,196.53L4.99,224.77L5.09,224.77L5.59,224.77L5.69,232.89L9.18,232.89L9.28,267.11L240.97,267.11L241.07,274.78L365.84,274.78L365.94,279.83L459.57,279.83L459.67,286.62L499,286.62" style="vector-effect: none; fill: none; stroke: rgb(0, 0, 255); stroke-opacity: 1; stroke-width: 2px; opacity: 1;"/></g><g class="points"/><g class="text"/></g><g class="trace scatter trace7846ed" style="stroke-miterlimit: 2; opacity: 0.05;"><g class="fills"/><g class="errorbars"/><g class="lines"><path class="js-line" d="M0,58.35L1.5,200.57L1.6,202.18L1.9,202.18L2,204.13L2.79,236.65L2.89,236.65L9.48,236.65L9.58,245.04L24.26,245.04L24.36,247.09L36.53,247.09L36.63,248.54L55,248.54L55.1,253.95L65.48,253.95L65.58,262.57L103.21,262.57L103.31,267.81L137.95,267.81L138.05,272.95L149.33,272.95L149.43,280.9L173.29,280.9L173.39,286.85L499,286.85" style="vector-effect: none; fill: none; stroke: rgb(0, 0, 255); stroke-opacity: 1; stroke-width: 2px; opacity: 1;"/></g><g class="points"/><g class="text"/></g><g class="trace scatter tracef6b241" style="stroke-miterlimit: 2; opacity: 1;"><g class="fills"/><g class="errorbars"/><g class="lines"><path class="js-line" d="M0,40.39L1.2,184.06L1.3,184.06L1.7,184.06L1.8,207.77L2.79,226.99L2.89,226.99L6.49,226.99L6.59,229.71L10.28,229.71L10.38,245.59L13.68,245.59L13.78,250.21L16.27,250.21L16.37,252.91L23.06,252.91L23.16,253.94L52.51,253.94L52.61,256.96L64.58,256.96L64.68,264.01L76.66,264.01L76.76,271.74L499,271.74" style="vector-effect: none; fill: none; stroke: rgb(255, 0, 0); stroke-opacity: 1; stroke-width: 2px; opacity: 1;"/></g><g class="points"/><g class="text"/></g><g class="trace scatter trace1c4c6f" style="stroke-miterlimit: 2; opacity: 0.05;"><g class="fills"/><g class="errorbars"/><g class="lines"><path class="js-line" d="M0,42.21L1.5,143.32L1.6,143.52L2.3,155.08L2.4,168.62L2.7,168.62L2.79,181.38L3.69,206.99L3.79,206.99L4.49,206.99L4.59,239.13L5.49,243.28L5.59,243.28L9.88,243.28L9.98,250.16L12.78,250.16L12.88,267.12L64.88,267.39L64.98,269.58L303.25,269.58L303.35,272.37L336.09,272.37L336.19,273.66L447.29,273.66L447.39,287.19L499,287.19" style="vector-effect: none; fill: none; stroke: rgb(0, 0, 255); stroke-opacity: 1; stroke-width: 2px; opacity: 1;"/></g><g class="points"/><g class="text"/></g><g class="trace scatter tracee6d67d" style="stroke-miterlimit: 2; opacity: 0.05;"><g class="fills"/><g class="errorbars"/><g class="lines"><path class="js-line" d="M0,48.89L1.2,232.92L1.3,232.92L2.1,245.19L2.2,245.19L12.28,245.19L12.38,260.2L44.52,260.2L44.62,271.97L126.17,271.97L126.27,281.24L403.27,281.24L403.37,288.33L499,288.33" style="vector-effect: none; fill: none; stroke: rgb(0, 0, 255); stroke-opacity: 1; stroke-width: 2px; opacity: 1;"/></g><g class="points"/><g class="text"/></g><g class="trace scatter trace984ac3" style="stroke-miterlimit: 2; opacity: 0.05;"><g class="fills"/><g class="errorbars"/><g class="lines"><path class="js-line" d="M0,59.29L1.8,185.19L1.9,186.07L2.79,199.17L2.89,199.17L4.19,211.82L4.29,223.18L5.09,223.18L5.19,233.56L5.89,233.56L5.99,265.24L151.93,265.24L152.03,270.4L292.87,270.88L292.97,293.04L499,293.04" style="vector-effect: none; fill: none; stroke: rgb(0, 0, 255); stroke-opacity: 1; stroke-width: 2px; opacity: 1;"/></g><g class="points"/><g class="text"/></g><g class="trace scatter trace87e3bd" style="stroke-miterlimit: 2; opacity: 0.05;"><g class="fills"/><g class="errorbars"/><g class="lines"><path class="js-line" d="M0,64.9L1.4,184L1.5,184L1.6,184.12L1.7,198.61L2.79,230.61L2.89,230.61L3.69,230.61L3.79,243.63L8.88,243.63L8.98,254.59L65.78,254.59L65.88,263.64L79.86,263.64L79.96,265.85L193.35,265.85L193.45,270.5L213.22,270.5L213.32,271.91L290.08,271.91L290.18,279.46L499,279.46" style="vector-effect: none; fill: none; stroke: rgb(0, 0, 255); stroke-opacity: 1; stroke-width: 2px; opacity: 1;"/></g><g class="points"/><g class="text"/></g><g class="trace scatter trace3205f3" style="stroke-miterlimit: 2; opacity: 0.05;"><g class="fills"/><g class="errorbars"/><g class="lines"><path class="js-line" d="M0,42.95L1.2,146.36L1.3,149.2L1.7,156.62L1.8,163.98L3.39,232.79L3.49,232.79L8.29,232.79L8.38,236.66L8.98,236.66L9.08,256.77L35.04,256.77L35.14,260.94L45.22,260.94L45.32,266.11L113.2,266.11L113.3,271.57L359.25,272.2L359.35,279.65L499,279.65" style="vector-effect: none; fill: none; stroke: rgb(0, 0, 255); stroke-opacity: 1; stroke-width: 2px; opacity: 1;"/></g><g class="points"/><g class="text"/></g><g class="trace scatter tracea7147b" style="stroke-miterlimit: 2; opacity: 0.05;"><g class="fills"/><g class="errorbars"/><g class="lines"><path class="js-line" d="M0,65.02L1.9,250.2L2,250.2L10.28,250.2L10.38,258.81L42.22,258.81L42.32,276.07L499,276.07" style="vector-effect: none; fill: none; stroke: rgb(0, 0, 255); stroke-opacity: 1; stroke-width: 2px; opacity: 1;"/></g><g class="points"/><g class="text"/></g><g class="trace scatter tracecbdd30" style="stroke-miterlimit: 2; opacity: 0.05;"><g class="fills"/><g class="errorbars"/><g class="lines"><path class="js-line" d="M0,84.97L1.3,206.58L1.4,206.58L1.8,206.58L1.9,241.67L19.56,242.29L19.66,276.24L258.23,276.24L258.33,286.47L499,286.47" style="vector-effect: none; fill: none; stroke: rgb(0, 0, 255); stroke-opacity: 1; stroke-width: 2px; opacity: 1;"/></g><g class="points"/><g class="text"/></g><g class="trace scatter traceab4993" style="stroke-miterlimit: 2; opacity: 0.05;"><g class="fills"/><g class="errorbars"/><g class="lines"><path class="js-line" d="M0,62.55L0.9,153.76L1,153.76L1.8,163.3L1.9,213.14L2.6,213.14L2.7,274.24L459.57,274.24L459.67,278.17L499,278.17" style="vector-effect: none; fill: none; stroke: rgb(0, 0, 255); stroke-opacity: 1; stroke-width: 2px; opacity: 1;"/></g><g class="points"/><g class="text"/></g><g class="trace scatter tracedaf387" style="stroke-miterlimit: 2; opacity: 0.05;"><g class="fills"/><g class="errorbars"/><g class="lines"><path class="js-line" d="M0,40.94L1.4,164.11L1.5,164.11L1.9,164.11L2,176.94L2.79,214.91L2.89,214.91L3.29,214.91L3.39,217.15L4.39,217.15L4.49,218.45L5.39,218.45L5.49,221.73L6.39,241.86L6.49,241.86L6.89,241.86L6.99,254.25L18.67,254.25L18.77,266.08L62.09,266.08L62.19,284.78L499,284.78" style="vector-effect: none; fill: none; stroke: rgb(0, 0, 255); stroke-opacity: 1; stroke-width: 2px; opacity: 1;"/></g><g class="points"/><g class="text"/></g><g class="trace scatter trace61e376" style="stroke-miterlimit: 2; opacity: 0.05;"><g class="fills"/><g class="errorbars"/><g class="lines"><path class="js-line" d="M0,69.78L1.2,200.02L1.3,204.45L1.7,204.45L1.8,208.9L2.79,249.76L2.89,249.76L4.99,249.76L5.09,265.18L37.53,265.18L37.63,278.29L91.83,278.29L91.93,280.74L242.56,280.74L242.66,282.28L259.63,282.28L259.73,284.31L499,284.31" style="vector-effect: none; fill: none; stroke: rgb(0, 0, 255); stroke-opacity: 1; stroke-width: 2px; opacity: 1;"/></g><g class="points"/><g class="text"/></g><g class="trace scatter tracea278cb" style="stroke-miterlimit: 2; opacity: 0.05;"><g class="fills"/><g class="errorbars"/><g class="lines"><path class="js-line" d="M0,46.74L1.6,212.68L1.7,212.68L2.79,233.71L2.89,233.71L12.18,233.71L12.28,240.86L21.96,240.86L22.06,260.24L48.21,260.24L48.31,261.49L83.65,261.49L83.75,274.45L235.77,274.45L235.87,285.43L484.33,285.43L484.43,291.74L499,291.74" style="vector-effect: none; fill: none; stroke: rgb(0, 0, 255); stroke-opacity: 1; stroke-width: 2px; opacity: 1;"/></g><g class="points"/><g class="text"/></g><g class="trace scatter trace4679c3" style="stroke-miterlimit: 2; opacity: 0.05;"><g class="fills"/><g class="errorbars"/><g class="lines"><path class="js-line" d="M0,41.28L1,170.4L1.1,170.4L1.7,170.4L1.8,173.86L2,177.56L2.1,192.32L3.39,225.46L3.49,225.46L4.09,225.46L4.19,233.66L5.09,233.66L5.19,246.02L14.87,246.02L14.97,255.29L33.54,255.29L33.64,256.49L79.26,256.49L79.36,260.56L147.83,261.04L147.93,280.26L499,280.26" style="vector-effect: none; fill: none; stroke: rgb(0, 0, 255); stroke-opacity: 1; stroke-width: 2px; opacity: 1;"/></g><g class="points"/><g class="text"/></g><g class="trace scatter trace239a6f" style="stroke-miterlimit: 2; opacity: 0.05;"><g class="fills"/><g class="errorbars"/><g class="lines"><path class="js-line" d="M0,34.95L1.3,205.27L1.4,205.27L2.1,211.46L2.2,224.98L3.89,224.98L3.99,233.52L4.89,233.52L4.99,241.51L5.79,271.07L5.89,271.07L43.42,271.07L43.52,282.56L499,282.56" style="vector-effect: none; fill: none; stroke: rgb(0, 0, 255); stroke-opacity: 1; stroke-width: 2px; opacity: 1;"/></g><g class="points"/><g class="text"/></g><g class="trace scatter trace7fc2ee" style="stroke-miterlimit: 2; opacity: 0.05;"><g class="fills"/><g class="errorbars"/><g class="lines"><path class="js-line" d="M0,74.93L2,186.41L2.1,186.41L2.99,248.69L3.09,248.69L8.19,248.69L8.29,250.6L16.57,250.6L16.67,258.47L48.91,258.47L49.01,260.94L321.02,260.94L321.12,284.25L499,284.25" style="vector-effect: none; fill: none; stroke: rgb(0, 0, 255); stroke-opacity: 1; stroke-width: 2px; opacity: 1;"/></g><g class="points"/><g class="text"/></g><g class="trace scatter trace14e223" style="stroke-miterlimit: 2; opacity: 0.05;"><g class="fills"/><g class="errorbars"/><g class="lines"><path class="js-line" d="M0,43.9L0.1,49.67L0.2,106.95L0.4,109.21L0.5,126.28L0.8,135.3L0.9,138.47L2,193.61L2.1,193.61L2.99,238.93L3.09,238.93L9.08,238.93L9.18,242.28L16.27,242.28L16.37,249.73L27.75,249.73L27.85,253.17L52.7,253.17L52.8,259.37L53.1,259.37L53.2,268.46L57.1,268.46L57.2,277.89L384.51,277.89L384.61,285.2L499,285.2" style="vector-effect: none; fill: none; stroke: rgb(0, 0, 255); stroke-opacity: 1; stroke-width: 2px; opacity: 1;"/></g><g class="points"/><g class="text"/></g><g class="trace scatter trace3d3417" style="stroke-miterlimit: 2; opacity: 0.05;"><g class="fills"/><g class="errorbars"/><g class="lines"><path class="js-line" d="M0,54.78L1.4,209.86L1.5,209.86L2.5,209.86L2.6,210.65L3.39,224.28L3.49,246.71L6.29,246.71L6.39,252.28L18.17,252.28L18.27,263.14L59.89,263.14L59.99,269.96L499,269.96" style="vector-effect: none; fill: none; stroke: rgb(0, 0, 255); stroke-opacity: 1; stroke-width: 2px; opacity: 1;"/></g><g class="points"/><g class="text"/></g><g class="trace scatter trace1c61df" style="stroke-miterlimit: 2; opacity: 0.05;"><g class="fills"/><g class="errorbars"/><g class="lines"><path class="js-line" d="M0,71.6L1.9,244.63L2,244.63L16.87,245.13L16.97,266.74L127.37,266.74L127.47,277.86L135.06,277.86L135.16,289.54L499,289.54" style="vector-effect: none; fill: none; stroke: rgb(0, 0, 255); stroke-opacity: 1; stroke-width: 2px; opacity: 1;"/></g><g class="points"/><g class="text"/></g></g></g><g class="overplot"/><path class="xlines-above crisp" d="M0,0" style="fill: none;"/><path class="ylines-above crisp" d="M0,0" style="fill: none;"/><g class="overlines-above"/><g class="xaxislayer-above"><g class="xtick"><text text-anchor="middle" x="0" y="433" transform="translate(80,0)" style="font-family: 'Open Sans', verdana, arial, sans-serif; font-size: 12px; fill: rgb(42, 63, 95); fill-opacity: 1; white-space: pre; opacity: 1;">0</text></g><g class="xtick"><text text-anchor="middle" x="0" y="433" style="font-family: 'Open Sans', verdana, arial, sans-serif; font-size: 12px; fill: rgb(42, 63, 95); fill-opacity: 1; white-space: pre; opacity: 1;" transform="translate(179.82,0)">1000</text></g><g class="xtick"><text text-anchor="middle" x="0" y="433" style="font-family: 'Open Sans', verdana, arial, sans-serif; font-size: 12px; fill: rgb(42, 63, 95); fill-opacity: 1; white-space: pre; opacity: 1;" transform="translate(279.64,0)">2000</text></g><g class="xtick"><text text-anchor="middle" x="0" y="433" style="font-family: 'Open Sans', verdana, arial, sans-serif; font-size: 12px; fill: rgb(42, 63, 95); fill-opacity: 1; white-space: pre; opacity: 1;" transform="translate(379.46,0)">3000</text></g><g class="xtick"><text text-anchor="middle" x="0" y="433" style="font-family: 'Open Sans', verdana, arial, sans-serif; font-size: 12px; fill: rgb(42, 63, 95); fill-opacity: 1; white-space: pre; opacity: 1;" transform="translate(479.28,0)">4000</text></g></g><g class="yaxislayer-above"><g class="ytick"><text text-anchor="end" x="79" y="3.15" transform="translate(0,385.7)" style="font-family: 'Open Sans', verdana, arial, sans-serif; font-size: 9px; fill: rgb(42, 63, 95); fill-opacity: 1; white-space: pre; opacity: 1;">2</text></g><g class="ytick"><text text-anchor="end" x="79" y="3.15" style="font-family: 'Open Sans', verdana, arial, sans-serif; font-size: 9px; fill: rgb(42, 63, 95); fill-opacity: 1; white-space: pre; opacity: 1;" transform="translate(0,354.06)">3</text></g><g class="ytick"><text text-anchor="end" x="79" y="3.15" style="font-family: 'Open Sans', verdana, arial, sans-serif; font-size: 9px; fill: rgb(42, 63, 95); fill-opacity: 1; white-space: pre; opacity: 1;" transform="translate(0,331.61)">4</text></g><g class="ytick"><text text-anchor="end" x="79" y="3.15" style="font-family: 'Open Sans', verdana, arial, sans-serif; font-size: 9px; fill: rgb(42, 63, 95); fill-opacity: 1; white-space: pre; opacity: 1;" transform="translate(0,314.2)">5</text></g><g class="ytick"><text text-anchor="end" x="79" y="3.15" style="font-family: 'Open Sans', verdana, arial, sans-serif; font-size: 9px; fill: rgb(42, 63, 95); fill-opacity: 1; white-space: pre; opacity: 1;" transform="translate(0,299.97)">6</text></g><g class="ytick"><text text-anchor="end" x="79" y="3.15" style="font-family: 'Open Sans', verdana, arial, sans-serif; font-size: 9px; fill: rgb(42, 63, 95); fill-opacity: 1; white-space: pre; opacity: 1;" transform="translate(0,287.95)">7</text></g><g class="ytick"><text text-anchor="end" x="79" y="3.15" style="font-family: 'Open Sans', verdana, arial, sans-serif; font-size: 9px; fill: rgb(42, 63, 95); fill-opacity: 1; white-space: pre; opacity: 1;" transform="translate(0,277.53)">8</text></g><g class="ytick"><text text-anchor="end" x="79" y="3.15" style="font-family: 'Open Sans', verdana, arial, sans-serif; font-size: 9px; fill: rgb(42, 63, 95); fill-opacity: 1; white-space: pre; opacity: 1;" transform="translate(0,268.34000000000003)">9</text></g><g class="ytick"><text text-anchor="end" x="76" y="2.1999999999999993" style="font-family: 'Open Sans', verdana, arial, sans-serif; font-size: 12px; fill: rgb(42, 63, 95); fill-opacity: 1; white-space: pre; opacity: 1;" transform="translate(0,260.12)">1</text></g><g class="ytick"><text text-anchor="end" x="79" y="3.15" style="font-family: 'Open Sans', verdana, arial, sans-serif; font-size: 9px; fill: rgb(42, 63, 95); fill-opacity: 1; white-space: pre; opacity: 1;" transform="translate(0,206.03)">2</text></g><g class="ytick"><text text-anchor="end" x="79" y="3.15" style="font-family: 'Open Sans', verdana, arial, sans-serif; font-size: 9px; fill: rgb(42, 63, 95); fill-opacity: 1; white-space: pre; opacity: 1;" transform="translate(0,174.39)">3</text></g><g class="ytick"><text text-anchor="end" x="79" y="3.15" style="font-family: 'Open Sans', verdana, arial, sans-serif; font-size: 9px; fill: rgb(42, 63, 95); fill-opacity: 1; white-space: pre; opacity: 1;" transform="translate(0,151.95)">4</text></g><g class="ytick"><text text-anchor="end" x="79" y="3.15" style="font-family: 'Open Sans', verdana, arial, sans-serif; font-size: 9px; fill: rgb(42, 63, 95); fill-opacity: 1; white-space: pre; opacity: 1;" transform="translate(0,134.54)">5</text></g><g class="ytick"><text text-anchor="end" x="79" y="3.15" style="font-family: 'Open Sans', verdana, arial, sans-serif; font-size: 9px; fill: rgb(42, 63, 95); fill-opacity: 1; white-space: pre; opacity: 1;" transform="translate(0,120.31)">6</text></g><g class="ytick"><text text-anchor="end" x="79" y="3.15" style="font-family: 'Open Sans', verdana, arial, sans-serif; font-size: 9px; fill: rgb(42, 63, 95); fill-opacity: 1; white-space: pre; opacity: 1;" transform="translate(0,108.28)">7</text></g></g><g class="overaxes-above"/></g></g><g class="polarlayer"/><g class="smithlayer"/><g class="ternarylayer"/><g class="geolayer"/><g class="funnelarealayer"/><g class="pielayer"/><g class="iciclelayer"/><g class="treemaplayer"/><g class="sunburstlayer"/><g class="glimages"/><defs id="topdefs-a5b429"><g class="clips"/><clipPath id="legenda5b429"><rect width="99" height="29" x="0" y="0"/></clipPath></defs><g class="layer-above"><g class="imagelayer"/><g class="shapelayer"/></g><g class="infolayer"><g class="legend" pointer-events="all" transform="translate(588.98,100)"><rect class="bg" shape-rendering="crispEdges" width="99" height="29" x="0" y="0" style="stroke: rgb(68, 68, 68); stroke-opacity: 1; fill: rgb(255, 255, 255); fill-opacity: 1; stroke-width: 0px;"/><g class="scrollbox" transform="" clip-path="url(#legenda5b429)"><g class="groups"><g class="traces" transform="translate(0,14.5)" style="opacity: 1;"><text class="legendtext" text-anchor="start" x="40" y="4.680000000000001" style="font-family: 'Open Sans', verdana, arial, sans-serif; font-size: 12px; fill: rgb(42, 63, 95); fill-opacity: 1; white-space: pre;">Best Run</text><g class="layers" style="opacity: 1;"><g class="legendfill"/><g class="legendlines"><path class="js-line" d="M5,0h30" style="fill: none; stroke: rgb(255, 0, 0); stroke-opacity: 1; stroke-width: 2px;"/></g><g class="legendsymbols"><g class="legendpoints"/></g></g><rect class="legendtoggle" x="0" y="-9.5" width="94" height="19" style="fill: rgb(0, 0, 0); fill-opacity: 0;"/></g></g></g><rect class="scrollbar" rx="20" ry="3" width="0" height="0" x="0" y="0" style="fill: rgb(128, 139, 164); fill-opacity: 1;"/></g><g class="g-gtitle"><text class="gtitle" x="35" y="50" text-anchor="start" dy="0em" style="font-family: 'Open Sans', verdana, arial, sans-serif; font-size: 17px; fill: rgb(42, 63, 95); opacity: 1; font-weight: normal; white-space: pre;">Fitness history | ES - P1</text></g><g class="g-xtitle"><text class="xtitle" x="329.5" y="460.3" text-anchor="middle" style="font-family: 'Open Sans', verdana, arial, sans-serif; font-size: 14px; fill: rgb(42, 63, 95); opacity: 1; font-weight: normal; white-space: pre;">Generation</text></g><g class="g-ytitle"><text class="ytitle" transform="rotate(-90,44.059375,260)" x="44.059375" y="260" text-anchor="middle" style="font-family: 'Open Sans', verdana, arial, sans-serif; font-size: 14px; fill: rgb(42, 63, 95); opacity: 1; font-weight: normal; white-space: pre;">Fitness (log scale)</text></g></g></svg>