<svg class="main-svg" xmlns="http://www.w3.org/2000/svg" xmlns:xlink="http://www.w3.org/1999/xlink" width="700" height="500" style="" viewBox="0 0 700 500"><rect x="0" y="0" width="700" height="500" style="fill: rgb(255, 255, 255); fill-opacity: 1;"/><defs id="defs-e12241"><g class="clips"><clipPath id="clipe12241xyplot" class="plotclip"><rect width="499" height="320"/></clipPath><clipPath class="axesclip" id="clipe12241x"><rect x="80" y="0" width="499" height="500"/></clipPath><clipPath class="axesclip" id="clipe12241y"><rect x="0" y="100" width="700" height="320"/></clipPath><clipPath class="axesclip" id="clipe12241xy"><rect x="80" y="100" width="499" height="320"/></clipPath></g><g class="gradients"/><g class="patterns"/></defs><g class="bglayer"><rect class="bg" x="80" y="100" width="499" height="320" style="fill: rgb(229, 236, 246); fill-opacity: 1; stroke-width: 0;"/></g><g class="layer-below"><g class="imagelayer"/><g class="shapelayer"/></g><g class="cartesianlayer"><g class="subplot xy"><g class="layer-subplot"><g class="shapelayer"/><g class="imagelayer"/></g><g class="minor-gridlayer"><g class="x"/><g class="y"/></g><g class="gridlayer"><g class="x"><path class="xgrid crisp" transform="translate(179.9,0)" d="M0,100v320" style="stroke: rgb(255, 255, 255); stroke-opacity: 1; stroke-width: 1px;"/><path class="xgrid crisp" transform="translate(279.8,0)" d="M0,100v320" style="stroke: rgb(255, 255, 255); stroke-opacity: 1; stroke-width: 1px;"/><path class="xgrid crisp" transform="translate(379.7,0)" d="M0,100v320" style="stroke: rgb(255, 255, 255); stroke-opacity: 1; stroke-width: 1px;"/><path class="xgrid crisp" transform="translate(479.6,0)" d="M0,100v320" style="stroke: rgb(255, 255, 255); stroke-opacity: 1; stroke-width: 1px;"/></g><g class="y"><path class="ygrid crisp" transform="translate(0,418.21)" d="M80,0h499" style="stroke: rgb(255, 255, 255); stroke-opacity: 1; stroke-width: 1px;"/><path class="ygrid crisp" transform="translate(0,407.95)" d="M80,0h499" style="stroke: rgb(255, 255, 255); stroke-opacity: 1; stroke-width: 1px;"/><path class="ygrid crisp" transform="translate(0,399.07)" d="M80,0h499" style="stroke: rgb(255, 255, 255); stroke-opacity: 1; stroke-width: 1px;"/><path class="ygrid crisp" transform="translate(0,391.23)" d="M80,0h499" style="stroke: rgb(255, 255, 255); stroke-opacity: 1; stroke-width: 1px;"/><path class="ygrid crisp" transform="translate(0,384.22)" d="M80,0h499" style="stroke: rgb(255, 255, 255); stroke-opacity: 1; stroke-width: 1px;"/><path class="ygrid crisp" transform="translate(0,338.09000000000003)" d="M80,0h499" style="stroke: rgb(255, 255, 255); stroke-opacity: 1; stroke-width: 1px;"/><path class="ygrid crisp" transform="translate(0,311.1)" d="M80,0h499" style="stroke: rgb(255, 255, 255); stroke-opacity: 1; stroke-width: 1px;"/><path class="ygrid crisp" transform="translate(0,291.96000000000004)" d="M80,0h499" style="stroke: rgb(255, 255, 255); stroke-opacity: 1; stroke-width: 1px;"/><path class="ygrid crisp" transform="translate(0,277.11)" d="M80,0h499" style="stroke: rgb(255, 255, 255); stroke-opacity: 1; stroke-width: 1px;"/><path class="ygrid crisp" transform="translate(0,264.97)" d="M80,0h499" style="stroke: rgb(255, 255, 255); stroke-opacity: 1; stroke-width: 1px;"/><path class="ygrid crisp" transform="translate(0,254.72)" d="M80,0h499" style="stroke: rgb(255, 255, 255); stroke-opacity: 1; stroke-width: 1px;"/><path class="ygrid crisp" transform="translate(0,245.83)" d="M80,0h499" style="stroke: rgb(255, 255, 255); stroke-opacity: 1; stroke-width: 1px;"/><path class="ygrid crisp" transform="translate(0,237.99)" d="M80,0h499" style="stroke: rgb(255, 255, 255); stroke-opacity: 1; stroke-width: 1px;"/><path class="ygrid crisp" transform="translate(0,230.98)" d="M80,0h499" style="stroke: rgb(255, 255, 255); stroke-opacity: 1; stroke-width: 1px;"/><path class="ygrid crisp" transform="translate(0,184.85)" d="M80,0h499" style="stroke: rgb(255, 255, 255); stroke-opacity: 1; stroke-width: 1px;"/><path class="ygrid crisp" transform="translate(0,157.87)" d="M80,0h499" style="stroke: rgb(255, 255, 255); stroke-opacity: 1; stroke-width: 1px;"/><path class="ygrid crisp" transform="translate(0,138.72)" d="M80,0h499" style="stroke: rgb(255, 255, 255); stroke-opacity: 1; stroke-width: 1px;"/><path class="ygrid crisp" transform="translate(0,123.87)" d="M80,0h499" style="stroke: rgb(255, 255, 255); stroke-opacity: 1; stroke-width: 1px;"/><path class="ygrid crisp" transform="translate(0,111.74)" d="M80,0h499" style="stroke: rgb(255, 255, 255); stroke-opacity: 1; stroke-width: 1px;"/><path class="ygrid crisp" transform="translate(0,101.48)" d="M80,0h499" style="stroke: rgb(255, 255, 255); stroke-opacity: 1; stroke-width: 1px;"/></g></g><g class="zerolinelayer"><path class="xzl zl crisp" transform="translate(80,0)" d="M0,100v320" style="stroke: rgb(255, 255, 255); stroke-opacity: 1; stroke-width: 2px;"/></g><path class="xlines-below"/><path class="ylines-below"/><g class="overlines-below"/><g class="xaxislayer-below"/><g class="yaxislayer-below"/><g class="overaxes-below"/><g class="plot" transform="translate(80,100)" clip-path="url(#clipe12241xyplot)"><g class="scatterlayer mlayer"><g class="trace scatter trace716de9" style="stroke-miterlimit: 2; opacity: 0.05;"><g class="fills"/><g class="errorbars"/><g class="lines"><path class="js-line" d="M0,17.97L1,21.65L1.5,21.65L4.5,21.65L4.99,27.05L5.49,27.05L5.99,28.3L11.49,28.3L11.99,30.2L16.98,30.25L17.48,33.13L17.98,33.13L18.48,38.05L19.98,38.05L20.48,42.32L29.97,42.32L30.47,44.39L31.47,44.39L31.97,45.89L32.97,45.89L33.47,48.08L39.46,48.08L39.96,50.11L41.96,50.11L42.46,51.18L43.46,51.27L43.96,57.93L45.45,57.93L45.95,58.73L47.95,58.73L48.45,60.94L52.45,60.94L52.95,65.84L58.94,65.84L59.44,68.45L62.44,68.45L62.94,70.34L63.94,70.89L64.44,72.28L66.93,72.28L67.43,73.92L70.43,73.92L70.93,74.95L73.93,74.95L74.43,78.84L78.92,78.84L79.42,83.67L86.91,83.67L87.41,86.71L89.91,86.83L90.41,96.59L99.4,96.59L99.9,97.64L101.9,97.73L102.4,98.41L106.89,98.41L107.39,100.29L118.88,100.61L119.38,102.72L123.88,102.93L124.38,105.48L125.37,105.48L125.87,106.91L131.87,107.42L132.37,108.08L143.36,108.5L143.86,109.07L145.35,111.25L145.85,111.25L148.85,111.91L149.35,112.93L165.83,112.93L166.33,114.99L167.33,116.04L167.83,116.04L180.82,116.69L181.32,117L191.81,117.27L192.31,118.77L201.3,118.77L201.8,120.23L209.79,120.89L210.29,121.25L227.77,121.96L228.27,122.01L233.77,122.4L234.27,122.4L255.74,122.99L256.24,123.37L258.74,123.72L259.24,123.72L285.71,124.4L286.21,124.51L311.69,124.92L312.19,125.54L459.54,126.29L460.04,126.32L468.03,126.4L468.53,126.4L499,126.55" style="vector-effect: none; fill: none; stroke: rgb(0, 0, 255); stroke-opacity: 1; stroke-width: 2px; opacity: 1;"/></g><g class="points"/><g class="text"/></g><g class="trace scatter trace8f5287" style="stroke-miterlimit: 2; opacity: 0.05;"><g class="fills"/><g class="errorbars"/><g class="lines"><path class="js-line" d="M0,76.29L1,94.41L1.5,94.41L11.99,94.73L12.49,100.33L12.99,100.33L13.49,101.97L14.98,101.97L15.48,102.88L19.48,102.98L19.98,102.98L20.48,102.98L20.98,105.17L21.98,106.78L22.48,106.78L25.97,106.78L26.47,110.08L36.96,110.54L37.46,111.1L39.46,111.1L39.96,114.68L44.46,114.68L44.95,115.53L46.45,116.15L46.95,118.36L52.45,118.36L52.95,122.81L66.93,123.23L67.43,123.62L78.42,124.16L78.92,124.61L80.92,125.21L81.42,125.21L114.88,125.86L115.38,126.06L168.33,126.55L168.83,126.86L213.79,127.38L214.29,127.72L246.25,128.49L246.75,129.03L315.68,129.75L316.18,129.82L365.63,130.32L366.13,131.07L371.63,131.14L372.13,131.14L466.53,131.63L467.03,132.57L473.53,132.74L474.03,132.74L475.02,133.68L475.52,133.68L499,133.76" style="vector-effect: none; fill: none; stroke: rgb(0, 0, 255); stroke-opacity: 1; stroke-width: 2px; opacity: 1;"/></g><g class="points"/><g class="text"/></g><g class="trace scatter tracec3ab5e" style="stroke-miterlimit: 2; opacity: 0.05;"><g class="fills"/><g class="errorbars"/><g class="lines"><path class="js-line" d="M0,36.12L1,50.2L1.5,52.26L2.5,56.76L3,56.76L4.5,56.76L4.99,58.74L5.49,58.74L5.99,60.71L6.49,61.4L6.99,64.39L8.49,64.39L8.99,65.42L9.99,72.27L10.49,72.27L15.48,72.27L15.98,73.93L22.98,73.93L23.48,75.28L25.47,75.28L25.97,79.12L27.47,79.12L27.97,83.01L30.47,83.01L30.97,86.57L34.96,86.57L35.46,91.34L44.46,91.34L44.95,92.37L46.95,92.37L47.45,93.72L51.95,93.72L52.45,94.75L52.95,94.75L53.45,95.6L59.94,95.88L60.44,97.86L61.94,97.86L62.44,99.12L68.93,99.12L69.43,100.28L71.43,100.28L71.93,104.91L76.92,105.25L77.42,106.32L90.91,106.86L91.41,107.72L100.4,108.44L100.9,111.59L111.89,111.75L112.39,113.71L113.89,113.71L114.39,114.78L120.88,115.04L121.38,115.6L129.87,116.12L130.37,116.42L133.37,117.15L133.87,117.25L135.86,117.38L136.36,118.19L151.35,118.65L151.85,119.26L182.82,119.98L183.32,120.06L189.31,120.06L189.81,120.97L190.31,120.97L190.81,122.13L198.8,122.18L199.3,122.2L221.28,122.43L221.78,123.13L238.76,123.71L239.26,124.5L291.21,125.17L291.71,125.35L359.64,125.76L360.14,126.15L438.56,126.9L439.06,127.13L499,127.43" style="vector-effect: none; fill: none; stroke: rgb(0, 0, 255); stroke-opacity: 1; stroke-width: 2px; opacity: 1;"/></g><g class="points"/><g class="text"/></g><g class="trace scatter trace0bdb48" style="stroke-miterlimit: 2; opacity: 0.05;"><g class="fills"/><g class="errorbars"/><g class="lines"><path class="js-line" d="M0,64.91L1,64.91L1.5,66.25L2.5,72.4L3,72.4L11.99,72.4L12.49,74.99L18.48,74.99L18.98,76.29L23.48,76.29L23.98,77.07L26.97,77.54L27.47,79.32L31.47,80.04L31.97,80.71L33.47,82.87L33.97,83.24L37.46,83.24L37.96,86.42L40.46,86.42L40.96,91.09L41.96,92.32L42.46,92.47L46.45,92.47L46.95,96.28L49.45,96.28L49.95,100.67L53.45,100.84L53.95,104.19L64.44,104.19L64.93,111.72L67.93,111.81L68.43,112.55L68.93,112.55L69.43,116.97L73.93,116.97L74.43,119.44L79.42,119.66L79.92,120.41L95.4,121.01L95.9,123.7L127.37,124.39L127.87,124.49L143.36,125.19L143.86,125.27L162.84,125.67L163.34,125.67L224.28,126.35L224.77,126.62L349.65,127.37L350.15,127.61L401.1,128.34L401.6,128.48L420.58,129.07L421.08,129.29L483.52,129.93L484.02,130.69L491.51,130.74L492.01,130.74L499,131.25" style="vector-effect: none; fill: none; stroke: rgb(0, 0, 255); stroke-opacity: 1; stroke-width: 2px; opacity: 1;"/></g><g class="points"/><g class="text"/></g><g class="trace scatter trace5594cb" style="stroke-miterlimit: 2; opacity: 0.05;"><g class="fills"/><g class="errorbars"/><g class="lines"><path class="js-line" d="M0,59.85L1,85.03L1.5,85.03L2.5,85.59L3,86.22L3.5,86.31L4,89.64L10.99,89.64L11.49,92.52L12.99,92.52L13.49,98.32L26.47,98.32L26.97,99.13L27.47,99.13L27.97,103.26L28.97,103.26L29.47,105.35L36.46,105.35L36.96,109.95L47.45,109.95L47.95,115.36L49.45,115.36L49.95,117.79L62.94,118.39L63.44,119.73L68.43,119.73L68.93,120.68L79.42,120.94L79.92,121.87L82.42,122.04L82.92,122.04L87.41,122.4L87.91,123.99L95.4,124.71L95.9,124.9L106.89,125.65L107.39,125.67L139.36,126.36L139.86,126.5L239.76,127.11L240.26,127.53L286.71,128.15L287.21,128.29L298.2,128.48L298.7,128.48L369.13,129.21L369.63,129.72L432.07,130.43L432.57,130.6L434.07,130.91L434.56,130.91L445.05,131.24L445.55,131.77L449.55,131.95L450.05,132.68L458.04,132.96L458.54,133.63L459.54,133.63L460.04,137.88L468.53,137.88L469.03,140.53L487.51,141.21L488.01,141.47L489.01,141.74L489.51,142.23L492.51,142.78L493.01,143.15L494.5,143.69L495,143.91L495.5,143.91L496,145.4L497.5,145.4L498,151.41L499,151.41" style="vector-effect: none; fill: none; stroke: rgb(0, 0, 255); stroke-opacity: 1; stroke-width: 2px; opacity: 1;"/></g><g class="points"/><g class="text"/></g><g class="trace scatter trace2ad58c" style="stroke-miterlimit: 2; opacity: 0.05;"><g class="fills"/><g class="errorbars"/><g class="lines"><path class="js-line" d="M0,48.74L1.5,58.54L2,62.71L3.5,63.28L4,64.22L4.99,68.7L5.49,68.7L6.49,78.01L6.99,78.01L14.98,78.55L15.48,80.96L17.98,80.96L18.48,83.09L22.48,83.09L22.98,84.99L31.47,85.43L31.97,85.84L37.96,86.18L38.46,90L47.95,90L48.45,92.16L56.94,92.16L57.44,95.45L57.94,95.45L58.44,96.62L73.43,97.37L73.93,97.78L75.42,98.36L75.92,98.8L76.92,99.84L77.42,99.84L78.42,99.84L78.92,101.73L82.42,101.99L82.92,107.88L86.91,107.88L87.41,109.12L98.9,109.12L99.4,111.98L101.9,112.16L102.4,112.16L118.38,112.8L118.88,113.15L122.38,113.23L122.88,115.75L135.86,115.75L136.36,121.71L151.35,121.71L151.85,122.82L154.35,122.82L154.84,124.22L185.81,124.96L186.31,125.23L210.29,125.98L210.79,126.11L259.74,126.75L260.24,127.26L346.65,127.78L347.15,128.33L383.12,129.02L383.62,129.02L386.11,129.02L386.61,130.48L419.08,131.02L419.58,131.58L454.54,132.32L455.04,132.63L484.02,133.36L484.51,133.52L497.5,134.2L498,134.5L499,134.52" style="vector-effect: none; fill: none; stroke: rgb(0, 0, 255); stroke-opacity: 1; stroke-width: 2px; opacity: 1;"/></g><g class="points"/><g class="text"/></g><g class="trace scatter tracedc4ad5" style="stroke-miterlimit: 2; opacity: 0.05;"><g class="fills"/><g class="errorbars"/><g class="lines"><path class="js-line" d="M0,56.92L1,62.29L1.5,63.53L6.49,64.18L6.99,66.74L9.49,66.74L9.99,69.53L10.99,69.53L11.49,72.61L19.98,72.82L20.48,74.12L22.98,74.12L23.48,75.97L23.98,75.97L24.48,79.36L27.47,79.36L27.97,80.92L28.97,80.92L29.47,82.93L30.47,82.93L30.97,85.04L32.47,85.49L32.97,89.5L36.46,89.5L36.96,94.51L39.96,94.51L40.46,96.5L44.95,96.5L45.45,97.26L46.45,98.09L46.95,98.09L49.45,98.1L49.95,101.65L52.45,101.65L52.95,103.17L53.95,103.17L54.45,108.87L57.44,108.87L57.94,111.01L63.44,111.01L63.94,112.81L71.43,112.81L71.93,114.08L76.42,114.08L76.92,120.95L89.91,120.95L90.41,122.91L96.4,122.91L96.9,124.61L105.89,124.61L106.39,125.47L113.39,125.47L113.89,126.53L117.38,126.53L117.88,127.73L157.34,128.37L157.84,129L161.34,129.55L161.84,129.89L164.83,130.01L165.33,131.21L177.32,131.94L177.82,132.1L179.82,132.1L180.32,134.07L186.81,134.07L187.31,135.79L196.3,136.05L196.8,137.22L201.8,137.22L202.3,141.56L210.79,141.56L211.29,145.42L233.77,145.42L234.27,147.87L239.76,148.38L240.26,151.7L252.25,151.7L252.75,156.53L256.24,156.59L256.74,159.52L275.72,159.82L276.22,160.38L277.72,162.68L278.22,162.68L281.22,162.68L281.72,181.13L292.21,181.13L292.71,182.02L296.2,182.02L296.7,183.48L298.7,183.48L299.2,188.67L308.69,188.67L309.19,190.01L319.68,190.24L320.18,191.11L320.68,191.11L321.18,191.88L333.67,192.05L334.17,193.85L336.16,194.18L336.66,201.07L353.15,201.19L353.65,201.96L354.64,204.02L355.14,204.02L359.14,204.31L359.64,205.39L363.14,205.39L363.64,208.38L365.13,208.38L365.63,209.14L366.63,209.46L367.13,213.8L380.12,213.84L380.62,215.74L382.62,218.71L383.12,220.52L386.11,220.52L386.61,223.26L387.11,223.26L387.61,224.81L391.61,224.81L392.11,226.42L396.6,226.91L397.1,231.67L397.6,232.23L398.1,234.18L404.1,234.18L404.59,235.15L405.59,236.13L406.09,236.13L407.59,236.13L408.09,237.94L436.56,237.94L437.06,241.02L442.56,241.02L443.06,242.68L444.55,243.14L445.05,244.64L454.05,244.64L454.54,245.43L455.04,245.96L455.54,253.19L459.04,253.19L459.54,259.1L463.54,259.1L464.04,262.06L476.02,262.06L476.52,268.12L478.02,268.5L478.52,268.5L487.51,268.5L488.01,271.52L493.51,271.6L494.01,272.71L499,272.71" style="vector-effect: none; fill: none; stroke: rgb(0, 0, 255); stroke-opacity: 1; stroke-width: 2px; opacity: 1;"/></g><g class="points"/><g class="text"/></g><g class="trace scatter traceb7d235" style="stroke-miterlimit: 2; opacity: 0.05;"><g class="fills"/><g class="errorbars"/><g class="lines"><path class="js-line" d="M0,59.63L1,74.41L1.5,74.79L4.99,75.51L5.49,78.17L8.49,78.17L8.99,95.48L20.98,95.48L21.48,103.02L34.47,103.09L34.96,104.31L36.46,104.62L36.96,105.31L38.46,105.59L38.96,110.75L51.95,110.75L52.45,112.18L53.45,113.59L53.95,113.9L54.94,116.92L55.44,116.92L59.44,116.92L59.94,119.39L84.91,119.69L85.41,120.27L106.39,120.75L106.89,121.05L111.89,121.36L112.39,121.36L116.38,121.7L116.88,122.37L140.36,122.96L140.86,123.43L158.84,124.18L159.34,124.27L177.32,124.36L177.82,125.16L246.25,125.86L246.75,125.94L301.2,126.25L301.7,127L379.12,127.63L379.62,128.44L477.52,129.04L478.02,129.37L499,129.53" style="vector-effect: none; fill: none; stroke: rgb(0, 0, 255); stroke-opacity: 1; stroke-width: 2px; opacity: 1;"/></g><g class="points"/><g class="text"/></g><g class="trace scatter tracedc9748" style="stroke-miterlimit: 2; opacity: 0.05;"><g class="fills"/><g class="errorbars"/><g class="lines"><path class="js-line" d="M0,44.97L1,60L1.5,60L2.5,66.86L3,66.86L5.49,66.95L5.99,82.11L15.48,82.42L15.98,88.54L22.98,89.22L23.48,92.54L24.48,92.54L24.97,98.02L32.47,98.02L32.97,99.03L38.46,99.37L38.96,99.91L39.46,99.91L39.96,106.71L56.44,107.06L56.94,110.7L62.44,110.7L62.94,111.78L67.93,111.78L68.43,116.66L75.42,116.66L75.92,117.84L78.92,117.84L79.42,118.78L92.91,119.12L93.41,122L126.87,122.7L127.37,125.7L139.86,126.38L140.36,126.62L147.85,127.14L148.35,129.38L151.35,129.91L151.85,129.91L167.83,129.91L168.33,131.55L180.32,131.69L180.82,133.07L189.81,133.81L190.31,136.73L194.8,136.73L195.3,137.81L196.8,138.25L197.3,138.25L213.79,138.48L214.29,141.15L221.28,141.88L221.78,143.05L228.27,143.12L228.77,144.82L234.27,144.86L234.76,148.49L268.73,148.97L269.23,150.56L275.72,150.56L276.22,152.08L278.22,152.65L278.72,152.97L293.71,152.97L294.21,155.6L297.7,155.6L298.2,159.42L317.18,159.42L317.68,160.86L318.68,175.57L319.18,175.57L329.17,175.57L329.67,176.5L335.16,176.5L335.66,180.63L344.16,181.35L344.65,182.68L349.15,182.68L349.65,186.8L355.14,187.27L355.64,188.72L357.14,188.72L357.64,190.41L368.63,190.41L369.13,194.71L388.61,195.45L389.11,195.69L411.09,196.16L411.59,197.07L412.59,198L413.09,198L415.08,198.01L415.58,199.62L416.58,206.42L417.08,206.42L421.08,206.42L421.58,207.99L440.06,207.99L440.56,210.7L444.55,210.73L445.05,212.64L448.05,213.29L448.55,214.85L449.55,219.53L450.05,219.53L450.55,219.53L451.05,220.41L455.04,221.07L455.54,221.87L468.53,222.17L469.03,225.26L470.03,225.33L470.53,226.53L473.53,226.53L474.03,228.58L499,228.88" style="vector-effect: none; fill: none; stroke: rgb(0, 0, 255); stroke-opacity: 1; stroke-width: 2px; opacity: 1;"/></g><g class="points"/><g class="text"/></g><g class="trace scatter trace7f25a8" style="stroke-miterlimit: 2; opacity: 0.05;"><g class="fills"/><g class="errorbars"/><g class="lines"><path class="js-line" d="M0,31.27L0.5,37.26L1,55.7L2.5,64.97L3,64.97L8.49,64.97L8.99,69.67L11.99,69.67L12.49,72.97L12.99,72.97L13.49,76.29L14.49,78.94L14.98,78.94L20.48,78.94L20.98,79.93L24.97,79.93L25.47,80.85L30.47,81.05L30.97,87.5L33.97,87.5L34.47,90.03L35.46,90.03L35.96,93.02L39.46,93.02L39.96,95.96L46.95,95.96L47.45,99.28L48.45,99.28L48.95,100.07L50.45,100.07L50.95,101.53L54.94,102.2L55.44,104.3L61.44,104.3L61.94,107.11L70.93,107.11L71.43,108.48L87.91,109.05L88.41,112.49L98.9,112.49L99.4,116.53L131.37,116.78L131.87,117.46L142.86,117.81L143.36,118.56L146.85,119.61L147.35,119.61L148.85,119.99L149.35,119.99L173.33,120.26L173.83,121.37L198.8,121.87L199.3,123.45L209.79,123.45L210.29,124.74L223.78,125.08L224.28,126.78L244.75,127.28L245.25,127.74L288.21,128.47L288.71,128.88L337.66,129.51L338.16,129.64L347.65,130.29L348.15,130.79L375.62,130.97L376.12,131.65L383.62,131.65L384.12,133.06L396.6,133.72L397.1,133.83L405.59,134.23L406.09,135.25L407.59,135.61L408.09,135.61L441.56,136.36L442.06,143.12L469.03,143.12L469.53,145.27L475.52,145.27L476.02,148.4L487.51,148.68L488.01,149.44L494.01,149.44L494.5,156.56L498,156.89L498.5,157.42L499,159.41" style="vector-effect: none; fill: none; stroke: rgb(0, 0, 255); stroke-opacity: 1; stroke-width: 2px; opacity: 1;"/></g><g class="points"/><g class="text"/></g><g class="trace scatter tracee8aa67" style="stroke-miterlimit: 2; opacity: 0.05;"><g class="fills"/><g class="errorbars"/><g class="lines"><path class="js-line" d="M0,88.16L6.49,88.16L6.99,91.1L15.98,91.1L16.48,95.39L19.48,95.4L19.98,102.7L29.47,102.7L29.97,109.33L39.96,109.85L40.46,110.49L42.96,110.49L43.46,117L62.44,117.3L62.94,118.1L63.94,118.1L64.44,118.87L65.43,118.87L65.93,120.53L68.93,121.01L69.43,121.53L70.93,121.53L71.43,122.78L72.43,122.78L72.93,126.09L73.93,126.09L74.43,127.85L92.41,127.85L92.91,129.12L113.39,129.68L113.89,130L115.38,133.76L115.88,133.76L121.88,133.76L122.38,135.02L127.87,135.17L128.37,135.82L140.36,136.42L140.86,136.62L148.35,137.03L148.85,139.05L164.34,139.05L164.83,140.06L179.82,140.66L180.32,141.17L183.82,141.17L184.32,142.21L191.81,142.45L192.31,143.39L205.29,143.69L205.79,145.81L208.79,145.81L209.29,146.96L221.28,147.58L221.78,151.39L232.77,152.12L233.27,152.18L237.76,152.24L238.26,154.87L258.24,155.13L258.74,159.22L273.73,159.34L274.23,161.2L277.22,161.2L277.72,162.57L287.71,162.57L288.21,163.57L288.71,163.57L289.21,165.79L293.71,165.91L294.21,166.86L302.2,167.57L302.7,169.34L319.18,169.95L319.68,170.2L320.68,170.47L321.18,171.13L321.68,171.13L322.18,172.47L323.18,172.47L323.68,174.85L325.17,175.31L325.67,175.31L326.17,175.57L326.67,185.07L330.67,185.07L331.17,194L347.15,194L347.65,195.3L348.65,197.68L349.15,197.68L354.15,197.68L354.64,198.83L355.14,198.83L355.64,199.69L357.64,199.91L358.14,199.91L365.13,200.29L365.63,202.19L366.13,202.19L366.63,204.58L370.63,204.58L371.13,205.71L372.63,206.06L373.13,206.06L382.62,206.06L383.12,207.11L386.11,207.33L386.61,207.33L387.61,208.34L388.11,208.34L389.11,208.34L389.61,214.71L393.61,214.71L394.11,215.87L395.1,224.67L395.6,224.67L399.1,224.67L399.6,225.67L413.59,226.42L414.09,228.74L417.58,229.12L418.08,231.26L420.58,231.26L421.08,233L422.58,234.04L423.08,234.04L429.57,234.04L430.07,237.28L430.57,237.28L431.07,240.02L431.57,240.06L432.07,241.12L433.07,242L433.57,242L440.56,242L441.06,244.17L453.55,244.49L454.05,249.52L473.53,249.52L474.03,253.09L476.02,253.09L476.52,254.01L479.52,254.01L480.02,262.05L481.52,276.13L482.02,276.13L483.02,278.14L483.52,278.14L499,278.14" style="vector-effect: none; fill: none; stroke: rgb(0, 0, 255); stroke-opacity: 1; stroke-width: 2px; opacity: 1;"/></g><g class="points"/><g class="text"/></g><g class="trace scatter tracef7ccab" style="stroke-miterlimit: 2; opacity: 0.05;"><g class="fills"/><g class="errorbars"/><g class="lines"><path class="js-line" d="M0,37.59L0.5,37.59L1,48.23L2,57.66L2.5,57.66L6.99,58.21L7.49,58.43L7.99,58.43L8.49,59.6L14.98,60.19L15.48,64.43L15.98,64.43L16.48,65.48L24.48,65.9L24.97,68.25L25.97,69.82L26.47,69.82L31.47,69.82L31.97,70.91L33.97,71.31L34.47,72.57L35.46,74.13L35.96,74.13L37.96,74.4L38.46,74.4L40.96,74.4L41.46,79L51.45,79L51.95,80.95L52.95,80.95L53.45,82.43L60.44,82.74L60.94,86.47L66.93,86.47L67.43,87.61L68.43,91.94L68.93,91.94L72.93,92.04L73.43,96.54L82.92,96.54L83.42,98.17L84.42,98.17L84.91,99.41L85.41,99.41L85.91,100.22L86.91,101.22L87.41,101.22L88.91,101.22L89.41,103.97L90.41,105.27L90.91,105.27L107.89,105.27L108.39,106.28L111.39,106.28L111.89,108.06L126.87,108.7L127.37,111.6L139.86,111.79L140.36,112.42L166.83,113.03L167.33,113.2L242.76,113.67L243.26,114.04L403.6,114.79L404.1,115.05L499,115.62" style="vector-effect: none; fill: none; stroke: rgb(0, 0, 255); stroke-opacity: 1; stroke-width: 2px; opacity: 1;"/></g><g class="points"/><g class="text"/></g><g class="trace scatter tracee0ae53" style="stroke-miterlimit: 2; opacity: 0.05;"><g class="fills"/><g class="errorbars"/><g class="lines"><path class="js-line" d="M0,58.8L1,58.8L1.5,69.92L2,69.92L2.5,74.86L4.5,74.86L4.99,76.15L5.99,83.52L6.49,83.52L8.99,83.52L9.49,87.83L13.99,87.83L14.49,90.6L19.98,90.6L20.48,91.77L25.47,91.77L25.97,99.02L27.97,99.02L28.47,100.17L32.97,100.66L33.47,103.6L43.96,104.15L44.46,104.63L45.45,104.63L45.95,108.89L47.45,108.89L47.95,110.19L48.95,110.19L49.45,111.92L55.44,112.46L55.94,113.6L61.94,114.24L62.44,114.64L64.93,114.64L65.43,118.32L70.93,118.32L71.43,120.03L84.91,120.21L85.41,121.07L89.91,121.81L90.41,122.37L96.9,123.04L97.4,123.35L111.39,123.99L111.89,124.19L134.86,124.87L135.36,125.22L201.3,125.94L201.8,126.15L298.7,126.68L299.2,127.15L320.68,127.18L321.18,128.18L342.16,128.8L342.66,129.02L348.65,129.37L349.15,129.37L361.14,129.86L361.64,130.53L397.1,131.12L397.6,131.73L427.57,132.18L428.07,134.74L457.54,134.76L458.04,135.51L462.54,135.7L463.04,137.06L478.52,137.62L479.02,139.1L481.02,139.1L481.52,140.1L489.01,140.39L489.51,142.15L496,142.38L496.5,143.07L499,143.78" style="vector-effect: none; fill: none; stroke: rgb(0, 0, 255); stroke-opacity: 1; stroke-width: 2px; opacity: 1;"/></g><g class="points"/><g class="text"/></g><g class="trace scatter trace9d0c56" style="stroke-miterlimit: 2; opacity: 0.05;"><g class="fills"/><g class="errorbars"/><g class="lines"><path class="js-line" d="M0,45.59L0.5,45.59L1,46.69L2.5,50.61L3,50.61L4,60.59L4.5,60.59L5.99,60.59L6.49,64.2L14.98,64.2L15.48,66.66L20.98,67.33L21.48,69.13L23.48,69.55L23.98,74.79L36.96,74.79L37.46,83.85L52.45,84.56L52.95,86.75L53.45,86.75L53.95,93.75L60.94,93.75L61.44,98.54L66.43,98.54L66.93,101.13L73.93,101.61L74.43,104.71L75.92,104.92L76.42,106.59L82.42,107.3L82.92,110.04L84.42,110.15L84.91,115.81L94.41,115.81L94.9,117.21L101.4,117.6L101.9,118.06L103.4,119.42L103.9,119.97L113.89,120.56L114.39,120.78L115.38,120.78L115.88,124.12L161.34,124.8L161.84,124.94L171.33,125.57L171.83,125.57L204.79,126.29L205.29,126.37L326.67,126.96L327.17,127.58L426.57,128.01L427.07,128.68L430.57,129.12L431.07,129.49L432.57,129.93L433.07,129.93L440.56,129.93L441.06,130.83L476.52,130.83L477.02,131.78L489.01,132.51L489.51,132.55L499,132.56" style="vector-effect: none; fill: none; stroke: rgb(0, 0, 255); stroke-opacity: 1; stroke-width: 2px; opacity: 1;"/></g><g class="points"/><g class="text"/></g><g class="trace scatter trace74bc55" style="stroke-miterlimit: 2; opacity: 0.05;"><g class="fills"/><g class="errorbars"/><g class="lines"><path class="js-line" d="M0,44.12L1.5,64.98L2,71.98L2.5,72.11L3,73.73L3.5,73.95L4,80.14L4.5,80.14L4.99,81.66L9.49,81.66L9.99,87.09L20.98,87.84L21.48,88.59L25.97,88.59L26.47,93.59L26.97,93.59L27.47,94.38L30.97,94.39L31.47,95.39L33.47,95.39L33.97,98.07L35.96,98.07L36.46,98.97L36.96,99L37.46,100.62L39.96,100.62L40.46,102.41L44.95,102.41L45.45,103.37L48.95,103.37L49.45,106.75L50.45,110.15L50.95,110.15L57.44,110.15L57.94,113.42L65.43,114.01L65.93,117.21L70.43,117.21L70.93,118.59L71.43,118.59L71.93,119.52L86.91,120.14L87.41,120.77L93.41,121.05L93.91,122.02L101.9,122.41L102.4,122.9L103.9,123.21L104.4,123.21L114.39,123.33L114.88,124.44L118.38,125.15L118.88,125.6L157.34,126.06L157.84,126.68L163.84,127.22L164.34,128.08L172.33,128.66L172.83,129.81L235.26,130.02L235.76,131.19L238.26,131.39L238.76,131.39L259.74,131.77L260.24,132.26L284.71,132.88L285.21,133.12L304.2,133.83L304.69,134.13L313.19,134.53L313.69,134.96L320.18,134.96L320.68,135.78L330.17,136.32L330.67,136.67L352.15,137.34L352.65,137.48L357.14,137.76L357.64,137.76L362.14,137.76L362.64,139.71L372.63,139.71L373.13,141.9L374.13,141.9L374.62,143.72L380.62,143.72L381.12,144.65L382.12,146.55L382.62,146.55L386.11,147.06L386.61,148.9L388.11,148.9L388.61,152.15L400.6,152.15L401.1,153.96L407.59,154.36L408.09,155.08L413.59,155.64L414.09,156.71L432.57,156.71L433.07,159.7L442.06,159.93L442.56,164.6L453.05,165.07L453.55,169.81L467.03,169.81L467.53,172.73L470.53,172.99L471.03,173.7L491.01,173.7L491.51,176.17L499,176.17" style="vector-effect: none; fill: none; stroke: rgb(0, 0, 255); stroke-opacity: 1; stroke-width: 2px; opacity: 1;"/></g><g class="points"/><g class="text"/></g><g class="trace scatter trace9a766c" style="stroke-miterlimit: 2; opacity: 0.05;"><g class="fills"/><g class="errorbars"/><g class="lines"><path class="js-line" d="M0,36.72L1.5,51.59L2,51.59L9.49,52.22L9.99,54.31L11.49,54.31L11.99,55.3L12.99,55.4L13.49,58.14L16.48,58.14L16.98,60.92L19.48,60.92L19.98,61.7L21.98,61.7L22.48,65.6L24.97,65.6L25.47,66.81L26.97,66.81L27.47,69.31L27.97,69.31L28.47,72.77L33.97,72.77L34.47,85.21L35.46,86.99L35.96,86.99L36.96,86.99L37.46,88.29L50.95,88.29L51.45,98.88L62.44,98.88L62.94,99.81L63.94,102.93L64.44,102.93L65.43,107.21L65.93,107.21L68.93,107.52L69.43,108.68L74.92,108.68L75.42,110.99L76.42,111.57L76.92,111.57L77.92,114.03L78.42,114.03L84.42,114.35L84.91,116.08L94.41,116.08L94.9,117.92L98.9,118.43L99.4,118.76L100.4,120L100.9,120L109.39,120.55L109.89,121.4L112.39,121.4L112.89,123.79L147.85,123.79L148.35,124.87L170.83,125.49L171.33,126.11L238.76,126.67L239.26,127.08L243.76,127.61L244.26,128.55L277.72,129.3L278.22,129.43L286.21,130.05L286.71,130.26L353.65,131.01L354.15,131.11L444.06,131.72L444.55,131.89L448.05,132.01L448.55,132.01L471.53,132.02L472.03,133.44L481.02,133.61L481.52,134.3L485.51,134.45L486.01,135.79L491.51,135.79L492.01,137.32L497.5,137.4L498,138.42L499,138.42" style="vector-effect: none; fill: none; stroke: rgb(0, 0, 255); stroke-opacity: 1; stroke-width: 2px; opacity: 1;"/></g><g class="points"/><g class="text"/></g><g class="trace scatter trace698274" style="stroke-miterlimit: 2; opacity: 0.05;"><g class="fills"/><g class="errorbars"/><g class="lines"><path class="js-line" d="M0,24.4L0.5,24.4L1,28.93L2,47.58L2.5,47.58L4.5,47.58L4.99,54.32L10.49,54.32L10.99,61.62L20.48,62.14L20.98,64.07L22.48,64.07L22.98,78.31L33.97,78.31L34.47,85.2L36.46,85.2L36.96,87.41L45.45,87.41L45.95,92.22L55.44,92.42L55.94,93.1L56.94,94.45L57.44,94.45L58.44,96.95L58.94,97.27L60.44,97.27L60.94,98.81L72.93,99.28L73.43,100.06L74.92,102.8L75.42,104.26L76.42,104.59L76.92,106.59L80.42,107.22L80.92,110L89.91,110.75L90.41,116.03L101.9,116.03L102.4,116.96L107.39,116.96L107.89,121.64L118.38,122.38L118.88,122.8L126.37,123.12L126.87,123.88L146.35,124.62L146.85,124.78L149.35,125.03L149.85,127.45L170.33,128.06L170.83,128.68L211.29,129.26L211.79,130.04L225.27,130.3L225.77,131.06L240.26,132.42L240.76,132.42L268.23,132.73L268.73,133.23L301.7,133.83L302.2,134.09L307.19,134.75L307.69,135.9L314.68,136.1L315.18,138.08L329.17,138.08L329.67,139.25L333.67,139.8L334.17,140.32L335.66,140.51L336.16,141.78L355.14,141.88L355.64,147.03L364.14,147.03L364.63,148.74L375.12,148.74L375.62,150.46L392.11,150.66L392.61,151.3L412.09,151.3L412.59,152.25L421.08,152.7L421.58,155.85L432.57,156.46L433.07,158.67L462.54,159.38L463.04,165.55L464.53,165.55L465.03,167.53L467.53,167.53L468.03,168.72L469.53,168.72L470.03,172.77L487.51,172.92L488.01,174.66L489.51,174.93L490.01,176.49L491.01,176.87L491.51,178.48L492.51,178.64L493.01,180.68L499,180.68" style="vector-effect: none; fill: none; stroke: rgb(0, 0, 255); stroke-opacity: 1; stroke-width: 2px; opacity: 1;"/></g><g class="points"/><g class="text"/></g><g class="trace scatter trace1e8f15" style="stroke-miterlimit: 2; opacity: 0.05;"><g class="fills"/><g class="errorbars"/><g class="lines"><path class="js-line" d="M0,82.54L1,86.39L1.5,86.39L4,86.39L4.5,88.59L13.99,88.59L14.49,91.23L20.98,91.23L21.48,94.03L21.98,94.5L22.48,98.46L23.48,98.46L23.98,101.36L29.47,101.59L29.97,105.47L33.97,105.47L34.47,109.25L40.96,109.25L41.46,114.22L46.45,114.73L46.95,115.13L48.95,115.13L49.45,116.97L49.95,116.97L50.45,118.12L55.94,118.12L56.44,120.39L67.93,121.1L68.43,122.14L71.43,122.52L71.93,123.28L75.42,123.48L75.92,126.17L89.41,126.83L89.91,127.04L118.38,127.62L118.88,128.15L158.34,128.83L158.84,129.14L170.33,129.7L170.83,130.35L176.32,130.48L176.82,131.53L199.3,132.13L199.8,132.97L214.78,133.59L215.28,133.95L223.28,134.59L223.78,135.58L246.75,135.87L247.25,136.6L247.75,136.69L248.25,138.62L261.74,138.84L262.24,147.26L279.72,147.26L280.22,148.29L289.71,148.64L290.21,150.56L292.21,150.56L292.71,154.72L295.7,155.36L296.2,155.94L299.7,155.95L300.2,157L302.7,157L303.2,159.18L311.19,159.18L311.69,160.24L316.18,160.24L316.68,161.32L329.17,161.81L329.67,170.2L341.16,170.2L341.66,171.91L352.15,171.91L352.65,173.85L354.15,174.33L354.64,174.33L357.14,174.33L357.64,176.39L367.63,176.86L368.13,180.36L370.13,180.62L370.63,180.62L372.63,180.62L373.13,183.93L377.62,183.93L378.12,186.22L380.62,186.68L381.12,187.09L382.12,187.09L382.62,188.03L383.62,189.33L384.12,189.33L393.61,189.71L394.11,190.15L410.09,190.15L410.59,193.14L417.58,193.81L418.08,200.88L419.58,200.88L420.08,201.64L428.57,201.64L429.07,202.57L430.07,202.57L430.57,203.39L440.56,203.52L441.06,204.65L445.55,205.35L446.05,205.63L450.05,205.8L450.55,205.8L461.04,206.47L461.54,207.07L462.04,207.07L462.54,208.46L464.04,208.94L464.53,208.94L469.03,208.94L469.53,214.86L470.53,216.06L471.03,216.06L484.02,216.38L484.51,219.56L485.01,219.56L485.51,221.57L494.01,221.57L494.5,222.78L499,222.78" style="vector-effect: none; fill: none; stroke: rgb(0, 0, 255); stroke-opacity: 1; stroke-width: 2px; opacity: 1;"/></g><g class="points"/><g class="text"/></g><g class="trace scatter trace719b30" style="stroke-miterlimit: 2; opacity: 0.05;"><g class="fills"/><g class="errorbars"/><g class="lines"><path class="js-line" d="M0,47.1L1,77.25L1.5,77.25L2.5,93.26L3,93.26L7.49,93.26L7.99,97.84L9.49,97.84L9.99,107.64L14.49,107.64L14.98,112.45L15.98,112.45L16.48,115.32L17.48,115.32L17.98,116.34L25.47,116.78L25.97,118.23L35.96,118.75L36.46,119.38L39.46,119.75L39.96,121.25L61.94,121.28L62.44,123.23L75.42,123.7L75.92,124.56L79.92,124.75L80.42,126.21L81.42,127.06L81.92,127.06L138.36,127.81L138.86,127.82L174.82,128.55L175.32,128.6L179.32,128.65L179.82,129.71L227.77,129.93L228.27,130.81L228.77,130.81L229.27,131.63L262.74,131.92L263.24,134.12L305.69,134.87L306.19,135.29L322.68,135.98L323.18,136.16L339.66,136.27L340.16,137.33L347.15,137.33L347.65,141.19L364.14,141.19L364.63,145.08L365.63,145.08L366.13,146.06L367.13,146.06L367.63,150.05L374.62,150.05L375.12,151.22L388.11,151.51L388.61,162.59L419.58,163.21L420.08,164.04L421.08,164.42L421.58,165.38L443.56,165.92L444.06,172.3L451.55,173.05L452.05,173.2L456.54,173.2L457.04,177.16L461.04,177.16L461.54,182.06L469.53,182.06L470.03,190.31L471.53,190.31L472.03,191.57L474.03,191.57L474.52,196.57L475.52,198.53L476.02,198.53L479.02,198.53L479.52,201.08L483.52,201.08L484.02,218.88L499,218.88" style="vector-effect: none; fill: none; stroke: rgb(0, 0, 255); stroke-opacity: 1; stroke-width: 2px; opacity: 1;"/></g><g class="points"/><g class="text"/></g><g class="trace scatter trace8566cd" style="stroke-miterlimit: 2; opacity: 0.05;"><g class="fills"/><g class="errorbars"/><g class="lines"><path class="js-line" d="M0,71.03L1,71.03L1.5,72.27L4.5,74.36L4.99,82.78L6.99,82.78L7.49,85.09L8.99,85.27L9.49,96.92L13.99,96.92L14.49,98.03L19.98,98.03L20.48,99.07L36.46,99.32L36.96,100.54L37.96,101.36L38.46,104.55L39.46,104.55L39.96,108.68L59.94,108.68L60.44,110.94L79.92,110.94L80.42,112.85L101.9,113.2L102.4,113.77L112.39,114.41L112.89,115.86L113.39,115.86L113.89,116.75L134.86,116.83L135.36,117.82L143.86,118.34L144.36,118.7L156.34,119.22L156.84,120.73L158.34,121.47L158.84,121.47L160.34,121.84L160.84,121.84L181.32,122.57L181.82,122.6L196.8,122.65L197.3,123.81L209.29,124.37L209.79,124.66L230.27,125.34L230.77,125.98L260.74,126.04L261.24,127L337.16,127.64L337.66,128.25L406.59,128.91L407.09,129.4L451.55,130.02L452.05,130.31L462.04,130.61L462.54,130.61L487.51,130.78L488.01,131.8L499,132.01" style="vector-effect: none; fill: none; stroke: rgb(0, 0, 255); stroke-opacity: 1; stroke-width: 2px; opacity: 1;"/></g><g class="points"/><g class="text"/></g><g class="trace scatter trace986143" style="stroke-miterlimit: 2; opacity: 0.05;"><g class="fills"/><g class="errorbars"/><g class="lines"><path class="js-line" d="M0,48.25L1,59.93L1.5,60.01L2.5,60.01L3,62.62L8.99,62.62L9.49,69.64L20.98,69.96L21.48,71.94L26.97,71.98L27.47,73.7L29.47,73.7L29.97,74.85L31.47,74.85L31.97,81.21L32.97,81.21L33.47,89.72L38.96,89.72L39.46,91.27L44.95,91.27L45.45,96.96L49.95,96.96L50.45,98.74L51.45,101.5L51.95,101.5L62.44,101.62L62.94,104.24L63.94,110.49L64.44,110.49L66.43,110.49L66.93,115.9L112.39,116.63L112.89,117.11L119.38,117.62L119.88,119.11L122.38,119.49L122.88,120.36L129.87,120.6L130.37,122.49L142.36,122.77L142.86,124.54L165.83,125.13L166.33,125.86L177.32,126.35L177.82,126.72L179.32,126.72L179.82,127.54L209.29,127.67L209.79,128.31L247.25,128.6L247.75,130.27L266.73,130.75L267.23,131.3L275.22,131.35L275.72,131.35L277.22,131.35L277.72,132.62L279.72,132.83L280.22,132.83L313.19,132.83L313.69,133.73L342.16,133.99L342.66,135.4L344.65,135.4L345.15,137.11L365.63,137.86L366.13,138.15L369.13,138.67L369.63,139.8L374.13,140.11L374.62,144.47L385.61,144.47L386.11,147.61L387.11,147.61L387.61,151.48L398.6,151.98L399.1,152.66L399.6,152.66L400.1,154.08L402.6,154.08L403.1,156.78L406.09,157.52L406.59,160.7L410.09,161.37L410.59,161.54L412.59,161.85L413.09,162.68L414.09,163.25L414.58,175.42L421.08,175.42L421.58,177.46L434.07,177.46L434.56,186.25L442.06,186.78L442.56,199.34L450.05,199.35L450.55,204.28L466.03,204.28L466.53,207.59L468.03,208.12L468.53,208.12L485.51,208.53L486.01,209.05L487.51,214.63L488.01,214.63L491.01,214.63L491.51,215.71L494.5,215.71L495,216.48L499,216.48" style="vector-effect: none; fill: none; stroke: rgb(0, 0, 255); stroke-opacity: 1; stroke-width: 2px; opacity: 1;"/></g><g class="points"/><g class="text"/></g><g class="trace scatter trace9c8c7b" style="stroke-miterlimit: 2; opacity: 0.05;"><g class="fills"/><g class="errorbars"/><g class="lines"><path class="js-line" d="M0,33.34L1,56.82L1.5,59.25L12.99,59.25L13.49,67.53L20.48,68.16L20.98,71.7L23.98,71.7L24.48,73.51L29.97,73.78L30.47,77.11L31.97,77.53L32.47,77.6L32.97,77.6L33.47,83.88L38.46,83.88L38.96,85.89L42.96,85.89L43.46,89.41L58.94,89.41L59.44,90.73L62.94,90.73L63.44,98.57L79.92,98.57L80.42,99.94L82.42,100L82.92,100.92L85.91,100.92L86.41,102.47L87.41,105.23L87.91,105.23L90.41,105.23L90.91,109.57L94.9,109.57L95.4,112.04L110.39,112.13L110.89,114.29L121.88,114.29L122.38,116.17L131.87,116.41L132.37,117.37L143.36,117.77L143.86,118.66L151.35,118.99L151.85,120.25L160.34,120.71L160.84,121.55L174.33,122.22L174.82,122.43L177.32,122.52L177.82,123.67L186.31,124.39L186.81,124.62L188.31,124.96L188.81,124.96L229.77,125.34L230.27,125.82L372.13,126.51L372.63,126.61L469.03,127.11L469.53,127.44L499,127.74" style="vector-effect: none; fill: none; stroke: rgb(0, 0, 255); stroke-opacity: 1; stroke-width: 2px; opacity: 1;"/></g><g class="points"/><g class="text"/></g><g class="trace scatter trace50f896" style="stroke-miterlimit: 2; opacity: 0.05;"><g class="fills"/><g class="errorbars"/><g class="lines"><path class="js-line" d="M0,32.48L1,44.05L1.5,45.47L2.5,48.03L3,48.03L3.5,48.03L4,49.42L4.5,49.42L4.99,50.64L7.99,50.64L8.49,61.34L13.99,61.34L14.49,64.45L16.98,64.45L17.48,69.3L19.48,69.3L19.98,71.16L24.97,71.33L25.47,73.64L33.47,73.64L33.97,75.45L35.96,75.45L36.46,76.84L37.46,85.01L37.96,85.01L41.46,85.01L41.96,90.93L46.95,90.93L47.45,92.53L50.45,92.53L50.95,98.31L51.45,98.31L51.95,105.14L64.44,105.49L64.93,107.12L65.93,110.72L66.43,110.72L74.92,110.72L75.42,111.49L76.42,112.31L76.92,112.31L79.42,113.51L79.92,113.51L84.42,114.03L84.91,115.16L87.91,115.48L88.41,116.39L96.9,116.73L97.4,117.97L99.4,121.65L99.9,121.65L109.89,121.65L110.39,122.78L111.39,123.44L111.89,123.44L133.37,124.15L133.87,124.57L135.36,124.87L135.86,124.87L176.82,125.39L177.32,126.91L210.79,127.61L211.29,127.89L230.27,128.7L230.77,128.81L306.69,129.31L307.19,129.61L338.66,130.05L339.16,131.41L366.13,132.16L366.63,132.52L368.63,132.75L369.13,132.75L379.12,133.2L379.62,134.69L386.11,134.69L386.61,136.21L387.61,136.21L388.11,137.3L394.6,137.72L395.1,138.32L405.59,139.07L406.09,139.22L407.59,139.76L408.09,139.76L409.09,139.76L409.59,141.52L424.08,142.26L424.57,145.46L426.07,146.37L426.57,146.37L428.57,146.47L429.07,148.78L438.56,148.78L439.06,150.23L440.56,154.58L441.06,154.58L444.55,154.58L445.05,157.55L452.55,157.55L453.05,160.55L455.04,160.55L455.54,170.08L462.04,170.08L462.54,171.2L463.54,171.2L464.04,174.35L466.03,174.35L466.53,179.21L479.02,179.93L479.52,184.85L492.01,185.08L492.51,186.12L493.51,187.34L494.01,191.22L495.5,194.99L496,196.84L497,200.11L497.5,200.11L499,200.11" style="vector-effect: none; fill: none; stroke: rgb(0, 0, 255); stroke-opacity: 1; stroke-width: 2px; opacity: 1;"/></g><g class="points"/><g class="text"/></g><g class="trace scatter trace2ca496" style="stroke-miterlimit: 2; opacity: 0.05;"><g class="fills"/><g class="errorbars"/><g class="lines"><path class="js-line" d="M0,84.44L0.5,84.44L1,94.39L5.99,94.7L6.49,96.91L7.49,97.59L7.99,97.59L10.99,97.59L11.49,98.36L17.98,98.36L18.48,100.35L22.98,100.49L23.48,103.68L24.48,105.27L24.97,105.27L25.47,105.27L25.97,106.52L26.97,106.52L27.47,107.81L33.97,107.81L34.47,108.98L35.96,111.87L36.46,111.87L37.96,112.43L38.46,113.12L38.96,113.12L39.46,115.78L46.95,115.85L47.45,117.58L48.95,117.58L49.45,118.87L53.45,119.32L53.95,122.16L76.92,122.45L77.42,123.18L79.92,123.18L80.42,124.19L103.9,124.75L104.4,125.17L185.81,125.86L186.31,125.95L190.81,126.04L191.31,126.04L499,126.77" style="vector-effect: none; fill: none; stroke: rgb(0, 0, 255); stroke-opacity: 1; stroke-width: 2px; opacity: 1;"/></g><g class="points"/><g class="text"/></g><g class="trace scatter traced9a55d" style="stroke-miterlimit: 2; opacity: 0.05;"><g class="fills"/><g class="errorbars"/><g class="lines"><path class="js-line" d="M0,27.65L5.49,28.09L5.99,30.81L14.98,30.81L15.48,35.52L21.98,35.61L22.48,38.34L23.48,42.65L23.98,42.65L30.97,42.65L31.47,44.06L33.97,44.06L34.47,45.29L34.96,45.4L35.46,47.07L36.96,47.07L37.46,48.91L39.46,48.91L39.96,51.26L41.46,51.26L41.96,55.19L44.95,55.19L45.45,56.29L49.45,56.29L49.95,57.25L50.95,62.56L51.45,62.56L55.44,62.68L55.94,66.56L57.94,66.56L58.44,69.32L63.94,69.32L64.44,70.79L69.93,70.79L70.43,72.69L72.43,72.69L72.93,75.93L76.42,75.93L76.92,79.87L80.92,79.87L81.42,84.81L85.91,84.92L86.41,88.7L88.41,88.7L88.91,90.77L103.4,90.77L103.9,97.84L113.39,97.84L113.89,100.39L117.88,100.39L118.38,105.01L123.38,105.01L123.88,108.12L131.37,108.12L131.87,114.3L147.85,114.75L148.35,117.21L159.34,117.69L159.84,119.53L161.34,119.53L161.84,120.86L163.84,120.86L164.34,123.75L170.33,123.89L170.83,124.53L217.28,124.92L217.78,126.6L258.74,127.28L259.24,127.51L273.23,128.25L273.73,128.86L311.69,129.49L312.19,129.63L339.16,129.98L339.66,130.42L341.66,130.83L342.16,130.83L371.13,131.57L371.63,131.66L389.61,132.2L390.11,132.53L410.59,133.28L411.09,133.36L419.58,134.04L420.08,134.38L435.56,134.92L436.06,135.31L438.06,135.52L438.56,135.52L444.06,136L444.55,136.86L446.55,137.13L447.05,137.13L476.02,137.82L476.52,141.55L482.52,142.07L483.02,142.35L486.01,142.62L486.51,143.26L499,143.93" style="vector-effect: none; fill: none; stroke: rgb(0, 0, 255); stroke-opacity: 1; stroke-width: 2px; opacity: 1;"/></g><g class="points"/><g class="text"/></g><g class="trace scatter trace7f3957" style="stroke-miterlimit: 2; opacity: 0.05;"><g class="fills"/><g class="errorbars"/><g class="lines"><path class="js-line" d="M0,69.78L2.5,69.85L3,72.79L8.99,72.79L9.49,77.22L10.49,77.22L10.99,81.2L11.99,81.46L12.49,82.73L15.98,82.78L16.48,90.61L20.48,90.61L20.98,92.01L22.48,92.01L22.98,95.49L23.48,95.49L23.98,97.22L31.97,97.22L32.47,98.78L38.46,98.78L38.96,100.65L50.45,100.65L50.95,101.73L59.94,101.73L60.44,102.58L61.94,102.58L62.44,103.59L63.44,103.59L63.94,104.66L64.93,105.97L65.43,105.97L68.43,106.21L68.93,107.09L79.42,107.26L79.92,108.25L88.91,108.49L89.41,109.39L96.9,109.39L97.4,111.38L115.38,111.82L115.88,113.1L126.37,113.8L126.87,115.85L136.36,115.97L136.86,117.74L138.36,117.75L138.86,118.71L143.86,118.89L144.36,119.7L161.84,120.15L162.34,121.2L165.33,121.34L165.83,121.34L177.82,121.48L178.32,122.51L195.3,122.51L195.8,123.71L205.29,124.09L205.79,124.5L212.79,125.13L213.29,125.34L225.77,125.49L226.27,126.44L235.26,127.17L235.76,127.38L250.25,128.03L250.75,128.26L259.24,128.6L259.74,129.09L260.24,129.09L260.74,131.14L266.23,131.21L266.73,131.21L274.72,131.25L275.22,133.36L279.22,133.36L279.72,135.46L296.2,135.46L296.7,136.32L303.7,136.32L304.2,137.62L325.67,138.2L326.17,139.31L328.17,139.81L328.67,140.93L333.67,141.52L334.17,142.62L336.16,142.62L336.66,145.97L342.66,145.97L343.16,146.9L344.16,147.84L344.65,147.84L351.15,148.81L351.65,149.4L353.65,149.4L354.15,150.32L358.64,151.05L359.14,151.29L360.14,152.54L360.64,152.54L368.13,152.54L368.63,153.45L381.62,153.45L382.12,154.66L388.11,155.03L388.61,156.27L390.11,158.42L390.61,158.42L394.11,158.55L394.6,159.87L399.6,159.95L400.1,159.95L411.59,160.27L412.09,161.87L415.08,161.87L415.58,164.19L420.08,164.19L420.58,166.09L437.56,166.67L438.06,167.64L445.05,167.81L445.55,168.4L446.55,168.94L447.05,169.25L452.05,169.25L452.55,175.26L470.03,175.84L470.53,177.87L471.53,177.87L472.03,178.92L486.51,179.29L487.01,180.13L497.5,180.13L498,185.23L499,185.23" style="vector-effect: none; fill: none; stroke: rgb(0, 0, 255); stroke-opacity: 1; stroke-width: 2px; opacity: 1;"/></g><g class="points"/><g class="text"/></g><g class="trace scatter trace9ea3b7" style="stroke-miterlimit: 2; opacity: 0.05;"><g class="fills"/><g class="errorbars"/><g class="lines"><path class="js-line" d="M0,30.41L1.5,30.41L2,36.34L7.99,36.34L8.49,41.71L10.99,41.71L11.49,42.97L12.49,42.97L12.99,47.9L16.48,47.9L16.98,52.8L19.48,52.8L19.98,55.43L21.98,55.43L22.48,56.86L25.47,56.86L25.97,63.57L26.97,70.23L27.47,70.23L30.47,70.23L30.97,71.63L34.47,71.63L34.96,80.97L37.96,80.97L38.46,86.34L43.46,86.34L43.96,88.94L51.45,88.94L51.95,92.57L62.44,92.85L62.94,100.99L78.92,101.53L79.42,102.81L81.42,102.81L81.92,103.86L83.42,103.86L83.92,105.68L84.91,108.37L85.41,108.37L87.41,108.37L87.91,112.73L92.41,112.73L92.91,113.79L101.4,114.07L101.9,114.72L103.4,122.73L103.9,122.73L110.39,123.16L110.89,123.58L111.39,123.58L111.89,124.48L118.88,124.48L119.38,129.52L172.33,130.11L172.83,130.98L185.31,131.17L185.81,131.96L206.79,132.11L207.29,133.14L224.77,133.29L225.27,134.39L229.77,134.99L230.27,135.31L233.27,135.41L233.77,136.5L252.75,137.23L253.25,138.09L254.25,138.09L254.74,138.85L258.24,139.14L258.74,140.96L270.23,141.47L270.73,142.03L275.22,142.75L275.72,143.11L279.22,144.13L279.72,145.78L281.22,146.01L281.72,147.97L282.72,147.97L283.22,148.84L297.2,148.99L297.7,150.03L309.69,150.3L310.19,151.39L311.19,152.48L311.69,152.48L323.68,152.94L324.18,153.37L326.67,153.37L327.17,154.87L337.16,155.06L337.66,156.68L341.66,157.1L342.16,158.88L343.16,159.81L343.66,159.81L344.16,159.81L344.65,165.58L356.64,165.58L357.14,169.39L365.13,169.9L365.63,173.92L371.13,173.92L371.63,176.53L380.12,176.53L380.62,177.93L386.11,178.34L386.61,179.23L387.61,181.89L388.11,181.89L392.61,182.3L393.11,191.2L412.59,191.76L413.09,193.6L414.09,199.66L414.58,199.66L416.08,200.22L416.58,200.22L430.57,200.22L431.07,204.81L433.57,205.1L434.07,205.1L437.06,205.44L437.56,206.12L439.06,207.37L439.56,207.37L445.05,207.45L445.55,208.55L446.05,208.55L446.55,212.65L457.54,212.69L458.04,213.67L460.04,216.04L460.54,216.04L464.53,216.04L465.03,227.02L473.53,227.02L474.03,236.58L492.51,237.12L493.01,240.35L494.01,244.35L494.5,244.35L499,244.35" style="vector-effect: none; fill: none; stroke: rgb(0, 0, 255); stroke-opacity: 1; stroke-width: 2px; opacity: 1;"/></g><g class="points"/><g class="text"/></g><g class="trace scatter trace9b573f" style="stroke-miterlimit: 2; opacity: 0.05;"><g class="fills"/><g class="errorbars"/><g class="lines"><path class="js-line" d="M0,18.87L0.5,18.87L1,21.2L3.5,21.2L4,29.97L6.99,29.97L7.49,34.68L8.49,37.53L8.99,37.53L14.49,37.53L14.98,56.01L18.48,56.01L18.98,59.45L23.98,59.45L24.48,62.73L27.97,62.73L28.47,67.81L29.97,67.94L30.47,69.4L33.97,69.4L34.47,70.36L36.46,71.08L36.96,73.35L37.96,73.35L38.46,78.08L43.46,78.08L43.96,82.58L47.95,82.58L48.45,84.17L53.45,84.78L53.95,86.17L54.94,89.17L55.44,89.17L58.44,90.13L58.94,90.13L68.43,90.22L68.93,97.45L75.92,97.83L76.42,98.76L86.91,98.76L87.41,99.92L93.41,99.92L93.91,100.97L94.9,100.97L95.4,103.73L102.9,103.73L103.4,104.85L103.9,104.85L104.4,105.68L108.89,105.76L109.39,106.56L112.39,107.25L112.89,108.77L115.88,108.77L116.38,112.73L117.38,112.73L117.88,114.02L122.88,114.02L123.38,118.47L134.37,118.89L134.86,119.99L135.86,119.99L136.36,123.2L142.36,123.2L142.86,124.07L154.35,124.15L154.84,125.16L166.33,125.16L166.83,127.12L185.81,127.84L186.31,127.91L191.31,128.05L191.81,128.09L194.31,128.33L194.8,129.12L198.3,129.65L198.8,130.09L215.28,130.84L215.78,130.93L216.78,131.44L217.28,131.8L258.74,132.45L259.24,133.34L267.23,133.89L267.73,135.37L276.72,135.37L277.22,140.27L309.19,140.67L309.69,141.78L327.17,142.24L327.67,143.05L331.67,143.05L332.17,144.13L339.16,144.13L339.66,145.95L348.15,146.55L348.65,146.81L359.14,147.19L359.64,150.63L366.63,150.63L367.13,151.47L368.63,151.92L369.13,151.92L373.63,152.21L374.13,152.91L375.62,153.46L376.12,153.46L380.62,154.07L381.12,154.34L381.62,154.46L382.12,155.49L384.61,156.77L385.11,156.77L393.11,156.77L393.61,160.46L407.09,160.8L407.59,164.66L411.09,164.66L411.59,165.97L414.09,165.97L414.58,169.33L439.56,169.65L440.06,174.15L445.05,174.67L445.55,176.11L453.05,176.11L453.55,178.49L454.54,181.5L455.04,181.5L464.04,181.5L464.53,185.2L477.52,185.72L478.02,187.63L479.02,187.63L479.52,191.28L480.02,191.28L480.52,197.89L492.01,198.61L492.51,199.28L493.51,199.85L494.01,199.85L499,199.85" style="vector-effect: none; fill: none; stroke: rgb(0, 0, 255); stroke-opacity: 1; stroke-width: 2px; opacity: 1;"/></g><g class="points"/><g class="text"/></g><g class="trace scatter trace9b24e8" style="stroke-miterlimit: 2; opacity: 0.05;"><g class="fills"/><g class="errorbars"/><g class="lines"><path class="js-line" d="M0,63.01L11.49,63.49L11.99,64.33L14.98,64.33L15.48,66.13L17.98,66.33L18.48,68.58L19.98,68.58L20.48,75.84L25.97,75.84L26.47,79.6L32.47,79.6L32.97,81.78L46.95,82.32L47.45,82.58L48.95,83.01L49.45,83.01L49.95,83.08L50.45,84.69L51.45,84.69L51.95,86.11L52.45,86.11L52.95,87.72L54.94,87.72L55.44,90.63L57.44,90.63L57.94,93.62L58.94,96.31L59.44,96.31L74.92,96.5L75.42,97.48L81.92,97.96L82.42,98.53L85.91,98.53L86.41,100.86L88.91,100.96L89.41,104.49L102.9,105.09L103.4,105.61L105.89,105.61L106.39,107.03L125.87,107.53L126.37,107.93L132.37,108.57L132.87,108.78L138.36,108.78L138.86,110.6L157.84,110.96L158.34,111.94L159.34,112.6L159.84,112.6L164.34,113.2L164.83,114.27L185.81,114.88L186.31,115.72L206.29,116.33L206.79,116.6L222.78,117.28L223.28,117.68L248.75,117.68L249.25,118.53L265.23,118.76L265.73,121.76L283.22,122.18L283.72,122.57L288.21,122.57L288.71,124.32L314.19,124.98L314.68,125.92L324.67,126.67L325.17,126.71L332.67,126.99L333.17,130.03L354.64,130.74L355.14,131.05L359.14,131.98L359.64,132.01L360.64,132.25L361.14,133.24L366.63,133.4L367.13,134.56L374.62,135.72L375.12,136.92L390.61,136.96L391.11,138.95L393.11,138.95L393.61,140.18L400.6,140.18L401.1,142L404.59,142.7L405.09,142.7L420.58,143.45L421.08,144.05L425.57,144.2L426.07,144.84L428.07,145.32L428.57,145.76L429.57,145.95L430.07,147.04L440.56,147.76L441.06,147.84L450.05,148.04L450.55,149.3L453.55,149.3L454.05,151.63L457.04,151.95L457.54,152.69L472.03,152.85L472.53,154.83L485.51,155.24L486.01,156.12L487.01,158.15L487.51,158.15L490.51,158.31L491.01,161.61L499,161.69" style="vector-effect: none; fill: none; stroke: rgb(0, 0, 255); stroke-opacity: 1; stroke-width: 2px; opacity: 1;"/></g><g class="points"/><g class="text"/></g><g class="trace scatter trace135f9f" style="stroke-miterlimit: 2; opacity: 0.05;"><g class="fills"/><g class="errorbars"/><g class="lines"><path class="js-line" d="M0,58.41L20.48,58.41L20.98,67.18L29.97,67.59L30.47,76.09L35.96,76.09L36.46,82.22L40.46,82.45L40.96,88.11L45.95,88.14L46.45,91.46L51.95,91.46L52.45,93.83L53.45,98.5L53.95,98.5L58.94,99.15L59.44,104.45L68.43,104.45L68.93,109.61L72.43,109.61L72.93,111.51L74.43,111.51L74.92,114.86L78.42,115.19L78.92,119.03L80.42,119.03L80.92,121.01L87.41,121.75L87.91,122.32L92.41,122.32L92.91,123.36L93.91,129.9L94.41,129.9L115.38,130.2L115.88,130.76L124.38,131.48L124.87,133.19L127.37,133.87L127.87,134.18L146.35,134.18L146.85,135.17L152.85,135.61L153.35,138.05L168.83,138.05L169.33,142.3L178.32,142.95L178.82,144.32L195.8,144.83L196.3,146.8L198.3,146.8L198.8,149.89L206.29,150.61L206.79,152.44L228.27,152.59L228.77,153.8L240.76,154.4L241.26,154.59L244.26,154.84L244.75,157.29L260.74,157.29L261.24,160.67L269.23,160.67L269.73,161.47L276.22,161.47L276.72,162.39L290.71,162.62L291.21,166.98L306.19,167.35L306.69,170.13L307.69,170.91L308.19,171.03L308.69,171.83L309.19,174.09L314.68,174.77L315.18,177.73L328.67,178.39L329.17,179.62L330.67,180.28L331.17,180.75L345.15,181.07L345.65,182.87L346.65,184.48L347.15,184.48L348.15,185.48L348.65,192.43L349.65,194.62L350.15,194.62L362.14,194.62L362.64,198.96L364.14,199.43L364.63,199.43L366.13,199.43L366.63,207.51L388.11,207.51L388.61,209.9L396.6,210.61L397.1,213.39L398.6,213.39L399.1,217.28L401.6,217.28L402.1,220.18L402.6,220.18L403.1,221.11L409.09,221.11L409.59,227.12L418.08,227.34L418.58,228.35L419.58,229.76L420.08,229.76L423.08,229.76L423.58,232.59L424.08,232.91L424.57,236.86L446.05,237.31L446.55,249.17L448.05,254.32L448.55,254.32L465.03,254.69L465.53,255.72L466.53,256.81L467.03,256.81L468.53,260.04L469.03,260.04L473.53,260.04L474.03,283.63L476.52,283.89L477.02,285.02L485.01,285.02L485.51,285.88L486.51,287.15L487.01,287.15L488.51,287.9L489.01,287.91L491.51,287.91L492.01,292.37L499,292.99" style="vector-effect: none; fill: none; stroke: rgb(0, 0, 255); stroke-opacity: 1; stroke-width: 2px; opacity: 1;"/></g><g class="points"/><g class="text"/></g><g class="trace scatter trace19897f" style="stroke-miterlimit: 2; opacity: 0.05;"><g class="fills"/><g class="errorbars"/><g class="lines"><path class="js-line" d="M0,48.53L1.5,65.04L2,65.04L2.5,65.04L3,67.19L4,72.78L4.5,72.78L8.49,72.78L8.99,82.32L14.98,82.9L15.48,86.35L17.98,86.35L18.48,89.88L19.98,89.88L20.48,91.56L22.98,91.56L23.48,96.92L29.97,96.92L30.47,98.99L32.97,98.99L33.47,102.26L34.96,102.26L35.46,103.56L38.96,104.05L39.46,105.46L45.45,105.46L45.95,106.25L47.45,106.25L47.95,109.82L53.45,110.48L53.95,111.47L54.45,111.47L54.94,117.56L63.44,117.56L63.94,118.89L72.43,118.89L72.93,120.15L82.42,120.73L82.92,122.13L88.91,122.75L89.41,122.99L90.91,123.35L91.41,123.35L99.9,123.86L100.4,126.33L122.88,127.03L123.38,127.31L145.35,128.01L145.85,128.15L182.82,128.83L183.32,128.93L187.31,129.13L187.81,129.77L194.31,129.77L194.8,132.88L236.76,133.13L237.26,134.51L295.2,134.74L295.7,136.28L301.2,136.42L301.7,140.95L324.67,141.47L325.17,144.69L325.67,144.69L326.17,147.15L326.67,147.15L327.17,148.56L339.16,148.56L339.66,149.88L343.16,149.88L343.66,151.39L348.15,151.52L348.65,152.54L350.65,152.54L351.15,154.6L352.15,155.36L352.65,155.36L357.64,155.36L358.14,159.63L359.14,159.63L359.64,161.45L361.14,161.97L361.64,161.97L367.13,161.97L367.63,164.29L368.63,166.43L369.13,166.43L374.62,166.43L375.12,170.95L387.11,170.95L387.61,172.06L390.61,172.06L391.11,173.91L392.11,173.91L392.61,174.88L397.1,174.88L397.6,176.47L398.6,176.47L399.1,177.26L400.1,179.88L400.6,180.44L401.6,181.13L402.1,181.13L403.6,181.13L404.1,181.97L409.09,182.19L409.59,185.21L411.59,185.81L412.09,186.33L413.59,186.65L414.09,186.65L415.58,186.65L416.08,190.83L427.57,190.83L428.07,192.82L431.57,192.88L432.07,200.5L440.06,200.5L440.56,215.45L447.55,215.45L448.05,216.58L453.55,216.58L454.05,217.68L457.54,217.68L458.04,220.66L465.03,220.66L465.53,242.8L487.51,243.29L488.01,244.47L492.51,244.47L493.01,245.33L494.5,247.06L495,247.06L496.5,267.33L497,267.33L498.5,267.33L499,270.16" style="vector-effect: none; fill: none; stroke: rgb(0, 0, 255); stroke-opacity: 1; stroke-width: 2px; opacity: 1;"/></g><g class="points"/><g class="text"/></g><g class="trace scatter trace9a46d2" style="stroke-miterlimit: 2; opacity: 0.05;"><g class="fills"/><g class="errorbars"/><g class="lines"><path class="js-line" d="M0,16L0.5,16L1,17.08L2,17.82L2.5,17.82L13.49,17.82L13.99,18.79L15.48,18.79L15.98,24.23L23.48,24.23L23.98,26.29L25.97,26.29L26.47,27.94L27.97,27.94L28.47,31.04L30.97,31.04L31.47,38.44L32.47,38.44L32.97,39.59L36.46,39.87L36.96,47.06L39.46,47.06L39.96,48.17L43.96,48.17L44.46,51.16L46.95,51.16L47.45,53.43L48.95,53.43L49.45,55.2L50.45,55.2L50.95,56.32L56.44,56.58L56.94,60.62L63.44,60.62L63.94,75.15L72.43,75.15L72.93,78.95L76.92,78.95L77.42,86.52L82.92,86.52L83.42,90.26L85.91,90.26L86.41,91.43L94.41,91.43L94.9,93.54L97.4,93.54L97.9,95.81L106.39,95.81L106.89,96.93L109.89,96.93L110.39,99.19L112.39,99.19L112.89,100.69L115.38,100.69L115.88,101.6L118.38,101.84L118.88,102.46L119.88,105.95L120.38,105.95L120.88,105.95L121.38,106.88L122.88,108.17L123.38,108.17L125.37,108.17L125.87,109.16L126.37,109.16L126.87,111.8L135.36,112.14L135.86,115.11L138.86,115.78L139.36,119.37L147.85,119.69L148.35,120.85L156.84,121.27L157.34,123.87L166.33,124.36L166.83,124.92L168.33,125.5L168.83,125.5L170.83,125.63L171.33,126.61L248.75,127.23L249.25,127.57L252.75,127.68L253.25,127.68L268.73,128.27L269.23,128.58L291.21,129.19L291.71,129.54L353.65,130.03L354.15,131.2L358.64,131.29L359.14,131.29L398.6,131.52L399.1,132.75L427.57,132.93L428.07,133.99L459.04,134.74L459.54,136.29L460.04,136.29L460.54,139.51L492.51,140.19L493.01,140.37L499,140.37" style="vector-effect: none; fill: none; stroke: rgb(0, 0, 255); stroke-opacity: 1; stroke-width: 2px; opacity: 1;"/></g><g class="points"/><g class="text"/></g><g class="trace scatter trace5a0d09" style="stroke-miterlimit: 2; opacity: 1;"><g class="fills"/><g class="errorbars"/><g class="lines"><path class="js-line" d="M0,43.03L1,47.93L1.5,49.8L2,50.67L2.5,56.46L3.5,57.78L4,57.78L4.99,63.3L5.49,63.3L16.98,63.3L17.48,65.58L18.48,65.58L18.98,68.82L21.48,68.82L21.98,69.71L22.98,70.75L23.48,70.75L23.98,70.75L24.48,75.17L24.97,75.17L25.47,76.37L26.47,76.37L26.97,79.05L29.97,79.76L30.47,87.06L31.47,89.58L31.97,89.58L34.47,89.58L34.96,93.05L36.46,93.05L36.96,100.49L53.95,100.9L54.45,106.16L59.44,106.16L59.94,124.1L71.93,124.1L72.43,126.56L78.42,126.56L78.92,133.93L86.91,133.93L87.41,134.72L88.41,134.72L88.91,135.85L89.91,138.11L90.41,138.11L93.91,138.11L94.41,140.15L97.4,140.15L97.9,142.3L98.9,143.14L99.4,143.14L105.89,143.14L106.39,146.33L108.39,146.33L108.89,150.15L112.89,150.15L113.39,151.91L116.88,152.65L117.38,153.03L119.88,153.03L120.38,154.79L125.87,154.79L126.37,158.56L127.87,158.56L128.37,159.77L130.37,160.07L130.87,160.07L144.36,160.46L144.85,161.51L163.84,161.83L164.34,163.46L165.33,165.02L165.83,165.02L166.83,170.03L167.33,170.03L167.83,170.03L168.33,176.42L169.33,181.7L169.83,181.7L182.82,182.43L183.32,183.47L184.81,183.47L185.31,184.62L211.79,185.24L212.29,185.65L214.78,186.28L215.28,186.81L216.78,186.89L217.28,199.43L225.77,199.87L226.27,202.31L228.27,202.64L228.77,203.74L229.77,205.66L230.27,205.66L237.26,205.66L237.76,209.98L257.24,210.38L257.74,211.81L267.73,212.3L268.23,216.36L276.72,216.36L277.22,218.09L278.22,218.94L278.72,218.94L280.22,221.81L280.72,221.81L281.22,221.81L281.72,223.01L282.72,223.88L283.22,223.88L285.71,224.07L286.21,234.81L289.71,234.93L290.21,236.51L295.7,236.51L296.2,240.5L303.7,240.5L304.2,241.5L320.18,241.8L320.68,242.75L321.68,246.87L322.18,246.87L338.16,247.45L338.66,247.69L341.16,248.26L341.66,250.81L347.65,250.81L348.15,251.89L354.64,251.92L355.14,253.67L359.64,254.11L360.14,254.67L361.64,254.67L362.14,255.75L369.13,255.87L369.63,255.87L373.13,255.87L373.63,256.86L374.62,263.76L375.12,263.76L378.62,263.76L379.12,265.56L380.62,265.78L381.12,266.38L388.11,266.38L388.61,270.17L394.11,270.78L394.6,271.77L395.1,271.77L395.6,274.48L401.6,274.48L402.1,275.96L402.6,275.96L403.1,283.05L424.08,283.05L424.57,289.35L425.57,289.92L426.07,289.92L453.55,290.29L454.05,291.01L466.53,291.01L467.03,294.84L474.03,295.04L474.52,298.83L475.52,301.17L476.02,301.17L479.02,301.17L479.52,302.04L494.5,302.37L495,304L499,304" style="vector-effect: none; fill: none; stroke: rgb(255, 0, 0); stroke-opacity: 1; stroke-width: 2px; opacity: 1;"/></g><g class="points"/><g class="text"/></g><g class="trace scatter trace075cb2" style="stroke-miterlimit: 2; opacity: 0.05;"><g class="fills"/><g class="errorbars"/><g class="lines"><path class="js-line" d="M0,21.27L1,38.55L1.5,40.11L2,40.9L2.5,43.22L3,43.22L3.5,51.45L8.99,51.45L9.49,56.09L17.98,56.09L18.48,56.98L19.48,56.98L19.98,61.03L22.98,61.03L23.48,62.78L34.96,62.78L35.46,65.45L37.96,65.45L38.46,66.24L39.46,66.24L39.96,69.48L43.96,70.06L44.46,74.31L46.45,74.31L46.95,83.51L55.94,83.51L56.44,89L62.94,89.38L63.44,92.73L71.93,93.33L72.43,94.32L73.43,97.51L73.93,97.51L76.92,97.51L77.42,101.12L83.92,101.8L84.42,102.68L84.91,102.68L85.41,104.21L86.41,105.82L86.91,105.82L100.9,105.82L101.4,107.7L105.39,107.7L105.89,108.68L110.89,108.97L111.39,110.06L114.39,110.85L114.88,110.85L115.88,111.77L116.38,111.77L117.38,111.77L117.88,112.72L123.38,113.31L123.88,113.87L132.87,114.25L133.37,115.03L135.86,115.51L136.36,116.08L140.86,116.56L141.36,117.66L145.85,117.66L146.35,120.88L161.34,121.51L161.84,122.32L174.33,122.62L174.82,123.22L176.32,123.64L176.82,123.64L202.3,123.8L202.8,124.42L210.29,124.87L210.79,125.23L224.77,125.94L225.27,125.99L264.73,126.7L265.23,126.87L316.68,127.54L317.18,127.67L360.14,128.42L360.64,128.66L400.1,128.97L400.6,129.45L472.03,130.15L472.53,130.73L474.52,131.01L475.02,131.01L499,131.67" style="vector-effect: none; fill: none; stroke: rgb(0, 0, 255); stroke-opacity: 1; stroke-width: 2px; opacity: 1;"/></g><g class="points"/><g class="text"/></g><g class="trace scatter trace4fef3e" style="stroke-miterlimit: 2; opacity: 0.05;"><g class="fills"/><g class="errorbars"/><g class="lines"><path class="js-line" d="M0,41.42L0.5,41.42L1,46.09L5.99,46.09L6.49,47.72L8.99,47.72L9.49,52.88L9.99,52.88L10.49,58.71L15.48,58.71L15.98,60.64L16.98,60.64L17.48,64.29L19.98,64.29L20.48,65.38L21.98,71.35L22.48,71.35L23.48,83.86L23.98,83.86L26.47,83.86L26.97,85.12L31.47,85.12L31.97,86.95L32.47,86.95L32.97,90.3L43.46,90.3L43.96,92.71L47.45,92.71L47.95,95.77L48.45,95.77L48.95,99.59L65.43,99.95L65.93,100.62L67.93,100.93L68.43,101.69L73.43,102.32L73.93,102.73L74.43,102.73L74.92,105.66L75.92,105.66L76.42,109.74L78.92,109.74L79.42,111.18L81.92,111.18L82.42,112L84.42,112L84.91,115.02L109.89,115.41L110.39,121.43L140.86,121.43L141.36,124.63L166.83,124.63L167.33,125.39L183.82,126.04L184.32,126.75L191.31,126.93L191.81,127.53L207.29,128.22L207.79,128.35L218.28,128.35L218.78,130.07L242.26,130.54L242.76,131.74L251.75,132.32L252.25,139.59L264.73,139.59L265.23,140.84L276.72,141.12L277.22,141.63L278.72,142.02L279.22,142.02L282.22,142.02L282.72,155.11L288.21,155.11L288.71,157.79L297.2,158.3L297.7,159.64L310.69,160.32L311.19,160.51L312.19,162.2L312.69,162.2L314.19,162.2L314.68,164.89L324.67,165.05L325.17,166.58L326.17,167.96L326.67,167.96L336.16,168.21L336.66,168.78L337.66,169.52L338.16,172.37L340.66,172.53L341.16,172.53L351.65,172.53L352.15,174.28L363.14,174.39L363.64,176.59L364.63,178.75L365.13,178.75L370.63,178.75L371.13,179.62L378.62,180.19L379.12,181.96L386.11,182.44L386.61,183L387.61,183.91L388.11,183.91L390.11,184.2L390.61,190.46L398.1,190.8L398.6,194L399.1,194L399.6,196.44L413.59,197.43L414.09,200.84L420.58,201.06L421.08,201.93L427.07,201.93L427.57,202.93L429.07,202.93L429.57,205.38L437.06,206.12L437.56,208.41L438.56,211.83L439.06,211.93L442.56,212.18L443.06,214.13L446.55,214.14L447.05,215.79L451.55,216.02L452.05,217.66L460.54,217.66L461.04,219.34L461.54,219.34L462.04,220.59L465.03,220.73L465.53,228.68L478.02,228.68L478.52,235.48L494.5,235.48L495,237.25L496,241.66L496.5,241.66L499,241.66" style="vector-effect: none; fill: none; stroke: rgb(0, 0, 255); stroke-opacity: 1; stroke-width: 2px; opacity: 1;"/></g><g class="points"/><g class="text"/></g><g class="trace scatter trace8dfdb4" style="stroke-miterlimit: 2; opacity: 0.05;"><g class="fills"/><g class="errorbars"/><g class="lines"><path class="js-line" d="M0,16.92L0.5,16.92L1,20.12L2.5,20.52L3,20.52L4.99,20.52L5.49,21.72L5.99,21.72L6.49,28.59L14.98,28.59L15.48,33.05L20.98,33.05L21.48,34.77L25.97,34.77L26.47,37.96L27.47,40.14L27.97,40.14L29.97,40.4L30.47,41.96L30.97,41.96L31.47,48.95L34.96,48.95L35.46,50.81L38.96,50.81L39.46,61.99L51.95,61.99L52.45,62.88L53.45,62.88L53.95,64.04L54.94,64.04L55.44,66.84L56.94,66.84L57.44,69.26L58.44,69.26L58.94,71.1L64.44,71.39L64.93,74.25L69.43,74.25L69.93,78.72L71.93,78.72L72.43,80.35L73.93,80.35L74.43,84.55L76.42,84.55L76.92,86.19L81.92,86.19L82.42,87.75L83.42,89.52L83.92,90.04L84.91,90.04L85.41,93.97L98.9,93.97L99.4,94.99L101.9,94.99L102.4,97.24L105.89,97.3L106.39,99.13L107.39,99.13L107.89,100.24L112.39,100.77L112.89,104.35L117.88,104.35L118.38,105.22L126.87,105.22L127.37,107.35L130.87,107.39L131.37,108.52L131.87,108.52L132.37,109.44L148.35,110.04L148.85,111.49L177.32,112.22L177.82,112.28L179.32,112.28L179.82,113.44L193.81,114.02L194.31,114.48L199.8,114.48L200.3,115.53L228.77,115.7L229.27,116.53L262.74,117.24L263.24,118.2L264.24,118.2L264.73,119.4L291.21,119.4L291.71,121.16L302.2,121.16L302.7,122.15L305.69,122.24L306.19,122.93L331.17,123.18L331.67,123.96L338.16,124.02L338.66,124.02L385.11,124.67L385.61,124.83L390.61,124.91L391.11,125.78L425.07,126.51L425.57,127.05L499,127.32" style="vector-effect: none; fill: none; stroke: rgb(0, 0, 255); stroke-opacity: 1; stroke-width: 2px; opacity: 1;"/></g><g class="points"/><g class="text"/></g><g class="trace scatter traceaf843f" style="stroke-miterlimit: 2; opacity: 0.05;"><g class="fills"/><g class="errorbars"/><g class="lines"><path class="js-line" d="M0,66.28L1.5,79.2L2,79.2L4,79.2L4.5,81.01L5.49,81.79L5.99,81.79L9.49,81.79L9.99,84.97L10.49,84.97L10.99,91.36L11.99,91.36L12.49,93.87L17.98,94.47L18.48,95.33L19.48,97.21L19.98,97.21L28.47,97.21L28.97,105.82L33.47,105.82L33.97,108.67L44.46,108.67L44.95,111.04L51.45,111.25L51.95,112.36L52.95,112.36L53.45,113.21L56.94,113.79L57.44,116.22L64.44,116.4L64.93,116.98L72.43,117.72L72.93,118.44L74.43,118.75L74.92,118.75L77.42,119.12L77.92,119.12L81.42,119.75L81.92,122.21L105.39,122.76L105.89,123.44L112.89,123.73L113.39,124.46L173.83,125.09L174.33,125.41L275.72,125.99L276.22,126.19L499,126.42" style="vector-effect: none; fill: none; stroke: rgb(0, 0, 255); stroke-opacity: 1; stroke-width: 2px; opacity: 1;"/></g><g class="points"/><g class="text"/></g><g class="trace scatter trace6180db" style="stroke-miterlimit: 2; opacity: 0.05;"><g class="fills"/><g class="errorbars"/><g class="lines"><path class="js-line" d="M0,17.63L1,24.43L1.5,24.43L2.5,26.64L3,26.64L4,28.91L4.5,32.76L5.99,32.76L6.49,35.64L9.99,35.64L10.49,41.62L11.49,41.62L11.99,42.83L12.99,47.9L13.49,47.9L14.49,47.9L14.98,49.11L18.98,49.11L19.48,58.11L21.98,58.11L22.48,65.42L28.47,65.42L28.97,70.42L31.47,70.42L31.97,83.39L44.95,83.39L45.45,85.69L53.95,85.69L54.45,88.71L58.44,89.13L58.94,90.12L61.44,90.12L61.94,95.35L68.43,95.56L68.93,98.66L69.93,101.06L70.43,101.06L81.42,101.33L81.92,104.44L84.42,104.44L84.91,105.29L85.91,105.29L86.41,107.44L92.91,107.44L93.41,108.71L100.4,108.71L100.9,110.9L101.9,112.04L102.4,112.04L104.4,112.3L104.89,112.3L105.89,112.95L106.39,112.95L117.88,113.33L118.38,120.68L145.35,121.27L145.85,121.84L148.35,122.02L148.85,123.41L166.33,124.06L166.83,124.2L169.33,124.36L169.83,124.36L171.33,125.11L171.83,125.34L186.31,125.91L186.81,126.17L207.29,126.71L207.79,126.97L210.29,127.2L210.79,127.2L272.23,127.72L272.73,128.05L325.67,128.61L326.17,128.91L361.14,129.18L361.64,129.82L390.11,130.42L390.61,131.78L441.06,132.24L441.56,134.71L480.52,135.34L481.02,135.69L485.01,136.25L485.51,136.53L499,136.66" style="vector-effect: none; fill: none; stroke: rgb(0, 0, 255); stroke-opacity: 1; stroke-width: 2px; opacity: 1;"/></g><g class="points"/><g class="text"/></g><g class="trace scatter trace124b92" style="stroke-miterlimit: 2; opacity: 0.05;"><g class="fills"/><g class="errorbars"/><g class="lines"><path class="js-line" d="M0,31.5L1,59.07L1.5,61.07L3,61.07L3.5,66.37L10.49,66.37L10.99,68.69L14.49,68.69L14.98,71.37L15.48,71.37L15.98,84.71L21.48,84.71L21.98,87.89L24.97,87.89L25.47,91.92L35.96,91.92L36.46,93.68L37.46,94.41L37.96,95.39L38.46,95.39L38.96,101.33L46.95,101.44L47.45,109.47L53.95,109.47L54.45,110.31L59.94,110.56L60.44,116.86L75.92,117.43L76.42,117.64L77.42,118.78L77.92,118.78L79.92,118.95L80.42,119.78L82.92,120.14L83.42,120.55L83.92,120.55L84.42,121.4L92.41,121.4L92.91,123.11L112.39,123.85L112.89,123.93L113.89,124.99L114.39,124.99L117.88,124.99L118.38,126.56L129.87,127.29L130.37,127.97L144.36,128.55L144.85,128.82L167.83,128.99L168.33,129.72L204.3,130.17L204.79,130.54L288.21,131.14L288.71,131.31L314.68,131.31L315.18,133.27L339.16,133.81L339.66,134.7L342.66,135.12L343.16,135.5L352.65,135.54L353.15,135.54L363.64,137.19L364.14,139.14L376.62,139.55L377.12,141.33L382.12,141.33L382.62,142.74L387.11,143.17L387.61,143.78L390.11,145.23L390.61,146.43L392.11,146.89L392.61,146.89L394.6,146.89L395.1,148.6L410.09,149.32L410.59,152.83L412.09,154.2L412.59,154.2L425.57,154.2L426.07,155.01L427.07,155.01L427.57,159.93L429.07,159.93L429.57,161.94L440.56,161.94L441.06,162.96L445.05,163.57L445.55,167.4L463.04,168.01L463.54,169.63L467.03,169.63L467.53,171.15L469.03,171.15L469.53,171.99L470.53,172.6L471.03,172.6L473.03,172.6L473.53,175.32L474.52,176.89L475.02,176.89L479.02,176.89L479.52,177.8L496.5,178.24L497,181.4L498.5,181.4L499,183.11" style="vector-effect: none; fill: none; stroke: rgb(0, 0, 255); stroke-opacity: 1; stroke-width: 2px; opacity: 1;"/></g><g class="points"/><g class="text"/></g><g class="trace scatter tracedccf3f" style="stroke-miterlimit: 2; opacity: 0.05;"><g class="fills"/><g class="errorbars"/><g class="lines"><path class="js-line" d="M0,54.34L1,85.05L1.5,85.05L2.5,85.08L3,86.19L4.5,86.6L4.99,90.49L9.99,90.49L10.49,91.36L17.48,91.64L17.98,92.19L20.98,92.62L21.48,94.73L22.98,94.73L23.48,96.79L28.47,97.33L28.97,98.13L29.47,98.14L29.97,99.09L40.96,99.62L41.46,100.33L48.45,100.75L48.95,101.67L55.94,102.27L56.44,102.9L57.94,102.91L58.44,104.96L64.44,105.51L64.93,107.64L66.93,107.89L67.43,107.89L89.91,107.89L90.41,109.03L91.91,109.03L92.41,110.04L96.4,110.81L96.9,110.81L117.88,111.43L118.38,111.68L123.38,111.68L123.88,113.59L144.85,113.82L145.35,114.52L161.34,115.12L161.84,115.79L171.33,116.45L171.83,121.41L204.79,121.7L205.29,122.75L212.29,123.15L212.79,125.46L224.28,126.02L224.77,126.23L225.27,126.23L225.77,127.16L230.77,127.16L231.27,127.92L232.27,129.39L232.77,129.39L245.75,129.39L246.25,130.68L264.24,131.09L264.73,132.76L265.73,133.63L266.23,133.64L292.21,133.75L292.71,137.86L293.21,137.86L293.71,138.65L316.68,139.35L317.18,140.39L321.68,140.39L322.18,143.39L345.65,143.97L346.15,146.09L372.13,146.79L372.63,148.67L385.61,149.27L386.11,151.01L408.09,151.69L408.59,152.12L412.09,152.84L412.59,154.42L413.59,158.13L414.09,158.13L425.07,158.13L425.57,159.36L432.57,159.98L433.07,161.97L440.06,162.41L440.56,162.96L442.56,167.26L443.06,167.26L452.55,167.75L453.05,170.79L461.54,171.33L462.04,172.59L463.04,172.84L463.54,174.72L464.53,174.72L465.03,178.99L470.53,178.99L471.03,180.31L471.53,180.31L472.03,184.67L488.01,184.73L488.51,186.24L489.01,186.24L489.51,191.11L493.51,191.11L494.01,196.74L498.5,197.05L499,197.65" style="vector-effect: none; fill: none; stroke: rgb(0, 0, 255); stroke-opacity: 1; stroke-width: 2px; opacity: 1;"/></g><g class="points"/><g class="text"/></g><g class="trace scatter tracea152d5" style="stroke-miterlimit: 2; opacity: 0.05;"><g class="fills"/><g class="errorbars"/><g class="lines"><path class="js-line" d="M0,38.16L1.5,67.55L2,79.75L6.99,79.75L7.49,81.16L8.49,83.17L8.99,83.17L11.49,83.17L11.99,86.42L14.49,86.42L14.98,88.08L29.97,88.54L30.47,89.29L30.97,89.29L31.47,90.26L31.97,90.26L32.47,91.95L33.47,91.95L33.97,95.31L38.96,95.96L39.46,96.55L40.96,96.93L41.46,96.93L41.96,96.93L42.46,100.01L48.95,100.01L49.45,103.71L59.44,103.83L59.94,104.72L61.44,104.72L61.94,105.92L78.42,106.1L78.92,106.74L86.91,107.14L87.41,110.15L93.91,110.69L94.41,110.99L98.9,111.07L99.4,112.61L109.39,113.34L109.89,113.84L114.39,113.84L114.88,116.36L117.88,116.36L118.38,118.34L140.36,118.7L140.86,119.39L152.35,120.08L152.85,120.23L176.32,120.45L176.82,121.08L196.3,121.82L196.8,122.27L230.27,122.91L230.77,123.12L234.27,123.24L234.76,123.24L250.25,123.84L250.75,124.02L270.23,124.75L270.73,124.89L287.21,125.5L287.71,125.68L302.2,126.17L302.7,126.17L499,126.51" style="vector-effect: none; fill: none; stroke: rgb(0, 0, 255); stroke-opacity: 1; stroke-width: 2px; opacity: 1;"/></g><g class="points"/><g class="text"/></g><g class="trace scatter traceffeb4f" style="stroke-miterlimit: 2; opacity: 0.05;"><g class="fills"/><g class="errorbars"/><g class="lines"><path class="js-line" d="M0,36.6L8.99,36.88L9.49,38.9L11.99,38.9L12.49,42.23L16.98,42.47L17.48,46.98L18.48,46.98L18.98,53.29L23.98,53.29L24.48,54.65L24.97,54.65L25.47,59.36L34.96,59.36L35.46,62.25L44.95,62.25L45.45,65.27L47.45,65.45L47.95,66.44L51.45,66.7L51.95,75.19L58.44,75.19L58.94,78.35L64.93,78.35L65.43,81.68L68.93,81.68L69.43,84.19L69.93,84.19L70.43,90.96L83.92,90.96L84.42,92.31L91.91,92.31L92.41,93.56L99.9,94.05L100.4,98.26L102.4,98.26L102.9,100.14L106.89,100.14L107.39,105.04L116.38,105.04L116.88,106.14L125.87,106.14L126.37,107.5L135.36,108.21L135.86,108.37L138.36,108.4L138.86,110.72L154.84,110.98L155.34,111.57L156.84,115.66L157.34,115.97L167.83,116.24L168.33,117.65L170.83,117.88L171.33,119.18L182.82,119.74L183.32,120.02L189.31,120.2L189.81,121.1L201.8,121.6L202.3,123.04L222.28,123.73L222.78,124.28L224.28,124.28L224.77,125.17L238.26,125.9L238.76,126.04L290.21,126.62L290.71,126.96L292.21,127.28L292.71,127.28L302.2,127.37L302.7,129.62L345.65,129.98L346.15,131.18L350.65,131.93L351.15,131.96L383.12,132.41L383.62,133.48L388.11,134.05L388.61,134.75L395.6,135.51L396.1,136.76L412.59,137.16L413.09,138.32L423.58,138.83L424.08,139.14L425.57,139.14L426.07,140L432.07,140.66L432.57,140.84L441.06,141.55L441.56,141.8L446.05,141.97L446.55,144.13L462.04,144.3L462.54,145.86L471.53,145.86L472.03,146.7L483.52,147.12L484.02,147.48L486.01,148.5L486.51,149.12L488.01,149.41L488.51,149.41L493.01,149.41L493.51,150.71L499,150.71" style="vector-effect: none; fill: none; stroke: rgb(0, 0, 255); stroke-opacity: 1; stroke-width: 2px; opacity: 1;"/></g><g class="points"/><g class="text"/></g><g class="trace scatter trace156b11" style="stroke-miterlimit: 2; opacity: 0.05;"><g class="fills"/><g class="errorbars"/><g class="lines"><path class="js-line" d="M0,36.44L1,37.96L1.5,37.96L17.98,38.2L18.48,41.85L18.98,41.85L19.48,43.12L22.98,43.36L23.48,45.28L24.48,51.58L24.97,51.58L33.97,52.02L34.47,58.3L35.96,58.3L36.46,59.46L39.46,59.6L39.96,59.6L42.96,59.6L43.46,61.76L44.46,64.42L44.95,64.42L46.45,64.42L46.95,65.24L48.45,65.24L48.95,69.85L51.45,69.85L51.95,74.13L54.94,74.13L55.44,75.9L56.44,77.07L56.94,77.07L62.44,77.07L62.94,78.52L66.43,78.52L66.93,79.28L68.43,81.64L68.93,82.84L73.93,82.84L74.43,85.27L82.42,85.27L82.92,86.91L83.92,86.91L84.42,93.55L94.41,94.1L94.9,100.2L96.9,100.63L97.4,103.38L107.89,103.38L108.39,105.1L110.89,105.1L111.39,112.22L124.38,112.22L124.87,113.37L135.36,113.83L135.86,115.54L138.86,115.54L139.36,116.86L163.34,117.59L163.84,117.79L167.33,119.46L167.83,119.46L171.33,119.46L171.83,120.22L172.83,120.22L173.33,121.33L183.32,121.52L183.82,122.67L196.3,122.72L196.8,123.45L257.74,124.2L258.24,124.39L260.74,125.15L261.24,125.28L349.15,126L349.65,126.11L359.64,126.18L360.14,126.18L390.61,126.91L391.11,126.99L396.6,127.13L397.1,127.13L499,127.26" style="vector-effect: none; fill: none; stroke: rgb(0, 0, 255); stroke-opacity: 1; stroke-width: 2px; opacity: 1;"/></g><g class="points"/><g class="text"/></g><g class="trace scatter tracecec40e" style="stroke-miterlimit: 2; opacity: 0.05;"><g class="fills"/><g class="errorbars"/><g class="lines"><path class="js-line" d="M0,44.46L1.5,60.46L2,60.46L3,70.37L3.5,70.37L4.99,70.37L5.49,72.45L8.49,72.45L8.99,77.51L16.98,77.51L17.48,80.33L19.48,80.33L19.98,85.55L23.98,85.55L24.48,86.98L30.47,87.55L30.97,95.37L31.97,98.48L32.47,98.48L37.96,99.2L38.46,100.04L53.95,100.19L54.45,102.93L58.44,103.61L58.94,106.34L61.44,106.45L61.94,107.1L63.44,107.77L63.94,111.3L75.92,111.3L76.42,112.24L77.92,113.06L78.42,113.07L87.41,113.54L87.91,116.21L90.41,116.21L90.91,117.22L104.89,117.91L105.39,121.08L113.39,121.48L113.89,122.77L120.38,122.77L120.88,123.85L137.86,124.08L138.36,124.74L189.31,125.44L189.81,125.59L193.81,125.96L194.31,125.96L341.16,126.62L341.66,127.05L490.51,127.8L491.01,127.82L496,128.03L496.5,128.03L499,128.03" style="vector-effect: none; fill: none; stroke: rgb(0, 0, 255); stroke-opacity: 1; stroke-width: 2px; opacity: 1;"/></g><g class="points"/><g class="text"/></g><g class="trace scatter trace5e02ca" style="stroke-miterlimit: 2; opacity: 0.05;"><g class="fills"/><g class="errorbars"/><g class="lines"><path class="js-line" d="M0,41.67L2.5,41.67L3,43.22L4,43.22L4.5,50.78L5.99,50.78L6.49,53.58L12.99,53.84L13.49,59.92L15.98,59.92L16.48,61.66L17.48,61.66L17.98,64.08L19.98,64.08L20.48,72.85L21.98,73.27L22.48,73.27L24.48,73.27L24.97,74.21L28.97,74.36L29.47,75.2L29.97,75.2L30.47,77.29L32.47,77.96L32.97,78.59L33.47,78.59L33.97,79.67L35.96,84.75L36.46,84.75L52.45,84.75L52.95,88.27L54.94,88.27L55.44,90.64L59.94,90.64L60.44,94.53L62.44,94.53L62.94,95.87L64.44,96.4L64.93,96.4L70.93,96.4L71.43,97.57L73.43,97.57L73.93,99.73L75.42,99.73L75.92,109.89L88.41,109.89L88.91,113.09L99.9,113.09L100.4,114.29L106.89,114.29L107.39,115.11L109.39,115.6L109.89,116.37L113.39,116.49L113.89,116.49L114.88,116.49L115.38,117.55L116.88,117.58L117.38,119.04L134.37,119.04L134.86,120.9L140.86,120.9L141.36,121.69L146.35,121.69L146.85,122.81L155.84,122.81L156.34,125.79L163.34,125.9L163.84,126.66L167.83,127.39L168.33,129.81L179.82,130.34L180.32,130.68L187.31,131.34L187.81,131.49L193.81,131.76L194.31,133.16L197.3,133.16L197.8,136.84L226.77,137.47L227.27,138.85L242.76,138.9L243.26,141.73L244.26,143.67L244.75,143.67L259.24,143.67L259.74,145.46L274.23,145.8L274.72,146.58L277.22,147.04L277.72,147.56L278.22,147.56L278.72,151.34L297.2,151.34L297.7,153.18L298.7,153.94L299.2,153.94L303.7,154.39L304.2,155.21L305.19,156.38L305.69,156.38L308.69,156.38L309.19,162.67L319.68,163.37L320.18,163.68L344.16,164.13L344.65,165.01L349.15,165.01L349.65,166.85L353.65,167.46L354.15,167.62L374.13,167.97L374.62,173.97L378.12,174.53L378.62,178.79L392.11,179.52L392.61,180.82L394.11,180.82L394.6,181.75L395.6,182.82L396.1,182.82L403.6,182.82L404.1,184.88L412.59,184.91L413.09,191.21L414.09,191.21L414.58,192.03L415.58,194.08L416.08,194.08L436.56,194.23L437.06,195.37L437.56,195.41L438.06,198.37L439.06,198.97L439.56,198.97L444.06,198.97L444.55,205.62L455.04,205.89L455.54,208.02L464.04,208.02L464.53,209.76L481.52,210.02L482.02,213.08L487.01,213.08L487.51,217.88L492.51,218.01L493.01,219L494.5,222.55L495,222.55L496,222.55L496.5,224.24L499,224.24" style="vector-effect: none; fill: none; stroke: rgb(0, 0, 255); stroke-opacity: 1; stroke-width: 2px; opacity: 1;"/></g><g class="points"/><g class="text"/></g><g class="trace scatter trace875a46" style="stroke-miterlimit: 2; opacity: 0.05;"><g class="fills"/><g class="errorbars"/><g class="lines"><path class="js-line" d="M0,58.94L6.49,59.24L6.99,61.74L12.99,61.74L13.49,65.73L17.48,65.73L17.98,71.51L19.98,71.51L20.48,76.79L20.98,76.79L21.48,83.97L33.97,83.97L34.47,85.16L34.96,85.16L35.46,86.61L35.96,86.61L36.46,91L38.46,91L38.96,92.85L39.96,99.69L40.46,99.69L40.96,99.69L41.46,102.6L50.45,102.6L50.95,107.27L52.95,107.27L53.45,114.6L71.93,115.1L72.43,115.6L76.42,115.6L76.92,116.58L81.92,116.58L82.42,117.75L89.41,117.92L89.91,119.14L90.91,119.14L91.41,120.77L92.91,121.44L93.41,121.76L100.4,122.85L100.9,123.87L144.85,124.57L145.35,124.95L147.85,125.12L148.35,125.12L164.34,125.73L164.83,125.91L219.28,126.66L219.78,126.77L232.77,127.27L233.27,127.56L260.24,128.01L260.74,128.41L265.73,128.77L266.23,130.03L296.2,130.77L296.7,131.17L301.7,131.7L302.2,132.04L314.19,132.68L314.68,134.12L349.65,134.54L350.15,135.04L380.12,135.66L380.62,139.39L395.1,139.42L395.6,140.67L398.1,140.67L398.6,141.53L400.6,141.65L401.1,142.51L415.08,143.23L415.58,144.15L418.08,144.15L418.58,148.4L427.57,148.4L428.07,149.23L429.07,152.25L429.57,152.25L438.56,152.72L439.06,154.96L447.55,154.96L448.05,158.8L457.04,158.8L457.54,163.81L463.54,163.81L464.04,164.92L467.03,164.92L467.53,166.54L470.03,166.54L470.53,168L472.03,168.56L472.53,168.56L474.03,168.56L474.52,174.46L485.01,174.46L485.51,176.1L486.51,177.07L487.01,177.07L493.51,177.56L494.01,178.08L495,181.9L495.5,181.9L499,181.9" style="vector-effect: none; fill: none; stroke: rgb(0, 0, 255); stroke-opacity: 1; stroke-width: 2px; opacity: 1;"/></g><g class="points"/><g class="text"/></g><g class="trace scatter tracedf17b0" style="stroke-miterlimit: 2; opacity: 0.05;"><g class="fills"/><g class="errorbars"/><g class="lines"><path class="js-line" d="M0,56.06L1,63.44L1.5,63.44L2,63.44L2.5,64.85L3.5,73.34L4,73.34L6.49,73.34L6.99,75.79L9.49,75.79L9.99,76.87L19.98,76.93L20.48,84.37L20.98,84.37L21.48,86.92L27.47,86.92L27.97,88.06L31.47,88.06L31.97,91.55L40.46,91.91L40.96,95.16L42.96,95.16L43.46,95.95L44.46,96.67L44.95,96.67L51.95,97.26L52.45,100.23L65.93,100.23L66.43,102.61L72.43,103.14L72.93,103.49L81.42,104.01L81.92,110.02L92.91,110.02L93.41,110.96L109.89,110.96L110.39,113.82L111.39,113.82L111.89,116.59L118.38,116.59L118.88,121.4L123.38,121.4L123.88,122.33L128.87,122.33L129.37,123.3L134.86,123.89L135.36,124.17L139.86,124.26L140.36,124.26L141.36,124.26L141.86,125.24L166.83,125.33L167.33,126.51L182.32,127.09L182.82,127.34L211.29,127.82L211.79,128.54L213.79,128.77L214.29,132.76L257.24,133.34L257.74,133.92L283.22,134.37L283.72,134.8L284.22,134.8L284.71,135.81L291.21,136.16L291.71,137.42L292.71,137.42L293.21,139.79L307.69,140.33L308.19,140.99L309.19,148.64L309.69,148.64L316.68,148.64L317.18,151.42L329.67,151.42L330.17,153.51L331.17,153.51L331.67,154.36L350.65,155.06L351.15,156.42L355.14,156.53L355.64,156.53L356.64,158.62L357.14,159.32L361.64,159.32L362.14,164.59L363.14,165.44L363.64,165.44L386.11,166.1L386.61,166.67L391.61,167.01L392.11,168.94L394.11,169.34L394.6,171.56L397.6,173.01L398.1,173.01L399.1,175.07L399.6,175.07L402.1,175.07L402.6,177.81L403.6,177.81L404.1,187.03L404.59,187.03L405.09,187.88L419.58,188.02L420.08,191.66L433.07,191.98L433.57,192.92L434.07,193.35L434.56,195.17L440.06,195.17L440.56,203.37L456.54,204.08L457.04,214.41L459.04,214.41L459.54,216.74L469.53,216.88L470.03,217.91L473.03,217.93L473.53,229.86L492.01,230.19L492.51,233.43L493.51,243.88L494.01,243.88L495,250.98L495.5,253.82L497,254.12L497.5,254.12L499,254.12" style="vector-effect: none; fill: none; stroke: rgb(0, 0, 255); stroke-opacity: 1; stroke-width: 2px; opacity: 1;"/></g><g class="points"/><g class="text"/></g><g class="trace scatter trace989e1d" style="stroke-miterlimit: 2; opacity: 0.05;"><g class="fills"/><g class="errorbars"/><g class="lines"><path class="js-line" d="M0,44.66L1,87.16L1.5,87.16L7.49,87.16L7.99,89.33L9.99,89.33L10.49,90.77L15.48,90.89L15.98,94.93L16.98,96.54L17.48,96.54L21.98,96.54L22.48,102.11L24.97,102.11L25.47,104.51L26.47,105.09L26.97,105.09L35.46,105.09L35.96,108.2L36.96,108.2L37.46,109.03L37.96,109.03L38.46,109.85L47.45,110.45L47.95,112.13L53.45,112.65L53.95,113.25L55.94,113.25L56.44,114.7L57.94,114.7L58.44,117.36L61.94,117.68L62.44,118.92L67.43,118.92L67.93,119.92L69.93,120.5L70.43,123.19L82.92,123.19L83.42,127.72L106.39,128.08L106.89,129.44L107.89,129.44L108.39,130.89L131.87,130.89L132.37,131.82L157.84,132.34L158.34,133.06L197.3,133.67L197.8,133.82L229.77,134.57L230.27,134.95L231.77,135.32L232.27,135.32L236.26,135.58L236.76,136.38L255.74,137.04L256.24,137.35L259.74,137.9L260.24,138.21L260.74,138.21L261.24,139.22L262.74,147.99L263.24,147.99L283.72,148.58L284.22,154.59L316.68,155.19L317.18,163.18L331.67,163.18L332.17,165.28L336.66,165.54L337.16,166.69L341.16,166.72L341.66,167.48L345.15,168.23L345.65,168.75L347.15,169.45L347.65,169.45L349.65,169.45L350.15,171.23L364.14,171.45L364.63,176.4L365.13,176.4L365.63,177.51L373.13,177.51L373.63,179.2L378.62,179.68L379.12,182.33L386.61,182.33L387.11,183.28L395.6,184L396.1,184.09L397.1,186.01L397.6,186.01L398.6,190.26L399.1,190.26L400.1,206.18L400.6,206.18L401.6,206.18L402.1,208.46L417.08,208.71L417.58,214.75L421.58,214.75L422.08,217.08L426.57,217.08L427.07,222.07L427.57,222.07L428.07,227.6L444.06,228.24L444.55,228.52L462.04,228.7L462.54,229.7L463.54,240.05L464.04,240.05L465.53,240.5L466.03,240.5L495.5,240.5L496,243.61L497.5,245.53L498,245.53L499,245.53" style="vector-effect: none; fill: none; stroke: rgb(0, 0, 255); stroke-opacity: 1; stroke-width: 2px; opacity: 1;"/></g><g class="points"/><g class="text"/></g><g class="trace scatter trace1a4e6e" style="stroke-miterlimit: 2; opacity: 0.05;"><g class="fills"/><g class="errorbars"/><g class="lines"><path class="js-line" d="M0,49.6L0.5,49.6L1,54.95L1.5,54.95L2,64.5L4,64.5L4.5,71.02L9.99,71.02L10.49,77.47L16.48,77.47L16.98,85.2L18.98,85.2L19.48,88.09L25.97,88.5L26.47,92.93L31.97,92.93L32.47,94.34L33.47,96.15L33.97,96.15L48.95,96.28L49.45,106.66L60.94,106.66L61.44,109.05L65.93,109.05L66.43,111.94L71.93,111.94L72.43,113.15L79.42,113.18L79.92,116.78L89.91,116.97L90.41,118.29L98.4,118.49L98.9,121.26L102.9,121.75L103.4,123.78L116.38,123.78L116.88,124.64L119.88,124.64L120.38,129.36L155.34,130.01L155.84,130.13L158.84,130.52L159.34,131.01L219.28,131.74L219.78,132.61L223.28,132.73L223.78,132.73L232.77,133.48L233.27,133.84L247.25,134.42L247.75,136.32L256.24,136.32L256.74,143.54L272.73,143.54L273.23,146.32L289.21,146.95L289.71,147.42L300.7,148.17L301.2,149.58L307.19,149.58L307.69,152.3L318.18,152.65L318.68,154.24L330.17,154.43L330.67,159.33L341.16,160.05L341.66,162.97L346.15,162.97L346.65,164.78L349.15,164.78L349.65,166.14L352.65,166.21L353.15,167.28L354.15,167.28L354.64,171.08L355.64,173.02L356.14,173.02L373.13,173.02L373.63,177.35L375.12,177.81L375.62,177.81L379.12,177.81L379.62,178.73L389.11,179.09L389.61,179.49L390.11,179.49L390.61,181.93L393.61,184.83L394.11,184.83L395.1,184.83L395.6,188.29L396.6,188.89L397.1,188.89L401.6,188.89L402.1,189.99L403.1,193.16L403.6,193.16L420.08,193.89L420.58,194.57L422.08,194.57L422.58,195.35L424.57,195.59L425.07,195.59L427.57,195.59L428.07,198.71L430.57,198.71L431.07,217.32L460.04,217.32L460.54,239.01L466.03,239.73L466.53,255.52L467.53,259.9L468.03,259.9L472.53,259.9L473.03,262.94L473.53,263.86L474.03,268.12L489.51,268.78L490.01,268.92L490.51,268.92L491.01,281.98L499,281.98" style="vector-effect: none; fill: none; stroke: rgb(0, 0, 255); stroke-opacity: 1; stroke-width: 2px; opacity: 1;"/></g><g class="points"/><g class="text"/></g><g class="trace scatter tracea871e8" style="stroke-miterlimit: 2; opacity: 0.05;"><g class="fills"/><g class="errorbars"/><g class="lines"><path class="js-line" d="M0,57.93L0.5,57.93L1,61.21L8.99,61.21L9.49,72.01L10.49,72.01L10.99,82.36L13.49,82.36L13.99,83.16L22.98,83.16L23.48,84.1L26.47,84.25L26.97,91.5L27.97,95.75L28.47,95.75L37.96,95.75L38.46,96.86L39.46,98.93L39.96,98.93L49.45,99.09L49.95,106.28L50.95,107.35L51.45,107.58L65.93,107.58L66.43,113.54L76.92,114.08L77.42,114.33L84.42,114.33L84.91,117.53L85.41,117.53L85.91,118.56L86.91,118.56L87.41,126.4L91.91,126.4L92.41,129.79L93.41,129.79L93.91,131.89L108.89,132.12L109.39,133.21L111.89,134.55L112.39,134.55L112.89,134.55L113.39,140.78L132.37,141.38L132.87,141.81L135.36,142.56L135.86,143.03L147.35,143.23L147.85,146.18L152.35,146.37L152.85,148.28L181.32,148.31L181.82,150.9L182.82,150.9L183.32,153.14L184.32,153.14L184.81,154.8L207.79,154.87L208.29,157.07L210.29,157.8L210.79,158.13L216.28,158.49L216.78,159.25L238.26,159.73L238.76,160.25L239.26,160.25L239.76,167.75L251.25,167.75L251.75,168.65L258.74,168.97L259.24,169.52L261.24,169.52L261.74,172.96L270.73,173.54L271.23,176.31L280.72,176.95L281.22,177.69L285.71,177.69L286.21,179.2L287.71,179.2L288.21,182.12L293.71,182.6L294.21,183.34L297.2,183.48L297.7,183.48L301.7,183.9L302.2,184.79L305.19,184.79L305.69,185.61L306.19,186.64L306.69,190.68L330.67,191.37L331.17,192.13L331.67,192.13L332.17,195.29L334.66,195.79L335.16,196.93L337.66,197.11L338.16,198.22L338.66,198.66L339.16,204.99L340.16,207.16L340.66,207.16L351.65,207.16L352.15,208.29L360.14,208.98L360.64,209.49L361.14,209.49L361.64,214.82L374.62,215.24L375.12,219.87L381.12,219.93L381.62,225.35L382.62,226.52L383.12,226.52L389.11,226.86L389.61,230.37L391.61,230.37L392.11,234.42L393.11,234.42L393.61,238.28L394.11,238.28L394.6,239.64L401.1,239.64L401.6,242.54L403.6,242.54L404.1,243.98L405.09,248.81L405.59,248.81L412.09,248.81L412.59,262.5L421.58,262.5L422.08,265.46L443.56,265.46L444.06,270.15L445.55,279.15L446.05,279.15L451.05,279.79L451.55,280.5L463.54,280.5L464.04,283.27L465.03,283.27L465.53,284.19L466.53,284.63L467.03,286.91L468.03,290L468.53,290L483.52,290.44L484.02,291.01L488.01,291.01L488.51,291.79L489.51,295.13L490.01,295.81L498.5,296.55L499,296.59" style="vector-effect: none; fill: none; stroke: rgb(0, 0, 255); stroke-opacity: 1; stroke-width: 2px; opacity: 1;"/></g><g class="points"/><g class="text"/></g></g></g><g class="overplot"/><path class="xlines-above crisp" d="M0,0" style="fill: none;"/><path class="ylines-above crisp" d="M0,0" style="fill: none;"/><g class="overlines-above"/><g class="xaxislayer-above"><g class="xtick"><text text-anchor="middle" x="0" y="433" transform="translate(80,0)" style="font-family: 'Open Sans', verdana, arial, sans-serif; font-size: 12px; fill: rgb(42, 63, 95); fill-opacity: 1; white-space: pre; opacity: 1;">0</text></g><g class="xtick"><text text-anchor="middle" x="0" y="433" style="font-family: 'Open Sans', verdana, arial, sans-serif; font-size: 12px; fill: rgb(42, 63, 95); fill-opacity: 1; white-space: pre; opacity: 1;" transform="translate(179.9,0)">200</text></g><g class="xtick"><text text-anchor="middle" x="0" y="433" style="font-family: 'Open Sans', verdana, arial, sans-serif; font-size: 12px; fill: rgb(42, 63, 95); fill-opacity: 1; white-space: pre; opacity: 1;" transform="translate(279.8,0)">400</text></g><g class="xtick"><text text-anchor="middle" x="0" y="433" style="font-family: 'Open Sans', verdana, arial, sans-serif; font-size: 12px; fill: rgb(42, 63, 95); fill-opacity: 1; white-space: pre; opacity: 1;" transform="translate(379.7,0)">600</text></g><g class="xtick"><text text-anchor="middle" x="0" y="433" style="font-family: 'Open Sans', verdana, arial, sans-serif; font-size: 12px; fill: rgb(42, 63, 95); fill-opacity: 1; white-space: pre; opacity: 1;" transform="translate(479.6,0)">800</text></g></g><g class="yaxislayer-above"><g class="ytick"><text text-anchor="end" x="79" y="3.15" transform="translate(0,418.21)" style="font-family: 'Open Sans', verdana, arial, sans-serif; font-size: 9px; fill: rgb(42, 63, 95); fill-opacity: 1; white-space: pre; opacity: 1;">6</text></g><g class="ytick"><text text-anchor="end" x="79" y="3.15" style="font-family: 'Open Sans', verdana, arial, sans-serif; font-size: 9px; fill: rgb(42, 63, 95); fill-opacity: 1; white-space: pre; opacity: 1;" transform="translate(0,407.95)">7</text></g><g class="ytick"><text text-anchor="end" x="79" y="3.15" style="font-family: 'Open Sans', verdana, arial, sans-serif; font-size: 9px; fill: rgb(42, 63, 95); fill-opacity: 1; white-space: pre; opacity: 1;" transform="translate(0,399.07)">8</text></g><g class="ytick"><text text-anchor="end" x="79" y="3.15" style="font-family: 'Open Sans', verdana, arial, sans-serif; font-size: 9px; fill: rgb(42, 63, 95); fill-opacity: 1; white-space: pre; opacity: 1;" transform="translate(0,391.23)">9</text></g><g class="ytick"><text text-anchor="end" x="76" y="2.1999999999999993" style="font-family: 'Open Sans', verdana, arial, sans-serif; font-size: 12px; fill: rgb(42, 63, 95); fill-opacity: 1; white-space: pre; opacity: 1;" transform="translate(0,384.22)">0.1</text></g><g class="ytick"><text text-anchor="end" x="79" y="3.15" style="font-family: 'Open Sans', verdana, arial, sans-serif; font-size: 9px; fill: rgb(42, 63, 95); fill-opacity: 1; white-space: pre; opacity: 1;" transform="translate(0,338.09000000000003)">2</text></g><g class="ytick"><text text-anchor="end" x="79" y="3.15" style="font-family: 'Open Sans', verdana, arial, sans-serif; font-size: 9px; fill: rgb(42, 63, 95); fill-opacity: 1; white-space: pre; opacity: 1;" transform="translate(0,311.1)">3</text></g><g class="ytick"><text text-anchor="end" x="79" y="3.15" style="font-family: 'Open Sans', verdana, arial, sans-serif; font-size: 9px; fill: rgb(42, 63, 95); fill-opacity: 1; white-space: pre; opacity: 1;" transform="translate(0,291.96000000000004)">4</text></g><g class="ytick"><text text-anchor="end" x="79" y="3.15" style="font-family: 'Open Sans', verdana, arial, sans-serif; font-size: 9px; fill: rgb(42, 63, 95); fill-opacity: 1; white-space: pre; opacity: 1;" transform="translate(0,277.11)">5</text></g><g class="ytick"><text text-anchor="end" x="79" y="3.15" style="font-family: 'Open Sans', verdana, arial, sans-serif; font-size: 9px; fill: rgb(42, 63, 95); fill-opacity: 1; white-space: pre; opacity: 1;" transform="translate(0,264.97)">6</text></g><g class="ytick"><text text-anchor="end" x="79" y="3.15" style="font-family: 'Open Sans', verdana, arial, sans-serif; font-size: 9px; fill: rgb(42, 63, 95); fill-opacity: 1; white-space: pre; opacity: 1;" transform="translate(0,254.72)">7</text></g><g class="ytick"><text text-anchor="end" x="79" y="3.15" style="font-family: 'Open Sans', verdana, arial, sans-serif; font-size: 9px; fill: rgb(42, 63, 95); fill-opacity: 1; white-space: pre; opacity: 1;" transform="translate(0,245.83)">8</text></g><g class="ytick"><text text-anchor="end" x="79" y="3.15" style="font-family: 'Open Sans', verdana, arial, sans-serif; font-size: 9px; fill: rgb(42, 63, 95); fill-opacity: 1; white-space: pre; opacity: 1;" transform="translate(0,237.99)">9</text></g><g class="ytick"><text text-anchor="end" x="76" y="2.1999999999999993" style="font-family: 'Open Sans', verdana, arial, sans-serif; font-size: 12px; fill: rgb(42, 63, 95); fill-opacity: 1; white-space: pre; opacity: 1;" transform="translate(0,230.98)">1</text></g><g class="ytick"><text text-anchor="end" x="79" y="3.15" style="font-family: 'Open Sans', verdana, arial, sans-serif; font-size: 9px; fill: rgb(42, 63, 95); fill-opacity: 1; white-space: pre; opacity: 1;" transform="translate(0,184.85)">2</text></g><g class="ytick"><text text-anchor="end" x="79" y="3.15" style="font-family: 'Open Sans', verdana, arial, sans-serif; font-size: 9px; fill: rgb(42, 63, 95); fill-opacity: 1; white-space: pre; opacity: 1;" transform="translate(0,157.87)">3</text></g><g class="ytick"><text text-anchor="end" x="79" y="3.15" style="font-family: 'Open Sans', verdana, arial, sans-serif; font-size: 9px; fill: rgb(42, 63, 95); fill-opacity: 1; white-space: pre; opacity: 1;" transform="translate(0,138.72)">4</text></g><g class="ytick"><text text-anchor="end" x="79" y="3.15" style="font-family: 'Open Sans', verdana, arial, sans-serif; font-size: 9px; fill: rgb(42, 63, 95); fill-opacity: 1; white-space: pre; opacity: 1;" transform="translate(0,123.87)">5</text></g><g class="ytick"><text text-anchor="end" x="79" y="3.15" style="font-family: 'Open Sans', verdana, arial, sans-serif; font-size: 9px; fill: rgb(42, 63, 95); fill-opacity: 1; white-space: pre; opacity: 1;" transform="translate(0,111.74)">6</text></g><g class="ytick"><text text-anchor="end" x="79" y="3.15" style="font-family: 'Open Sans', verdana, arial, sans-serif; font-size: 9px; fill: rgb(42, 63, 95); fill-opacity: 1; white-space: pre; opacity: 1;" transform="translate(0,101.48)">7</text></g></g><g class="overaxes-above"/></g></g><g class="polarlayer"/><g class="smithlayer"/><g class="ternarylayer"/><g class="geolayer"/><g class="funnelarealayer"/><g class="pielayer"/><g class="iciclelayer"/><g class="treemaplayer"/><g class="sunburstlayer"/><g class="glimages"/><defs id="topdefs-e12241"><g class="clips"/><clipPath id="legende12241"><rect width="99" height="29" x="0" y="0"/></clipPath></defs><g class="layer-above"><g class="imagelayer"/><g class="shapelayer"/></g><g class="infolayer"><g class="legend" pointer-events="all" transform="translate(588.98,100)"><rect class="bg" shape-rendering="crispEdges" width="99" height="29" x="0" y="0" style="stroke: rgb(68, 68, 68); stroke-opacity: 1; fill: rgb(255, 255, 255); fill-opacity: 1; stroke-width: 0px;"/><g class="scrollbox" transform="" clip-path="url(#legende12241)"><g class="groups"><g class="traces" transform="translate(0,14.5)" style="opacity: 1;"><text class="legendtext" text-anchor="start" x="40" y="4.680000000000001" style="font-family: 'Open Sans', verdana, arial, sans-serif; font-size: 12px; fill: rgb(42, 63, 95); fill-opacity: 1; white-space: pre;">Best Run</text><g class="layers" style="opacity: 1;"><g class="legendfill"/><g class="legendlines"><path class="js-line" d="M5,0h30" style="fill: none; stroke: rgb(255, 0, 0); stroke-opacity: 1; stroke-width: 2px;"/></g><g class="legendsymbols"><g class="legendpoints"/></g></g><rect class="legendtoggle" x="0" y="-9.5" width="94" height="19" style="fill: rgb(0, 0, 0); fill-opacity: 0;"/></g></g></g><rect class="scrollbar" rx="20" ry="3" width="0" height="0" x="0" y="0" style="fill: rgb(128, 139, 164); fill-opacity: 1;"/></g><g class="g-gtitle"><text class="gtitle" x="35" y="50" text-anchor="start" dy="0em" style="font-family: 'Open Sans', verdana, arial, sans-serif; font-size: 17px; fill: rgb(42, 63, 95); opacity: 1; font-weight: normal; white-space: pre;">Fitness history | GA - P1</text></g><g class="g-xtitle"><text class="xtitle" x="329.5" y="460.3" text-anchor="middle" style="font-family: 'Open Sans', verdana, arial, sans-serif; font-size: 14px; fill: rgb(42, 63, 95); opacity: 1; font-weight: normal; white-space: pre;">Generation</text></g><g class="g-ytitle"><text class="ytitle" transform="rotate(-90,32.075,260)" x="32.075" y="260" text-anchor="middle" style="font-family: 'Open Sans', verdana, arial, sans-serif; font-size: 14px; fill: rgb(42, 63, 95); opacity: 1; font-weight: normal; white-space: pre;">Fitness (log scale)</text></g></g></svg>