<svg class="main-svg" xmlns="http://www.w3.org/2000/svg" xmlns:xlink="http://www.w3.org/1999/xlink" width="700" height="500" style="" viewBox="0 0 700 500"><rect x="0" y="0" width="700" height="500" style="fill: rgb(255, 255, 255); fill-opacity: 1;"/><defs id="defs-682779"><g class="clips"><clipPath id="clip682779xyplot" class="plotclip"><rect width="499" height="320"/></clipPath><clipPath class="axesclip" id="clip682779x"><rect x="80" y="0" width="499" height="500"/></clipPath><clipPath class="axesclip" id="clip682779y"><rect x="0" y="100" width="700" height="320"/></clipPath><clipPath class="axesclip" id="clip682779xy"><rect x="80" y="100" width="499" height="320"/></clipPath></g><g class="gradients"/><g class="patterns"/></defs><g class="bglayer"><rect class="bg" x="80" y="100" width="499" height="320" style="fill: rgb(229, 236, 246); fill-opacity: 1; stroke-width: 0;"/></g><g class="layer-below"><g class="imagelayer"/><g class="shapelayer"/></g><g class="cartesianlayer"><g class="subplot xy"><g class="layer-subplot"><g class="shapelayer"/><g class="imagelayer"/></g><g class="minor-gridlayer"><g class="x"/><g class="y"/></g><g class="gridlayer"><g class="x"><path class="xgrid crisp" transform="translate(179.82,0)" d="M0,100v320" style="stroke: rgb(255, 255, 255); stroke-opacity: 1; stroke-width: 1px;"/><path class="xgrid crisp" transform="translate(279.64,0)" d="M0,100v320" style="stroke: rgb(255, 255, 255); stroke-opacity: 1; stroke-width: 1px;"/><path class="xgrid crisp" transform="translate(379.46,0)" d="M0,100v320" style="stroke: rgb(255, 255, 255); stroke-opacity: 1; stroke-width: 1px;"/><path class="xgrid crisp" transform="translate(479.28,0)" d="M0,100v320" style="stroke: rgb(255, 255, 255); stroke-opacity: 1; stroke-width: 1px;"/></g><g class="y"><path class="ygrid crisp" transform="translate(0,386.26)" d="M80,0h499" style="stroke: rgb(255, 255, 255); stroke-opacity: 1; stroke-width: 1px;"/><path class="ygrid crisp" transform="translate(0,335.33000000000004)" d="M80,0h499" style="stroke: rgb(255, 255, 255); stroke-opacity: 1; stroke-width: 1px;"/><path class="ygrid crisp" transform="translate(0,284.4)" d="M80,0h499" style="stroke: rgb(255, 255, 255); stroke-opacity: 1; stroke-width: 1px;"/><path class="ygrid crisp" transform="translate(0,233.47)" d="M80,0h499" style="stroke: rgb(255, 255, 255); stroke-opacity: 1; stroke-width: 1px;"/><path class="ygrid crisp" transform="translate(0,182.54000000000002)" d="M80,0h499" style="stroke: rgb(255, 255, 255); stroke-opacity: 1; stroke-width: 1px;"/><path class="ygrid crisp" transform="translate(0,131.61)" d="M80,0h499" style="stroke: rgb(255, 255, 255); stroke-opacity: 1; stroke-width: 1px;"/></g></g><g class="zerolinelayer"><path class="xzl zl crisp" transform="translate(80,0)" d="M0,100v320" style="stroke: rgb(255, 255, 255); stroke-opacity: 1; stroke-width: 2px;"/></g><path class="xlines-below"/><path class="ylines-below"/><g class="overlines-below"/><g class="xaxislayer-below"/><g class="yaxislayer-below"/><g class="overaxes-below"/><g class="plot" transform="translate(80,100)" clip-path="url(#clip682779xyplot)"><g class="scatterlayer mlayer"><g class="trace scatter trace6acc73" style="stroke-miterlimit: 2; opacity: 0.05;"><g class="fills"/><g class="errorbars"/><g class="lines"><path class="js-line" d="M0,16L1.4,25.04L1.5,25.04L1.8,25.08L1.9,26.58L2.2,26.58L2.3,27.64L2.79,28.3L2.89,28.45L3.19,28.45L3.29,30.23L3.59,30.23L3.69,31.53L5.79,33.63L5.89,35.53L6.79,36.39L6.89,36.39L7.49,37.02L7.59,39.36L9.58,39.6L9.68,40.76L9.98,40.76L10.08,41.99L11.48,41.99L11.58,44.25L12.58,44.96L12.68,47.57L21.06,48.18L21.16,49.82L36.83,50.01L36.93,52.28L47.91,52.28L48.01,53.36L57.5,53.68L57.6,55.34L63.78,55.76L63.88,56.45L74.17,56.86L74.27,57.61L74.47,57.61L74.57,58.53L85.45,58.89L85.55,59.31L90.24,60.05L90.34,63.25L102.81,63.41L102.91,64.23L103.71,64.23L103.81,66.04L107.51,66.34L107.61,67.84L108.8,68.02L108.9,69.32L112.3,69.75L112.4,70.51L113.2,71.42L113.3,71.42L116.29,76.15L116.39,76.15L117.49,77.04L117.59,77.04L120.28,77.79L120.38,77.81L499,78.3" style="vector-effect: none; fill: none; stroke: rgb(0, 0, 255); stroke-opacity: 1; stroke-width: 2px; opacity: 1;"/></g><g class="points"/><g class="text"/></g><g class="trace scatter trace086882" style="stroke-miterlimit: 2; opacity: 1;"><g class="fills"/><g class="errorbars"/><g class="lines"><path class="js-line" d="M0,17.89L1.5,28.43L1.6,29.04L2.79,31.46L2.89,31.46L3.69,33.11L3.79,33.11L6.39,39.26L6.49,39.26L7.79,44.13L7.89,44.13L8.68,44.13L8.78,45.61L15.97,45.76L16.07,46.46L17.67,46.85L17.77,47.29L18.47,47.29L18.57,48.13L28.35,48.43L28.45,49.27L29.35,53.45L29.45,53.45L65.88,53.86L65.98,54.46L67.98,54.46L68.08,57.65L73.57,58.02L73.67,61.19L79.26,61.78L79.36,62.6L80.85,62.6L80.95,64.86L85.35,65.57L85.45,65.64L86.14,65.65L86.24,67.01L86.64,67.01L86.74,68.68L90.34,69.22L90.44,69.64L93.13,69.64L93.23,71.78L100.72,71.82L100.82,72.6L102.22,72.67L102.32,74.31L105.01,74.69L105.11,75.2L107.41,75.2L107.51,76.52L110.8,77.27L110.9,78.3L111.7,78.57L111.8,79.24L115.49,79.97L115.59,80.35L116.49,82.13L116.59,82.13L119.38,82.13L119.48,84.05L126.77,84.42L126.87,86.55L130.56,86.55L130.66,88.53L130.96,88.53L131.06,89.29L132.16,89.75L132.26,90.37L133.96,90.94L134.06,91.74L135.95,92.33L136.05,93.69L136.95,95.34L137.05,95.34L137.55,95.34L137.65,96.22L138.65,97.34L138.75,97.34L140.35,98.89L140.45,98.89L141.74,98.89L141.84,100.32L143.14,100.49L143.24,101.69L145.44,102.01L145.54,102.57L148.43,102.91L148.53,103.37L150.13,104.01L150.23,104.63L151.13,104.63L151.23,106.19L154.62,106.41L154.72,107.36L158.02,108.09L158.11,108.98L161.41,109.68L161.51,110.01L162.21,110.13L162.31,110.99L163.7,111.12L163.8,112.6L164.6,113.96L164.7,113.96L165.7,115.06L165.8,115.06L167.2,115.97L167.3,115.97L168.4,116.12L168.5,117.45L168.8,117.45L168.9,120.34L174.29,120.84L174.39,121.78L177.38,122.11L177.48,123.54L178.78,126.48L178.88,126.48L179.68,126.5L179.78,127.49L182.27,128.17L182.37,128.55L183.47,129.19L183.57,129.36L184.67,131.09L184.77,131.09L185.17,131.61L185.27,132.77L185.96,132.77L186.06,133.62L186.96,135.7L187.06,135.7L187.56,135.7L187.66,136.84L189.66,137.22L189.76,138.71L191.35,138.71L191.45,139.52L193.55,140.18L193.65,140.68L193.85,140.68L193.95,141.5L194.45,141.5L194.55,143.8L196.25,143.8L196.35,145.34L198.44,145.53L198.54,146.33L199.44,148.74L199.54,148.74L200.94,152.33L201.04,152.33L201.54,152.86L201.64,153.94L202.34,153.94L202.43,155.36L203.23,155.36L203.33,156.13L204.03,156.13L204.13,156.96L205.23,157.44L205.33,158.93L205.73,159.28L205.83,159.71L206.13,159.71L206.23,160.92L207.23,160.92L207.33,161.71L208.52,161.89L208.62,162.6L208.82,162.6L208.92,165.24L210.92,165.26L211.02,166.1L214.01,171.11L214.11,172.14L214.61,172.14L214.71,173.48L215.61,175.14L215.71,175.14L216.61,175.14L216.71,176.01L218.01,176.21L218.11,178.73L219.5,179.38L219.6,180.5L220.6,181.14L220.7,182.03L223.4,182.54L223.5,183.19L224.89,183.92L224.99,184.07L226.29,186.55L226.39,186.55L228.99,188.13L229.09,188.71L230.09,189.4L230.18,189.83L231.18,191.84L231.28,191.84L232.28,192.4L232.38,192.73L233.88,196.33L233.98,196.33L235.28,196.59L235.38,197.93L236.57,198.55L236.67,199.18L237.87,200.99L237.97,200.99L238.37,201.77L238.47,204.25L240.07,204.25L240.17,207.01L240.67,207.18L240.77,207.86L241.26,207.86L241.36,210.28L242.16,213.55L242.26,213.55L243.56,217.28L243.66,225.37L246.16,225.69L246.26,226.15L247.05,226.41L247.15,227.58L247.95,228.62L248.05,228.62L249.35,231.62L249.45,231.62L250.15,231.82L250.25,233L250.65,233L250.75,234.98L251.35,234.98L251.45,235.8L252.15,236.55L252.25,236.71L253.24,237.69L253.34,237.93L254.44,240.63L254.54,240.65L255.64,241.39L255.74,241.75L256.84,243.91L256.94,243.91L257.64,244.2L257.74,244.7L258.23,244.86L258.33,246.48L258.73,246.48L258.83,248.24L260.13,248.24L260.23,249.28L261.73,249.37L261.83,250.53L262.93,250.83L263.03,251.44L264.12,251.91L264.22,253.48L266.02,254.13L266.12,254.98L266.82,255.64L266.92,256.06L267.22,256.06L267.32,256.83L268.12,258.52L268.22,258.52L268.82,259.04L268.91,260.89L271.01,261.26L271.11,261.68L271.51,262.4L271.61,262.47L272.71,265.26L272.81,265.26L273.71,266.15L273.81,268.78L274.5,269.23L274.6,272.14L276.4,272.43L276.5,273.9L276.7,273.9L276.8,274.91L278,275.06L278.1,278.28L278.3,278.28L278.4,279.14L278.9,279.14L279,280.49L280.39,280.75L280.49,280.75L280.79,280.99L280.89,281.59L281.19,281.89L281.29,282.85L281.89,282.85L281.99,283.64L282.19,283.64L282.29,285.69L284.89,293.03L284.99,293.03L285.19,293.03L285.29,294.68L286.28,294.8L286.38,295.8L288.78,299L288.88,299L290.08,301.52L290.18,301.52L291.47,302L291.57,302.28L292.67,303.72L292.77,303.72L499,304" style="vector-effect: none; fill: none; stroke: rgb(255, 0, 0); stroke-opacity: 1; stroke-width: 2px; opacity: 1;"/></g><g class="points"/><g class="text"/></g><g class="trace scatter trace1fb9f9" style="stroke-miterlimit: 2; opacity: 0.05;"><g class="fills"/><g class="errorbars"/><g class="lines"><path class="js-line" d="M0,17.64L1,24.47L1.1,24.47L1.9,26.07L2,26.4L2.89,32.67L2.99,32.67L3.59,32.67L3.69,34.68L3.99,34.68L4.09,36.78L5.09,37.15L5.19,37.15L5.39,37.15L5.49,38.05L6.29,38.67L6.39,38.67L7.79,39.07L7.89,40.2L8.88,41.87L8.98,41.87L11.18,42.23L11.28,42.71L11.58,42.71L11.68,45.1L13.68,45.1L13.78,46.47L17.07,46.55L17.17,47.6L31.24,48.29L31.34,48.61L33.64,49.14L33.74,49.95L46.62,50.64L46.72,50.89L52.8,51.19L52.9,52.08L68.78,52.22L68.88,53.31L74.27,53.73L74.37,54.44L79.56,54.69L79.66,57L89.84,57L89.94,58.76L96.53,58.76L96.63,59.64L101.92,59.64L102.02,60.64L106.91,61.16L107.01,61.71L107.21,61.71L107.31,62.58L110.3,62.79L110.4,64.11L113.79,64.79L113.89,65.17L117.29,65.34L117.39,66.45L117.69,66.45L117.79,67.34L119.98,67.5L120.08,68.14L125.27,68.85L125.37,69.13L130.07,69.8L130.17,69.9L142.04,70.48L142.14,70.77L182.17,71.52L182.27,71.54L214.11,72.28L214.21,72.33L221,72.61L221.1,72.61L223.7,72.75L223.8,72.75L245.26,73.48L245.36,73.52L263.13,74.22L263.23,74.29L275.2,74.8L275.3,74.8L291.08,75.5L291.17,75.59L314.43,76.31L314.53,76.35L338.89,77.1L338.99,77.14L362.55,77.89L362.65,77.9L394.29,78.75L394.39,78.75L415.55,79.06L415.65,79.06L463.56,79.8L463.66,79.82L499,80.91" style="vector-effect: none; fill: none; stroke: rgb(0, 0, 255); stroke-opacity: 1; stroke-width: 2px; opacity: 1;"/></g><g class="points"/><g class="text"/></g><g class="trace scatter trace51bc9d" style="stroke-miterlimit: 2; opacity: 0.05;"><g class="fills"/><g class="errorbars"/><g class="lines"><path class="js-line" d="M0,16.18L0.2,16.18L0.3,20.2L1.5,25.04L1.6,28.13L2,28.13L2.1,30.3L3.39,30.93L3.49,31.64L4.79,36.73L4.89,36.73L5.89,36.73L5.99,39.78L7.09,42.05L7.19,42.05L9.18,42.05L9.28,43.25L17.17,43.25L17.27,44.88L20.56,44.88L20.66,45.76L27.75,45.76L27.85,48.98L39.63,48.98L39.73,49.88L43.32,49.88L43.42,52.14L47.12,52.14L47.21,54.38L80.36,54.38L80.45,55.57L93.43,56.22L93.53,56.48L99.32,57.02L99.42,57.3L99.92,57.3L100.02,59.59L102.91,60L103.01,60L103.91,60.69L104.01,62.03L105.41,65.26L105.51,65.26L106.51,65.43L106.61,66.33L108.3,66.6L108.4,67.37L109.1,68.05L109.2,68.14L112,68.76L112.1,69.04L499,69.37" style="vector-effect: none; fill: none; stroke: rgb(0, 0, 255); stroke-opacity: 1; stroke-width: 2px; opacity: 1;"/></g><g class="points"/><g class="text"/></g></g></g><g class="overplot"/><path class="xlines-above crisp" d="M0,0" style="fill: none;"/><path class="ylines-above crisp" d="M0,0" style="fill: none;"/><g class="overlines-above"/><g class="xaxislayer-above"><g class="xtick"><text text-anchor="middle" x="0" y="433" transform="translate(80,0)" style="font-family: 'Open Sans', verdana, arial, sans-serif; font-size: 12px; fill: rgb(42, 63, 95); fill-opacity: 1; white-space: pre; opacity: 1;">0</text></g><g class="xtick"><text text-anchor="middle" x="0" y="433" style="font-family: 'Open Sans', verdana, arial, sans-serif; font-size: 12px; fill: rgb(42, 63, 95); fill-opacity: 1; white-space: pre; opacity: 1;" transform="translate(179.82,0)">1000</text></g><g class="xtick"><text text-anchor="middle" x="0" y="433" style="font-family: 'Open Sans', verdana, arial, sans-serif; font-size: 12px; fill: rgb(42, 63, 95); fill-opacity: 1; white-space: pre; opacity: 1;" transform="translate(279.64,0)">2000</text></g><g class="xtick"><text text-anchor="middle" x="0" y="433" style="font-family: 'Open Sans', verdana, arial, sans-serif; font-size: 12px; fill: rgb(42, 63, 95); fill-opacity: 1; white-space: pre; opacity: 1;" transform="translate(379.46,0)">3000</text></g><g class="xtick"><text text-anchor="middle" x="0" y="433" style="font-family: 'Open Sans', verdana, arial, sans-serif; font-size: 12px; fill: rgb(42, 63, 95); fill-opacity: 1; white-space: pre; opacity: 1;" transform="translate(479.28,0)">4000</text></g></g><g class="yaxislayer-above"><g class="ytick"><text text-anchor="end" x="79" y="4.199999999999999" transform="translate(0,386.26)" style="font-family: 'Open Sans', verdana, arial, sans-serif; font-size: 12px; fill: rgb(42, 63, 95); fill-opacity: 1; white-space: pre; opacity: 1;">1f</text></g><g class="ytick"><text text-anchor="end" x="79" y="4.199999999999999" style="font-family: 'Open Sans', verdana, arial, sans-serif; font-size: 12px; fill: rgb(42, 63, 95); fill-opacity: 1; white-space: pre; opacity: 1;" transform="translate(0,335.33000000000004)">1p</text></g><g class="ytick"><text text-anchor="end" x="79" y="4.199999999999999" style="font-family: 'Open Sans', verdana, arial, sans-serif; font-size: 12px; fill: rgb(42, 63, 95); fill-opacity: 1; white-space: pre; opacity: 1;" transform="translate(0,284.4)">1n</text></g><g class="ytick"><text text-anchor="end" x="79" y="4.199999999999999" style="font-family: 'Open Sans', verdana, arial, sans-serif; font-size: 12px; fill: rgb(42, 63, 95); fill-opacity: 1; white-space: pre; opacity: 1;" transform="translate(0,233.47)">1μ</text></g><g class="ytick"><text text-anchor="end" x="79" y="4.199999999999999" style="font-family: 'Open Sans', verdana, arial, sans-serif; font-size: 12px; fill: rgb(42, 63, 95); fill-opacity: 1; white-space: pre; opacity: 1;" transform="translate(0,182.54000000000002)">0.001</text></g><g class="ytick"><text text-anchor="end" x="79" y="4.199999999999999" style="font-family: 'Open Sans', verdana, arial, sans-serif; font-size: 12px; fill: rgb(42, 63, 95); fill-opacity: 1; white-space: pre; opacity: 1;" transform="translate(0,131.61)">1</text></g></g><g class="overaxes-above"/></g></g><g class="polarlayer"/><g class="smithlayer"/><g class="ternarylayer"/><g class="geolayer"/><g class="funnelarealayer"/><g class="pielayer"/><g class="iciclelayer"/><g class="treemaplayer"/><g class="sunburstlayer"/><g class="glimages"/><defs id="topdefs-682779"><g class="clips"/><clipPath id="legend682779"><rect width="99" height="29" x="0" y="0"/></clipPath></defs><g class="layer-above"><g class="imagelayer"/><g class="shapelayer"/></g><g class="infolayer"><g class="legend" pointer-events="all" transform="translate(588.98,100)"><rect class="bg" shape-rendering="crispEdges" width="99" height="29" x="0" y="0" style="stroke: rgb(68, 68, 68); stroke-opacity: 1; fill: rgb(255, 255, 255); fill-opacity: 1; stroke-width: 0px;"/><g class="scrollbox" transform="" clip-path="url(#legend682779)"><g class="groups"><g class="traces" transform="translate(0,14.5)" style="opacity: 1;"><text class="legendtext" text-anchor="start" x="40" y="4.680000000000001" style="font-family: 'Open Sans', verdana, arial, sans-serif; font-size: 12px; fill: rgb(42, 63, 95); fill-opacity: 1; white-space: pre;">Best Run</text><g class="layers" style="opacity: 1;"><g class="legendfill"/><g class="legendlines"><path class="js-line" d="M5,0h30" style="fill: none; stroke: rgb(255, 0, 0); stroke-opacity: 1; stroke-width: 2px;"/></g><g class="legendsymbols"><g class="legendpoints"/></g></g><rect class="legendtoggle" x="0" y="-9.5" width="94" height="19" style="fill: rgb(0, 0, 0); fill-opacity: 0;"/></g></g></g><rect class="scrollbar" rx="20" ry="3" width="0" height="0" x="0" y="0" style="fill: rgb(128, 139, 164); fill-opacity: 1;"/></g><g class="g-gtitle"><text class="gtitle" x="35" y="50" text-anchor="start" dy="0em" style="font-family: 'Open Sans', verdana, arial, sans-serif; font-size: 17px; fill: rgb(42, 63, 95); opacity: 1; font-weight: normal; white-space: pre;">Fitness history | COMDE - P2</text></g><g class="g-xtitle"><text class="xtitle" x="329.5" y="460.3" text-anchor="middle" style="font-family: 'Open Sans', verdana, arial, sans-serif; font-size: 14px; fill: rgb(42, 63, 95); opacity: 1; font-weight: normal; white-space: pre;">Generation</text></g><g class="g-ytitle"><text class="ytitle" transform="rotate(-90,19.809375000000003,260)" x="19.809375000000003" y="260" text-anchor="middle" style="font-family: 'Open Sans', verdana, arial, sans-serif; font-size: 14px; fill: rgb(42, 63, 95); opacity: 1; font-weight: normal; white-space: pre;">Fitness (log scale)</text></g></g></svg>