<svg class="main-svg" xmlns="http://www.w3.org/2000/svg" xmlns:xlink="http://www.w3.org/1999/xlink" width="700" height="500" style="" viewBox="0 0 700 500"><rect x="0" y="0" width="700" height="500" style="fill: rgb(255, 255, 255); fill-opacity: 1;"/><defs id="defs-569194"><g class="clips"><clipPath id="clip569194xyplot" class="plotclip"><rect width="499" height="320"/></clipPath><clipPath class="axesclip" id="clip569194x"><rect x="80" y="0" width="499" height="500"/></clipPath><clipPath class="axesclip" id="clip569194y"><rect x="0" y="100" width="700" height="320"/></clipPath><clipPath class="axesclip" id="clip569194xy"><rect x="80" y="100" width="499" height="320"/></clipPath></g><g class="gradients"/><g class="patterns"/></defs><g class="bglayer"><rect class="bg" x="80" y="100" width="499" height="320" style="fill: rgb(229, 236, 246); fill-opacity: 1; stroke-width: 0;"/></g><g class="layer-below"><g class="imagelayer"/><g class="shapelayer"/></g><g class="cartesianlayer"><g class="subplot xy"><g class="layer-subplot"><g class="shapelayer"/><g class="imagelayer"/></g><g class="minor-gridlayer"><g class="x"/><g class="y"/></g><g class="gridlayer"><g class="x"><path class="xgrid crisp" transform="translate(179.82,0)" d="M0,100v320" style="stroke: rgb(255, 255, 255); stroke-opacity: 1; stroke-width: 1px;"/><path class="xgrid crisp" transform="translate(279.64,0)" d="M0,100v320" style="stroke: rgb(255, 255, 255); stroke-opacity: 1; stroke-width: 1px;"/><path class="xgrid crisp" transform="translate(379.46,0)" d="M0,100v320" style="stroke: rgb(255, 255, 255); stroke-opacity: 1; stroke-width: 1px;"/><path class="xgrid crisp" transform="translate(479.28,0)" d="M0,100v320" style="stroke: rgb(255, 255, 255); stroke-opacity: 1; stroke-width: 1px;"/></g><g class="y"><path class="ygrid crisp" transform="translate(0,397.41)" d="M80,0h499" style="stroke: rgb(255, 255, 255); stroke-opacity: 1; stroke-width: 1px;"/><path class="ygrid crisp" transform="translate(0,372.95)" d="M80,0h499" style="stroke: rgb(255, 255, 255); stroke-opacity: 1; stroke-width: 1px;"/><path class="ygrid crisp" transform="translate(0,340.6)" d="M80,0h499" style="stroke: rgb(255, 255, 255); stroke-opacity: 1; stroke-width: 1px;"/><path class="ygrid crisp" transform="translate(0,316.14)" d="M80,0h499" style="stroke: rgb(255, 255, 255); stroke-opacity: 1; stroke-width: 1px;"/><path class="ygrid crisp" transform="translate(0,291.66999999999996)" d="M80,0h499" style="stroke: rgb(255, 255, 255); stroke-opacity: 1; stroke-width: 1px;"/><path class="ygrid crisp" transform="translate(0,259.33000000000004)" d="M80,0h499" style="stroke: rgb(255, 255, 255); stroke-opacity: 1; stroke-width: 1px;"/><path class="ygrid crisp" transform="translate(0,234.87)" d="M80,0h499" style="stroke: rgb(255, 255, 255); stroke-opacity: 1; stroke-width: 1px;"/><path class="ygrid crisp" transform="translate(0,210.4)" d="M80,0h499" style="stroke: rgb(255, 255, 255); stroke-opacity: 1; stroke-width: 1px;"/><path class="ygrid crisp" transform="translate(0,178.06)" d="M80,0h499" style="stroke: rgb(255, 255, 255); stroke-opacity: 1; stroke-width: 1px;"/><path class="ygrid crisp" transform="translate(0,153.6)" d="M80,0h499" style="stroke: rgb(255, 255, 255); stroke-opacity: 1; stroke-width: 1px;"/><path class="ygrid crisp" transform="translate(0,129.13)" d="M80,0h499" style="stroke: rgb(255, 255, 255); stroke-opacity: 1; stroke-width: 1px;"/></g></g><g class="zerolinelayer"><path class="xzl zl crisp" transform="translate(80,0)" d="M0,100v320" style="stroke: rgb(255, 255, 255); stroke-opacity: 1; stroke-width: 2px;"/></g><path class="xlines-below"/><path class="ylines-below"/><g class="overlines-below"/><g class="xaxislayer-below"/><g class="yaxislayer-below"/><g class="overaxes-below"/><g class="plot" transform="translate(80,100)" clip-path="url(#clip569194xyplot)"><g class="scatterlayer mlayer"><g class="trace scatter tracee01b24" style="stroke-miterlimit: 2; opacity: 0.05;"><g class="fills"/><g class="errorbars"/><g class="lines"><path class="js-line" d="M0,85.03L1.4,187.18L1.5,187.18L8.38,187.18L8.48,215.33L76.96,215.33L77.06,234.44L117.79,234.44L117.89,249.62L499,249.62" style="vector-effect: none; fill: none; stroke: rgb(0, 0, 255); stroke-opacity: 1; stroke-width: 2px; opacity: 1;"/></g><g class="points"/><g class="text"/></g><g class="trace scatter trace4c38a3" style="stroke-miterlimit: 2; opacity: 0.05;"><g class="fills"/><g class="errorbars"/><g class="lines"><path class="js-line" d="M0,75.51L1,134.03L1.1,134.03L1.9,179.81L2,179.81L2.2,179.81L2.3,181.73L3.09,181.73L3.19,187.51L8.09,187.51L8.19,192.23L17.77,192.35L17.87,207.13L41.33,207.13L41.43,235.82L424.04,235.82L424.14,247.89L499,247.89" style="vector-effect: none; fill: none; stroke: rgb(0, 0, 255); stroke-opacity: 1; stroke-width: 2px; opacity: 1;"/></g><g class="points"/><g class="text"/></g><g class="trace scatter tracedf0b31" style="stroke-miterlimit: 2; opacity: 0.05;"><g class="fills"/><g class="errorbars"/><g class="lines"><path class="js-line" d="M0,65.11L1.1,152.84L1.2,152.84L2.1,166.24L2.2,166.24L3.09,179.92L3.19,179.92L3.69,179.92L3.79,202.32L5.29,202.32L5.39,221.54L59.49,221.54L59.59,266.85L499,266.85" style="vector-effect: none; fill: none; stroke: rgb(0, 0, 255); stroke-opacity: 1; stroke-width: 2px; opacity: 1;"/></g><g class="points"/><g class="text"/></g><g class="trace scatter trace4eb847" style="stroke-miterlimit: 2; opacity: 0.05;"><g class="fills"/><g class="errorbars"/><g class="lines"><path class="js-line" d="M0,85.46L0.6,96.15L0.7,122.21L1,122.21L1.1,131.52L1.5,134.33L1.6,152.42L2.6,174.94L2.7,174.94L3.09,174.94L3.19,178.76L5.59,178.76L5.69,180.87L6.49,197.35L6.59,197.35L17.17,197.35L17.27,204.21L57.7,204.28L57.8,207.9L71.37,207.9L71.47,222.35L83.25,222.35L83.35,254.45L499,254.45" style="vector-effect: none; fill: none; stroke: rgb(0, 0, 255); stroke-opacity: 1; stroke-width: 2px; opacity: 1;"/></g><g class="points"/><g class="text"/></g><g class="trace scatter trace5f0e3b" style="stroke-miterlimit: 2; opacity: 0.05;"><g class="fills"/><g class="errorbars"/><g class="lines"><path class="js-line" d="M0,62.22L1.2,160.49L1.3,160.49L1.6,160.49L1.7,163.16L2.2,163.73L2.3,167.9L2.7,167.9L2.79,174.01L8.48,174.01L8.58,179.79L9.58,179.79L9.68,183.22L10.38,183.22L10.48,191.61L27.75,192.3L27.85,201.52L57.9,201.52L58,230.33L83.05,230.33L83.15,231.76L122.78,231.76L122.88,252.6L499,252.6" style="vector-effect: none; fill: none; stroke: rgb(0, 0, 255); stroke-opacity: 1; stroke-width: 2px; opacity: 1;"/></g><g class="points"/><g class="text"/></g><g class="trace scatter trace3a7c2e" style="stroke-miterlimit: 2; opacity: 0.05;"><g class="fills"/><g class="errorbars"/><g class="lines"><path class="js-line" d="M0,37.88L0.8,123.41L0.9,144.04L2,144.04L2.1,167.5L3.09,220.51L3.19,220.51L145.34,220.51L145.44,235.83L316.63,236.54L316.73,260.1L499,260.1" style="vector-effect: none; fill: none; stroke: rgb(0, 0, 255); stroke-opacity: 1; stroke-width: 2px; opacity: 1;"/></g><g class="points"/><g class="text"/></g><g class="trace scatter trace01afd4" style="stroke-miterlimit: 2; opacity: 0.05;"><g class="fills"/><g class="errorbars"/><g class="lines"><path class="js-line" d="M0,45.89L0.2,90.46L0.3,109.84L1.3,141.55L1.4,145.74L1.9,145.74L2,149.82L2.4,153.14L2.5,200.37L11.38,200.37L11.48,202.66L25.25,202.66L25.35,222.89L128.87,222.89L128.97,225.06L274.9,225.06L275,253.64L499,253.64" style="vector-effect: none; fill: none; stroke: rgb(0, 0, 255); stroke-opacity: 1; stroke-width: 2px; opacity: 1;"/></g><g class="points"/><g class="text"/></g><g class="trace scatter tracec01e16" style="stroke-miterlimit: 2; opacity: 0.05;"><g class="fills"/><g class="errorbars"/><g class="lines"><path class="js-line" d="M0,74.06L1.1,143.55L1.2,143.55L1.6,143.55L1.7,160.07L2.3,160.07L2.4,162.86L2.6,162.86L2.7,171.3L2.89,171.3L2.99,175.77L3.99,175.77L4.09,212.71L7.39,212.71L7.49,214.76L8.29,235.37L8.38,235.37L121.18,235.37L121.28,237.66L175.28,237.66L175.38,241.51L499,241.51" style="vector-effect: none; fill: none; stroke: rgb(0, 0, 255); stroke-opacity: 1; stroke-width: 2px; opacity: 1;"/></g><g class="points"/><g class="text"/></g><g class="trace scatter traceb7bfc5" style="stroke-miterlimit: 2; opacity: 0.05;"><g class="fills"/><g class="errorbars"/><g class="lines"><path class="js-line" d="M0,66.14L1.1,120.56L1.2,131.09L1.4,131.09L1.5,161.62L1.9,161.62L2,165.82L2.2,165.82L2.3,171.29L2.79,171.29L2.89,173.79L5.19,173.82L5.29,175.55L6.09,175.55L6.19,184.7L7.19,184.7L7.29,200.53L17.37,200.53L17.47,213.48L27.75,213.48L27.85,214.48L50.81,214.48L50.91,230.78L199.34,230.78L199.44,256.75L499,256.75" style="vector-effect: none; fill: none; stroke: rgb(0, 0, 255); stroke-opacity: 1; stroke-width: 2px; opacity: 1;"/></g><g class="points"/><g class="text"/></g><g class="trace scatter trace548c99" style="stroke-miterlimit: 2; opacity: 0.05;"><g class="fills"/><g class="errorbars"/><g class="lines"><path class="js-line" d="M0,32.81L0.2,61.43L0.3,89.26L1.2,130.7L1.3,130.7L1.5,131.15L1.6,137.67L2.79,186.01L2.89,186.01L5.69,186.01L5.79,204.01L6.49,204.01L6.59,205.22L11.38,205.22L11.48,221.86L19.17,221.86L19.27,229.88L299.06,229.88L299.16,238.05L311.44,238.05L311.54,239.5L418.74,239.5L418.84,257.6L499,257.6" style="vector-effect: none; fill: none; stroke: rgb(0, 0, 255); stroke-opacity: 1; stroke-width: 2px; opacity: 1;"/></g><g class="points"/><g class="text"/></g><g class="trace scatter trace3cd1ec" style="stroke-miterlimit: 2; opacity: 0.05;"><g class="fills"/><g class="errorbars"/><g class="lines"><path class="js-line" d="M0,46.94L1.2,171.75L1.3,171.75L2.7,171.75L2.79,175.17L3.89,175.17L3.99,176.72L4.89,176.72L4.99,186.69L15.37,186.69L15.47,207.36L47.51,207.36L47.61,213.87L65.28,213.87L65.38,226.76L89.44,226.76L89.54,239.59L326.41,239.59L326.51,244.49L499,244.49" style="vector-effect: none; fill: none; stroke: rgb(0, 0, 255); stroke-opacity: 1; stroke-width: 2px; opacity: 1;"/></g><g class="points"/><g class="text"/></g><g class="trace scatter tracea800eb" style="stroke-miterlimit: 2; opacity: 0.05;"><g class="fills"/><g class="errorbars"/><g class="lines"><path class="js-line" d="M0,29.23L1.1,170.83L1.2,170.83L3.39,170.83L3.49,172.65L9.78,172.76L9.88,175L10.78,177.12L10.88,177.12L14.87,177.12L14.97,179.45L15.97,179.45L16.07,183.84L19.86,184.56L19.96,185.88L21.16,185.88L21.26,200.8L24.36,200.8L24.46,208.6L55.5,208.6L55.6,216.12L69.77,216.12L69.87,219.48L102.61,219.48L102.71,226.72L130.07,226.72L130.17,251.64L499,251.64" style="vector-effect: none; fill: none; stroke: rgb(0, 0, 255); stroke-opacity: 1; stroke-width: 2px; opacity: 1;"/></g><g class="points"/><g class="text"/></g><g class="trace scatter trace0c3bfb" style="stroke-miterlimit: 2; opacity: 0.05;"><g class="fills"/><g class="errorbars"/><g class="lines"><path class="js-line" d="M0,45.45L2.2,190.33L2.3,190.33L5.09,190.33L5.19,195.93L9.48,195.93L9.58,199.54L18.57,199.54L18.67,202.94L24.46,202.94L24.56,214.68L42.62,214.68L42.72,227.13L65.28,227.13L65.38,230.95L394.89,230.95L394.99,233.9L437.01,234.16L437.11,241.15L499,241.15" style="vector-effect: none; fill: none; stroke: rgb(0, 0, 255); stroke-opacity: 1; stroke-width: 2px; opacity: 1;"/></g><g class="points"/><g class="text"/></g><g class="trace scatter trace0dd278" style="stroke-miterlimit: 2; opacity: 0.05;"><g class="fills"/><g class="errorbars"/><g class="lines"><path class="js-line" d="M0,64.13L1.5,185.21L1.6,185.21L2.7,185.21L2.79,230.13L20.86,230.13L20.96,232.93L288.28,232.93L288.38,245.45L499,245.45" style="vector-effect: none; fill: none; stroke: rgb(0, 0, 255); stroke-opacity: 1; stroke-width: 2px; opacity: 1;"/></g><g class="points"/><g class="text"/></g><g class="trace scatter trace268f61" style="stroke-miterlimit: 2; opacity: 0.05;"><g class="fills"/><g class="errorbars"/><g class="lines"><path class="js-line" d="M0,28.24L0.9,126.66L1,135.35L1.9,185.81L2,185.81L2.89,192.08L2.99,192.08L19.07,192.08L19.17,201.31L28.85,201.31L28.95,207.48L34.74,207.48L34.84,229.27L140.45,229.27L140.55,232.7L183.47,232.7L183.57,239.07L499,239.07" style="vector-effect: none; fill: none; stroke: rgb(0, 0, 255); stroke-opacity: 1; stroke-width: 2px; opacity: 1;"/></g><g class="points"/><g class="text"/></g><g class="trace scatter trace0e806d" style="stroke-miterlimit: 2; opacity: 0.05;"><g class="fills"/><g class="errorbars"/><g class="lines"><path class="js-line" d="M0,95.43L1.2,170.82L1.3,170.82L2.89,170.82L2.99,190.91L3.99,190.91L4.09,203.15L14.07,203.15L14.17,210.51L14.57,210.51L14.67,214.76L37.93,214.76L38.03,225.27L138.45,225.88L138.55,234.95L139.45,234.95L139.55,237.11L210.62,237.11L210.72,239.37L499,239.37" style="vector-effect: none; fill: none; stroke: rgb(0, 0, 255); stroke-opacity: 1; stroke-width: 2px; opacity: 1;"/></g><g class="points"/><g class="text"/></g><g class="trace scatter traceb4ced3" style="stroke-miterlimit: 2; opacity: 0.05;"><g class="fills"/><g class="errorbars"/><g class="lines"><path class="js-line" d="M0,63.31L0.8,143.48L0.9,143.48L1,146.01L1.1,195.05L1.9,214.13L2,214.13L27.15,214.13L27.25,217.55L84.35,217.55L84.45,220.69L104.21,220.69L104.31,230.42L322.32,230.42L322.42,261.88L499,261.88" style="vector-effect: none; fill: none; stroke: rgb(0, 0, 255); stroke-opacity: 1; stroke-width: 2px; opacity: 1;"/></g><g class="points"/><g class="text"/></g><g class="trace scatter trace550ac8" style="stroke-miterlimit: 2; opacity: 0.05;"><g class="fills"/><g class="errorbars"/><g class="lines"><path class="js-line" d="M0,21.05L0.9,146.39L1,146.39L2.3,146.39L2.4,149.35L2.79,149.35L2.89,156.46L3.29,156.46L3.39,161.36L4.19,169.98L4.29,169.98L6.29,169.98L6.39,207.67L8.19,207.67L8.29,215.59L38.53,215.59L38.63,233.67L130.27,233.67L130.36,235.95L499,235.95" style="vector-effect: none; fill: none; stroke: rgb(0, 0, 255); stroke-opacity: 1; stroke-width: 2px; opacity: 1;"/></g><g class="points"/><g class="text"/></g><g class="trace scatter trace2011ef" style="stroke-miterlimit: 2; opacity: 0.05;"><g class="fills"/><g class="errorbars"/><g class="lines"><path class="js-line" d="M0,80.93L1,155.54L1.1,155.54L1.4,155.54L1.5,171.26L4.09,171.26L4.19,196.85L41.82,196.85L41.92,197.89L89.44,197.89L89.54,217.7L125.07,217.7L125.17,224.74L206.63,224.74L206.73,226.49L499,226.49" style="vector-effect: none; fill: none; stroke: rgb(0, 0, 255); stroke-opacity: 1; stroke-width: 2px; opacity: 1;"/></g><g class="points"/><g class="text"/></g><g class="trace scatter trace6b3d63" style="stroke-miterlimit: 2; opacity: 0.05;"><g class="fills"/><g class="errorbars"/><g class="lines"><path class="js-line" d="M0,49.54L1.3,158.23L1.4,158.23L2.2,158.23L2.3,159.83L3.09,205.13L3.19,205.13L11.48,205.13L11.58,216.05L25.95,216.05L26.05,218.59L106.81,218.59L106.91,221.56L127.87,221.56L127.97,227.73L207.23,227.73L207.33,233.81L499,233.81" style="vector-effect: none; fill: none; stroke: rgb(0, 0, 255); stroke-opacity: 1; stroke-width: 2px; opacity: 1;"/></g><g class="points"/><g class="text"/></g><g class="trace scatter traceb24214" style="stroke-miterlimit: 2; opacity: 0.05;"><g class="fills"/><g class="errorbars"/><g class="lines"><path class="js-line" d="M0,55.75L1.2,134.92L1.3,134.92L2.3,172.82L2.4,172.82L3.29,172.82L3.39,190.11L3.59,190.11L3.69,191.16L12.38,191.29L12.48,205.66L18.77,205.66L18.87,237.54L356.06,237.54L356.16,265.05L499,265.05" style="vector-effect: none; fill: none; stroke: rgb(0, 0, 255); stroke-opacity: 1; stroke-width: 2px; opacity: 1;"/></g><g class="points"/><g class="text"/></g><g class="trace scatter tracea703e8" style="stroke-miterlimit: 2; opacity: 0.05;"><g class="fills"/><g class="errorbars"/><g class="lines"><path class="js-line" d="M0,70.47L0.9,116.55L1,145.16L1.5,145.16L1.6,155.9L2.3,156.53L2.4,161.05L2.79,161.05L2.89,189.79L5.89,189.79L5.99,214.02L12.78,214.02L12.88,215.2L143.64,215.2L143.74,217.39L160.21,217.39L160.31,221.09L162.01,221.09L162.11,232.39L276,232.39L276.1,258.07L499,258.07" style="vector-effect: none; fill: none; stroke: rgb(0, 0, 255); stroke-opacity: 1; stroke-width: 2px; opacity: 1;"/></g><g class="points"/><g class="text"/></g><g class="trace scatter trace43cc9a" style="stroke-miterlimit: 2; opacity: 0.05;"><g class="fills"/><g class="errorbars"/><g class="lines"><path class="js-line" d="M0,65.47L1.2,143.99L1.3,143.99L2.1,143.99L2.2,145.33L3.69,184.79L3.79,184.79L13.28,184.79L13.38,190.22L20.16,190.22L20.26,203.09L28.35,203.09L28.45,204.87L49.01,204.87L49.11,208.61L60.49,208.61L60.59,230.03L201.14,230.03L201.24,247.97L458.87,247.97L458.97,251.66L499,251.66" style="vector-effect: none; fill: none; stroke: rgb(0, 0, 255); stroke-opacity: 1; stroke-width: 2px; opacity: 1;"/></g><g class="points"/><g class="text"/></g><g class="trace scatter trace945fd8" style="stroke-miterlimit: 2; opacity: 0.05;"><g class="fills"/><g class="errorbars"/><g class="lines"><path class="js-line" d="M0,59.75L0.1,64.15L0.2,105.83L0.4,105.83L0.5,153.44L1.4,187.52L1.5,187.52L2.7,187.52L2.79,206.28L28.65,206.28L28.75,226.81L81.25,226.81L81.35,234.25L132.86,234.25L132.96,238.97L307.15,238.97L307.25,248.42L499,248.42" style="vector-effect: none; fill: none; stroke: rgb(0, 0, 255); stroke-opacity: 1; stroke-width: 2px; opacity: 1;"/></g><g class="points"/><g class="text"/></g><g class="trace scatter traced72393" style="stroke-miterlimit: 2; opacity: 0.05;"><g class="fills"/><g class="errorbars"/><g class="lines"><path class="js-line" d="M0,16L0.8,109.05L0.9,114.66L2.1,154.58L2.2,154.58L3.59,154.84L3.69,186.15L7.59,186.15L7.69,191.95L8.78,191.95L8.88,203.37L9.28,203.37L9.38,209.12L32.04,209.12L32.14,224.09L55.4,224.09L55.5,226.03L133.66,226.03L133.76,243.04L256.24,243.04L256.34,244.96L499,244.96" style="vector-effect: none; fill: none; stroke: rgb(0, 0, 255); stroke-opacity: 1; stroke-width: 2px; opacity: 1;"/></g><g class="points"/><g class="text"/></g><g class="trace scatter trace75c52c" style="stroke-miterlimit: 2; opacity: 0.05;"><g class="fills"/><g class="errorbars"/><g class="lines"><path class="js-line" d="M0,68.89L1.9,185.35L2,185.35L2.89,207.38L2.99,207.38L49.41,207.38L49.51,234.17L385.01,234.17L385.11,238L499,238" style="vector-effect: none; fill: none; stroke: rgb(0, 0, 255); stroke-opacity: 1; stroke-width: 2px; opacity: 1;"/></g><g class="points"/><g class="text"/></g><g class="trace scatter tracee8f4bc" style="stroke-miterlimit: 2; opacity: 0.05;"><g class="fills"/><g class="errorbars"/><g class="lines"><path class="js-line" d="M0,43.64L1.1,151.26L1.2,167.95L1.7,167.95L1.8,174.55L2.4,174.55L2.5,188.87L5.19,189.01L5.29,191.04L6.49,191.04L6.59,195.21L10.18,195.21L10.28,224.56L60.49,224.56L60.59,243.04L144.84,243.04L144.94,260.99L330.1,260.99L330.2,265.8L499,265.8" style="vector-effect: none; fill: none; stroke: rgb(0, 0, 255); stroke-opacity: 1; stroke-width: 2px; opacity: 1;"/></g><g class="points"/><g class="text"/></g><g class="trace scatter trace9be34c" style="stroke-miterlimit: 2; opacity: 0.05;"><g class="fills"/><g class="errorbars"/><g class="lines"><path class="js-line" d="M0,87.99L1.1,191.31L1.2,191.31L7.69,191.31L7.79,237.17L499,237.17" style="vector-effect: none; fill: none; stroke: rgb(0, 0, 255); stroke-opacity: 1; stroke-width: 2px; opacity: 1;"/></g><g class="points"/><g class="text"/></g><g class="trace scatter trace51aeec" style="stroke-miterlimit: 2; opacity: 0.05;"><g class="fills"/><g class="errorbars"/><g class="lines"><path class="js-line" d="M0,76.23L0.6,113.61L0.7,147.76L1.3,147.76L1.4,154.23L1.9,154.23L2,179.97L4.89,179.97L4.99,186.43L5.89,200.22L5.99,200.22L25.55,200.22L25.65,206.8L26.55,226.11L26.65,226.11L30.54,226.11L30.64,239.75L333,239.75L333.1,253.46L499,253.46" style="vector-effect: none; fill: none; stroke: rgb(0, 0, 255); stroke-opacity: 1; stroke-width: 2px; opacity: 1;"/></g><g class="points"/><g class="text"/></g><g class="trace scatter trace21c751" style="stroke-miterlimit: 2; opacity: 0.05;"><g class="fills"/><g class="errorbars"/><g class="lines"><path class="js-line" d="M0,98.14L0.3,98.14L0.4,148.21L0.9,148.21L1,156.69L1.7,156.69L1.8,191.45L3.29,191.45L3.39,199.64L8.38,199.64L8.48,211.79L21.46,211.79L21.56,222.33L33.74,222.33L33.84,226.46L328.11,226.46L328.21,238.98L499,238.98" style="vector-effect: none; fill: none; stroke: rgb(0, 0, 255); stroke-opacity: 1; stroke-width: 2px; opacity: 1;"/></g><g class="points"/><g class="text"/></g><g class="trace scatter trace60da36" style="stroke-miterlimit: 2; opacity: 0.05;"><g class="fills"/><g class="errorbars"/><g class="lines"><path class="js-line" d="M0,52.97L1.1,148.48L1.2,156.94L2,191.86L2.1,191.86L16.17,191.86L16.27,201.84L31.94,201.84L32.04,220.16L98.22,220.16L98.32,229.58L122.88,229.58L122.98,266.71L499,266.71" style="vector-effect: none; fill: none; stroke: rgb(0, 0, 255); stroke-opacity: 1; stroke-width: 2px; opacity: 1;"/></g><g class="points"/><g class="text"/></g><g class="trace scatter traceef0b35" style="stroke-miterlimit: 2; opacity: 0.05;"><g class="fills"/><g class="errorbars"/><g class="lines"><path class="js-line" d="M0,53.8L0.9,137.57L1,137.57L1.9,157.76L2,157.76L2.4,157.76L2.5,168.63L3.29,174.18L3.39,174.18L4.39,193.22L4.49,193.22L5.79,193.22L5.89,196.77L14.27,196.77L14.37,199.32L14.77,200.99L14.87,217.65L29.75,217.65L29.85,242.55L499,242.55" style="vector-effect: none; fill: none; stroke: rgb(0, 0, 255); stroke-opacity: 1; stroke-width: 2px; opacity: 1;"/></g><g class="points"/><g class="text"/></g><g class="trace scatter traceec46f4" style="stroke-miterlimit: 2; opacity: 1;"><g class="fills"/><g class="errorbars"/><g class="lines"><path class="js-line" d="M0,60.58L0.4,133.52L0.5,149.18L0.9,149.18L1,170.12L1.9,170.12L2,171.15L2.5,171.15L2.6,204.91L42.02,204.91L42.12,210.37L45.82,210.37L45.92,213.65L63.29,213.65L63.39,221.39L115.19,221.39L115.29,222.89L128.77,222.89L128.87,239.91L162.41,239.91L162.51,242.13L290.28,242.13L290.38,244L499,244" style="vector-effect: none; fill: none; stroke: rgb(255, 0, 0); stroke-opacity: 1; stroke-width: 2px; opacity: 1;"/></g><g class="points"/><g class="text"/></g><g class="trace scatter trace56ca4d" style="stroke-miterlimit: 2; opacity: 0.05;"><g class="fills"/><g class="errorbars"/><g class="lines"><path class="js-line" d="M0,59.3L0.9,134.99L1,134.99L1.9,154.32L2,154.32L2.89,197.11L2.99,197.11L10.68,197.11L10.78,203.82L19.46,203.82L19.56,205.63L30.45,205.63L30.54,223.79L60.29,223.79L60.39,231.71L342.58,231.71L342.68,235.69L499,235.69" style="vector-effect: none; fill: none; stroke: rgb(0, 0, 255); stroke-opacity: 1; stroke-width: 2px; opacity: 1;"/></g><g class="points"/><g class="text"/></g><g class="trace scatter trace17e784" style="stroke-miterlimit: 2; opacity: 0.05;"><g class="fills"/><g class="errorbars"/><g class="lines"><path class="js-line" d="M0,51.77L0.9,154.22L1,154.22L1.8,177.79L1.9,177.79L3.39,177.79L3.49,203.2L15.27,203.2L15.37,218.76L34.94,218.76L35.04,228.03L164.9,228.03L165,236.03L400.98,236.03L401.08,253.5L499,253.5" style="vector-effect: none; fill: none; stroke: rgb(0, 0, 255); stroke-opacity: 1; stroke-width: 2px; opacity: 1;"/></g><g class="points"/><g class="text"/></g><g class="trace scatter trace76fd81" style="stroke-miterlimit: 2; opacity: 0.05;"><g class="fills"/><g class="errorbars"/><g class="lines"><path class="js-line" d="M0,43.09L1,102.3L1.1,102.3L1.7,123.18L1.8,152.49L3.29,152.49L3.39,181.79L4.19,187.87L4.29,187.87L8.38,187.87L8.48,195.23L12.08,195.23L12.18,205.37L23.06,205.37L23.16,219.34L113.2,219.34L113.3,223.9L241.56,223.9L241.66,229.33L273.41,229.33L273.51,234.25L499,234.25" style="vector-effect: none; fill: none; stroke: rgb(0, 0, 255); stroke-opacity: 1; stroke-width: 2px; opacity: 1;"/></g><g class="points"/><g class="text"/></g><g class="trace scatter trace0c8c35" style="stroke-miterlimit: 2; opacity: 0.05;"><g class="fills"/><g class="errorbars"/><g class="lines"><path class="js-line" d="M0,40.16L1.3,187.16L1.4,187.16L4.29,187.67L4.39,192.23L6.29,192.23L6.39,195.07L11.68,195.07L11.78,200.34L40.53,200.34L40.63,201.37L45.12,201.37L45.22,213.65L57.2,213.65L57.3,220.49L74.57,220.49L74.67,221.77L221.5,221.77L221.6,245.65L499,245.65" style="vector-effect: none; fill: none; stroke: rgb(0, 0, 255); stroke-opacity: 1; stroke-width: 2px; opacity: 1;"/></g><g class="points"/><g class="text"/></g><g class="trace scatter trace5bdbcb" style="stroke-miterlimit: 2; opacity: 0.05;"><g class="fills"/><g class="errorbars"/><g class="lines"><path class="js-line" d="M0,58.47L0.9,91.08L1,91.08L2.5,166.37L2.6,166.37L5.29,166.37L5.39,172.08L5.99,172.08L6.09,194.63L6.39,194.63L6.49,206.91L11.18,206.91L11.28,212L50.41,212L50.51,226.81L322.42,226.81L322.52,234.69L461.37,234.69L461.47,242.57L462.37,246.27L462.47,246.27L499,246.27" style="vector-effect: none; fill: none; stroke: rgb(0, 0, 255); stroke-opacity: 1; stroke-width: 2px; opacity: 1;"/></g><g class="points"/><g class="text"/></g><g class="trace scatter traceed36b4" style="stroke-miterlimit: 2; opacity: 0.05;"><g class="fills"/><g class="errorbars"/><g class="lines"><path class="js-line" d="M0,44.97L0.9,154.81L1,154.81L1.6,155.12L1.7,158.52L2.1,158.52L2.2,162.28L2.4,162.28L2.5,170.77L4.39,170.77L4.49,185.08L4.89,185.08L4.99,216.23L80.75,216.23L80.85,245.92L499,245.92" style="vector-effect: none; fill: none; stroke: rgb(0, 0, 255); stroke-opacity: 1; stroke-width: 2px; opacity: 1;"/></g><g class="points"/><g class="text"/></g><g class="trace scatter trace2ab0bb" style="stroke-miterlimit: 2; opacity: 0.05;"><g class="fills"/><g class="errorbars"/><g class="lines"><path class="js-line" d="M0,63.99L0.2,71.03L0.3,105.8L0.5,105.8L0.6,116.14L0.8,116.14L0.9,122.79L1.2,122.91L1.3,126.97L2.79,170.86L2.89,170.86L3.49,170.86L3.59,199.42L15.07,199.42L15.17,222.97L83.75,222.97L83.85,234.96L87.94,234.96L88.04,240.03L276.9,240.07L277,245.43L499,245.43" style="vector-effect: none; fill: none; stroke: rgb(0, 0, 255); stroke-opacity: 1; stroke-width: 2px; opacity: 1;"/></g><g class="points"/><g class="text"/></g><g class="trace scatter traceae92e8" style="stroke-miterlimit: 2; opacity: 0.05;"><g class="fills"/><g class="errorbars"/><g class="lines"><path class="js-line" d="M0,58.55L1,154.49L1.1,154.49L1.9,190.15L2,190.15L18.37,190.15L18.47,190.96L21.46,190.96L21.56,197.63L23.26,197.63L23.36,199.86L24.66,199.86L24.76,203.74L33.44,204.41L33.54,207.41L41.23,207.41L41.33,210.53L49.01,210.53L49.11,263.89L499,263.89" style="vector-effect: none; fill: none; stroke: rgb(0, 0, 255); stroke-opacity: 1; stroke-width: 2px; opacity: 1;"/></g><g class="points"/><g class="text"/></g><g class="trace scatter trace5941b7" style="stroke-miterlimit: 2; opacity: 0.05;"><g class="fills"/><g class="errorbars"/><g class="lines"><path class="js-line" d="M0,34.89L1,157.75L1.1,160.97L2,160.97L2.1,163.35L2.3,163.35L2.4,176.21L2.79,176.21L2.89,185.06L3.09,185.06L3.19,197.18L3.99,204.9L4.09,204.9L12.78,204.9L12.88,206.14L45.32,206.14L45.42,232.88L91.83,232.88L91.93,233.9L293.47,233.9L293.57,278.48L499,278.48" style="vector-effect: none; fill: none; stroke: rgb(0, 0, 255); stroke-opacity: 1; stroke-width: 2px; opacity: 1;"/></g><g class="points"/><g class="text"/></g><g class="trace scatter trace6902e2" style="stroke-miterlimit: 2; opacity: 0.05;"><g class="fills"/><g class="errorbars"/><g class="lines"><path class="js-line" d="M0,65.49L0.9,160.8L1,161.22L1.8,186.22L1.9,186.22L3.09,186.22L3.19,198.08L18.57,198.08L18.67,202.07L24.56,202.75L24.66,204.68L29.75,204.68L29.85,212.24L31.04,212.24L31.14,213.25L67.48,213.25L67.58,238.05L443.7,238.05L443.8,244.97L499,244.97" style="vector-effect: none; fill: none; stroke: rgb(0, 0, 255); stroke-opacity: 1; stroke-width: 2px; opacity: 1;"/></g><g class="points"/><g class="text"/></g><g class="trace scatter trace1c7671" style="stroke-miterlimit: 2; opacity: 0.05;"><g class="fills"/><g class="errorbars"/><g class="lines"><path class="js-line" d="M0,67.16L0.2,86.21L0.3,122L0.8,122L0.9,125.93L1.9,200.89L2,200.89L2.99,200.89L3.09,202.49L5.79,202.49L5.89,217.16L38.63,217.16L38.73,230.56L112,230.56L112.1,232.84L307.05,232.84L307.15,239.44L351.17,239.44L351.27,304L499,304" style="vector-effect: none; fill: none; stroke: rgb(0, 0, 255); stroke-opacity: 1; stroke-width: 2px; opacity: 1;"/></g><g class="points"/><g class="text"/></g><g class="trace scatter trace5eb541" style="stroke-miterlimit: 2; opacity: 0.05;"><g class="fills"/><g class="errorbars"/><g class="lines"><path class="js-line" d="M0,60.63L0.9,140.42L1,140.42L1.9,171.89L2,171.89L3.59,171.89L3.69,193.67L5.19,193.67L5.29,202.94L39.53,202.94L39.63,208.97L49.91,208.97L50.01,214.21L94.83,214.21L94.93,245.22L499,245.22" style="vector-effect: none; fill: none; stroke: rgb(0, 0, 255); stroke-opacity: 1; stroke-width: 2px; opacity: 1;"/></g><g class="points"/><g class="text"/></g><g class="trace scatter trace410c6a" style="stroke-miterlimit: 2; opacity: 0.05;"><g class="fills"/><g class="errorbars"/><g class="lines"><path class="js-line" d="M0,83.1L0.9,142.27L1,142.27L1.2,142.27L1.3,143.25L2.3,143.25L2.4,150.31L3.49,174.61L3.59,174.61L4.69,174.61L4.79,205.05L10.28,205.05L10.38,211.41L20.96,211.41L21.06,242.73L477.54,242.73L477.64,247.25L499,247.25" style="vector-effect: none; fill: none; stroke: rgb(0, 0, 255); stroke-opacity: 1; stroke-width: 2px; opacity: 1;"/></g><g class="points"/><g class="text"/></g><g class="trace scatter trace67f952" style="stroke-miterlimit: 2; opacity: 0.05;"><g class="fills"/><g class="errorbars"/><g class="lines"><path class="js-line" d="M0,71.69L0.2,71.69L0.3,86.12L1.5,169.2L1.6,169.2L2.4,191.02L2.5,191.02L5.89,191.02L5.99,205.59L38.73,205.59L38.83,210.31L58.59,210.31L58.69,231.07L342.38,231.07L342.48,268.68L499,268.68" style="vector-effect: none; fill: none; stroke: rgb(0, 0, 255); stroke-opacity: 1; stroke-width: 2px; opacity: 1;"/></g><g class="points"/><g class="text"/></g><g class="trace scatter trace712da4" style="stroke-miterlimit: 2; opacity: 0.05;"><g class="fills"/><g class="errorbars"/><g class="lines"><path class="js-line" d="M0,106.81L1.5,182.88L1.6,182.88L2.6,195.6L2.7,195.6L19.76,195.77L19.86,217.23L23.56,217.23L23.66,219.33L35.34,219.33L35.44,242.39L499,242.78" style="vector-effect: none; fill: none; stroke: rgb(0, 0, 255); stroke-opacity: 1; stroke-width: 2px; opacity: 1;"/></g><g class="points"/><g class="text"/></g><g class="trace scatter trace04a053" style="stroke-miterlimit: 2; opacity: 0.05;"><g class="fills"/><g class="errorbars"/><g class="lines"><path class="js-line" d="M0,53.72L1,166.61L1.1,173.16L2,173.16L2.1,175.1L6.19,175.1L6.29,188.23L7.19,188.23L7.29,194.09L15.97,194.09L16.07,206.86L31.04,206.86L31.14,228.63L365.24,228.63L365.34,236.96L499,236.96" style="vector-effect: none; fill: none; stroke: rgb(0, 0, 255); stroke-opacity: 1; stroke-width: 2px; opacity: 1;"/></g><g class="points"/><g class="text"/></g><g class="trace scatter trace678996" style="stroke-miterlimit: 2; opacity: 0.05;"><g class="fills"/><g class="errorbars"/><g class="lines"><path class="js-line" d="M0,31.67L0.8,137.3L0.9,137.3L2.79,192.37L2.89,192.37L3.99,192.37L4.09,207.62L31.94,207.62L32.04,220.15L71.77,220.15L71.87,227.61L397.98,227.61L398.08,265.85L499,265.85" style="vector-effect: none; fill: none; stroke: rgb(0, 0, 255); stroke-opacity: 1; stroke-width: 2px; opacity: 1;"/></g><g class="points"/><g class="text"/></g></g></g><g class="overplot"/><path class="xlines-above crisp" d="M0,0" style="fill: none;"/><path class="ylines-above crisp" d="M0,0" style="fill: none;"/><g class="overlines-above"/><g class="xaxislayer-above"><g class="xtick"><text text-anchor="middle" x="0" y="433" transform="translate(80,0)" style="font-family: 'Open Sans', verdana, arial, sans-serif; font-size: 12px; fill: rgb(42, 63, 95); fill-opacity: 1; white-space: pre; opacity: 1;">0</text></g><g class="xtick"><text text-anchor="middle" x="0" y="433" style="font-family: 'Open Sans', verdana, arial, sans-serif; font-size: 12px; fill: rgb(42, 63, 95); fill-opacity: 1; white-space: pre; opacity: 1;" transform="translate(179.82,0)">1000</text></g><g class="xtick"><text text-anchor="middle" x="0" y="433" style="font-family: 'Open Sans', verdana, arial, sans-serif; font-size: 12px; fill: rgb(42, 63, 95); fill-opacity: 1; white-space: pre; opacity: 1;" transform="translate(279.64,0)">2000</text></g><g class="xtick"><text text-anchor="middle" x="0" y="433" style="font-family: 'Open Sans', verdana, arial, sans-serif; font-size: 12px; fill: rgb(42, 63, 95); fill-opacity: 1; white-space: pre; opacity: 1;" transform="translate(379.46,0)">3000</text></g><g class="xtick"><text text-anchor="middle" x="0" y="433" style="font-family: 'Open Sans', verdana, arial, sans-serif; font-size: 12px; fill: rgb(42, 63, 95); fill-opacity: 1; white-space: pre; opacity: 1;" transform="translate(479.28,0)">4000</text></g></g><g class="yaxislayer-above"><g class="ytick"><text text-anchor="end" x="79" y="4.199999999999999" transform="translate(0,397.41)" style="font-family: 'Open Sans', verdana, arial, sans-serif; font-size: 12px; fill: rgb(42, 63, 95); fill-opacity: 1; white-space: pre; opacity: 1;">0.01</text></g><g class="ytick"><text text-anchor="end" x="79" y="3.15" style="font-family: 'Open Sans', verdana, arial, sans-serif; font-size: 9px; fill: rgb(42, 63, 95); fill-opacity: 1; white-space: pre; opacity: 1;" transform="translate(0,372.95)">2</text></g><g class="ytick"><text text-anchor="end" x="79" y="3.15" style="font-family: 'Open Sans', verdana, arial, sans-serif; font-size: 9px; fill: rgb(42, 63, 95); fill-opacity: 1; white-space: pre; opacity: 1;" transform="translate(0,340.6)">5</text></g><g class="ytick"><text text-anchor="end" x="79" y="4.199999999999999" style="font-family: 'Open Sans', verdana, arial, sans-serif; font-size: 12px; fill: rgb(42, 63, 95); fill-opacity: 1; white-space: pre; opacity: 1;" transform="translate(0,316.14)">0.1</text></g><g class="ytick"><text text-anchor="end" x="79" y="3.15" style="font-family: 'Open Sans', verdana, arial, sans-serif; font-size: 9px; fill: rgb(42, 63, 95); fill-opacity: 1; white-space: pre; opacity: 1;" transform="translate(0,291.66999999999996)">2</text></g><g class="ytick"><text text-anchor="end" x="79" y="3.15" style="font-family: 'Open Sans', verdana, arial, sans-serif; font-size: 9px; fill: rgb(42, 63, 95); fill-opacity: 1; white-space: pre; opacity: 1;" transform="translate(0,259.33000000000004)">5</text></g><g class="ytick"><text text-anchor="end" x="79" y="4.199999999999999" style="font-family: 'Open Sans', verdana, arial, sans-serif; font-size: 12px; fill: rgb(42, 63, 95); fill-opacity: 1; white-space: pre; opacity: 1;" transform="translate(0,234.87)">1</text></g><g class="ytick"><text text-anchor="end" x="79" y="3.15" style="font-family: 'Open Sans', verdana, arial, sans-serif; font-size: 9px; fill: rgb(42, 63, 95); fill-opacity: 1; white-space: pre; opacity: 1;" transform="translate(0,210.4)">2</text></g><g class="ytick"><text text-anchor="end" x="79" y="3.15" style="font-family: 'Open Sans', verdana, arial, sans-serif; font-size: 9px; fill: rgb(42, 63, 95); fill-opacity: 1; white-space: pre; opacity: 1;" transform="translate(0,178.06)">5</text></g><g class="ytick"><text text-anchor="end" x="79" y="4.199999999999999" style="font-family: 'Open Sans', verdana, arial, sans-serif; font-size: 12px; fill: rgb(42, 63, 95); fill-opacity: 1; white-space: pre; opacity: 1;" transform="translate(0,153.6)">10</text></g><g class="ytick"><text text-anchor="end" x="79" y="3.15" style="font-family: 'Open Sans', verdana, arial, sans-serif; font-size: 9px; fill: rgb(42, 63, 95); fill-opacity: 1; white-space: pre; opacity: 1;" transform="translate(0,129.13)">2</text></g></g><g class="overaxes-above"/></g></g><g class="polarlayer"/><g class="smithlayer"/><g class="ternarylayer"/><g class="geolayer"/><g class="funnelarealayer"/><g class="pielayer"/><g class="iciclelayer"/><g class="treemaplayer"/><g class="sunburstlayer"/><g class="glimages"/><defs id="topdefs-569194"><g class="clips"/><clipPath id="legend569194"><rect width="99" height="29" x="0" y="0"/></clipPath></defs><g class="layer-above"><g class="imagelayer"/><g class="shapelayer"/></g><g class="infolayer"><g class="legend" pointer-events="all" transform="translate(588.98,100)"><rect class="bg" shape-rendering="crispEdges" width="99" height="29" x="0" y="0" style="stroke: rgb(68, 68, 68); stroke-opacity: 1; fill: rgb(255, 255, 255); fill-opacity: 1; stroke-width: 0px;"/><g class="scrollbox" transform="" clip-path="url(#legend569194)"><g class="groups"><g class="traces" transform="translate(0,14.5)" style="opacity: 1;"><text class="legendtext" text-anchor="start" x="40" y="4.680000000000001" style="font-family: 'Open Sans', verdana, arial, sans-serif; font-size: 12px; fill: rgb(42, 63, 95); fill-opacity: 1; white-space: pre;">Best Run</text><g class="layers" style="opacity: 1;"><g class="legendfill"/><g class="legendlines"><path class="js-line" d="M5,0h30" style="fill: none; stroke: rgb(255, 0, 0); stroke-opacity: 1; stroke-width: 2px;"/></g><g class="legendsymbols"><g class="legendpoints"/></g></g><rect class="legendtoggle" x="0" y="-9.5" width="94" height="19" style="fill: rgb(0, 0, 0); fill-opacity: 0;"/></g></g></g><rect class="scrollbar" rx="20" ry="3" width="0" height="0" x="0" y="0" style="fill: rgb(128, 139, 164); fill-opacity: 1;"/></g><g class="g-gtitle"><text class="gtitle" x="35" y="50" text-anchor="start" dy="0em" style="font-family: 'Open Sans', verdana, arial, sans-serif; font-size: 17px; fill: rgb(42, 63, 95); opacity: 1; font-weight: normal; white-space: pre;">Fitness history | ES - P2</text></g><g class="g-xtitle"><text class="xtitle" x="329.5" y="460.3" text-anchor="middle" style="font-family: 'Open Sans', verdana, arial, sans-serif; font-size: 14px; fill: rgb(42, 63, 95); opacity: 1; font-weight: normal; white-space: pre;">Generation</text></g><g class="g-ytitle"><text class="ytitle" transform="rotate(-90,27.434375000000003,260)" x="27.434375000000003" y="260" text-anchor="middle" style="font-family: 'Open Sans', verdana, arial, sans-serif; font-size: 14px; fill: rgb(42, 63, 95); opacity: 1; font-weight: normal; white-space: pre;">Fitness (log scale)</text></g></g></svg>