<svg class="main-svg" xmlns="http://www.w3.org/2000/svg" xmlns:xlink="http://www.w3.org/1999/xlink" width="700" height="500" style="" viewBox="0 0 700 500"><rect x="0" y="0" width="700" height="500" style="fill: rgb(255, 255, 255); fill-opacity: 1;"/><defs id="defs-0e0bf7"><g class="clips"><clipPath id="clip0e0bf7xyplot" class="plotclip"><rect width="503" height="320"/></clipPath><clipPath class="axesclip" id="clip0e0bf7x"><rect x="80" y="0" width="503" height="500"/></clipPath><clipPath class="axesclip" id="clip0e0bf7y"><rect x="0" y="100" width="700" height="320"/></clipPath><clipPath class="axesclip" id="clip0e0bf7xy"><rect x="80" y="100" width="503" height="320"/></clipPath></g><g class="gradients"/><g class="patterns"/></defs><g class="bglayer"><rect class="bg" x="80" y="100" width="503" height="320" style="fill: rgb(229, 236, 246); fill-opacity: 1; stroke-width: 0;"/></g><g class="layer-below"><g class="imagelayer"/><g class="shapelayer"/></g><g class="cartesianlayer"><g class="subplot xy"><g class="layer-subplot"><g class="shapelayer"/><g class="imagelayer"/></g><g class="minor-gridlayer"><g class="x"/><g class="y"/></g><g class="gridlayer"><g class="x"><path class="xgrid crisp" transform="translate(180.62,0)" d="M0,100v320" style="stroke: rgb(255, 255, 255); stroke-opacity: 1; stroke-width: 1px;"/><path class="xgrid crisp" transform="translate(281.24,0)" d="M0,100v320" style="stroke: rgb(255, 255, 255); stroke-opacity: 1; stroke-width: 1px;"/><path class="xgrid crisp" transform="translate(381.86,0)" d="M0,100v320" style="stroke: rgb(255, 255, 255); stroke-opacity: 1; stroke-width: 1px;"/><path class="xgrid crisp" transform="translate(482.48,0)" d="M0,100v320" style="stroke: rgb(255, 255, 255); stroke-opacity: 1; stroke-width: 1px;"/></g><g class="y"><path class="ygrid crisp" transform="translate(0,398.06)" d="M80,0h503" style="stroke: rgb(255, 255, 255); stroke-opacity: 1; stroke-width: 1px;"/><path class="ygrid crisp" transform="translate(0,360.54)" d="M80,0h503" style="stroke: rgb(255, 255, 255); stroke-opacity: 1; stroke-width: 1px;"/><path class="ygrid crisp" transform="translate(0,332.15999999999997)" d="M80,0h503" style="stroke: rgb(255, 255, 255); stroke-opacity: 1; stroke-width: 1px;"/><path class="ygrid crisp" transform="translate(0,303.78)" d="M80,0h503" style="stroke: rgb(255, 255, 255); stroke-opacity: 1; stroke-width: 1px;"/><path class="ygrid crisp" transform="translate(0,266.27)" d="M80,0h503" style="stroke: rgb(255, 255, 255); stroke-opacity: 1; stroke-width: 1px;"/><path class="ygrid crisp" transform="translate(0,237.89)" d="M80,0h503" style="stroke: rgb(255, 255, 255); stroke-opacity: 1; stroke-width: 1px;"/><path class="ygrid crisp" transform="translate(0,209.5)" d="M80,0h503" style="stroke: rgb(255, 255, 255); stroke-opacity: 1; stroke-width: 1px;"/><path class="ygrid crisp" transform="translate(0,171.99)" d="M80,0h503" style="stroke: rgb(255, 255, 255); stroke-opacity: 1; stroke-width: 1px;"/><path class="ygrid crisp" transform="translate(0,143.61)" d="M80,0h503" style="stroke: rgb(255, 255, 255); stroke-opacity: 1; stroke-width: 1px;"/><path class="ygrid crisp" transform="translate(0,115.23)" d="M80,0h503" style="stroke: rgb(255, 255, 255); stroke-opacity: 1; stroke-width: 1px;"/></g></g><g class="zerolinelayer"><path class="xzl zl crisp" transform="translate(80,0)" d="M0,100v320" style="stroke: rgb(255, 255, 255); stroke-opacity: 1; stroke-width: 2px;"/></g><g class="layer-between"><g class="shapelayer"/><g class="imagelayer"/></g><path class="xlines-below"/><path class="ylines-below"/><g class="overlines-below"/><g class="xaxislayer-below"/><g class="yaxislayer-below"/><g class="overaxes-below"/><g class="plot" transform="translate(80,100)" clip-path="url(#clip0e0bf7xyplot)"><g class="scatterlayer mlayer"><g class="trace scatter trace9a8a8c" style="stroke-miterlimit: 2; opacity: 0.05;"><g class="fills"/><g class="errorbars"/><g class="lines"><path class="js-line" d="M0,46.09L0.8,104.2L0.91,135.57L1.81,167.63L1.91,167.79L2.31,167.79L2.41,189.2L2.62,189.2L2.72,197.31L5.53,197.31L5.63,216.36L69.13,216.36L69.23,220.86L70.13,228.82L70.23,228.82L73.25,228.82L73.35,231.6L142.28,231.6L142.38,248.86L144.39,248.86L144.49,256.86L503,256.86" style="vector-effect: none; fill: none; stroke: rgb(0, 0, 255); stroke-opacity: 1; stroke-width: 2px; opacity: 1;"/></g><g class="points"/><g class="text"/></g><g class="trace scatter trace689cfc" style="stroke-miterlimit: 2; opacity: 0.05;"><g class="fills"/><g class="errorbars"/><g class="lines"><path class="js-line" d="M0,69.07L0.91,126.49L1.01,136.35L1.81,136.35L1.91,186.06L6.84,186.06L6.94,199.36L11.17,199.36L11.27,217.19L26.46,217.19L26.56,237.77L104.24,237.77L104.34,241.51L109.98,241.51L110.08,250.06L276.71,250.27L276.81,257.31L473.32,257.31L473.42,259.08L503,259.08" style="vector-effect: none; fill: none; stroke: rgb(0, 0, 255); stroke-opacity: 1; stroke-width: 2px; opacity: 1;"/></g><g class="points"/><g class="text"/></g><g class="trace scatter trace753101" style="stroke-miterlimit: 2; opacity: 0.05;"><g class="fills"/><g class="errorbars"/><g class="lines"><path class="js-line" d="M0,61.52L1.01,100.19L1.11,102.03L2.11,144.94L2.21,144.94L3.52,153.71L3.62,169.3L4.13,169.3L4.23,173.47L5.03,173.47L5.13,183.26L6.14,183.26L6.24,189.41L7.04,196.6L7.14,196.6L11.77,196.6L11.87,210.47L16.8,210.47L16.9,213.29L19.92,213.29L20.02,241.88L231.73,241.88L231.83,263.62L503,263.62" style="vector-effect: none; fill: none; stroke: rgb(0, 0, 255); stroke-opacity: 1; stroke-width: 2px; opacity: 1;"/></g><g class="points"/><g class="text"/></g><g class="trace scatter traced3d888" style="stroke-miterlimit: 2; opacity: 0.05;"><g class="fills"/><g class="errorbars"/><g class="lines"><path class="js-line" d="M0,24.23L1.01,132.52L1.11,132.52L1.41,132.52L1.51,137.2L1.71,137.2L1.81,170.12L2.11,170.12L2.21,188.27L2.92,188.27L3.02,193.43L13.48,193.43L13.58,233.46L39.34,233.46L39.44,241.1L131.71,241.1L131.81,251.29L483.28,251.29L483.38,274.83L503,274.83" style="vector-effect: none; fill: none; stroke: rgb(0, 0, 255); stroke-opacity: 1; stroke-width: 2px; opacity: 1;"/></g><g class="points"/><g class="text"/></g><g class="trace scatter tracecf3f66" style="stroke-miterlimit: 2; opacity: 0.05;"><g class="fills"/><g class="errorbars"/><g class="lines"><path class="js-line" d="M0,19.53L1.01,184.57L1.11,184.57L1.61,184.57L1.71,194.36L18.51,194.36L18.61,197.55L19.42,197.55L19.52,225.7L36.12,225.7L36.22,229.39L60.57,229.93L60.67,250.99L95.79,251.5L95.89,263.6L419.08,263.6L419.18,285.47L503,285.47" style="vector-effect: none; fill: none; stroke: rgb(0, 0, 255); stroke-opacity: 1; stroke-width: 2px; opacity: 1;"/></g><g class="points"/><g class="text"/></g><g class="trace scatter traceb71632" style="stroke-miterlimit: 2; opacity: 0.05;"><g class="fills"/><g class="errorbars"/><g class="lines"><path class="js-line" d="M0,89.94L0.91,151.15L1.01,154.75L1.71,154.75L1.81,168.76L2.01,168.76L2.11,170.48L2.52,170.48L2.62,189.6L2.92,189.6L3.02,193.67L4.02,218.7L4.13,218.7L6.54,218.7L6.64,226.9L7.55,226.9L7.65,227.74L22.04,227.74L22.14,262.77L198.12,262.77L198.22,283.25L503,283.25" style="vector-effect: none; fill: none; stroke: rgb(0, 0, 255); stroke-opacity: 1; stroke-width: 2px; opacity: 1;"/></g><g class="points"/><g class="text"/></g><g class="trace scatter trace835821" style="stroke-miterlimit: 2; opacity: 0.05;"><g class="fills"/><g class="errorbars"/><g class="lines"><path class="js-line" d="M0,33.32L1.21,195.76L1.31,195.76L2.01,195.76L2.11,233.02L32.9,233.02L33,250.56L132.62,250.56L132.72,261.53L189.97,261.53L190.07,289.47L503,289.47" style="vector-effect: none; fill: none; stroke: rgb(0, 0, 255); stroke-opacity: 1; stroke-width: 2px; opacity: 1;"/></g><g class="points"/><g class="text"/></g><g class="trace scatter trace3ac29f" style="stroke-miterlimit: 2; opacity: 0.05;"><g class="fills"/><g class="errorbars"/><g class="lines"><path class="js-line" d="M0,19.2L0.91,181.01L1.01,181.01L1.61,181.01L1.71,230.74L36.73,230.74L36.83,248.86L41.35,249.05L41.46,253.42L103.14,253.42L103.24,277.84L503,277.84" style="vector-effect: none; fill: none; stroke: rgb(0, 0, 255); stroke-opacity: 1; stroke-width: 2px; opacity: 1;"/></g><g class="points"/><g class="text"/></g><g class="trace scatter trace008936" style="stroke-miterlimit: 2; opacity: 0.05;"><g class="fills"/><g class="errorbars"/><g class="lines"><path class="js-line" d="M0,52.5L1.01,185.87L1.11,185.87L1.31,185.87L1.41,187.81L3.72,187.81L3.82,202.76L10.36,202.76L10.46,208.64L14.29,208.64L14.39,212.28L19.12,212.28L19.22,227.86L61.38,227.86L61.48,252.07L269.76,252.07L269.86,253.95L325.3,253.95L325.41,256.23L387.59,256.23L387.69,271.25L503,271.25" style="vector-effect: none; fill: none; stroke: rgb(0, 0, 255); stroke-opacity: 1; stroke-width: 2px; opacity: 1;"/></g><g class="points"/><g class="text"/></g><g class="trace scatter trace676e74" style="stroke-miterlimit: 2; opacity: 0.05;"><g class="fills"/><g class="errorbars"/><g class="lines"><path class="js-line" d="M0,126.88L2.01,126.88L2.11,131.13L2.92,149.78L3.02,149.78L3.42,149.78L3.52,159.46L4.33,168.81L4.43,168.81L5.33,176.82L5.43,176.82L6.14,176.82L6.24,245.34L372.6,245.34L372.7,247.6L421.9,247.6L422,257.65L503,257.65" style="vector-effect: none; fill: none; stroke: rgb(0, 0, 255); stroke-opacity: 1; stroke-width: 2px; opacity: 1;"/></g><g class="points"/><g class="text"/></g><g class="trace scatter tracef9b685" style="stroke-miterlimit: 2; opacity: 0.05;"><g class="fills"/><g class="errorbars"/><g class="lines"><path class="js-line" d="M0,25.41L0.91,158.56L1.01,158.56L1.81,158.56L1.91,164.54L2.11,164.54L2.21,167.51L2.62,167.51L2.72,186.17L3.02,186.17L3.12,194.92L4.33,194.92L4.43,221.54L38.44,221.54L38.54,224.62L46.59,224.62L46.69,263.15L342.01,263.15L342.11,272.83L503,272.83" style="vector-effect: none; fill: none; stroke: rgb(0, 0, 255); stroke-opacity: 1; stroke-width: 2px; opacity: 1;"/></g><g class="points"/><g class="text"/></g><g class="trace scatter trace9e2877" style="stroke-miterlimit: 2; opacity: 0.05;"><g class="fills"/><g class="errorbars"/><g class="lines"><path class="js-line" d="M0,36.88L1.21,173.45L1.31,173.45L2.21,176.53L2.31,176.53L4.02,176.53L4.13,185.4L8.85,185.4L8.96,186.17L11.37,186.17L11.47,205.98L17.11,205.98L17.21,217.81L24.25,217.81L24.35,226.59L38.44,226.59L38.54,246.09L40.65,246.09L40.75,261.14L478.25,261.85L478.35,270.43L503,270.43" style="vector-effect: none; fill: none; stroke: rgb(0, 0, 255); stroke-opacity: 1; stroke-width: 2px; opacity: 1;"/></g><g class="points"/><g class="text"/></g><g class="trace scatter trace69202b" style="stroke-miterlimit: 2; opacity: 0.05;"><g class="fills"/><g class="errorbars"/><g class="lines"><path class="js-line" d="M0,51.28L1.01,171.5L1.11,171.5L2.01,171.5L2.11,175.47L2.72,175.47L2.82,180.77L3.12,180.77L3.22,220.16L104.34,220.67L104.44,238.43L361.93,238.43L362.03,275.38L503,275.38" style="vector-effect: none; fill: none; stroke: rgb(0, 0, 255); stroke-opacity: 1; stroke-width: 2px; opacity: 1;"/></g><g class="points"/><g class="text"/></g><g class="trace scatter trace54f269" style="stroke-miterlimit: 2; opacity: 0.05;"><g class="fills"/><g class="errorbars"/><g class="lines"><path class="js-line" d="M0,57.03L0.2,87.35L0.3,116.85L1.81,194.49L1.91,194.49L2.21,194.49L2.31,205.27L11.57,205.27L11.67,237.95L29.58,237.95L29.68,243.7L61.98,243.7L62.08,245.84L65.2,245.84L65.3,275.64L503,275.64" style="vector-effect: none; fill: none; stroke: rgb(0, 0, 255); stroke-opacity: 1; stroke-width: 2px; opacity: 1;"/></g><g class="points"/><g class="text"/></g><g class="trace scatter tracea45a00" style="stroke-miterlimit: 2; opacity: 0.05;"><g class="fills"/><g class="errorbars"/><g class="lines"><path class="js-line" d="M0,62.89L1.31,188.4L1.41,188.4L2.31,197.65L2.41,199.26L4.63,199.26L4.73,209.03L12.48,209.03L12.58,217.11L105.05,217.11L105.15,246.88L503,247.61" style="vector-effect: none; fill: none; stroke: rgb(0, 0, 255); stroke-opacity: 1; stroke-width: 2px; opacity: 1;"/></g><g class="points"/><g class="text"/></g><g class="trace scatter traceb9ccc1" style="stroke-miterlimit: 2; opacity: 0.05;"><g class="fills"/><g class="errorbars"/><g class="lines"><path class="js-line" d="M0,22.73L1.01,145.14L1.11,157.08L1.61,157.08L1.71,185.35L2.21,185.35L2.31,209.37L21.03,209.37L21.13,236.99L48.9,236.99L49,248.78L99.51,248.78L99.61,265.59L503,265.59" style="vector-effect: none; fill: none; stroke: rgb(0, 0, 255); stroke-opacity: 1; stroke-width: 2px; opacity: 1;"/></g><g class="points"/><g class="text"/></g><g class="trace scatter trace0d64ee" style="stroke-miterlimit: 2; opacity: 0.05;"><g class="fills"/><g class="errorbars"/><g class="lines"><path class="js-line" d="M0,64.74L0.91,161.3L1.01,161.3L2.82,208.98L2.92,208.98L8.85,209.32L8.96,224.71L18.51,224.71L18.61,247.91L53.53,247.91L53.63,251.31L191.98,251.31L192.08,265.97L195.1,265.97L195.2,273.06L503,273.06" style="vector-effect: none; fill: none; stroke: rgb(0, 0, 255); stroke-opacity: 1; stroke-width: 2px; opacity: 1;"/></g><g class="points"/><g class="text"/></g><g class="trace scatter trace0eb5bd" style="stroke-miterlimit: 2; opacity: 0.05;"><g class="fills"/><g class="errorbars"/><g class="lines"><path class="js-line" d="M0,42.33L0.91,229.09L1.01,229.09L8.05,229.09L8.15,236.59L82.11,236.59L82.21,239.22L148.31,239.22L148.41,242.84L225.49,242.84L225.59,244.65L272.28,244.65L272.38,249.5L503,249.5" style="vector-effect: none; fill: none; stroke: rgb(0, 0, 255); stroke-opacity: 1; stroke-width: 2px; opacity: 1;"/></g><g class="points"/><g class="text"/></g><g class="trace scatter trace97b434" style="stroke-miterlimit: 2; opacity: 0.05;"><g class="fills"/><g class="errorbars"/><g class="lines"><path class="js-line" d="M0,44.52L2.21,174.6L2.31,174.6L3.92,174.93L4.02,178.15L4.23,178.15L4.33,205.86L20.73,205.86L20.83,214.05L29.08,214.05L29.18,225.53L53.43,225.53L53.53,245.71L217.64,245.71L217.74,251.95L241.59,251.95L241.69,260.43L503,260.43" style="vector-effect: none; fill: none; stroke: rgb(0, 0, 255); stroke-opacity: 1; stroke-width: 2px; opacity: 1;"/></g><g class="points"/><g class="text"/></g><g class="trace scatter trace58c98d" style="stroke-miterlimit: 2; opacity: 0.05;"><g class="fills"/><g class="errorbars"/><g class="lines"><path class="js-line" d="M0,36.17L1.11,170.99L1.21,170.99L2.11,170.99L2.21,192.46L3.12,192.46L3.22,207.94L6.44,207.94L6.54,226.82L9.16,226.82L9.26,247.76L18.72,247.76L18.82,251.46L246.52,251.46L246.62,260.48L436.09,260.48L436.19,282.45L503,282.45" style="vector-effect: none; fill: none; stroke: rgb(0, 0, 255); stroke-opacity: 1; stroke-width: 2px; opacity: 1;"/></g><g class="points"/><g class="text"/></g><g class="trace scatter trace86334b" style="stroke-miterlimit: 2; opacity: 0.05;"><g class="fills"/><g class="errorbars"/><g class="lines"><path class="js-line" d="M0,54.13L0.4,123.87L0.5,177.57L2.31,177.57L2.41,189.28L3.02,189.28L3.12,192.14L8.25,192.14L8.35,208.3L16,208.3L16.1,214.03L20.33,214.03L20.43,235.61L164.82,235.61L164.92,271.42L503,271.42" style="vector-effect: none; fill: none; stroke: rgb(0, 0, 255); stroke-opacity: 1; stroke-width: 2px; opacity: 1;"/></g><g class="points"/><g class="text"/></g><g class="trace scatter traceda908c" style="stroke-miterlimit: 2; opacity: 0.05;"><g class="fills"/><g class="errorbars"/><g class="lines"><path class="js-line" d="M0,77.72L0.5,115.7L0.6,150.48L0.8,150.48L0.91,167.03L1.81,167.03L1.91,171.08L2.72,199.56L2.82,199.56L8.85,199.56L8.96,216.75L11.57,216.75L11.67,220.86L25.96,220.86L26.06,226.38L42.76,226.38L42.86,247.05L445.95,247.05L446.05,265.52L503,265.52" style="vector-effect: none; fill: none; stroke: rgb(0, 0, 255); stroke-opacity: 1; stroke-width: 2px; opacity: 1;"/></g><g class="points"/><g class="text"/></g><g class="trace scatter trace40879c" style="stroke-miterlimit: 2; opacity: 0.05;"><g class="fills"/><g class="errorbars"/><g class="lines"><path class="js-line" d="M0,44.09L0.91,163.02L1.01,163.02L2.11,163.02L2.21,176.86L3.12,201.01L3.22,201.01L6.34,201.01L6.44,204.66L7.35,217.97L7.45,217.97L17.11,217.97L17.21,218.89L22.04,218.89L22.14,219.8L48.3,219.8L48.4,226L53.33,226L53.43,227.92L54.33,248.78L54.44,248.78L127.69,248.78L127.79,253.32L226.5,253.32L226.6,298.68L503,298.68" style="vector-effect: none; fill: none; stroke: rgb(0, 0, 255); stroke-opacity: 1; stroke-width: 2px; opacity: 1;"/></g><g class="points"/><g class="text"/></g><g class="trace scatter traced1a925" style="stroke-miterlimit: 2; opacity: 0.05;"><g class="fills"/><g class="errorbars"/><g class="lines"><path class="js-line" d="M0,52.63L0.91,133.88L1.01,141.92L1.91,160.78L2.01,160.78L2.31,160.78L2.41,165.54L3.12,165.54L3.22,213.89L17.81,213.89L17.91,242.33L110.88,242.33L110.98,248.43L131.31,248.43L131.41,253.69L291.09,253.7L291.19,259.36L503,259.36" style="vector-effect: none; fill: none; stroke: rgb(0, 0, 255); stroke-opacity: 1; stroke-width: 2px; opacity: 1;"/></g><g class="points"/><g class="text"/></g><g class="trace scatter trace26bcc5" style="stroke-miterlimit: 2; opacity: 0.05;"><g class="fills"/><g class="errorbars"/><g class="lines"><path class="js-line" d="M0,62.38L1.01,145.88L1.11,145.88L1.31,145.88L1.41,147.85L1.91,147.85L2.01,154.37L2.31,154.37L2.41,165.62L2.92,165.62L3.02,176.08L3.92,188.07L4.02,188.07L5.23,188.07L5.33,197.04L13.68,197.04L13.78,201.18L17.71,201.18L17.81,219.62L28.58,219.62L28.68,222.84L30.59,222.84L30.69,225.43L43.57,225.43L43.67,231.28L92.27,231.86L92.37,240L313.03,240L313.13,270.45L503,270.45" style="vector-effect: none; fill: none; stroke: rgb(0, 0, 255); stroke-opacity: 1; stroke-width: 2px; opacity: 1;"/></g><g class="points"/><g class="text"/></g><g class="trace scatter trace048dab" style="stroke-miterlimit: 2; opacity: 0.05;"><g class="fills"/><g class="errorbars"/><g class="lines"><path class="js-line" d="M0,16L0.91,143.19L1.01,152.71L1.31,152.71L1.41,165.05L2.31,166.34L2.41,166.34L3.02,166.34L3.12,183.8L6.44,183.8L6.54,192.37L7.45,195.26L7.55,195.26L11.87,195.26L11.97,197.13L12.58,197.13L12.68,208.25L14.19,208.25L14.29,210.68L16.2,210.68L16.3,213.46L37.53,213.46L37.63,223.26L54.23,223.26L54.33,224.72L55.54,224.72L55.64,229.76L77.08,229.76L77.18,251.18L144.49,251.18L144.59,260.91L254.97,260.91L255.07,265.4L297.13,265.4L297.23,267L503,267" style="vector-effect: none; fill: none; stroke: rgb(0, 0, 255); stroke-opacity: 1; stroke-width: 2px; opacity: 1;"/></g><g class="points"/><g class="text"/></g><g class="trace scatter tracec9d510" style="stroke-miterlimit: 2; opacity: 0.05;"><g class="fills"/><g class="errorbars"/><g class="lines"><path class="js-line" d="M0,71.62L1.21,171.73L1.31,171.73L1.61,171.73L1.71,204.13L9.56,204.13L9.66,236.89L54.94,236.89L55.04,253.77L192.59,253.77L192.69,260.52L503,260.52" style="vector-effect: none; fill: none; stroke: rgb(0, 0, 255); stroke-opacity: 1; stroke-width: 2px; opacity: 1;"/></g><g class="points"/><g class="text"/></g><g class="trace scatter trace3cafc5" style="stroke-miterlimit: 2; opacity: 0.05;"><g class="fills"/><g class="errorbars"/><g class="lines"><path class="js-line" d="M0,39.27L1.21,129.92L1.31,129.92L2.21,176.45L2.31,176.45L3.12,179.71L3.22,179.71L5.03,179.71L5.13,194.79L6.14,194.79L6.24,227.07L12.38,227.07L12.48,240.64L91.97,240.64L92.07,249.08L347.64,249.08L347.74,270.61L448.46,270.61L448.56,272.78L503,272.78" style="vector-effect: none; fill: none; stroke: rgb(0, 0, 255); stroke-opacity: 1; stroke-width: 2px; opacity: 1;"/></g><g class="points"/><g class="text"/></g><g class="trace scatter trace6fdedc" style="stroke-miterlimit: 2; opacity: 0.05;"><g class="fills"/><g class="errorbars"/><g class="lines"><path class="js-line" d="M0,112.05L0.2,112.05L0.3,113.04L2.11,232.72L2.21,232.72L31.19,232.72L31.29,235.81L40.25,235.81L40.35,245.57L207.98,245.57L208.08,264.56L331.34,264.56L331.44,273.91L503,273.91" style="vector-effect: none; fill: none; stroke: rgb(0, 0, 255); stroke-opacity: 1; stroke-width: 2px; opacity: 1;"/></g><g class="points"/><g class="text"/></g><g class="trace scatter traced0cf9f" style="stroke-miterlimit: 2; opacity: 0.05;"><g class="fills"/><g class="errorbars"/><g class="lines"><path class="js-line" d="M0,53.91L1.21,109.46L1.31,109.46L2.21,136.99L2.31,143.73L3.22,205.79L3.32,205.79L11.57,205.79L11.67,207.33L12.88,207.33L12.98,217.62L13.78,217.62L13.89,248.69L116.12,248.69L116.22,250.87L302.26,250.87L302.36,251.78L397.35,251.78L397.45,265.73L503,265.73" style="vector-effect: none; fill: none; stroke: rgb(0, 0, 255); stroke-opacity: 1; stroke-width: 2px; opacity: 1;"/></g><g class="points"/><g class="text"/></g><g class="trace scatter trace26cafa" style="stroke-miterlimit: 2; opacity: 0.05;"><g class="fills"/><g class="errorbars"/><g class="lines"><path class="js-line" d="M0,79.75L0.3,80.15L0.4,100.06L2.01,177.81L2.11,177.81L3.62,177.81L3.72,181.65L4.23,181.65L4.33,194.3L5.74,194.3L5.84,211.8L6.74,211.8L6.84,227.77L30.29,227.77L30.39,246.6L125.47,247.33L125.57,275.51L503,275.51" style="vector-effect: none; fill: none; stroke: rgb(0, 0, 255); stroke-opacity: 1; stroke-width: 2px; opacity: 1;"/></g><g class="points"/><g class="text"/></g><g class="trace scatter trace49d8cb" style="stroke-miterlimit: 2; opacity: 0.05;"><g class="fills"/><g class="errorbars"/><g class="lines"><path class="js-line" d="M0,107.98L0.3,143.17L0.4,169.27L1.41,211.92L1.51,211.92L21.83,211.92L21.94,214.72L28.68,214.72L28.78,217.76L30.39,217.76L30.49,227L102.73,227L102.83,243.27L311.22,243.27L311.32,250.94L493.54,250.94L493.64,258.04L503,258.04" style="vector-effect: none; fill: none; stroke: rgb(0, 0, 255); stroke-opacity: 1; stroke-width: 2px; opacity: 1;"/></g><g class="points"/><g class="text"/></g><g class="trace scatter traceb1a046" style="stroke-miterlimit: 2; opacity: 1;"><g class="fills"/><g class="errorbars"/><g class="lines"><path class="js-line" d="M0,42.8L1.51,196.58L1.61,196.58L3.22,196.58L3.32,201.79L16.8,201.79L16.9,205.09L17.91,205.09L18.01,205.92L19.02,205.92L19.12,209.46L28.37,209.46L28.48,214.71L33.91,214.71L34.01,216.12L87.44,216.12L87.54,217.92L106.05,217.92L106.15,222.13L123.36,222.13L123.46,224.25L150.63,224.25L150.73,233.13L162,233.13L162.1,234.62L173.57,234.62L173.67,238.82L199.93,238.82L200.03,239.66L244.51,239.66L244.61,241.44L283.65,241.44L283.75,304L503,304" style="vector-effect: none; fill: none; stroke: rgb(255, 0, 0); stroke-opacity: 1; stroke-width: 2px; opacity: 1;"/></g><g class="points"/><g class="text"/></g><g class="trace scatter tracefb20eb" style="stroke-miterlimit: 2; opacity: 0.05;"><g class="fills"/><g class="errorbars"/><g class="lines"><path class="js-line" d="M0,63.37L1.21,176.35L1.31,176.35L2.11,220.86L2.21,220.86L9.56,220.86L9.66,222.56L11.87,222.56L11.97,230.37L36.93,230.37L37.03,246.99L244.31,246.99L244.41,253.55L503,254.14" style="vector-effect: none; fill: none; stroke: rgb(0, 0, 255); stroke-opacity: 1; stroke-width: 2px; opacity: 1;"/></g><g class="points"/><g class="text"/></g><g class="trace scatter trace933e41" style="stroke-miterlimit: 2; opacity: 0.05;"><g class="fills"/><g class="errorbars"/><g class="lines"><path class="js-line" d="M0,19.27L1.01,156.97L1.11,156.97L2.01,163.68L2.11,163.68L2.92,172.77L3.02,172.77L4.13,222.19L4.23,222.19L31.39,222.19L31.49,233.02L39.74,233.02L39.85,260.93L322.99,260.93L323.09,265.3L503,265.3" style="vector-effect: none; fill: none; stroke: rgb(0, 0, 255); stroke-opacity: 1; stroke-width: 2px; opacity: 1;"/></g><g class="points"/><g class="text"/></g><g class="trace scatter trace1fe683" style="stroke-miterlimit: 2; opacity: 0.05;"><g class="fills"/><g class="errorbars"/><g class="lines"><path class="js-line" d="M0,70.75L1.01,169.27L1.11,210.41L39.44,210.41L39.54,235.8L63.09,235.8L63.19,259.16L352.98,259.16L353.08,264.17L503,264.17" style="vector-effect: none; fill: none; stroke: rgb(0, 0, 255); stroke-opacity: 1; stroke-width: 2px; opacity: 1;"/></g><g class="points"/><g class="text"/></g><g class="trace scatter tracef26d19" style="stroke-miterlimit: 2; opacity: 0.05;"><g class="fills"/><g class="errorbars"/><g class="lines"><path class="js-line" d="M0,49.84L1.21,192.11L1.31,192.11L5.33,192.11L5.43,192.88L9.46,192.88L9.56,207.4L10.87,207.4L10.97,209.8L18.72,209.8L18.82,216.05L19.42,216.05L19.52,224.77L88.95,224.77L89.05,234.73L132.62,234.73L132.72,236.24L180.41,236.24L180.51,241.14L372.7,241.14L372.8,251.21L503,251.21" style="vector-effect: none; fill: none; stroke: rgb(0, 0, 255); stroke-opacity: 1; stroke-width: 2px; opacity: 1;"/></g><g class="points"/><g class="text"/></g><g class="trace scatter trace4c78d8" style="stroke-miterlimit: 2; opacity: 0.05;"><g class="fills"/><g class="errorbars"/><g class="lines"><path class="js-line" d="M0,85.11L1.81,253.64L1.91,253.64L60.17,253.64L60.27,285.61L503,285.61" style="vector-effect: none; fill: none; stroke: rgb(0, 0, 255); stroke-opacity: 1; stroke-width: 2px; opacity: 1;"/></g><g class="points"/><g class="text"/></g><g class="trace scatter tracea607d7" style="stroke-miterlimit: 2; opacity: 0.05;"><g class="fills"/><g class="errorbars"/><g class="lines"><path class="js-line" d="M0,71.59L0.1,73.25L0.2,121.5L0.4,121.5L0.5,126.84L1.31,148.55L1.41,184.88L2.31,192.86L2.41,192.86L4.33,193.57L4.43,238.67L87.14,238.67L87.24,250.27L149.42,250.27L149.52,261.84L190.17,261.84L190.27,274.52L503,274.52" style="vector-effect: none; fill: none; stroke: rgb(0, 0, 255); stroke-opacity: 1; stroke-width: 2px; opacity: 1;"/></g><g class="points"/><g class="text"/></g><g class="trace scatter trace0825c4" style="stroke-miterlimit: 2; opacity: 0.05;"><g class="fills"/><g class="errorbars"/><g class="lines"><path class="js-line" d="M0,41.62L1.01,139.4L1.11,139.4L2.21,139.4L2.31,149.68L2.52,149.68L2.62,160.54L3.02,160.54L3.12,170.11L5.53,170.13L5.63,222.68L17.61,222.68L17.71,227.36L35.52,227.36L35.62,277.52L503,277.52" style="vector-effect: none; fill: none; stroke: rgb(0, 0, 255); stroke-opacity: 1; stroke-width: 2px; opacity: 1;"/></g><g class="points"/><g class="text"/></g><g class="trace scatter tracefda849" style="stroke-miterlimit: 2; opacity: 0.05;"><g class="fills"/><g class="errorbars"/><g class="lines"><path class="js-line" d="M0,55L1.01,146.32L1.11,146.32L1.41,146.32L1.51,155.95L2.31,199.97L2.41,199.97L10.97,199.97L11.07,245.44L100.72,245.44L100.82,249.01L298.44,249.01L298.54,250.9L387.99,250.9L388.09,252.28L456.82,252.28L456.92,254.52L503,254.52" style="vector-effect: none; fill: none; stroke: rgb(0, 0, 255); stroke-opacity: 1; stroke-width: 2px; opacity: 1;"/></g><g class="points"/><g class="text"/></g><g class="trace scatter trace4bf39c" style="stroke-miterlimit: 2; opacity: 0.05;"><g class="fills"/><g class="errorbars"/><g class="lines"><path class="js-line" d="M0,48.44L1.41,175.95L1.51,175.95L2.72,187.9L2.82,187.9L5.53,187.9L5.63,196.13L7.24,196.13L7.35,247.04L20.73,247.04L20.83,253.26L24.65,253.26L24.75,276.9L503,276.9" style="vector-effect: none; fill: none; stroke: rgb(0, 0, 255); stroke-opacity: 1; stroke-width: 2px; opacity: 1;"/></g><g class="points"/><g class="text"/></g><g class="trace scatter traceacb38b" style="stroke-miterlimit: 2; opacity: 0.05;"><g class="fills"/><g class="errorbars"/><g class="lines"><path class="js-line" d="M0,80.19L0.3,116.45L0.4,157.66L0.6,157.66L0.7,175.74L2.41,175.74L2.52,221.05L2.72,221.05L2.82,226.66L101.73,226.66L101.83,249.46L154.45,249.46L154.55,251.82L255.37,251.82L255.47,281.22L477.64,281.22L477.74,288.66L503,288.66" style="vector-effect: none; fill: none; stroke: rgb(0, 0, 255); stroke-opacity: 1; stroke-width: 2px; opacity: 1;"/></g><g class="points"/><g class="text"/></g><g class="trace scatter trace655b85" style="stroke-miterlimit: 2; opacity: 0.05;"><g class="fills"/><g class="errorbars"/><g class="lines"><path class="js-line" d="M0,66.54L1.01,163.92L1.11,163.92L1.61,163.92L1.71,167.02L2.41,167.02L2.52,184.57L3.32,184.57L3.42,186.06L5.84,186.06L5.94,245.87L180.61,245.87L180.71,262.33L331.95,262.33L332.05,275.82L503,275.82" style="vector-effect: none; fill: none; stroke: rgb(0, 0, 255); stroke-opacity: 1; stroke-width: 2px; opacity: 1;"/></g><g class="points"/><g class="text"/></g><g class="trace scatter trace916399" style="stroke-miterlimit: 2; opacity: 0.05;"><g class="fills"/><g class="errorbars"/><g class="lines"><path class="js-line" d="M0,32.63L1.31,147.86L1.41,147.86L1.51,149.83L1.61,173.37L2.01,173.37L2.11,191.41L2.31,191.41L2.41,196.71L6.24,196.71L6.34,197.95L7.24,197.95L7.35,199.51L10.26,199.51L10.36,205.37L13.08,205.37L13.18,227.2L60.07,227.75L60.17,239.37L128.39,239.37L128.49,267.38L503,267.38" style="vector-effect: none; fill: none; stroke: rgb(0, 0, 255); stroke-opacity: 1; stroke-width: 2px; opacity: 1;"/></g><g class="points"/><g class="text"/></g><g class="trace scatter traceed17d0" style="stroke-miterlimit: 2; opacity: 0.05;"><g class="fills"/><g class="errorbars"/><g class="lines"><path class="js-line" d="M0,95.16L1.01,138.95L1.11,138.95L2.01,164.54L2.11,164.54L3.12,214.79L3.22,214.79L10.77,215.51L10.87,219.43L11.77,219.43L11.87,221.83L19.52,221.83L19.62,259.97L381.45,259.97L381.55,267.05L503,267.05" style="vector-effect: none; fill: none; stroke: rgb(0, 0, 255); stroke-opacity: 1; stroke-width: 2px; opacity: 1;"/></g><g class="points"/><g class="text"/></g><g class="trace scatter trace19fe4c" style="stroke-miterlimit: 2; opacity: 0.05;"><g class="fills"/><g class="errorbars"/><g class="lines"><path class="js-line" d="M0,62L0.8,165.08L0.91,165.08L2.82,165.08L2.92,173.15L3.92,173.15L4.02,185.45L4.73,185.45L4.83,210.62L5.03,210.62L5.13,219.57L27.27,219.57L27.37,224.59L42.66,224.59L42.76,226.1L49.61,226.1L49.71,238.43L59.27,238.43L59.37,268L503,268" style="vector-effect: none; fill: none; stroke: rgb(0, 0, 255); stroke-opacity: 1; stroke-width: 2px; opacity: 1;"/></g><g class="points"/><g class="text"/></g><g class="trace scatter traced103b0" style="stroke-miterlimit: 2; opacity: 0.05;"><g class="fills"/><g class="errorbars"/><g class="lines"><path class="js-line" d="M0,74.34L1.01,138.57L1.11,146.95L1.61,146.95L1.71,165.44L2.52,181.07L2.62,181.07L4.13,181.07L4.23,182.5L5.03,216.69L5.13,216.69L9.46,216.69L9.56,219.23L12.38,219.23L12.48,220.7L17.91,220.7L18.01,227.7L36.53,227.7L36.63,236.12L54.64,236.12L54.74,244.46L248.83,244.46L248.93,253.02L503,253.02" style="vector-effect: none; fill: none; stroke: rgb(0, 0, 255); stroke-opacity: 1; stroke-width: 2px; opacity: 1;"/></g><g class="points"/><g class="text"/></g><g class="trace scatter trace4747d3" style="stroke-miterlimit: 2; opacity: 0.05;"><g class="fills"/><g class="errorbars"/><g class="lines"><path class="js-line" d="M0,99.3L0.3,99.3L0.4,131.65L0.6,132.52L0.7,141.12L1.81,181.66L1.91,181.66L3.92,181.66L4.02,197.45L4.23,197.45L4.33,211.16L20.02,211.16L20.12,230.9L72.45,230.9L72.55,231.83L106.86,231.83L106.96,237.48L131.81,237.48L131.91,248.29L140.16,248.29L140.26,250.1L269.06,250.1L269.16,259.26L503,259.26" style="vector-effect: none; fill: none; stroke: rgb(0, 0, 255); stroke-opacity: 1; stroke-width: 2px; opacity: 1;"/></g><g class="points"/><g class="text"/></g><g class="trace scatter trace2d6dd7" style="stroke-miterlimit: 2; opacity: 0.05;"><g class="fills"/><g class="errorbars"/><g class="lines"><path class="js-line" d="M0,61.44L1.01,150.95L1.11,150.95L2.21,150.95L2.31,201.32L3.92,201.32L4.02,220.44L9.46,220.44L9.56,224.46L70.13,224.46L70.23,228.53L100.32,228.53L100.42,230.11L113.2,230.11L113.3,254.64L142.58,254.64L142.68,272.76L317.26,272.76L317.36,295.14L503,295.14" style="vector-effect: none; fill: none; stroke: rgb(0, 0, 255); stroke-opacity: 1; stroke-width: 2px; opacity: 1;"/></g><g class="points"/><g class="text"/></g></g></g><g class="overplot"/><path class="xlines-above crisp" d="M0,0" style="fill: none;"/><path class="ylines-above crisp" d="M0,0" style="fill: none;"/><g class="overlines-above"/><g class="xaxislayer-above"><g class="xtick"><text text-anchor="middle" x="0" y="433" transform="translate(80,0)" style="font-family: 'Open Sans', verdana, arial, sans-serif; font-size: 12px; fill: rgb(42, 63, 95); fill-opacity: 1; white-space: pre; opacity: 1;">0</text></g><g class="xtick"><text text-anchor="middle" x="0" y="433" style="font-family: 'Open Sans', verdana, arial, sans-serif; font-size: 12px; fill: rgb(42, 63, 95); fill-opacity: 1; white-space: pre; opacity: 1;" transform="translate(180.62,0)">1000</text></g><g class="xtick"><text text-anchor="middle" x="0" y="433" style="font-family: 'Open Sans', verdana, arial, sans-serif; font-size: 12px; fill: rgb(42, 63, 95); fill-opacity: 1; white-space: pre; opacity: 1;" transform="translate(281.24,0)">2000</text></g><g class="xtick"><text text-anchor="middle" x="0" y="433" style="font-family: 'Open Sans', verdana, arial, sans-serif; font-size: 12px; fill: rgb(42, 63, 95); fill-opacity: 1; white-space: pre; opacity: 1;" transform="translate(381.86,0)">3000</text></g><g class="xtick"><text text-anchor="middle" x="0" y="433" style="font-family: 'Open Sans', verdana, arial, sans-serif; font-size: 12px; fill: rgb(42, 63, 95); fill-opacity: 1; white-space: pre; opacity: 1;" transform="translate(482.48,0)">4000</text></g></g><g class="yaxislayer-above"><g class="ytick"><text text-anchor="end" x="79" y="3.15" transform="translate(0,398.06)" style="font-family: 'Open Sans', verdana, arial, sans-serif; font-size: 9px; fill: rgb(42, 63, 95); fill-opacity: 1; white-space: pre; opacity: 1;">2</text></g><g class="ytick"><text text-anchor="end" x="79" y="3.15" style="font-family: 'Open Sans', verdana, arial, sans-serif; font-size: 9px; fill: rgb(42, 63, 95); fill-opacity: 1; white-space: pre; opacity: 1;" transform="translate(0,360.54)">5</text></g><g class="ytick"><text text-anchor="end" x="79" y="4.199999999999999" style="font-family: 'Open Sans', verdana, arial, sans-serif; font-size: 12px; fill: rgb(42, 63, 95); fill-opacity: 1; white-space: pre; opacity: 1;" transform="translate(0,332.15999999999997)">0.1</text></g><g class="ytick"><text text-anchor="end" x="79" y="3.15" style="font-family: 'Open Sans', verdana, arial, sans-serif; font-size: 9px; fill: rgb(42, 63, 95); fill-opacity: 1; white-space: pre; opacity: 1;" transform="translate(0,303.78)">2</text></g><g class="ytick"><text text-anchor="end" x="79" y="3.15" style="font-family: 'Open Sans', verdana, arial, sans-serif; font-size: 9px; fill: rgb(42, 63, 95); fill-opacity: 1; white-space: pre; opacity: 1;" transform="translate(0,266.27)">5</text></g><g class="ytick"><text text-anchor="end" x="79" y="4.199999999999999" style="font-family: 'Open Sans', verdana, arial, sans-serif; font-size: 12px; fill: rgb(42, 63, 95); fill-opacity: 1; white-space: pre; opacity: 1;" transform="translate(0,237.89)">1</text></g><g class="ytick"><text text-anchor="end" x="79" y="3.15" style="font-family: 'Open Sans', verdana, arial, sans-serif; font-size: 9px; fill: rgb(42, 63, 95); fill-opacity: 1; white-space: pre; opacity: 1;" transform="translate(0,209.5)">2</text></g><g class="ytick"><text text-anchor="end" x="79" y="3.15" style="font-family: 'Open Sans', verdana, arial, sans-serif; font-size: 9px; fill: rgb(42, 63, 95); fill-opacity: 1; white-space: pre; opacity: 1;" transform="translate(0,171.99)">5</text></g><g class="ytick"><text text-anchor="end" x="79" y="4.199999999999999" style="font-family: 'Open Sans', verdana, arial, sans-serif; font-size: 12px; fill: rgb(42, 63, 95); fill-opacity: 1; white-space: pre; opacity: 1;" transform="translate(0,143.61)">10</text></g><g class="ytick"><text text-anchor="end" x="79" y="3.15" style="font-family: 'Open Sans', verdana, arial, sans-serif; font-size: 9px; fill: rgb(42, 63, 95); fill-opacity: 1; white-space: pre; opacity: 1;" transform="translate(0,115.23)">2</text></g></g><g class="overaxes-above"/></g></g><g class="polarlayer"/><g class="smithlayer"/><g class="ternarylayer"/><g class="geolayer"/><g class="funnelarealayer"/><g class="pielayer"/><g class="iciclelayer"/><g class="treemaplayer"/><g class="sunburstlayer"/><g class="glimages"/><defs id="topdefs-0e0bf7"><g class="clips"/><clipPath id="legend0e0bf7"><rect width="95" height="29" x="0" y="0"/></clipPath></defs><g class="layer-above"><g class="imagelayer"/><g class="shapelayer"/></g><g class="infolayer"><g class="legend" pointer-events="all" transform="translate(593.0600000000001,100)"><rect class="bg" shape-rendering="crispEdges" width="95" height="29" x="0" y="0" style="stroke: rgb(68, 68, 68); stroke-opacity: 1; fill: rgb(255, 255, 255); fill-opacity: 1; stroke-width: 0px;"/><g class="scrollbox" transform="" clip-path="url(#legend0e0bf7)"><g class="groups"><g class="traces" transform="translate(0,14.5)" style="opacity: 1;"><text class="legendtext" text-anchor="start" x="40" y="4.680000000000001" style="font-family: 'Open Sans', verdana, arial, sans-serif; font-size: 12px; fill: rgb(42, 63, 95); fill-opacity: 1; white-space: pre;">Best Run</text><g class="layers" style="opacity: 1;"><g class="legendfill"/><g class="legendlines"><path class="js-line" d="M5,0h30" style="fill: none; stroke: rgb(255, 0, 0); stroke-opacity: 1; stroke-width: 2px;"/></g><g class="legendsymbols"><g class="legendpoints"/></g></g><rect class="legendtoggle" x="0" y="-9.5" width="89.359375" height="19" style="fill: rgb(0, 0, 0); fill-opacity: 0;"/></g></g></g><rect class="scrollbar" rx="20" ry="3" width="0" height="0" x="0" y="0" style="fill: rgb(128, 139, 164); fill-opacity: 1;"/></g><g class="g-gtitle"><text class="gtitle" x="35" y="50" text-anchor="start" dy="0em" style="font-family: 'Open Sans', verdana, arial, sans-serif; font-size: 17px; fill: rgb(42, 63, 95); opacity: 1; white-space: pre;">Fitness history | ES - P2</text></g><g class="g-xtitle"><text class="xtitle" x="331.5" y="460.3" text-anchor="middle" style="font-family: 'Open Sans', verdana, arial, sans-serif; font-size: 14px; fill: rgb(42, 63, 95); opacity: 1; white-space: pre;">Generation</text></g><g class="g-ytitle"><text class="ytitle" transform="rotate(-90,42.9125,260)" x="42.9125" y="260" text-anchor="middle" style="font-family: 'Open Sans', verdana, arial, sans-serif; font-size: 14px; fill: rgb(42, 63, 95); opacity: 1; white-space: pre;">Fitness (log scale)</text></g></g></svg>