<svg class="main-svg" xmlns="http://www.w3.org/2000/svg" xmlns:xlink="http://www.w3.org/1999/xlink" width="700" height="500" style="" viewBox="0 0 700 500"><rect x="0" y="0" width="700" height="500" style="fill: rgb(255, 255, 255); fill-opacity: 1;"/><defs id="defs-3882c1"><g class="clips"><clipPath id="clip3882c1xyplot" class="plotclip"><rect width="499" height="320"/></clipPath><clipPath class="axesclip" id="clip3882c1x"><rect x="80" y="0" width="499" height="500"/></clipPath><clipPath class="axesclip" id="clip3882c1y"><rect x="0" y="100" width="700" height="320"/></clipPath><clipPath class="axesclip" id="clip3882c1xy"><rect x="80" y="100" width="499" height="320"/></clipPath></g><g class="gradients"/><g class="patterns"/></defs><g class="bglayer"><rect class="bg" x="80" y="100" width="499" height="320" style="fill: rgb(229, 236, 246); fill-opacity: 1; stroke-width: 0;"/></g><g class="layer-below"><g class="imagelayer"/><g class="shapelayer"/></g><g class="cartesianlayer"><g class="subplot xy"><g class="layer-subplot"><g class="shapelayer"/><g class="imagelayer"/></g><g class="minor-gridlayer"><g class="x"/><g class="y"/></g><g class="gridlayer"><g class="x"><path class="xgrid crisp" transform="translate(179.9,0)" d="M0,100v320" style="stroke: rgb(255, 255, 255); stroke-opacity: 1; stroke-width: 1px;"/><path class="xgrid crisp" transform="translate(279.8,0)" d="M0,100v320" style="stroke: rgb(255, 255, 255); stroke-opacity: 1; stroke-width: 1px;"/><path class="xgrid crisp" transform="translate(379.7,0)" d="M0,100v320" style="stroke: rgb(255, 255, 255); stroke-opacity: 1; stroke-width: 1px;"/><path class="xgrid crisp" transform="translate(479.6,0)" d="M0,100v320" style="stroke: rgb(255, 255, 255); stroke-opacity: 1; stroke-width: 1px;"/></g><g class="y"><path class="ygrid crisp" transform="translate(0,405.6)" d="M80,0h499" style="stroke: rgb(255, 255, 255); stroke-opacity: 1; stroke-width: 1px;"/><path class="ygrid crisp" transform="translate(0,378.62)" d="M80,0h499" style="stroke: rgb(255, 255, 255); stroke-opacity: 1; stroke-width: 1px;"/><path class="ygrid crisp" transform="translate(0,358.21)" d="M80,0h499" style="stroke: rgb(255, 255, 255); stroke-opacity: 1; stroke-width: 1px;"/><path class="ygrid crisp" transform="translate(0,337.8)" d="M80,0h499" style="stroke: rgb(255, 255, 255); stroke-opacity: 1; stroke-width: 1px;"/><path class="ygrid crisp" transform="translate(0,310.81)" d="M80,0h499" style="stroke: rgb(255, 255, 255); stroke-opacity: 1; stroke-width: 1px;"/><path class="ygrid crisp" transform="translate(0,290.4)" d="M80,0h499" style="stroke: rgb(255, 255, 255); stroke-opacity: 1; stroke-width: 1px;"/><path class="ygrid crisp" transform="translate(0,269.99)" d="M80,0h499" style="stroke: rgb(255, 255, 255); stroke-opacity: 1; stroke-width: 1px;"/><path class="ygrid crisp" transform="translate(0,243.01)" d="M80,0h499" style="stroke: rgb(255, 255, 255); stroke-opacity: 1; stroke-width: 1px;"/><path class="ygrid crisp" transform="translate(0,222.59)" d="M80,0h499" style="stroke: rgb(255, 255, 255); stroke-opacity: 1; stroke-width: 1px;"/><path class="ygrid crisp" transform="translate(0,202.18)" d="M80,0h499" style="stroke: rgb(255, 255, 255); stroke-opacity: 1; stroke-width: 1px;"/><path class="ygrid crisp" transform="translate(0,175.2)" d="M80,0h499" style="stroke: rgb(255, 255, 255); stroke-opacity: 1; stroke-width: 1px;"/><path class="ygrid crisp" transform="translate(0,154.79)" d="M80,0h499" style="stroke: rgb(255, 255, 255); stroke-opacity: 1; stroke-width: 1px;"/><path class="ygrid crisp" transform="translate(0,134.38)" d="M80,0h499" style="stroke: rgb(255, 255, 255); stroke-opacity: 1; stroke-width: 1px;"/><path class="ygrid crisp" transform="translate(0,107.39)" d="M80,0h499" style="stroke: rgb(255, 255, 255); stroke-opacity: 1; stroke-width: 1px;"/></g></g><g class="zerolinelayer"><path class="xzl zl crisp" transform="translate(80,0)" d="M0,100v320" style="stroke: rgb(255, 255, 255); stroke-opacity: 1; stroke-width: 2px;"/></g><path class="xlines-below"/><path class="ylines-below"/><g class="overlines-below"/><g class="xaxislayer-below"/><g class="yaxislayer-below"/><g class="overaxes-below"/><g class="plot" transform="translate(80,100)" clip-path="url(#clip3882c1xyplot)"><g class="scatterlayer mlayer"><g class="trace scatter trace2fe6ba" style="stroke-miterlimit: 2; opacity: 0.05;"><g class="fills"/><g class="errorbars"/><g class="lines"><path class="js-line" d="M0,68.58L1.5,93.02L2,93.02L25.97,93.02L26.47,94.26L27.97,94.95L28.47,95.02L72.43,95.2L72.93,95.88L86.91,95.88L87.41,105.62L111.89,105.62L112.39,106.46L113.89,107.8L114.39,107.8L133.87,108.52L134.37,110.16L148.35,110.46L148.85,111.49L164.83,111.95L165.33,112.25L168.83,112.26L169.33,119.72L186.81,120.07L187.31,120.58L188.81,121.09L189.31,121.09L204.79,121.09L205.29,124.23L205.79,124.23L206.29,130.33L260.74,130.33L261.24,143.47L276.72,143.47L277.22,154.6L278.22,159.51L278.72,159.51L279.72,160.42L280.22,160.42L282.22,160.77L282.72,171.96L283.72,182.35L284.22,182.35L304.69,182.35L305.19,183.89L322.68,184.51L323.18,185.51L349.15,185.86L349.65,187.68L350.65,189.45L351.15,189.45L360.14,189.45L360.64,190.71L368.13,190.71L368.63,192.65L372.13,192.65L372.63,202.1L375.62,202.1L376.12,205.11L387.11,205.11L387.61,206.75L400.1,206.75L400.6,207.56L418.08,207.62L418.58,209.4L439.06,209.41L439.56,214.17L441.56,214.5L442.06,215.27L458.04,215.27L458.54,217.62L459.04,217.62L459.54,220.21L499,220.21" style="vector-effect: none; fill: none; stroke: rgb(0, 0, 255); stroke-opacity: 1; stroke-width: 2px; opacity: 1;"/></g><g class="points"/><g class="text"/></g><g class="trace scatter trace9b9b85" style="stroke-miterlimit: 2; opacity: 0.05;"><g class="fills"/><g class="errorbars"/><g class="lines"><path class="js-line" d="M0,25.63L1.5,46.23L2,47.92L4.99,47.92L5.49,56.36L6.49,56.36L6.99,65.72L11.49,65.72L11.99,74.33L14.98,74.33L15.48,86.12L18.48,86.12L18.98,91.57L21.48,91.57L21.98,107.02L26.47,107.02L26.97,112.11L29.47,112.11L29.97,112.99L30.97,124.58L31.47,124.58L40.46,124.58L40.96,125.75L42.46,126.32L42.96,128.57L45.45,128.57L45.95,133.24L57.94,133.32L58.44,136.38L60.94,136.38L61.44,141.35L62.94,141.35L63.44,143.34L63.94,143.34L64.44,148.75L64.93,148.75L65.43,149.88L65.93,150.12L66.43,168.08L76.92,168.59L77.42,171.37L78.42,173.63L78.92,173.63L87.91,173.81L88.41,176.7L93.91,176.72L94.41,180.02L126.37,180.38L126.87,185.45L133.87,185.45L134.37,192.2L145.85,192.23L146.35,209.82L153.85,210.51L154.35,213.35L155.34,218.37L155.84,218.37L161.84,218.37L162.34,219.84L200.3,220.03L200.8,220.73L219.28,220.74L219.78,223.09L220.78,223.09L221.28,234.53L222.28,237.03L222.78,237.03L279.72,237.41L280.22,244.87L281.22,246.24L281.72,246.24L363.14,246.99L363.64,247.48L399.6,247.48L400.1,262.45L463.04,262.62L463.54,264.19L499,264.19" style="vector-effect: none; fill: none; stroke: rgb(0, 0, 255); stroke-opacity: 1; stroke-width: 2px; opacity: 1;"/></g><g class="points"/><g class="text"/></g><g class="trace scatter tracec565b6" style="stroke-miterlimit: 2; opacity: 0.05;"><g class="fills"/><g class="errorbars"/><g class="lines"><path class="js-line" d="M0,78.19L0.5,78.19L1,89.25L2,89.25L2.5,90.04L3,90.04L3.5,90.81L4,90.81L4.5,95.38L11.99,95.38L12.49,100.09L15.48,100.09L15.98,100.94L17.98,100.94L18.48,108.95L38.46,109.4L38.96,109.93L39.96,109.93L40.46,110.7L42.46,112.19L42.96,113.47L46.45,113.47L46.95,129.47L55.44,129.47L55.94,143.3L68.93,143.45L69.43,144.91L69.93,144.91L70.43,145.67L72.93,145.67L73.43,162.63L75.92,162.63L76.42,166.31L86.41,166.31L86.91,178.56L92.91,178.9L93.41,181.53L106.39,181.53L106.89,184.08L107.89,184.08L108.39,185.85L109.39,187.1L109.89,187.1L114.39,187.26L114.88,190.66L127.37,190.66L127.87,192.16L131.87,192.2L132.37,193.97L138.86,193.97L139.36,195.35L140.86,195.76L141.36,195.76L146.35,196.37L146.85,197.02L147.35,197.02L147.85,198.82L160.34,198.82L160.84,201.27L161.34,201.69L161.84,206.89L183.82,206.89L184.32,208.19L185.81,208.83L186.31,208.83L211.29,209.22L211.79,215.26L219.78,215.26L220.28,216.06L233.77,216.24L234.27,217.74L261.74,217.74L262.24,223.06L263.24,227.23L263.74,227.23L277.72,227.23L278.22,244.8L357.14,245.26L357.64,249.07L499,249.34" style="vector-effect: none; fill: none; stroke: rgb(0, 0, 255); stroke-opacity: 1; stroke-width: 2px; opacity: 1;"/></g><g class="points"/><g class="text"/></g><g class="trace scatter tracea668f7" style="stroke-miterlimit: 2; opacity: 0.05;"><g class="fills"/><g class="errorbars"/><g class="lines"><path class="js-line" d="M0,123.67L1,128.09L1.5,128.18L2.5,130.49L3,130.49L5.49,130.76L5.99,132.16L7.99,132.16L8.49,141.31L16.48,141.32L16.98,150.12L21.48,150.52L21.98,152.47L22.48,152.47L22.98,162L23.48,162L23.98,164.45L25.97,164.45L26.47,170.45L29.47,170.7L29.97,172.11L32.97,172.11L33.47,193.71L34.96,193.71L35.46,205.91L36.96,207.82L37.46,207.82L48.45,207.82L48.95,260.41L160.84,260.41L161.34,263.33L286.21,263.33L286.71,267.24L287.71,269L288.21,269L309.69,269.07L310.19,270.41L311.69,284.93L312.19,284.93L499,285.31" style="vector-effect: none; fill: none; stroke: rgb(0, 0, 255); stroke-opacity: 1; stroke-width: 2px; opacity: 1;"/></g><g class="points"/><g class="text"/></g><g class="trace scatter traced10e91" style="stroke-miterlimit: 2; opacity: 0.05;"><g class="fills"/><g class="errorbars"/><g class="lines"><path class="js-line" d="M0,60.61L1.5,78.88L2,78.88L5.49,78.88L5.99,89.99L7.49,89.99L7.99,91.21L9.49,91.21L9.99,97.42L10.99,97.42L11.49,98.3L12.99,98.3L13.49,101.57L19.98,101.57L20.48,104.55L20.98,104.55L21.48,110.31L26.97,110.31L27.47,113.03L31.47,113.03L31.97,113.84L32.97,114.96L33.47,124.2L44.95,124.69L45.45,126.32L56.94,126.88L57.44,144.81L59.94,144.81L60.44,148.27L62.44,148.27L62.94,153.46L85.41,153.46L85.91,157.86L92.41,157.86L92.91,165.63L98.4,165.63L98.9,183.82L117.38,183.82L117.88,207.54L119.38,222.07L119.88,222.15L121.88,222.15L122.38,229.67L129.37,229.86L129.87,241.79L159.34,242.31L159.84,243.24L391.11,243.24L391.61,250.29L452.05,250.33L452.55,257.79L453.55,258.88L454.05,258.88L499,259.23" style="vector-effect: none; fill: none; stroke: rgb(0, 0, 255); stroke-opacity: 1; stroke-width: 2px; opacity: 1;"/></g><g class="points"/><g class="text"/></g><g class="trace scatter trace2fcddb" style="stroke-miterlimit: 2; opacity: 0.05;"><g class="fills"/><g class="errorbars"/><g class="lines"><path class="js-line" d="M0,99.21L1,115.82L1.5,115.82L2.5,121.98L3,121.98L4,122.11L4.5,130.25L5.99,130.25L6.49,140.7L11.49,140.7L11.99,147.48L15.98,147.48L16.48,157.44L17.48,157.44L17.98,162.03L18.98,166.91L19.48,166.91L30.97,166.91L31.47,214.89L37.46,214.89L37.96,216.37L58.94,216.48L59.44,220.86L59.94,220.86L60.44,224.8L144.85,224.8L145.35,228.97L148.85,229.38L149.35,236.01L150.35,244.29L150.85,244.34L196.3,244.45L196.8,246.71L197.3,246.71L197.8,247.73L329.17,248.27L329.67,269.86L499,269.93" style="vector-effect: none; fill: none; stroke: rgb(0, 0, 255); stroke-opacity: 1; stroke-width: 2px; opacity: 1;"/></g><g class="points"/><g class="text"/></g><g class="trace scatter trace1c745a" style="stroke-miterlimit: 2; opacity: 0.05;"><g class="fills"/><g class="errorbars"/><g class="lines"><path class="js-line" d="M0,78.97L1.5,83.6L2,85.03L3,86.7L3.5,86.7L4.5,86.7L4.99,88.91L10.49,89.5L10.99,89.74L30.97,89.74L31.47,94.4L41.96,94.4L42.46,95.4L47.45,95.4L47.95,98.47L68.43,98.47L68.93,101.66L70.43,101.66L70.93,103.13L89.91,103.14L90.41,104.04L103.9,104.39L104.4,105.37L125.37,105.88L125.87,106.75L150.85,106.75L151.35,112.14L152.35,113.08L152.85,113.08L162.84,113.08L163.34,116.6L173.83,117.28L174.33,117.67L176.82,117.86L177.32,117.86L193.31,117.86L193.81,130.53L236.26,130.54L236.76,141.39L257.24,141.5L257.74,152.35L285.21,152.77L285.71,154.11L286.71,156.58L287.21,156.58L329.17,157.12L329.67,162.44L339.66,162.44L340.16,195.01L362.14,195.01L362.64,196.63L363.64,198.43L364.14,198.43L388.11,198.74L388.61,201.7L403.6,201.7L404.1,202.89L405.09,214.38L405.59,214.38L431.07,214.65L431.57,217.99L450.05,217.99L450.55,221.46L484.51,221.8L485.01,222.38L486.51,222.87L487.01,222.9L499,222.92" style="vector-effect: none; fill: none; stroke: rgb(0, 0, 255); stroke-opacity: 1; stroke-width: 2px; opacity: 1;"/></g><g class="points"/><g class="text"/></g><g class="trace scatter tracee72120" style="stroke-miterlimit: 2; opacity: 0.05;"><g class="fills"/><g class="errorbars"/><g class="lines"><path class="js-line" d="M0,85.11L1,125.36L1.5,131.33L2.5,133.14L3,133.14L3.5,133.14L4,146.64L4.99,152.21L5.49,152.21L10.49,152.49L10.99,153.53L11.99,155.35L12.49,155.35L14.49,155.35L14.98,156.56L19.48,156.56L19.98,157.43L22.48,157.43L22.98,159.95L31.97,160.58L32.47,163.59L33.97,163.59L34.47,168.09L35.46,171.19L35.96,171.19L41.46,171.43L41.96,182.93L42.96,182.93L43.46,195.66L44.46,195.66L44.95,197.24L45.95,209.58L46.45,209.58L52.45,209.58L52.95,211.06L57.44,211.63L57.94,212.09L59.44,212.43L59.94,212.43L66.93,212.43L67.43,215.58L72.43,215.58L72.93,226.89L74.92,227.19L75.42,227.19L78.42,227.19L78.92,228.17L108.89,228.2L109.39,232.45L110.39,236.47L110.89,236.47L138.36,236.48L138.86,249.24L139.86,256.83L140.36,256.83L146.35,256.83L146.85,258.76L188.31,258.78L188.81,259.67L189.81,260.28L190.31,260.28L211.79,260.28L212.29,265.75L224.28,265.83L224.77,268.87L499,268.87" style="vector-effect: none; fill: none; stroke: rgb(0, 0, 255); stroke-opacity: 1; stroke-width: 2px; opacity: 1;"/></g><g class="points"/><g class="text"/></g><g class="trace scatter trace116a11" style="stroke-miterlimit: 2; opacity: 0.05;"><g class="fills"/><g class="errorbars"/><g class="lines"><path class="js-line" d="M0,71.55L1.5,102.79L2,102.79L2.5,102.79L3,105.74L10.99,106.32L11.49,106.84L13.49,106.84L13.99,111.33L14.98,111.33L15.48,112.32L17.48,112.83L17.98,114.33L22.48,114.67L22.98,117.21L24.97,117.65L25.47,118.76L27.47,118.76L27.97,123.35L33.97,123.35L34.47,126.41L34.96,126.41L35.46,129.46L38.46,129.59L38.96,129.59L41.96,130.31L42.46,136.58L45.95,137.29L46.45,147.34L52.45,147.34L52.95,153.49L55.94,153.49L56.44,154.55L57.44,154.7L57.94,165.8L62.44,165.8L62.94,169.15L74.43,169.15L74.92,171.44L75.92,172.6L76.42,172.6L97.4,173.09L97.9,173.9L100.4,173.9L100.9,176.7L104.89,176.7L105.39,187.47L114.39,188.11L114.88,188.6L116.38,190.31L116.88,193.41L117.88,195.74L118.38,195.74L118.88,195.74L119.38,202.93L136.36,203.18L136.86,204.96L137.86,206.96L138.36,206.96L138.86,206.96L139.36,212.87L158.34,212.87L158.84,213.72L167.33,213.97L167.83,219.89L168.83,222.34L169.33,222.34L185.31,222.75L185.81,223.32L190.31,223.32L190.81,224.84L195.3,225.33L195.8,227.04L226.27,227.04L226.77,228.66L227.77,231.27L228.27,231.34L236.26,231.34L236.76,235.62L238.26,243.8L238.76,243.98L242.76,244.3L243.26,244.3L269.23,244.3L269.73,250.81L272.23,251.93L272.73,251.93L314.19,251.93L314.68,253.81L315.68,255.25L316.18,255.25L383.62,255.25L384.12,269.51L499,269.67" style="vector-effect: none; fill: none; stroke: rgb(0, 0, 255); stroke-opacity: 1; stroke-width: 2px; opacity: 1;"/></g><g class="points"/><g class="text"/></g><g class="trace scatter traceff2ab9" style="stroke-miterlimit: 2; opacity: 0.05;"><g class="fills"/><g class="errorbars"/><g class="lines"><path class="js-line" d="M0,83.54L1,88.59L1.5,90.39L2.5,94.7L3,94.7L4,94.7L4.5,96.7L5.49,96.7L5.99,103.59L20.48,103.92L20.98,106.74L24.97,106.97L25.47,107.66L26.47,109.52L26.97,109.52L27.47,110.18L27.97,119.45L35.46,119.45L35.96,120.37L43.96,121.07L44.46,121.34L45.95,121.52L46.45,124.28L53.45,124.37L53.95,129.25L66.93,129.25L67.43,136.66L71.43,136.66L71.93,139.14L73.43,139.14L73.93,140.6L76.42,140.6L76.92,143.37L80.92,143.37L81.42,147.14L84.91,147.14L85.41,151.1L95.9,151.81L96.4,159.64L105.39,159.64L105.89,167.39L106.89,167.39L107.39,169.54L109.89,169.54L110.39,174.75L122.88,175.47L123.38,176.94L124.38,180.5L124.87,180.5L125.87,181.07L126.37,181.07L139.86,181.6L140.36,182.7L142.36,183.38L142.86,183.75L153.35,183.75L153.85,186.04L167.83,186.04L168.33,189.83L168.83,189.83L169.33,191.46L172.33,191.59L172.83,191.59L188.81,192.22L189.31,193.68L215.78,193.68L216.28,195.5L244.75,195.59L245.25,204.5L268.73,204.5L269.23,211.65L305.19,211.65L305.69,213.85L333.67,213.97L334.17,218.12L356.64,218.12L357.14,220.26L358.14,223.72L358.64,223.72L435.56,224.04L436.06,224.61L439.56,224.8L440.06,224.8L481.52,225.06L482.02,226.26L495,226.28L495.5,229.49L499,229.49" style="vector-effect: none; fill: none; stroke: rgb(0, 0, 255); stroke-opacity: 1; stroke-width: 2px; opacity: 1;"/></g><g class="points"/><g class="text"/></g><g class="trace scatter traceff6ee3" style="stroke-miterlimit: 2; opacity: 0.05;"><g class="fills"/><g class="errorbars"/><g class="lines"><path class="js-line" d="M0,87.5L0.5,87.5L1,95.1L2,95.1L2.5,95.95L11.49,96.68L11.99,97.42L48.45,97.89L48.95,98.38L53.45,98.47L53.95,98.47L72.93,98.6L73.43,99.27L84.42,99.43L84.91,99.43L98.9,100.13L99.4,101.42L126.37,101.42L126.87,103.21L129.87,103.35L130.37,103.35L135.86,103.35L136.36,104.93L156.84,105.82L157.34,105.82L240.26,106.53L240.76,109.55L262.24,109.55L262.74,115.31L320.68,115.43L321.18,117.18L335.16,117.92L335.66,118.69L353.15,119.03L353.65,120.44L354.64,120.44L355.14,124.59L365.63,124.72L366.13,127.08L407.59,127.59L408.09,136.71L426.07,136.74L426.57,138.63L427.57,138.63L428.07,140.46L457.04,141L457.54,141.78L499,142" style="vector-effect: none; fill: none; stroke: rgb(0, 0, 255); stroke-opacity: 1; stroke-width: 2px; opacity: 1;"/></g><g class="points"/><g class="text"/></g><g class="trace scatter trace74acf7" style="stroke-miterlimit: 2; opacity: 0.05;"><g class="fills"/><g class="errorbars"/><g class="lines"><path class="js-line" d="M0,16L2,73.89L2.5,73.89L4,73.89L4.5,96.76L5.99,96.76L6.49,98.29L7.99,106.72L8.49,106.72L16.98,106.72L17.48,111.26L17.98,111.26L18.48,118.14L23.48,118.14L23.98,121.64L31.97,121.64L32.47,128.44L32.97,128.44L33.47,134.39L34.47,134.53L34.96,135.85L36.96,135.85L37.46,147.12L42.96,147.81L43.46,148L43.96,148L44.46,161.71L45.45,161.71L45.95,163.86L46.45,163.86L46.95,164.8L47.95,164.8L48.45,173.23L52.95,173.23L53.45,175.92L55.44,176.17L55.94,176.17L71.93,176.88L72.43,177.07L83.92,177.07L84.42,182.02L110.89,182.23L111.39,182.99L112.39,186.47L112.89,186.47L113.89,186.47L114.39,187.32L115.38,187.32L115.88,188.41L123.38,188.74L123.88,189.98L124.38,190.36L124.87,196.88L136.86,196.88L137.36,202.83L139.86,202.83L140.36,210.44L144.85,210.72L145.35,213.6L158.34,214.09L158.84,221.15L173.33,221.52L173.83,231.46L176.32,231.46L176.82,233.54L216.28,233.54L216.78,236.31L260.74,236.43L261.24,243.08L262.24,246.4L262.74,246.4L266.73,246.5L267.23,246.5L443.06,246.5L443.56,247.53L471.03,247.54L471.53,253.7L472.03,253.7L472.53,259.39L499,259.39" style="vector-effect: none; fill: none; stroke: rgb(0, 0, 255); stroke-opacity: 1; stroke-width: 2px; opacity: 1;"/></g><g class="points"/><g class="text"/></g><g class="trace scatter traceaf176f" style="stroke-miterlimit: 2; opacity: 0.05;"><g class="fills"/><g class="errorbars"/><g class="lines"><path class="js-line" d="M0,134.64L1.5,134.64L2,156.82L7.99,156.82L8.49,169.99L8.99,169.99L9.49,177.87L25.47,177.87L25.97,179.28L26.97,179.31L27.47,183.23L29.97,183.48L30.47,196.94L72.43,196.94L72.93,197.71L78.42,197.71L78.92,201.15L158.84,201.74L159.34,213.11L160.34,213.69L160.84,213.69L164.83,214.2L165.33,216.63L166.33,217.33L166.83,217.33L181.82,217.33L182.32,234.7L234.76,234.7L235.26,241.96L236.26,244.45L236.76,245.07L499,245.47" style="vector-effect: none; fill: none; stroke: rgb(0, 0, 255); stroke-opacity: 1; stroke-width: 2px; opacity: 1;"/></g><g class="points"/><g class="text"/></g><g class="trace scatter trace10d39e" style="stroke-miterlimit: 2; opacity: 0.05;"><g class="fills"/><g class="errorbars"/><g class="lines"><path class="js-line" d="M0,16.84L1,89.86L1.5,91.69L3,94.33L3.5,94.33L7.49,94.46L7.99,94.46L20.98,94.46L21.48,99.86L37.96,99.86L38.46,101.99L40.46,102.25L40.96,102.25L52.95,102.25L53.45,104L65.93,104.52L66.43,105.38L105.39,105.85L105.89,106.38L139.86,106.5L140.36,107.24L145.85,107.43L146.35,107.43L166.83,107.82L167.33,108.49L176.32,108.54L176.82,109.32L198.3,109.9L198.8,110.19L199.8,111.65L200.3,111.65L213.29,112.26L213.79,112.72L222.28,112.72L222.78,113.6L261.24,114.14L261.74,121.76L294.21,121.76L294.7,125.81L311.69,125.81L312.19,127.87L327.67,128.61L328.17,128.7L329.67,129.15L330.17,129.15L345.65,129.49L346.15,129.99L349.15,130L349.65,132.13L355.64,132.46L356.14,133.31L367.63,133.31L368.13,134.18L379.62,134.62L380.12,137.01L390.61,137.22L391.11,137.22L413.59,137.22L414.09,138.52L419.08,138.54L419.58,142.46L436.56,142.66L437.06,143.57L439.56,143.62L440.06,147.19L451.55,147.34L452.05,155.65L453.05,155.65L453.55,157.99L462.54,158.42L463.04,158.9L477.52,158.9L478.02,160.75L479.52,161.55L480.02,161.55L487.51,161.55L488.01,162.85L490.01,162.85L490.51,164.33L499,164.33" style="vector-effect: none; fill: none; stroke: rgb(0, 0, 255); stroke-opacity: 1; stroke-width: 2px; opacity: 1;"/></g><g class="points"/><g class="text"/></g><g class="trace scatter trace673937" style="stroke-miterlimit: 2; opacity: 0.05;"><g class="fills"/><g class="errorbars"/><g class="lines"><path class="js-line" d="M0,57L1,70.16L1.5,70.16L2,70.16L2.5,78.58L3.5,78.8L4,82.5L4.99,84.38L5.49,85.11L13.99,85.11L14.49,87.26L16.98,87.26L17.48,89L22.98,89.53L23.48,90.58L41.46,90.83L41.96,92.79L46.95,92.79L47.45,93.8L52.45,93.8L52.95,95.04L54.45,95.44L54.94,95.44L55.44,95.44L55.94,97.99L59.94,97.99L60.44,100.66L79.92,100.66L80.42,101.55L80.92,101.55L81.42,102.46L83.42,102.46L83.92,104.82L92.91,105.45L93.41,105.58L100.9,105.85L101.4,109.01L108.89,109.01L109.39,119.89L121.38,120.54L121.88,122.51L123.38,122.9L123.88,122.9L124.87,138.77L125.37,138.77L125.87,138.77L126.37,156.92L133.87,156.92L134.37,164.21L135.86,165.76L136.36,165.76L137.86,187.41L138.36,187.41L147.35,187.41L147.85,200.21L157.34,200.21L157.84,203.18L169.33,203.18L169.83,206.2L173.83,206.31L174.33,212.79L175.32,212.79L175.82,217.37L177.82,218.45L178.32,218.45L182.32,218.45L182.82,226.93L315.68,227.48L316.18,237.73L408.09,238.19L408.59,238.85L420.58,238.85L421.08,249.63L491.51,249.87L492.01,252.52L493.01,253.56L493.51,253.56L499,253.56" style="vector-effect: none; fill: none; stroke: rgb(0, 0, 255); stroke-opacity: 1; stroke-width: 2px; opacity: 1;"/></g><g class="points"/><g class="text"/></g><g class="trace scatter trace5b7d50" style="stroke-miterlimit: 2; opacity: 0.05;"><g class="fills"/><g class="errorbars"/><g class="lines"><path class="js-line" d="M0,88.65L1,88.65L1.5,90.69L2.5,100.44L3,100.44L4.5,100.44L4.99,105.23L5.99,105.23L6.49,109.46L7.49,109.78L7.99,133.05L17.98,133.05L18.48,136.8L23.48,136.8L23.98,154.1L30.97,154.1L31.47,158.71L32.97,158.71L33.47,159.76L34.47,159.76L34.96,162.56L36.46,162.56L36.96,164.26L38.96,164.88L39.46,165.52L40.46,166.42L40.96,166.42L42.46,166.92L42.96,166.92L43.96,167.86L44.46,167.86L51.45,168.22L51.95,169.29L55.44,169.64L55.94,170.93L56.94,170.93L57.44,178.82L67.93,179.1L68.43,179.8L71.93,179.8L72.43,181.29L88.91,181.57L89.41,182.07L90.41,185.92L90.91,185.92L104.89,185.92L105.39,188.93L116.38,189.49L116.88,197.16L130.37,197.34L130.87,198.11L134.37,198.11L134.86,201.69L135.86,201.91L136.36,204.21L161.34,204.9L161.84,205.87L164.34,206.7L164.83,206.7L183.32,206.7L183.82,210.93L211.79,211.2L212.29,215.46L213.29,216.11L213.79,216.11L222.28,216.11L222.78,218.74L235.76,218.74L236.26,222.25L250.75,222.71L251.25,224.2L400.1,224.79L400.6,225.05L404.59,225.16L405.09,225.16L426.57,225.16L427.07,226.26L430.57,226.38L431.07,226.38L464.53,226.38L465.03,228.51L499,228.51" style="vector-effect: none; fill: none; stroke: rgb(0, 0, 255); stroke-opacity: 1; stroke-width: 2px; opacity: 1;"/></g><g class="points"/><g class="text"/></g><g class="trace scatter trace4b6c82" style="stroke-miterlimit: 2; opacity: 0.05;"><g class="fills"/><g class="errorbars"/><g class="lines"><path class="js-line" d="M0,94.85L0.5,94.85L1,112.94L2,142.84L2.5,142.84L10.49,143.46L10.99,144.7L12.49,145.16L12.99,145.16L13.49,145.16L13.99,147.45L14.98,149.51L15.48,149.51L18.98,149.51L19.48,161.57L26.47,161.57L26.97,164.03L33.97,164.03L34.47,170.66L40.96,170.66L41.46,172.12L56.44,172.19L56.94,176.58L57.94,178.68L58.44,178.68L71.93,178.68L72.43,187.55L75.42,187.55L75.92,204.63L86.91,204.63L87.41,232.91L101.9,232.91L102.4,240.74L103.4,243.26L103.9,243.26L186.31,243.26L186.81,254.16L187.81,268.15L188.31,268.35L189.81,268.67L190.31,268.67L363.14,268.84L363.64,270.68L499,270.77" style="vector-effect: none; fill: none; stroke: rgb(0, 0, 255); stroke-opacity: 1; stroke-width: 2px; opacity: 1;"/></g><g class="points"/><g class="text"/></g><g class="trace scatter trace4e8c06" style="stroke-miterlimit: 2; opacity: 0.05;"><g class="fills"/><g class="errorbars"/><g class="lines"><path class="js-line" d="M0,73.03L1.5,105.2L2,107.4L2.5,107.4L3,115.97L9.49,115.97L9.99,131.3L17.48,131.3L17.98,138.35L25.97,138.35L26.47,139.11L27.97,139.11L28.47,140.01L29.97,140.01L30.47,141.09L32.97,141.09L33.47,144.55L40.46,144.55L40.96,151.95L43.96,151.95L44.46,171.7L49.45,171.7L49.95,184.55L56.94,184.59L57.44,185.47L59.94,186.47L60.44,186.47L65.93,186.84L66.43,206.18L68.93,206.18L69.43,208.34L71.93,208.36L72.43,213.8L82.92,213.8L83.42,224.78L97.4,224.78L97.9,230.3L99.4,230.39L99.9,236.25L100.9,236.25L101.4,237.92L180.82,238L181.32,240.35L499,240.86" style="vector-effect: none; fill: none; stroke: rgb(0, 0, 255); stroke-opacity: 1; stroke-width: 2px; opacity: 1;"/></g><g class="points"/><g class="text"/></g><g class="trace scatter traceca35f0" style="stroke-miterlimit: 2; opacity: 0.05;"><g class="fills"/><g class="errorbars"/><g class="lines"><path class="js-line" d="M0,70.62L0.5,70.62L1,75.4L3,75.4L3.5,76.47L6.49,76.47L6.99,82.89L7.99,87.01L8.49,87.01L36.96,87.01L37.46,89.64L56.94,89.64L57.44,90.58L63.94,90.64L64.44,90.64L75.92,90.64L76.42,92.23L107.39,92.71L107.89,93.77L125.37,93.87L125.87,96.28L148.85,96.63L149.35,98.16L185.81,98.55L186.31,100.01L187.31,100.95L187.81,100.95L191.81,101.65L192.31,103.46L193.31,103.46L193.81,107.64L203.3,107.64L203.8,109.54L205.29,109.85L205.79,109.85L242.26,109.88L242.76,112.31L244.75,112.31L245.25,113.69L246.25,115.39L246.75,115.39L278.72,115.88L279.22,116.6L289.71,116.6L290.21,120.09L315.18,120.49L315.68,121.3L319.18,121.41L319.68,121.41L346.15,121.94L346.65,129.81L379.62,129.81L380.12,137.78L403.1,137.92L403.6,139.51L415.58,139.51L416.08,145.72L418.08,145.8L418.58,148.64L420.58,148.64L421.08,151.86L430.07,151.96L430.57,153.64L431.57,154.61L432.07,154.61L444.06,154.61L444.55,156.21L458.54,156.21L459.04,157.09L480.52,157.33L481.02,160.15L499,160.34" style="vector-effect: none; fill: none; stroke: rgb(0, 0, 255); stroke-opacity: 1; stroke-width: 2px; opacity: 1;"/></g><g class="points"/><g class="text"/></g><g class="trace scatter trace9df8b2" style="stroke-miterlimit: 2; opacity: 0.05;"><g class="fills"/><g class="errorbars"/><g class="lines"><path class="js-line" d="M0,76.92L1,76.92L1.5,88.36L2,88.36L2.5,92.91L8.99,92.91L9.49,106.94L17.48,106.94L17.98,110.08L22.98,110.08L23.48,126.14L28.97,126.14L29.47,130.43L36.96,130.99L37.46,142.93L43.96,142.93L44.46,143.97L45.95,143.97L46.45,146.45L47.45,147.31L47.95,147.31L80.42,147.31L80.92,148.17L82.42,148.6L82.92,148.6L91.91,148.6L92.41,152.77L144.85,153.31L145.35,156.89L146.35,158.45L146.85,158.45L219.78,159.2L220.28,165.13L231.27,165.13L231.77,167.22L242.76,167.22L243.26,170.06L244.26,170.06L244.75,171.67L264.24,171.67L264.73,176.97L265.73,179.13L266.23,179.13L340.16,179.13L340.66,191.43L341.66,192.53L342.16,192.53L351.15,192.53L351.65,194.52L361.64,194.78L362.14,197.14L366.13,197.24L366.63,197.24L379.62,197.24L380.12,200.28L401.6,200.31L402.1,202L442.56,202L443.06,207.2L444.55,210.46L445.05,210.46L454.54,210.5L455.04,211.31L486.51,211.31L487.01,217.26L499,217.33" style="vector-effect: none; fill: none; stroke: rgb(0, 0, 255); stroke-opacity: 1; stroke-width: 2px; opacity: 1;"/></g><g class="points"/><g class="text"/></g><g class="trace scatter trace5a2b0f" style="stroke-miterlimit: 2; opacity: 0.05;"><g class="fills"/><g class="errorbars"/><g class="lines"><path class="js-line" d="M0,59.53L0.5,60.41L1,100.38L1.5,100.38L2,102.34L3,105.39L3.5,105.39L4,105.39L4.5,111.41L7.99,112L8.49,118.77L13.49,118.77L13.99,121.08L18.98,121.08L19.48,123.24L23.48,123.24L23.98,124.48L25.47,124.48L25.97,141.17L35.46,141.17L35.96,142.2L36.96,142.98L37.46,142.98L41.46,142.98L41.96,152.44L54.45,152.44L54.94,154.6L55.94,156.93L56.44,156.93L56.94,158.74L57.44,170.63L65.93,170.63L66.43,172.94L67.43,173.59L67.93,176.32L68.43,176.32L68.93,187.88L70.43,187.88L70.93,199.98L72.93,199.98L73.43,221.43L112.89,222.03L113.39,222.43L177.82,222.61L178.32,224.32L179.32,225.21L179.82,225.21L260.74,225.63L261.24,226.11L284.22,226.12L284.71,226.87L297.2,226.87L297.7,229.58L298.7,234.22L299.2,234.22L334.17,234.22L334.66,237.47L379.62,237.53L380.12,238.48L381.62,238.86L382.12,238.87L462.54,238.9L463.04,241.02L464.04,242.08L464.53,242.08L499,242.08" style="vector-effect: none; fill: none; stroke: rgb(0, 0, 255); stroke-opacity: 1; stroke-width: 2px; opacity: 1;"/></g><g class="points"/><g class="text"/></g><g class="trace scatter tracee3ef50" style="stroke-miterlimit: 2; opacity: 0.05;"><g class="fills"/><g class="errorbars"/><g class="lines"><path class="js-line" d="M0,60.77L1,75.93L1.5,108.27L4.5,108.76L4.99,115.28L5.99,121.16L6.49,123.57L15.48,123.57L15.98,128.66L16.98,134.66L17.48,134.66L20.48,135.13L20.98,156.61L23.98,156.61L24.48,166.18L24.97,166.18L25.47,167.11L27.47,167.39L27.97,167.39L28.97,167.39L29.47,168.41L39.96,168.96L40.46,169.84L47.45,169.93L47.95,169.93L48.45,169.93L48.95,190.93L50.45,190.93L50.95,192.38L51.95,196.52L52.45,196.52L58.44,196.52L58.94,200.76L59.94,205.86L60.44,207.18L63.94,207.18L64.44,208.65L65.93,208.65L66.43,214.58L78.42,214.58L78.92,233.71L85.91,233.71L86.41,240.22L87.41,243.46L87.91,243.72L88.91,243.77L89.41,245.79L90.41,249.2L90.91,249.2L103.4,249.2L103.9,255.45L104.89,261.92L105.39,261.92L107.39,261.92L107.89,270.05L108.89,287.03L109.39,287.03L272.23,287.03L272.73,297.98L499,298.14" style="vector-effect: none; fill: none; stroke: rgb(0, 0, 255); stroke-opacity: 1; stroke-width: 2px; opacity: 1;"/></g><g class="points"/><g class="text"/></g><g class="trace scatter tracef6ba5d" style="stroke-miterlimit: 2; opacity: 0.05;"><g class="fills"/><g class="errorbars"/><g class="lines"><path class="js-line" d="M0,81.4L1,115.86L1.5,115.86L3,115.86L3.5,121.93L4.5,121.93L4.99,128.53L8.99,128.53L9.49,131.72L17.48,132.29L17.98,136.35L19.48,136.35L19.98,142.48L20.48,142.48L20.98,143.66L21.98,143.95L22.48,145.63L26.97,145.63L27.47,147.58L28.97,147.58L29.47,155.75L39.46,155.75L39.96,161.03L44.95,161.26L45.45,162.85L46.95,163.78L47.45,163.78L49.45,163.78L49.95,166.34L58.44,166.66L58.94,171.12L71.93,171.14L72.43,172.61L73.43,176.4L73.93,176.45L80.42,176.45L80.92,177.41L81.42,177.41L81.92,182.92L85.91,182.92L86.41,183.86L87.41,183.86L87.91,190.86L88.91,191.36L89.41,195.52L89.91,195.52L90.41,200.96L94.9,200.96L95.4,202.78L96.9,203.13L97.4,203.13L98.9,203.13L99.4,204.8L100.4,209.26L100.9,209.26L116.88,209.79L117.38,210.03L120.38,210.03L120.88,215.07L121.88,235.84L122.38,235.84L123.38,235.84L123.88,237.47L133.87,237.47L134.37,242.72L135.36,244.54L135.86,244.54L176.82,244.54L177.32,251.08L269.73,251.56L270.23,254.77L271.23,255.96L271.73,255.96L483.02,256.57L483.52,263.51L484.02,263.51L484.51,266.47L499,267.13" style="vector-effect: none; fill: none; stroke: rgb(0, 0, 255); stroke-opacity: 1; stroke-width: 2px; opacity: 1;"/></g><g class="points"/><g class="text"/></g><g class="trace scatter trace405c05" style="stroke-miterlimit: 2; opacity: 0.05;"><g class="fills"/><g class="errorbars"/><g class="lines"><path class="js-line" d="M0,73.88L1,104.99L1.5,104.99L2,104.99L2.5,105.83L4.5,109.18L4.99,109.18L6.49,109.18L6.99,112.29L15.48,112.29L15.98,125.03L20.98,125.03L21.48,127.36L24.97,127.56L25.47,137.53L34.96,137.53L35.46,142.42L47.95,142.42L48.45,143.39L66.43,144.05L66.93,144.39L68.93,144.39L69.43,149.39L72.43,154.11L72.93,154.11L83.42,154.54L83.92,155.58L89.91,155.79L90.41,156.6L94.41,156.62L94.9,158.27L95.4,158.27L95.9,160.25L96.4,160.25L96.9,161.28L113.39,161.28L113.89,173.69L117.88,173.79L118.38,173.79L123.38,173.79L123.88,186.48L128.87,186.48L129.37,187.32L133.37,187.36L133.87,192.92L135.36,192.92L135.86,194.42L141.36,194.42L141.86,195.39L143.86,195.39L144.36,196.17L145.85,196.46L146.35,196.46L158.34,196.46L158.84,197.23L159.84,206.64L160.34,206.64L173.83,207.18L174.33,207.42L177.32,207.66L177.82,211.43L222.78,211.43L223.28,231.83L233.77,231.83L234.27,245.04L420.08,245.54L420.58,246.99L422.08,246.99L422.58,250.03L499,250.05" style="vector-effect: none; fill: none; stroke: rgb(0, 0, 255); stroke-opacity: 1; stroke-width: 2px; opacity: 1;"/></g><g class="points"/><g class="text"/></g><g class="trace scatter trace3eaf23" style="stroke-miterlimit: 2; opacity: 0.05;"><g class="fills"/><g class="errorbars"/><g class="lines"><path class="js-line" d="M0,49.63L1.5,49.63L2,50.73L3.5,51.04L4,56.03L7.49,56.03L7.99,57.85L12.49,57.98L12.99,58.78L13.99,58.78L14.49,69.4L23.48,69.4L23.98,74.05L29.97,74.05L30.47,75.37L31.47,78.42L31.97,78.42L40.96,78.42L41.46,79.68L42.46,79.68L42.96,82.1L44.46,82.1L44.95,84.36L49.45,84.38L49.95,85.34L52.95,85.5L53.45,91.46L58.94,91.46L59.44,96.08L71.93,96.13L72.43,97.73L78.92,97.73L79.42,102.49L90.91,102.93L91.41,109.26L95.9,109.82L96.4,116.43L110.39,116.46L110.89,120.35L112.39,120.74L112.89,120.74L119.88,120.74L120.38,125.84L123.38,126.31L123.88,127.45L125.37,127.45L125.87,128.83L126.37,128.83L126.87,133.45L130.87,133.45L131.37,134.49L132.37,134.49L132.87,135.34L134.86,135.34L135.36,137.68L135.86,137.68L136.36,141.7L147.35,142.11L147.85,143.9L152.85,144.19L153.35,150.74L154.35,150.74L154.84,156.37L156.34,156.87L156.84,156.87L161.34,156.87L161.84,173.31L165.33,173.31L165.83,183.04L177.82,183.56L178.32,184.91L183.82,185.02L184.32,190.15L219.78,190.15L220.28,195.12L239.26,195.29L239.76,208.24L320.68,208.33L321.18,222.96L322.18,235L322.68,236.17L328.17,236.17L328.67,240.41L329.17,240.41L329.67,242.21L378.62,242.21L379.12,243.61L380.12,245.19L380.62,245.19L414.58,245.19L415.08,252.62L499,253.07" style="vector-effect: none; fill: none; stroke: rgb(0, 0, 255); stroke-opacity: 1; stroke-width: 2px; opacity: 1;"/></g><g class="points"/><g class="text"/></g><g class="trace scatter trace409698" style="stroke-miterlimit: 2; opacity: 0.05;"><g class="fills"/><g class="errorbars"/><g class="lines"><path class="js-line" d="M0,86.09L1.5,86.63L2,88.46L3.5,88.46L4,113.98L9.99,113.98L10.49,117.66L18.98,117.66L19.48,132.82L34.96,132.94L35.46,141.22L52.95,141.79L53.45,142.86L56.94,142.86L57.44,144.14L67.43,144.88L67.93,146.38L73.43,146.87L73.93,153.54L100.9,154.2L101.4,154.47L107.89,154.47L108.39,157.96L115.88,158.26L116.38,158.99L123.38,159.73L123.88,161.09L138.86,161.09L139.36,161.95L143.86,162.28L144.36,163.24L153.85,163.51L154.35,170.9L159.34,170.9L159.84,179.46L178.82,179.46L179.32,180.47L180.82,180.47L181.32,185.38L190.81,185.38L191.31,191.1L193.81,191.1L194.31,193.91L201.3,194.21L201.8,194.71L271.73,194.71L272.23,196.49L274.23,196.98L274.72,196.98L307.69,197.48L308.19,197.88L312.19,198.07L312.69,198.07L323.68,198.07L324.18,203.7L325.17,205.62L325.67,205.62L374.13,205.62L374.62,207.03L378.12,207.03L378.62,210.47L391.11,210.47L391.61,211.87L418.08,211.87L418.58,218.77L419.58,223.36L420.08,223.36L422.58,223.36L423.08,224.85L424.08,225.93L424.57,225.93L448.55,225.93L449.05,227.34L450.05,228.17L450.55,228.17L457.54,228.17L458.04,229.66L497,229.73L497.5,229.73L499,229.73" style="vector-effect: none; fill: none; stroke: rgb(0, 0, 255); stroke-opacity: 1; stroke-width: 2px; opacity: 1;"/></g><g class="points"/><g class="text"/></g><g class="trace scatter tracea7193f" style="stroke-miterlimit: 2; opacity: 0.05;"><g class="fills"/><g class="errorbars"/><g class="lines"><path class="js-line" d="M0,72.16L1.5,90.39L2,90.39L3,107.78L3.5,107.78L7.49,107.78L7.99,110.21L9.49,110.21L9.99,115.69L10.99,116.19L11.49,120.26L12.99,120.26L13.49,121.24L23.48,121.9L23.98,123.66L25.47,124.23L25.97,124.23L29.97,124.91L30.47,125.72L30.97,129.95L31.47,148.05L37.46,148.05L37.96,149.54L51.45,149.54L51.95,150.92L52.95,152.79L53.45,152.91L54.45,152.91L54.94,156.63L56.94,156.63L57.44,157.89L58.44,158.52L58.94,158.52L61.94,158.52L62.44,160.25L66.43,160.27L66.93,162.67L69.43,163.62L69.93,163.62L74.92,163.62L75.42,164.81L76.42,167L76.92,167L79.42,167.68L79.92,168.74L81.92,168.74L82.42,173.16L83.42,177.26L83.92,177.26L96.9,177.26L97.4,179.58L101.4,179.58L101.9,180.51L103.4,181.99L103.9,181.99L106.89,181.99L107.39,185.7L108.39,189.23L108.89,189.23L119.88,189.23L120.38,195.44L122.38,196.99L122.88,196.99L138.36,196.99L138.86,199.06L143.36,199.45L143.86,200.6L144.85,203.12L145.35,203.12L151.35,203.12L151.85,208.68L156.34,208.77L156.84,208.77L162.84,208.77L163.34,215.43L186.81,215.76L187.31,217.36L190.81,217.48L191.31,217.48L221.28,218.21L221.78,218.24L235.26,218.24L235.76,219.44L261.74,219.85L262.24,220.24L263.74,220.59L264.24,220.59L267.23,220.59L267.73,223.18L268.73,224.21L269.23,224.21L290.21,224.21L290.71,225.91L291.71,229.78L292.21,229.78L295.7,229.78L296.2,235.78L361.14,235.78L361.64,238.95L362.64,249.19L363.14,249.19L372.63,249.19L373.13,270.51L499,270.52" style="vector-effect: none; fill: none; stroke: rgb(0, 0, 255); stroke-opacity: 1; stroke-width: 2px; opacity: 1;"/></g><g class="points"/><g class="text"/></g><g class="trace scatter traceab628a" style="stroke-miterlimit: 2; opacity: 0.05;"><g class="fills"/><g class="errorbars"/><g class="lines"><path class="js-line" d="M0,60.4L4.99,60.66L5.49,62.31L7.49,62.31L7.99,67.67L11.49,67.67L11.99,69.4L13.49,69.4L13.99,70.22L40.96,70.62L41.46,75.9L52.45,76.57L52.95,79.19L70.93,79.86L71.43,80.15L74.92,80.15L75.42,80.91L83.42,80.91L83.92,86.12L103.4,86.12L103.9,90.61L105.39,91.06L105.89,91.41L119.38,91.41L119.88,97.19L175.32,97.19L175.82,98.89L183.82,98.89L184.32,99.66L199.8,99.9L200.3,102.74L210.29,103.48L210.79,103.5L217.28,103.7L217.78,104.84L236.26,104.85L236.76,108.65L238.76,108.86L239.26,108.86L240.26,111.39L240.76,111.39L252.25,111.77L252.75,112.5L256.24,112.5L256.74,113.3L278.22,113.98L278.72,114.14L286.21,114.14L286.71,117.87L287.71,117.93L288.21,123.14L304.69,123.62L305.19,124.06L327.17,124.26L327.67,125.11L369.13,125.15L369.63,128L370.63,130.31L371.13,130.31L385.11,130.31L385.61,131.09L387.11,131.57L387.61,131.57L390.61,131.57L391.11,132.93L393.11,132.93L393.61,134.57L402.1,134.93L402.6,135.42L466.53,135.69L467.03,139.18L488.51,139.26L489.01,140.78L499,140.87" style="vector-effect: none; fill: none; stroke: rgb(0, 0, 255); stroke-opacity: 1; stroke-width: 2px; opacity: 1;"/></g><g class="points"/><g class="text"/></g><g class="trace scatter traced8534a" style="stroke-miterlimit: 2; opacity: 0.05;"><g class="fills"/><g class="errorbars"/><g class="lines"><path class="js-line" d="M0,59.55L1,95.8L1.5,106.18L2.5,106.25L3,111.87L4.5,118.59L4.99,118.59L8.49,118.59L8.99,122.94L10.49,123.13L10.99,124.16L18.98,124.4L19.48,130.48L22.98,131.03L23.48,131.29L33.47,131.29L33.97,134.2L37.46,134.2L37.96,138.41L44.46,138.41L44.95,140.88L54.45,140.92L54.94,142.66L55.44,142.66L55.94,145L71.43,145L71.93,147.64L78.92,148.24L79.42,160.58L86.91,160.77L87.41,161.66L89.41,162.37L89.91,162.48L94.9,162.48L95.4,174L96.4,174.69L96.9,174.69L99.4,175.22L99.9,176.34L106.39,176.34L106.89,178.24L108.89,178.51L109.39,178.51L112.89,178.51L113.39,196.23L139.36,196.29L139.86,198.01L140.86,202.5L141.36,202.5L143.36,202.5L143.86,208.82L157.34,208.87L157.84,212.39L176.82,212.41L177.32,212.41L306.19,212.6L306.69,214.52L320.68,214.69L321.18,214.69L452.55,214.69L453.05,216.21L499,216.21" style="vector-effect: none; fill: none; stroke: rgb(0, 0, 255); stroke-opacity: 1; stroke-width: 2px; opacity: 1;"/></g><g class="points"/><g class="text"/></g><g class="trace scatter tracef0a8de" style="stroke-miterlimit: 2; opacity: 0.05;"><g class="fills"/><g class="errorbars"/><g class="lines"><path class="js-line" d="M0,91.2L6.49,91.76L6.99,92.28L8.49,92.33L8.99,93.84L13.49,94.39L13.99,96.44L14.98,96.44L15.48,97.32L16.48,101.58L16.98,101.58L33.97,101.58L34.47,102.78L34.96,102.78L35.46,105.08L60.94,105.08L61.44,108.28L73.93,108.39L74.43,109.1L97.4,109.7L97.9,113.44L98.9,113.86L99.4,115.93L100.9,116.22L101.4,116.22L105.89,116.96L106.39,117.58L113.39,117.84L113.89,118.56L160.84,118.69L161.34,133.87L199.8,133.87L200.3,148.61L213.29,149.09L213.79,159.95L223.28,159.95L223.78,161.4L225.27,162.44L225.77,162.54L231.77,162.54L232.27,163.3L240.76,163.4L241.26,179.09L244.75,179.09L245.25,197.86L258.74,197.86L259.24,204.13L277.22,204.13L277.72,205.34L301.2,205.53L301.7,206.63L323.18,206.93L323.68,209.24L334.66,209.89L335.16,215.92L337.16,216.03L337.66,217.23L340.16,217.71L340.66,217.71L349.15,217.71L349.65,224.87L365.63,225.32L366.13,227.1L367.13,228.13L367.63,228.13L390.11,228.13L390.61,231.62L430.57,231.69L431.07,243.63L494.5,243.81L495,246.22L496,247.26L496.5,247.26L499,247.31" style="vector-effect: none; fill: none; stroke: rgb(0, 0, 255); stroke-opacity: 1; stroke-width: 2px; opacity: 1;"/></g><g class="points"/><g class="text"/></g><g class="trace scatter trace81508e" style="stroke-miterlimit: 2; opacity: 0.05;"><g class="fills"/><g class="errorbars"/><g class="lines"><path class="js-line" d="M0,70.55L0.5,70.55L1,79.41L2.5,85.54L3,85.54L4.99,85.8L5.49,85.8L6.49,86.69L6.99,98.66L8.49,98.66L8.99,100.37L10.99,100.37L11.49,102.41L17.98,102.41L18.48,103.49L25.47,103.95L25.97,105.91L34.96,106.24L35.46,110.17L37.46,110.17L37.96,111.63L45.95,112.38L46.45,116.04L57.44,116.43L57.94,138.61L62.44,138.71L62.94,149.35L64.44,149.66L64.93,149.66L66.43,149.66L66.93,153.33L68.93,153.33L69.43,176.5L74.92,176.5L75.42,191.73L83.42,191.73L83.92,202.2L84.91,202.27L85.41,205.39L89.91,205.39L90.41,207.49L95.9,207.52L96.4,212.17L108.39,212.17L108.89,222.97L109.89,230.25L110.39,230.71L118.88,230.71L119.38,231.82L128.37,231.82L128.87,241.25L129.87,250.33L130.37,250.33L206.79,250.56L207.29,251.1L229.77,251.24L230.27,266.24L235.76,266.31L236.26,266.31L430.57,266.4L431.07,268.59L499,268.74" style="vector-effect: none; fill: none; stroke: rgb(0, 0, 255); stroke-opacity: 1; stroke-width: 2px; opacity: 1;"/></g><g class="points"/><g class="text"/></g><g class="trace scatter trace4f4069" style="stroke-miterlimit: 2; opacity: 0.05;"><g class="fills"/><g class="errorbars"/><g class="lines"><path class="js-line" d="M0,67.89L1.5,118.5L2,118.5L3,118.5L3.5,120.17L4.5,121.1L4.99,121.1L9.49,121.1L9.99,135.81L13.99,135.81L14.49,137.14L40.96,137.86L41.46,137.97L56.44,137.97L56.94,141.23L57.94,144.11L58.44,144.11L59.44,144.11L59.94,145.57L71.93,145.83L72.43,148.55L99.4,148.62L99.9,153.3L129.87,153.3L130.37,156.12L131.37,156.12L131.87,159.24L145.85,159.24L146.35,166.64L192.81,166.85L193.31,176.97L200.3,176.97L200.8,183.21L201.8,185.17L202.3,185.17L207.79,185.17L208.29,187.04L209.29,191.44L209.79,192.19L224.28,192.35L224.77,198.61L225.77,202.24L226.27,202.24L247.75,202.24L248.25,218.38L249.75,218.38L250.25,221.11L251.25,221.43L251.75,223L260.74,223L261.24,224.27L278.22,224.32L278.72,226.52L279.72,228.08L280.22,228.08L377.62,228.7L378.12,231.42L442.56,231.44L443.06,232.74L499,232.88" style="vector-effect: none; fill: none; stroke: rgb(0, 0, 255); stroke-opacity: 1; stroke-width: 2px; opacity: 1;"/></g><g class="points"/><g class="text"/></g><g class="trace scatter traceb92851" style="stroke-miterlimit: 2; opacity: 1;"><g class="fills"/><g class="errorbars"/><g class="lines"><path class="js-line" d="M0,89.95L1,106.79L1.5,106.79L2.5,111.94L3,111.94L4.99,111.94L5.49,114.43L6.49,114.43L6.99,121.03L13.99,121.03L14.49,123.52L14.98,123.52L15.48,136.47L16.48,136.47L16.98,137.29L20.48,137.29L20.98,142.04L22.48,143.48L22.98,143.48L23.98,143.48L24.48,153.23L40.46,153.28L40.96,154.58L41.96,154.58L42.46,159.51L43.46,163.61L43.96,163.61L46.45,163.61L46.95,167.25L47.45,167.25L47.95,174.97L62.94,175.32L63.44,179.72L66.43,179.72L66.93,186.44L67.93,186.44L68.43,189.11L74.92,189.11L75.42,190.72L77.42,190.72L77.92,191.48L92.41,191.48L92.91,198.57L99.9,199.28L100.4,210.21L109.39,210.21L109.89,216.12L110.89,219.11L111.39,219.11L184.81,219.11L185.31,220.56L186.31,221.79L186.81,221.79L209.29,221.79L209.79,227.97L244.75,228.12L245.25,231.98L283.22,231.98L283.72,240.42L285.21,240.42L285.71,241.43L344.65,241.43L345.15,252.77L346.15,255.05L346.65,255.05L499,255.36" style="vector-effect: none; fill: none; stroke: rgb(255, 0, 0); stroke-opacity: 1; stroke-width: 2px; opacity: 1;"/></g><g class="points"/><g class="text"/></g><g class="trace scatter trace5dce13" style="stroke-miterlimit: 2; opacity: 0.05;"><g class="fills"/><g class="errorbars"/><g class="lines"><path class="js-line" d="M0,93.14L1,93.14L1.5,95.19L2.5,102.78L3,102.78L4,110.02L4.5,110.02L5.99,110.16L6.49,112.29L13.49,112.29L13.99,120.11L22.48,120.11L22.98,123.23L26.47,123.32L26.97,140.58L34.47,140.58L34.96,143.2L35.46,143.2L35.96,144.06L36.46,144.06L36.96,156.69L37.46,156.69L37.96,158.49L42.96,159.59L43.46,159.59L44.46,159.59L44.95,160.38L45.45,160.43L45.95,162.35L46.95,162.35L47.45,164.71L56.94,164.71L57.44,184.13L57.94,184.2L58.44,186.9L59.44,186.9L59.94,204.95L60.44,205.09L60.94,210.22L62.44,210.22L62.94,212.53L82.42,212.53L82.92,215.32L100.9,215.69L101.4,220.92L102.9,221.15L103.4,222.37L113.39,222.44L113.89,224.53L115.38,225.03L115.88,225.03L128.87,225.03L129.37,226.11L184.81,226.4L185.31,235.03L191.31,235.03L191.81,239.08L227.77,239.3L228.27,240.05L230.27,240.32L230.77,240.32L263.74,240.32L264.24,242.35L265.23,245.63L265.73,245.63L376.12,245.63L376.62,253.16L388.61,253.36L389.11,254.19L391.61,254.37L392.11,254.37L499,254.48" style="vector-effect: none; fill: none; stroke: rgb(0, 0, 255); stroke-opacity: 1; stroke-width: 2px; opacity: 1;"/></g><g class="points"/><g class="text"/></g><g class="trace scatter trace623bec" style="stroke-miterlimit: 2; opacity: 0.05;"><g class="fills"/><g class="errorbars"/><g class="lines"><path class="js-line" d="M0,100.37L1,114.98L1.5,114.98L4.5,114.98L4.99,119.44L8.99,120.07L9.49,120.73L11.49,121.78L11.99,122.79L13.49,122.79L13.99,130.89L19.98,130.89L20.48,132.96L22.98,132.96L23.48,134.82L24.48,144.33L24.97,144.33L30.47,144.33L30.97,146.33L33.97,146.33L34.47,148.07L34.96,148.07L35.46,156.47L45.45,156.47L45.95,173.98L48.95,173.98L49.45,178.27L50.95,178.27L51.45,179.77L64.93,180.09L65.43,190.19L94.41,190.2L94.9,197.55L102.9,197.55L103.4,200.15L103.9,200.15L104.4,201.62L106.89,202.58L107.39,202.58L112.89,202.58L113.39,205.68L138.86,205.68L139.36,208.11L140.36,209.62L140.86,209.62L141.86,210.7L142.36,210.7L149.85,210.79L150.35,213.88L152.85,214.06L153.35,214.06L153.85,214.06L154.35,216.48L197.8,216.98L198.3,216.98L198.8,216.98L199.3,218.43L263.24,218.43L263.74,219.31L276.72,219.31L277.22,220.44L358.64,221.12L359.14,221.2L370.13,221.2L370.63,231.01L372.13,231.34L372.63,231.34L462.54,232.06L463.04,232.13L468.53,232.2L469.03,232.2L485.51,232.2L486.01,233.71L499,233.71" style="vector-effect: none; fill: none; stroke: rgb(0, 0, 255); stroke-opacity: 1; stroke-width: 2px; opacity: 1;"/></g><g class="points"/><g class="text"/></g><g class="trace scatter trace74e95c" style="stroke-miterlimit: 2; opacity: 0.05;"><g class="fills"/><g class="errorbars"/><g class="lines"><path class="js-line" d="M0,56.3L0.5,56.3L1,61.54L3.5,61.84L4,62.52L20.98,63L21.48,69.67L30.47,69.78L30.97,75.64L36.96,75.64L37.46,81.73L47.95,81.73L48.45,84.24L50.45,84.24L50.95,89.31L56.44,89.31L56.94,90.87L58.44,90.87L58.94,94.33L59.44,94.33L59.94,95.99L63.44,96.19L63.94,97.05L66.43,97.05L66.93,102.62L71.43,102.62L71.93,104.09L72.93,105.37L73.43,105.37L80.42,105.37L80.92,107.05L81.42,107.05L81.92,110.17L90.91,110.17L91.41,112.28L96.9,112.94L97.4,115.26L98.9,115.81L99.4,117.81L117.38,118.4L117.88,119.07L119.38,119.25L119.88,120.43L121.38,120.43L121.88,124.75L122.88,130.09L123.38,130.09L127.37,130.09L127.87,142.72L129.37,144.79L129.87,144.79L134.86,145.27L135.36,153L136.86,153.16L137.36,154.29L146.35,154.29L146.85,156.17L155.84,156.17L156.34,173.02L158.84,173.02L159.34,181.7L170.83,182.32L171.33,191.16L175.32,191.54L175.82,196.15L176.32,196.15L176.82,198.88L183.32,198.88L183.82,202.18L195.3,202.18L195.8,204.01L197.8,204.01L198.3,205.18L203.8,205.18L204.3,206.69L205.79,207.75L206.29,207.75L207.29,208.08L207.79,211.13L225.27,211.34L225.77,221.14L226.77,221.14L227.27,222.41L249.75,222.58L250.25,237.67L396.1,237.82L396.6,243.94L413.59,243.94L414.09,246.52L416.08,246.75L416.58,246.75L434.07,246.75L434.56,252.66L435.56,255.38L436.06,255.82L442.06,255.82L442.56,259.88L497.5,259.93L498,261.02L499,261.02" style="vector-effect: none; fill: none; stroke: rgb(0, 0, 255); stroke-opacity: 1; stroke-width: 2px; opacity: 1;"/></g><g class="points"/><g class="text"/></g><g class="trace scatter trace319426" style="stroke-miterlimit: 2; opacity: 0.05;"><g class="fills"/><g class="errorbars"/><g class="lines"><path class="js-line" d="M0,66.79L1.5,113.47L2,113.97L3,115.97L3.5,115.97L4,115.97L4.5,118.14L5.49,118.91L5.99,118.95L16.48,118.95L16.98,120.52L17.98,123.53L18.48,123.53L30.47,123.53L30.97,126.19L31.47,126.19L31.97,127.38L41.46,128.09L41.96,128.22L56.94,128.94L57.44,130.14L64.44,130.15L64.93,133.56L87.91,133.56L88.41,136.25L89.41,137.76L89.91,137.76L94.9,137.84L95.4,137.84L157.84,137.84L158.34,139.57L159.34,141.91L159.84,141.91L175.82,142.02L176.32,144.15L178.32,144.49L178.82,145.28L213.29,145.52L213.79,152.96L229.77,153.52L230.27,160.3L232.27,160.57L232.77,160.57L252.25,161.06L252.75,162.39L253.75,163.24L254.25,163.24L264.24,163.64L264.73,164.65L336.66,165.39L337.16,165.65L341.66,165.77L342.16,165.77L367.13,166.04L367.63,166.65L381.62,166.68L382.12,169.48L382.62,169.48L383.12,178.1L402.1,178.12L402.6,178.12L427.07,178.12L427.57,184.76L457.54,185.35L458.04,189.33L459.04,190.07L459.54,190.07L488.01,190.07L488.51,191.3L489.51,193.58L490.01,193.58L499,193.58" style="vector-effect: none; fill: none; stroke: rgb(0, 0, 255); stroke-opacity: 1; stroke-width: 2px; opacity: 1;"/></g><g class="points"/><g class="text"/></g><g class="trace scatter tracef573ad" style="stroke-miterlimit: 2; opacity: 0.05;"><g class="fills"/><g class="errorbars"/><g class="lines"><path class="js-line" d="M0,61.03L2,68.54L2.5,68.54L3.5,78.99L4,78.99L4.5,78.99L4.99,82.71L5.99,82.71L6.49,88.03L15.98,88.03L16.48,89.54L17.98,89.54L18.48,90.72L23.48,90.72L23.98,94.86L26.97,94.86L27.47,98.39L34.47,98.56L34.96,100.92L39.96,101.41L40.46,105.6L49.95,105.6L50.45,110.27L51.45,110.27L51.95,114.16L56.44,114.24L56.94,115.81L57.94,116.65L58.44,116.84L62.94,116.84L63.44,121.1L63.94,121.1L64.44,123.46L72.93,124.02L73.43,133.47L75.42,133.47L75.92,143.81L86.41,144.37L86.91,144.81L90.91,144.81L91.41,145.62L92.91,145.62L93.41,152.63L93.91,152.97L94.41,154.48L95.4,154.48L95.9,162L111.89,162L112.39,164.81L117.88,165.29L118.38,166.78L119.38,167.15L119.88,170.41L121.38,170.41L121.88,172.69L124.87,172.69L125.37,174.32L128.37,174.32L128.87,177.86L129.87,179.84L130.37,179.84L139.36,180.39L139.86,180.66L143.86,181.18L144.36,188.88L176.32,188.88L176.82,194.15L181.82,194.75L182.32,195.02L185.31,196.38L185.81,196.38L196.3,196.38L196.8,201.03L200.8,201.64L201.3,208.99L202.3,209.8L202.8,209.8L211.79,210.01L212.29,211.35L226.27,211.35L226.77,214.25L254.25,214.76L254.74,217.55L283.72,217.55L284.22,227.39L290.71,227.56L291.21,229.32L292.21,229.56L292.71,230.76L310.69,230.76L311.19,234.51L320.18,234.67L320.68,235.92L321.68,243L322.18,243L353.15,243L353.65,245.7L356.64,245.7L357.14,258.42L472.03,258.42L472.53,263.3L499,263.3" style="vector-effect: none; fill: none; stroke: rgb(0, 0, 255); stroke-opacity: 1; stroke-width: 2px; opacity: 1;"/></g><g class="points"/><g class="text"/></g><g class="trace scatter tracee24b2e" style="stroke-miterlimit: 2; opacity: 0.05;"><g class="fills"/><g class="errorbars"/><g class="lines"><path class="js-line" d="M0,165.79L0.5,165.79L1,171.79L2,173.98L2.5,173.98L4.5,173.98L4.99,183.84L11.49,184.12L11.99,185.96L28.97,186.1L29.47,188.84L30.47,189.11L30.97,197.43L37.46,198.18L37.96,201.36L74.92,201.61L75.42,203.88L85.41,203.88L85.91,220.22L91.41,220.22L91.91,221.7L106.39,221.7L106.89,226.84L118.88,226.84L119.38,229.32L165.33,229.32L165.83,234.2L171.83,234.22L172.33,238.58L173.83,240.28L174.33,240.28L180.32,240.28L180.82,254.58L182.32,254.77L182.82,255.95L308.69,255.95L309.19,257.56L310.19,262.24L310.69,262.24L361.64,262.24L362.14,265.64L499,265.71" style="vector-effect: none; fill: none; stroke: rgb(0, 0, 255); stroke-opacity: 1; stroke-width: 2px; opacity: 1;"/></g><g class="points"/><g class="text"/></g><g class="trace scatter tracea948c1" style="stroke-miterlimit: 2; opacity: 0.05;"><g class="fills"/><g class="errorbars"/><g class="lines"><path class="js-line" d="M0,75.71L15.48,76.46L15.98,76.81L23.48,76.87L23.98,77.79L27.97,78.39L28.47,79.36L29.47,96.78L29.97,96.78L44.95,96.78L45.45,98.72L46.45,111.77L46.95,111.77L50.45,111.77L50.95,113.09L53.95,113.09L54.45,126.81L55.94,126.81L56.44,127.82L70.43,127.82L70.93,129.01L73.43,129.01L73.93,141.49L74.92,145.29L75.42,145.29L118.88,145.35L119.38,147.81L120.88,149.93L121.38,150.67L133.87,151.24L134.37,156.62L172.33,157.04L172.83,184.97L225.27,184.98L225.77,194.5L226.27,196.38L226.77,215.31L254.74,215.98L255.24,217.35L262.24,217.55L262.74,217.55L433.07,217.97L433.57,219.44L435.06,220.01L435.56,220.01L499,220.01" style="vector-effect: none; fill: none; stroke: rgb(0, 0, 255); stroke-opacity: 1; stroke-width: 2px; opacity: 1;"/></g><g class="points"/><g class="text"/></g><g class="trace scatter traceb7920e" style="stroke-miterlimit: 2; opacity: 0.05;"><g class="fills"/><g class="errorbars"/><g class="lines"><path class="js-line" d="M0,73.3L1,98.7L1.5,98.7L11.49,98.7L11.99,102.7L25.47,103.13L25.97,118.89L31.97,119.32L32.47,121.03L32.97,121.03L33.47,122.02L34.96,122.58L35.46,122.58L35.96,122.64L36.46,131.16L44.46,131.16L44.95,135.33L45.45,135.33L45.95,144.4L49.45,144.4L49.95,149.68L51.45,149.68L51.95,150.99L52.45,150.99L52.95,153.01L53.95,153.01L54.45,157.85L54.94,157.85L55.44,163.34L57.94,163.34L58.44,183.3L64.93,183.3L65.43,184.2L66.93,185.02L67.43,187.64L82.42,188.12L82.92,188.89L97.4,189.54L97.9,190.18L102.4,190.18L102.9,195.67L114.88,196.34L115.38,199.81L116.88,200.22L117.38,213.25L131.87,213.6L132.37,214.28L133.37,223.86L133.87,223.86L176.32,223.86L176.82,225.49L194.31,225.49L194.8,226.47L196.3,226.83L196.8,226.83L208.79,226.83L209.29,227.93L213.29,227.93L213.79,231.54L214.78,232.81L215.28,232.81L264.24,232.82L264.73,233.82L265.73,235.56L266.23,235.56L270.73,235.56L271.23,236.45L272.23,238.16L272.73,238.38L316.18,238.38L316.68,241.06L317.68,243.85L318.18,243.85L429.07,243.85L429.57,246.15L431.57,246.4L432.07,246.4L447.55,246.4L448.05,257.38L499,257.39" style="vector-effect: none; fill: none; stroke: rgb(0, 0, 255); stroke-opacity: 1; stroke-width: 2px; opacity: 1;"/></g><g class="points"/><g class="text"/></g><g class="trace scatter trace992445" style="stroke-miterlimit: 2; opacity: 0.05;"><g class="fills"/><g class="errorbars"/><g class="lines"><path class="js-line" d="M0,70.21L4,70.92L4.5,71.5L5.99,71.5L6.49,73.94L6.99,73.94L7.49,74.99L8.49,74.99L8.99,77.35L10.49,77.35L10.99,78.76L11.99,80.73L12.49,80.73L13.99,81.1L14.49,82.53L15.48,82.53L15.98,84.39L22.98,84.39L23.48,85.63L25.97,88.75L26.47,93.1L28.47,93.1L28.97,95.84L43.46,96.41L43.96,100.97L50.45,100.97L50.95,104.59L51.45,104.59L51.95,106.6L60.94,106.6L61.44,108.64L61.94,108.64L62.44,116.58L62.94,116.58L63.44,118.05L64.44,118.61L64.93,122.29L65.93,122.29L66.43,129.29L68.93,129.29L69.43,136L71.93,136L72.43,140.37L75.42,140.37L75.92,144.64L76.42,144.64L76.92,151.62L80.92,151.62L81.42,152.55L87.41,153.21L87.91,154.88L91.91,154.88L92.41,170.71L97.9,170.71L98.4,171.61L98.9,171.61L99.4,186.21L99.9,186.21L100.4,187.35L115.88,187.35L116.38,190.41L118.88,190.41L119.38,191.27L120.88,194.55L121.38,194.55L132.37,194.55L132.87,197.88L134.86,197.88L135.36,201.5L135.86,201.5L136.36,203.08L138.86,203.26L139.36,203.26L144.36,203.61L144.85,204.46L146.35,205.15L146.85,205.16L167.83,205.16L168.33,206.47L169.83,206.47L170.33,215.9L203.3,216.23L203.8,216.85L213.29,216.88L213.79,221.23L214.78,225.68L215.28,225.68L222.78,226.35L223.28,226.98L241.26,226.98L241.76,238.83L256.74,239.45L257.24,241.73L258.24,243.19L258.74,243.19L499,243.19" style="vector-effect: none; fill: none; stroke: rgb(0, 0, 255); stroke-opacity: 1; stroke-width: 2px; opacity: 1;"/></g><g class="points"/><g class="text"/></g><g class="trace scatter trace9a0d1e" style="stroke-miterlimit: 2; opacity: 0.05;"><g class="fills"/><g class="errorbars"/><g class="lines"><path class="js-line" d="M0,62.92L4,63.13L4.5,67.27L6.49,68.02L6.99,70.88L11.99,70.88L12.49,73.35L12.99,73.35L13.49,80.53L20.48,80.53L20.98,83.04L21.98,84.27L22.48,84.27L24.97,84.27L25.47,87.31L26.97,91.47L27.47,91.47L30.47,91.94L30.97,92.8L35.96,92.8L36.46,96.78L42.96,96.78L43.46,101.45L47.95,101.45L48.45,107.06L59.44,107.06L59.94,109.22L61.94,109.22L62.44,110.05L72.43,110.05L72.93,112.28L74.92,112.88L75.42,117.17L79.42,117.17L79.92,121.38L83.92,121.9L84.42,123.98L84.91,124.22L85.41,126.6L95.4,126.6L95.9,132.57L100.9,132.57L101.4,135.28L104.89,135.29L105.39,137.97L105.89,137.97L106.39,142.32L109.89,142.32L110.39,144.02L111.39,152.52L111.89,152.52L122.38,153.14L122.88,161.65L126.87,161.65L127.37,177.48L128.37,177.48L128.87,178.34L133.87,178.56L134.37,180L138.36,180.69L138.86,190.66L139.36,190.66L139.86,194.88L140.86,202.45L141.36,202.45L144.36,202.45L144.85,203.23L145.35,203.55L145.85,206.11L154.84,206.11L155.34,207.12L156.84,207.12L157.34,220.84L158.84,221.68L159.34,221.68L214.29,221.68L214.78,225.62L257.74,226.2L258.24,227.62L259.74,239.96L260.24,240.78L291.71,240.78L292.21,243.56L293.21,245.5L293.71,245.5L328.67,245.5L329.17,253.58L330.67,255.77L331.17,255.77L410.59,256.36L411.09,258.01L412.09,270.51L412.59,270.51L455.04,270.51L455.54,298.09L499,298.12" style="vector-effect: none; fill: none; stroke: rgb(0, 0, 255); stroke-opacity: 1; stroke-width: 2px; opacity: 1;"/></g><g class="points"/><g class="text"/></g><g class="trace scatter traceaa5a8f" style="stroke-miterlimit: 2; opacity: 0.05;"><g class="fills"/><g class="errorbars"/><g class="lines"><path class="js-line" d="M0,79.78L0.5,79.78L1,82.79L2,88.83L2.5,90.44L10.49,90.84L10.99,91.21L16.48,91.73L16.98,95.14L20.48,95.14L20.98,112.98L31.97,112.98L32.47,114.86L33.47,114.86L33.97,123.95L48.45,124.57L48.95,132.07L58.44,132.07L58.94,139.65L60.94,139.65L61.44,144.05L62.44,147.63L62.94,147.63L85.91,148.29L86.41,154.35L93.91,154.35L94.41,155.65L95.4,156.38L95.9,156.38L98.4,156.56L98.9,156.56L112.39,156.56L112.89,157.44L115.88,157.44L116.38,158.88L118.88,159.88L119.38,159.88L121.88,160.31L122.38,162.21L131.37,162.84L131.87,163.17L141.86,163.17L142.36,166.11L143.36,167.95L143.86,167.95L144.85,167.95L145.35,175.2L145.85,175.2L146.35,181.75L158.84,181.75L159.34,182.52L161.84,183.16L162.34,184.62L175.32,184.7L175.82,190.82L211.79,190.97L212.29,200.48L219.78,200.48L220.28,203.31L235.76,203.67L236.26,206.44L245.25,206.44L245.75,208.5L247.25,208.9L247.75,208.9L262.24,208.91L262.74,211.23L263.74,212.36L264.24,212.36L265.23,212.36L265.73,215.82L268.73,215.82L269.23,217.05L312.19,217.26L312.69,220.83L333.67,220.97L334.17,221.81L389.61,222.46L390.11,222.97L449.55,223.29L450.05,229.44L464.04,229.44L464.53,230.4L475.02,230.42L475.52,232.61L477.02,232.93L477.52,232.93L499,233.55" style="vector-effect: none; fill: none; stroke: rgb(0, 0, 255); stroke-opacity: 1; stroke-width: 2px; opacity: 1;"/></g><g class="points"/><g class="text"/></g><g class="trace scatter tracea7e449" style="stroke-miterlimit: 2; opacity: 0.05;"><g class="fills"/><g class="errorbars"/><g class="lines"><path class="js-line" d="M0,90.67L1.5,156.07L2,156.07L3,159.29L3.5,159.29L4.99,159.59L5.49,159.59L34.47,160.11L34.96,163.85L44.95,163.85L45.45,168.39L48.95,168.84L49.45,176.18L55.44,176.6L55.94,177.51L59.44,177.51L59.94,180.55L60.94,183.96L61.44,183.96L96.4,184.06L96.9,187.44L135.86,187.44L136.36,189.06L145.85,189.06L146.35,209.29L153.35,209.61L153.85,211.93L186.31,212.08L186.81,216.19L187.81,230.65L188.31,230.65L282.72,230.65L283.22,232.46L284.22,234.23L284.71,234.32L299.2,234.32L299.7,247.38L300.2,247.38L300.7,253.21L369.13,253.21L369.63,254.23L448.05,254.23L448.55,273.16L450.05,277.39L450.55,277.39L499,277.55" style="vector-effect: none; fill: none; stroke: rgb(0, 0, 255); stroke-opacity: 1; stroke-width: 2px; opacity: 1;"/></g><g class="points"/><g class="text"/></g><g class="trace scatter tracee2ac06" style="stroke-miterlimit: 2; opacity: 0.05;"><g class="fills"/><g class="errorbars"/><g class="lines"><path class="js-line" d="M0,33.98L1.5,99.28L2,99.28L3,99.61L3.5,101.02L4.99,101.02L5.49,103.76L10.49,103.76L10.99,106.88L31.97,107.09L32.47,109.67L44.46,110.22L44.95,111.46L59.44,111.6L59.94,121.05L90.91,121.78L91.41,121.91L107.39,122.93L107.89,122.93L110.39,123.64L110.89,123.64L120.88,123.64L121.38,124.47L122.38,125.24L122.88,125.24L125.87,125.24L126.37,127.2L143.86,127.42L144.36,129.61L145.35,129.61L145.85,131.28L151.85,131.52L152.35,139.55L159.34,139.55L159.84,143.09L167.33,143.28L167.83,147.79L171.83,147.79L172.33,158.89L173.33,158.89L173.83,159.74L174.33,159.74L174.82,161.97L179.82,161.97L180.32,164.69L181.82,165.01L182.32,165.01L188.81,165.3L189.31,170.94L191.31,171.4L191.81,174.22L192.81,175.8L193.31,176.01L204.3,176.01L204.79,185.68L215.78,185.68L216.28,198.03L216.78,198.03L217.28,200.4L219.78,200.91L220.28,203.45L221.78,203.45L222.28,205.61L239.26,205.61L239.76,215.31L240.76,217.88L241.26,217.88L250.75,217.88L251.25,221.2L261.74,221.2L262.24,223.99L273.73,224.19L274.23,224.78L317.18,225.48L317.68,226.22L322.68,226.22L323.18,227.75L371.13,228.26L371.63,229.18L374.62,229.31L375.12,229.31L385.11,229.31L385.61,230.29L387.11,230.72L387.61,230.72L420.08,230.72L420.58,234.32L421.58,235.09L422.08,235.09L444.55,235.09L445.05,238.77L499,238.77" style="vector-effect: none; fill: none; stroke: rgb(0, 0, 255); stroke-opacity: 1; stroke-width: 2px; opacity: 1;"/></g><g class="points"/><g class="text"/></g><g class="trace scatter tracebbfbb0" style="stroke-miterlimit: 2; opacity: 0.05;"><g class="fills"/><g class="errorbars"/><g class="lines"><path class="js-line" d="M0,80.61L1,80.61L1.5,85.05L3,85.05L3.5,86.81L5.49,86.81L5.99,90.51L8.99,90.64L9.49,90.64L17.98,90.66L18.48,93.82L19.98,94.55L20.48,95.01L21.98,95.04L22.48,101.32L27.97,101.32L28.47,102.6L30.97,102.6L31.47,103.63L35.96,103.9L36.46,106.07L44.46,106.07L44.95,108.02L46.45,108.02L46.95,108.83L47.95,111.8L48.45,111.8L51.95,111.8L52.45,118.93L56.94,118.93L57.44,119.97L58.94,119.97L59.44,136.03L64.44,136.03L64.93,143.06L69.43,143.06L69.93,151.35L71.93,151.35L72.43,152.83L73.43,168.35L73.93,168.35L81.92,168.86L82.42,169.53L82.92,171.01L83.42,179.24L89.91,179.24L90.41,189.52L96.9,189.52L97.4,192.29L99.4,192.29L99.9,203.83L101.4,204.13L101.9,204.13L106.89,204.13L107.39,208.01L108.89,208.01L109.39,209.24L119.38,209.24L119.88,215L130.37,215.21L130.87,222.27L164.34,222.75L164.83,231.4L210.29,231.43L210.79,232.61L217.78,232.7L218.28,232.7L220.78,232.85L221.28,234.05L271.23,234.05L271.73,235.81L273.23,236.34L273.73,236.34L275.22,236.34L275.72,248.59L309.19,248.59L309.69,258.6L310.69,260.11L311.19,260.11L499,260.11" style="vector-effect: none; fill: none; stroke: rgb(0, 0, 255); stroke-opacity: 1; stroke-width: 2px; opacity: 1;"/></g><g class="points"/><g class="text"/></g><g class="trace scatter traced13c09" style="stroke-miterlimit: 2; opacity: 0.05;"><g class="fills"/><g class="errorbars"/><g class="lines"><path class="js-line" d="M0,85.28L1,85.28L1.5,86.11L2.5,87.29L3,87.29L4,91.48L4.5,91.5L6.99,91.5L7.49,92.35L12.99,92.35L13.49,95.07L17.98,95.54L18.48,96.86L24.97,96.99L25.47,100.97L32.47,100.97L32.97,104.46L33.47,104.46L33.97,105.67L37.46,105.67L37.96,106.74L38.96,106.74L39.46,127.29L41.46,127.29L41.96,129.95L42.96,131.24L43.46,131.24L49.95,131.24L50.45,133.56L52.45,133.56L52.95,136.56L54.45,136.56L54.94,137.35L64.93,137.35L65.43,140.7L69.93,140.7L70.43,144.84L71.93,144.84L72.43,147.53L73.43,164.08L73.93,164.08L90.91,164.08L91.41,178.36L105.39,178.36L105.89,179.22L117.88,179.22L118.38,189.68L118.88,191.68L119.38,204.37L120.88,204.37L121.38,207.19L122.88,208.43L123.38,210.41L159.84,210.93L160.34,214.77L162.34,216.5L162.84,216.86L166.33,216.86L166.83,220.32L167.83,223.15L168.33,223.15L196.3,223.15L196.8,224.67L197.8,226.74L198.3,226.74L216.28,226.74L216.78,233.18L265.73,233.49L266.23,282.11L291.21,282.11L291.71,303.89L499,304" style="vector-effect: none; fill: none; stroke: rgb(0, 0, 255); stroke-opacity: 1; stroke-width: 2px; opacity: 1;"/></g><g class="points"/><g class="text"/></g><g class="trace scatter tracebb6e97" style="stroke-miterlimit: 2; opacity: 0.05;"><g class="fills"/><g class="errorbars"/><g class="lines"><path class="js-line" d="M0,98.74L2,98.74L2.5,100.1L6.49,100.1L6.99,105.74L7.99,111.91L8.49,111.91L27.97,112.46L28.47,112.99L39.46,112.99L39.96,113.92L41.46,114.44L41.96,114.44L51.45,114.44L51.95,115.59L52.45,115.64L52.95,121.28L79.42,121.45L79.92,123.25L93.41,123.79L93.91,124.84L94.9,130.46L95.4,130.46L116.38,130.46L116.88,131.96L117.38,131.96L117.88,132.8L127.37,132.98L127.87,135.28L128.87,136.55L129.37,136.55L141.36,136.55L141.86,137.45L156.84,137.54L157.34,138.52L158.34,139.23L158.84,139.23L159.34,139.23L159.84,141.46L160.84,142.37L161.34,142.37L178.82,142.37L179.32,143.5L181.82,143.5L182.32,144.9L190.31,144.9L190.81,150.41L209.29,150.41L209.79,151.35L235.76,151.84L236.26,152.53L251.75,152.53L252.25,153.37L253.25,154.66L253.75,154.66L301.7,154.71L302.2,157.9L320.18,158.38L320.68,171.28L323.68,171.28L324.18,173.6L340.16,173.6L340.66,179.35L342.66,192.63L343.16,192.63L347.65,193.58L348.15,195.27L367.13,195.27L367.63,196.23L371.13,196.23L371.63,197.05L372.13,199.13L372.63,205.84L374.13,205.84L374.62,206.69L379.62,206.69L380.12,209.51L381.62,209.81L382.12,209.81L384.12,209.81L384.61,211.73L420.08,211.79L420.58,212.96L421.08,212.96L421.58,229.4L499,229.49" style="vector-effect: none; fill: none; stroke: rgb(0, 0, 255); stroke-opacity: 1; stroke-width: 2px; opacity: 1;"/></g><g class="points"/><g class="text"/></g><g class="trace scatter trace052102" style="stroke-miterlimit: 2; opacity: 0.05;"><g class="fills"/><g class="errorbars"/><g class="lines"><path class="js-line" d="M0,94.67L1,117.22L1.5,118.02L3,118.64L3.5,118.64L4.99,119.86L5.49,119.86L7.49,119.86L7.99,120.94L8.49,120.94L8.99,122.02L9.49,122.59L9.99,131.06L12.99,131.06L13.49,132.75L15.48,132.75L15.98,139.08L16.48,139.08L16.98,147.65L19.48,148.19L19.98,152.06L34.47,152.53L34.96,166.65L35.96,172.5L36.46,172.67L43.96,172.67L44.46,188.56L51.45,188.56L51.95,190.93L52.95,190.93L53.45,191.81L53.95,191.81L54.45,211.99L58.94,211.99L59.44,212.93L60.44,216.49L60.94,216.49L62.94,216.49L63.44,224.92L64.44,227.47L64.93,227.47L67.93,227.47L68.43,239.47L68.93,239.47L69.43,242.62L89.91,242.62L90.41,251.73L91.91,253.66L92.41,253.66L213.79,253.66L214.29,254.71L245.25,254.71L245.75,257.86L246.75,262.55L247.25,262.55L472.03,262.55L472.53,265.24L473.53,266.94L474.03,266.94L499,266.94" style="vector-effect: none; fill: none; stroke: rgb(0, 0, 255); stroke-opacity: 1; stroke-width: 2px; opacity: 1;"/></g><g class="points"/><g class="text"/></g></g></g><g class="overplot"/><path class="xlines-above crisp" d="M0,0" style="fill: none;"/><path class="ylines-above crisp" d="M0,0" style="fill: none;"/><g class="overlines-above"/><g class="xaxislayer-above"><g class="xtick"><text text-anchor="middle" x="0" y="433" transform="translate(80,0)" style="font-family: 'Open Sans', verdana, arial, sans-serif; font-size: 12px; fill: rgb(42, 63, 95); fill-opacity: 1; white-space: pre; opacity: 1;">0</text></g><g class="xtick"><text text-anchor="middle" x="0" y="433" style="font-family: 'Open Sans', verdana, arial, sans-serif; font-size: 12px; fill: rgb(42, 63, 95); fill-opacity: 1; white-space: pre; opacity: 1;" transform="translate(179.9,0)">200</text></g><g class="xtick"><text text-anchor="middle" x="0" y="433" style="font-family: 'Open Sans', verdana, arial, sans-serif; font-size: 12px; fill: rgb(42, 63, 95); fill-opacity: 1; white-space: pre; opacity: 1;" transform="translate(279.8,0)">400</text></g><g class="xtick"><text text-anchor="middle" x="0" y="433" style="font-family: 'Open Sans', verdana, arial, sans-serif; font-size: 12px; fill: rgb(42, 63, 95); fill-opacity: 1; white-space: pre; opacity: 1;" transform="translate(379.7,0)">600</text></g><g class="xtick"><text text-anchor="middle" x="0" y="433" style="font-family: 'Open Sans', verdana, arial, sans-serif; font-size: 12px; fill: rgb(42, 63, 95); fill-opacity: 1; white-space: pre; opacity: 1;" transform="translate(479.6,0)">800</text></g></g><g class="yaxislayer-above"><g class="ytick"><text text-anchor="end" x="79" y="3.15" transform="translate(0,405.6)" style="font-family: 'Open Sans', verdana, arial, sans-serif; font-size: 9px; fill: rgb(42, 63, 95); fill-opacity: 1; white-space: pre; opacity: 1;">2</text></g><g class="ytick"><text text-anchor="end" x="79" y="3.15" style="font-family: 'Open Sans', verdana, arial, sans-serif; font-size: 9px; fill: rgb(42, 63, 95); fill-opacity: 1; white-space: pre; opacity: 1;" transform="translate(0,378.62)">5</text></g><g class="ytick"><text text-anchor="end" x="79" y="4.199999999999999" style="font-family: 'Open Sans', verdana, arial, sans-serif; font-size: 12px; fill: rgb(42, 63, 95); fill-opacity: 1; white-space: pre; opacity: 1;" transform="translate(0,358.21)">0.01</text></g><g class="ytick"><text text-anchor="end" x="79" y="3.15" style="font-family: 'Open Sans', verdana, arial, sans-serif; font-size: 9px; fill: rgb(42, 63, 95); fill-opacity: 1; white-space: pre; opacity: 1;" transform="translate(0,337.8)">2</text></g><g class="ytick"><text text-anchor="end" x="79" y="3.15" style="font-family: 'Open Sans', verdana, arial, sans-serif; font-size: 9px; fill: rgb(42, 63, 95); fill-opacity: 1; white-space: pre; opacity: 1;" transform="translate(0,310.81)">5</text></g><g class="ytick"><text text-anchor="end" x="79" y="4.199999999999999" style="font-family: 'Open Sans', verdana, arial, sans-serif; font-size: 12px; fill: rgb(42, 63, 95); fill-opacity: 1; white-space: pre; opacity: 1;" transform="translate(0,290.4)">0.1</text></g><g class="ytick"><text text-anchor="end" x="79" y="3.15" style="font-family: 'Open Sans', verdana, arial, sans-serif; font-size: 9px; fill: rgb(42, 63, 95); fill-opacity: 1; white-space: pre; opacity: 1;" transform="translate(0,269.99)">2</text></g><g class="ytick"><text text-anchor="end" x="79" y="3.15" style="font-family: 'Open Sans', verdana, arial, sans-serif; font-size: 9px; fill: rgb(42, 63, 95); fill-opacity: 1; white-space: pre; opacity: 1;" transform="translate(0,243.01)">5</text></g><g class="ytick"><text text-anchor="end" x="79" y="4.199999999999999" style="font-family: 'Open Sans', verdana, arial, sans-serif; font-size: 12px; fill: rgb(42, 63, 95); fill-opacity: 1; white-space: pre; opacity: 1;" transform="translate(0,222.59)">1</text></g><g class="ytick"><text text-anchor="end" x="79" y="3.15" style="font-family: 'Open Sans', verdana, arial, sans-serif; font-size: 9px; fill: rgb(42, 63, 95); fill-opacity: 1; white-space: pre; opacity: 1;" transform="translate(0,202.18)">2</text></g><g class="ytick"><text text-anchor="end" x="79" y="3.15" style="font-family: 'Open Sans', verdana, arial, sans-serif; font-size: 9px; fill: rgb(42, 63, 95); fill-opacity: 1; white-space: pre; opacity: 1;" transform="translate(0,175.2)">5</text></g><g class="ytick"><text text-anchor="end" x="79" y="4.199999999999999" style="font-family: 'Open Sans', verdana, arial, sans-serif; font-size: 12px; fill: rgb(42, 63, 95); fill-opacity: 1; white-space: pre; opacity: 1;" transform="translate(0,154.79)">10</text></g><g class="ytick"><text text-anchor="end" x="79" y="3.15" style="font-family: 'Open Sans', verdana, arial, sans-serif; font-size: 9px; fill: rgb(42, 63, 95); fill-opacity: 1; white-space: pre; opacity: 1;" transform="translate(0,134.38)">2</text></g><g class="ytick"><text text-anchor="end" x="79" y="3.15" style="font-family: 'Open Sans', verdana, arial, sans-serif; font-size: 9px; fill: rgb(42, 63, 95); fill-opacity: 1; white-space: pre; opacity: 1;" transform="translate(0,107.39)">5</text></g></g><g class="overaxes-above"/></g></g><g class="polarlayer"/><g class="smithlayer"/><g class="ternarylayer"/><g class="geolayer"/><g class="funnelarealayer"/><g class="pielayer"/><g class="iciclelayer"/><g class="treemaplayer"/><g class="sunburstlayer"/><g class="glimages"/><defs id="topdefs-3882c1"><g class="clips"/><clipPath id="legend3882c1"><rect width="99" height="29" x="0" y="0"/></clipPath></defs><g class="layer-above"><g class="imagelayer"/><g class="shapelayer"/></g><g class="infolayer"><g class="legend" pointer-events="all" transform="translate(588.98,100)"><rect class="bg" shape-rendering="crispEdges" width="99" height="29" x="0" y="0" style="stroke: rgb(68, 68, 68); stroke-opacity: 1; fill: rgb(255, 255, 255); fill-opacity: 1; stroke-width: 0px;"/><g class="scrollbox" transform="" clip-path="url(#legend3882c1)"><g class="groups"><g class="traces" transform="translate(0,14.5)" style="opacity: 1;"><text class="legendtext" text-anchor="start" x="40" y="4.680000000000001" style="font-family: 'Open Sans', verdana, arial, sans-serif; font-size: 12px; fill: rgb(42, 63, 95); fill-opacity: 1; white-space: pre;">Best Run</text><g class="layers" style="opacity: 1;"><g class="legendfill"/><g class="legendlines"><path class="js-line" d="M5,0h30" style="fill: none; stroke: rgb(255, 0, 0); stroke-opacity: 1; stroke-width: 2px;"/></g><g class="legendsymbols"><g class="legendpoints"/></g></g><rect class="legendtoggle" x="0" y="-9.5" width="94" height="19" style="fill: rgb(0, 0, 0); fill-opacity: 0;"/></g></g></g><rect class="scrollbar" rx="20" ry="3" width="0" height="0" x="0" y="0" style="fill: rgb(128, 139, 164); fill-opacity: 1;"/></g><g class="g-gtitle"><text class="gtitle" x="35" y="50" text-anchor="start" dy="0em" style="font-family: 'Open Sans', verdana, arial, sans-serif; font-size: 17px; fill: rgb(42, 63, 95); opacity: 1; font-weight: normal; white-space: pre;">Fitness history | GA - P2</text></g><g class="g-xtitle"><text class="xtitle" x="329.5" y="460.3" text-anchor="middle" style="font-family: 'Open Sans', verdana, arial, sans-serif; font-size: 14px; fill: rgb(42, 63, 95); opacity: 1; font-weight: normal; white-space: pre;">Generation</text></g><g class="g-ytitle"><text class="ytitle" transform="rotate(-90,27.434375000000003,260)" x="27.434375000000003" y="260" text-anchor="middle" style="font-family: 'Open Sans', verdana, arial, sans-serif; font-size: 14px; fill: rgb(42, 63, 95); opacity: 1; font-weight: normal; white-space: pre;">Fitness (log scale)</text></g></g></svg>