<svg class="main-svg" xmlns="http://www.w3.org/2000/svg" xmlns:xlink="http://www.w3.org/1999/xlink" width="700" height="500" style="" viewBox="0 0 700 500"><rect x="0" y="0" width="700" height="500" style="fill: rgb(255, 255, 255); fill-opacity: 1;"/><defs id="defs-7e559b"><g class="clips"><clipPath id="clip7e559bxyplot" class="plotclip"><rect width="503" height="320"/></clipPath><clipPath class="axesclip" id="clip7e559bx"><rect x="80" y="0" width="503" height="500"/></clipPath><clipPath class="axesclip" id="clip7e559by"><rect x="0" y="100" width="700" height="320"/></clipPath><clipPath class="axesclip" id="clip7e559bxy"><rect x="80" y="100" width="503" height="320"/></clipPath></g><g class="gradients"/><g class="patterns"/></defs><g class="bglayer"><rect class="bg" x="80" y="100" width="503" height="320" style="fill: rgb(229, 236, 246); fill-opacity: 1; stroke-width: 0;"/></g><g class="layer-below"><g class="imagelayer"/><g class="shapelayer"/></g><g class="cartesianlayer"><g class="subplot xy"><g class="layer-subplot"><g class="shapelayer"/><g class="imagelayer"/></g><g class="minor-gridlayer"><g class="x"/><g class="y"/></g><g class="gridlayer"><g class="x"><path class="xgrid crisp" transform="translate(180.7,0)" d="M0,100v320" style="stroke: rgb(255, 255, 255); stroke-opacity: 1; stroke-width: 1px;"/><path class="xgrid crisp" transform="translate(281.4,0)" d="M0,100v320" style="stroke: rgb(255, 255, 255); stroke-opacity: 1; stroke-width: 1px;"/><path class="xgrid crisp" transform="translate(382.1,0)" d="M0,100v320" style="stroke: rgb(255, 255, 255); stroke-opacity: 1; stroke-width: 1px;"/><path class="xgrid crisp" transform="translate(482.8,0)" d="M0,100v320" style="stroke: rgb(255, 255, 255); stroke-opacity: 1; stroke-width: 1px;"/></g><g class="y"><path class="ygrid crisp" transform="translate(0,416)" d="M80,0h503" style="stroke: rgb(255, 255, 255); stroke-opacity: 1; stroke-width: 1px;"/><path class="ygrid crisp" transform="translate(0,386.63)" d="M80,0h503" style="stroke: rgb(255, 255, 255); stroke-opacity: 1; stroke-width: 1px;"/><path class="ygrid crisp" transform="translate(0,364.42)" d="M80,0h503" style="stroke: rgb(255, 255, 255); stroke-opacity: 1; stroke-width: 1px;"/><path class="ygrid crisp" transform="translate(0,342.21000000000004)" d="M80,0h503" style="stroke: rgb(255, 255, 255); stroke-opacity: 1; stroke-width: 1px;"/><path class="ygrid crisp" transform="translate(0,312.84000000000003)" d="M80,0h503" style="stroke: rgb(255, 255, 255); stroke-opacity: 1; stroke-width: 1px;"/><path class="ygrid crisp" transform="translate(0,290.62)" d="M80,0h503" style="stroke: rgb(255, 255, 255); stroke-opacity: 1; stroke-width: 1px;"/><path class="ygrid crisp" transform="translate(0,268.40999999999997)" d="M80,0h503" style="stroke: rgb(255, 255, 255); stroke-opacity: 1; stroke-width: 1px;"/><path class="ygrid crisp" transform="translate(0,239.04)" d="M80,0h503" style="stroke: rgb(255, 255, 255); stroke-opacity: 1; stroke-width: 1px;"/><path class="ygrid crisp" transform="translate(0,216.82999999999998)" d="M80,0h503" style="stroke: rgb(255, 255, 255); stroke-opacity: 1; stroke-width: 1px;"/><path class="ygrid crisp" transform="translate(0,194.61)" d="M80,0h503" style="stroke: rgb(255, 255, 255); stroke-opacity: 1; stroke-width: 1px;"/><path class="ygrid crisp" transform="translate(0,165.25)" d="M80,0h503" style="stroke: rgb(255, 255, 255); stroke-opacity: 1; stroke-width: 1px;"/><path class="ygrid crisp" transform="translate(0,143.03)" d="M80,0h503" style="stroke: rgb(255, 255, 255); stroke-opacity: 1; stroke-width: 1px;"/><path class="ygrid crisp" transform="translate(0,120.82)" d="M80,0h503" style="stroke: rgb(255, 255, 255); stroke-opacity: 1; stroke-width: 1px;"/></g></g><g class="zerolinelayer"><path class="xzl zl crisp" transform="translate(80,0)" d="M0,100v320" style="stroke: rgb(255, 255, 255); stroke-opacity: 1; stroke-width: 2px;"/></g><g class="layer-between"><g class="shapelayer"/><g class="imagelayer"/></g><path class="xlines-below"/><path class="ylines-below"/><g class="overlines-below"/><g class="xaxislayer-below"/><g class="yaxislayer-below"/><g class="overaxes-below"/><g class="plot" transform="translate(80,100)" clip-path="url(#clip7e559bxyplot)"><g class="scatterlayer mlayer"><g class="trace scatter trace213e8e" style="stroke-miterlimit: 2; opacity: 0.05;"><g class="fills"/><g class="errorbars"/><g class="lines"><path class="js-line" d="M0,46.51L0.5,47.03L1.01,51.42L2.01,55.03L2.52,56.63L3.52,59.53L4.03,59.53L5.04,59.53L5.54,60.64L7.55,60.64L8.06,68.02L8.56,68.02L9.06,70.58L24.17,70.58L24.67,72.39L28.7,72.39L29.2,75.8L32.22,75.8L32.73,77.91L34.24,82.69L34.74,82.69L40.78,83.17L41.29,83.62L47.33,84.08L47.83,89L49.34,99.81L49.85,99.81L52.87,99.81L53.37,104.57L54.38,106.28L54.88,113.32L66.97,113.32L67.47,120.59L75.02,120.59L75.53,123.19L76.53,124.92L77.04,124.92L80.06,124.92L80.56,129.22L81.06,129.22L81.57,130.31L83.08,130.31L83.58,133.41L84.59,133.72L85.09,135L87.11,135L87.61,146.04L90.13,146.04L90.63,147.64L96.17,148.05L96.67,150.07L97.18,150.07L97.68,151.57L98.69,151.57L99.19,154.08L101.71,154.08L102.21,155.06L102.71,155.06L103.22,160.77L106.74,160.77L107.25,162.83L109.76,162.83L110.27,163.59L111.78,163.84L112.28,166.28L112.78,166.28L113.29,173.94L113.79,175.02L114.3,202.08L127.89,202.78L128.39,205.96L134.94,205.96L135.44,211.1L140.98,211.1L141.48,212.03L142.49,215.96L142.99,215.96L145.51,215.96L146.02,220.11L147.02,220.48L147.53,223.55L155.58,223.55L156.09,230.1L159.11,230.1L159.61,236.95L160.62,236.95L161.12,238.21L209.96,238.39L210.46,241.28L213.49,243.25L213.99,243.25L245.21,243.25L245.71,244.39L247.72,244.62L248.23,244.62L260.31,244.62L260.81,262.27L330.8,262.82L331.31,264.08L332.31,266.72L332.82,266.72L491.92,266.72L492.43,268.56L493.43,278.96L493.94,278.96L503,279.32" style="vector-effect: none; fill: none; stroke: rgb(0, 0, 255); stroke-opacity: 1; stroke-width: 2px; opacity: 1;"/></g><g class="points"/><g class="text"/></g><g class="trace scatter traced2e6d0" style="stroke-miterlimit: 2; opacity: 0.05;"><g class="fills"/><g class="errorbars"/><g class="lines"><path class="js-line" d="M0,67.32L1.01,76.42L1.51,77.05L3.52,82.29L4.03,82.29L13.09,82.7L13.59,83.37L21.15,83.76L21.65,86.69L28.7,87.06L29.2,87.48L39.27,87.48L39.78,90.54L41.29,92.6L41.79,92.78L52.87,92.78L53.37,94.13L56.39,94.13L56.9,100.63L74.52,100.97L75.02,102.44L87.11,102.44L87.61,104.22L88.11,104.22L88.62,105.32L90.63,105.32L91.13,107.11L100.2,107.81L100.7,108.5L107.75,108.5L108.25,109.73L109.76,109.73L110.27,111.06L112.78,111.06L113.29,114.87L123.86,115.59L124.37,121.87L129.4,121.87L129.9,125.05L131.92,125.05L132.42,133.36L137.96,133.56L138.46,134.75L138.97,134.81L139.47,136.69L141.48,136.69L141.99,156.18L142.99,156.18L143.5,158.75L144,159.22L144.51,161.33L148.03,161.33L148.53,164.62L149.54,165.62L150.04,165.62L150.55,165.62L151.05,166.59L158.6,166.59L159.11,168.43L160.11,173.02L160.62,173.02L172.7,173.02L173.21,177.48L177.23,177.48L177.74,185.3L180.25,185.3L180.76,186.62L181.76,188.21L182.27,188.21L197.88,188.28L198.38,189.99L199.39,193.27L199.89,193.27L204.93,193.27L205.43,204.39L212.48,204.92L212.98,205.2L219.02,205.8L219.53,209.79L249.23,209.81L249.74,242.46L326.77,242.49L327.28,243.29L328.28,259.32L328.79,259.32L341.38,259.49L341.88,285.35L503,285.35" style="vector-effect: none; fill: none; stroke: rgb(0, 0, 255); stroke-opacity: 1; stroke-width: 2px; opacity: 1;"/></g><g class="points"/><g class="text"/></g><g class="trace scatter trace5f70ef" style="stroke-miterlimit: 2; opacity: 0.05;"><g class="fills"/><g class="errorbars"/><g class="lines"><path class="js-line" d="M0,93.11L2.01,93.47L2.52,94.1L5.54,94.1L6.04,96.68L12.59,97.04L13.09,108.26L29.2,108.26L29.71,109.33L47.33,109.53L47.83,110.25L58.41,110.25L58.91,111.03L81.57,111.05L82.07,115.76L91.64,115.76L92.14,118.96L95.16,119.59L95.67,119.59L135.95,119.85L136.45,120.47L139.97,120.58L140.48,120.58L167.67,120.97L168.17,121.45L171.69,121.45L172.2,125.53L172.7,126.82L173.21,132.34L176.23,132.73L176.73,132.73L287.5,132.96L288,134.12L289.51,135.15L290.02,135.15L354.97,135.19L355.47,136.36L356.48,141.34L356.98,141.34L392.23,141.34L392.73,142.18L426.47,142.36L426.97,145.45L428.98,145.73L429.49,145.73L476.82,145.73L477.32,147.24L503,147.51" style="vector-effect: none; fill: none; stroke: rgb(0, 0, 255); stroke-opacity: 1; stroke-width: 2px; opacity: 1;"/></g><g class="points"/><g class="text"/></g><g class="trace scatter trace000da0" style="stroke-miterlimit: 2; opacity: 0.05;"><g class="fills"/><g class="errorbars"/><g class="lines"><path class="js-line" d="M0,18.65L1.01,79.39L1.51,93.73L4.03,93.73L4.53,103.64L5.54,103.64L6.04,107.11L7.05,107.35L7.55,113.99L12.59,113.99L13.09,116.48L14.6,116.48L15.11,122.69L18.63,122.69L19.13,124.08L20.64,124.57L21.15,124.57L25.68,124.57L26.18,132.58L31.72,132.94L32.22,134.63L33.73,135.35L34.24,141.81L49.85,142.49L50.35,142.64L54.38,142.86L54.88,144.74L56.39,145.23L56.9,145.23L58.91,145.23L59.41,154.36L77.54,154.8L78.04,155.43L79.55,155.51L80.06,160.17L80.56,160.17L81.06,164.33L88.11,164.33L88.62,166.99L96.67,166.99L97.18,169.67L98.18,184.59L98.69,184.59L105.74,184.69L106.24,188.24L110.77,188.24L111.27,189.13L113.29,189.18L113.79,199.07L116.81,199.07L117.32,214.06L150.55,214.14L151.05,218.46L152.06,224.7L152.56,224.7L156.59,225.06L157.09,229.42L195.86,229.61L196.37,242.26L196.87,242.26L197.37,243.3L309.65,243.3L310.16,247.03L311.17,248.2L311.67,248.46L316.7,248.56L317.21,248.56L321.74,248.56L322.24,254.91L434.52,254.96L435.03,262.43L465.74,263.15L466.24,263.42L469.27,263.57L469.77,263.57L503,263.61" style="vector-effect: none; fill: none; stroke: rgb(0, 0, 255); stroke-opacity: 1; stroke-width: 2px; opacity: 1;"/></g><g class="points"/><g class="text"/></g><g class="trace scatter trace7ba462" style="stroke-miterlimit: 2; opacity: 0.05;"><g class="fills"/><g class="errorbars"/><g class="lines"><path class="js-line" d="M0,101.72L2.01,101.72L2.52,110.2L12.08,110.2L12.59,114.15L14.6,114.15L15.11,123.1L22.66,123.1L23.16,148.35L35.75,148.35L36.25,150.16L37.26,152.17L37.76,152.17L49.34,152.42L49.85,157.16L51.86,157.16L52.36,162.38L104.23,162.38L104.73,165.6L110.77,166.1L111.27,166.1L196.87,166.1L197.37,174.32L198.88,174.32L199.39,180.2L200.9,180.57L201.4,180.57L206.94,180.64L207.44,180.64L226.58,180.64L227.08,181.48L228.09,208.15L228.59,208.15L327.78,208.15L328.28,210.31L330.3,210.59L330.8,210.59L348.93,210.59L349.43,215.56L359,215.57L359.5,216.81L503,216.82" style="vector-effect: none; fill: none; stroke: rgb(0, 0, 255); stroke-opacity: 1; stroke-width: 2px; opacity: 1;"/></g><g class="points"/><g class="text"/></g><g class="trace scatter tracef172e9" style="stroke-miterlimit: 2; opacity: 0.05;"><g class="fills"/><g class="errorbars"/><g class="lines"><path class="js-line" d="M0,60.09L1.51,118.12L2.01,121.76L3.02,121.76L3.52,122.66L4.53,125.95L5.04,125.95L7.55,125.95L8.06,130.78L13.09,131.46L13.59,136.09L14.1,136.09L14.6,141.31L15.61,145.58L16.11,145.58L22.15,145.58L22.66,164.9L30.71,164.95L31.22,166.1L32.22,169.64L32.73,169.64L50.85,169.64L51.36,170.78L59.41,171.15L59.92,195.29L61.43,204.58L61.93,204.58L72.5,205.22L73.01,206.48L118.32,206.48L118.83,223.95L119.83,230.32L120.34,230.32L163.64,230.78L164.14,248.16L208.95,248.19L209.46,249.7L234.13,249.7L234.63,250.99L254.27,251.01L254.77,251.01L259.81,251.01L260.31,254.76L402.3,255.45L402.8,255.54L409.35,255.6L409.85,255.6L434.02,255.6L434.52,256.46L435.53,257.18L436.03,257.18L503,257.18" style="vector-effect: none; fill: none; stroke: rgb(0, 0, 255); stroke-opacity: 1; stroke-width: 2px; opacity: 1;"/></g><g class="points"/><g class="text"/></g><g class="trace scatter tracea542e0" style="stroke-miterlimit: 2; opacity: 0.05;"><g class="fills"/><g class="errorbars"/><g class="lines"><path class="js-line" d="M0,87.75L0.5,97.84L1.01,135.45L8.56,135.45L9.06,142.57L10.07,162.15L10.57,162.26L12.59,162.99L13.09,163.05L14.1,163.05L14.6,173.61L25.18,173.61L25.68,181.7L27.19,182.23L27.69,182.23L67.47,182.23L67.97,183.02L73.01,183.02L73.51,188.45L105.23,188.45L105.74,194.82L106.74,200.29L107.25,201.52L114.3,201.52L114.8,203.98L116.31,208.35L116.81,208.35L121.85,208.87L122.35,209.74L161.62,210.48L162.13,214.53L163.14,218.53L163.64,218.72L165.65,219.11L166.16,219.14L204.93,219.14L205.43,221.2L395.25,221.45L395.75,241.57L404.82,241.57L405.32,249.77L406.33,253.19L406.83,253.19L417.91,253.19L418.41,255.64L419.42,262.28L419.92,262.28L503,262.28" style="vector-effect: none; fill: none; stroke: rgb(0, 0, 255); stroke-opacity: 1; stroke-width: 2px; opacity: 1;"/></g><g class="points"/><g class="text"/></g><g class="trace scatter trace5ad3eb" style="stroke-miterlimit: 2; opacity: 0.05;"><g class="fills"/><g class="errorbars"/><g class="lines"><path class="js-line" d="M0,70.02L0.5,70.21L1.01,73.37L1.51,73.37L2.01,80.16L11.08,80.16L11.58,82.13L21.65,82.13L22.15,93.27L33.73,93.27L34.24,95.33L45.32,95.78L45.82,96.57L47.83,97.97L48.34,97.97L49.34,97.97L49.85,101.23L61.93,101.23L62.43,102.13L72,102.13L72.5,104.83L73.51,106.85L74.02,106.85L93.15,107.37L93.65,113.31L95.67,113.38L96.17,114.59L107.75,114.59L108.25,119.64L119.33,120.34L119.83,120.73L123.36,121.12L123.86,137.86L136.95,137.86L137.46,140.17L138.46,141.25L138.97,142.36L139.97,145.03L140.48,145.03L145.51,145.03L146.02,170.49L150.55,170.49L151.05,171.41L152.06,176.08L152.56,176.08L153.57,176.81L154.07,176.81L163.14,176.94L163.64,182.55L165.15,182.95L165.65,182.95L170.69,182.95L171.19,186.85L172.7,200.66L173.21,200.66L194.86,200.66L195.36,202.57L204.93,202.57L205.43,204.06L206.94,204.55L207.44,204.55L229.09,204.55L229.6,210.96L244.7,211.68L245.21,221.12L255.28,221.41L255.78,221.41L292.54,221.48L293.04,223.32L341.38,223.32L341.88,224.26L342.89,232.4L343.39,232.4L382.66,232.4L383.17,233.82L384.68,234.2L385.18,234.31L503,234.81" style="vector-effect: none; fill: none; stroke: rgb(0, 0, 255); stroke-opacity: 1; stroke-width: 2px; opacity: 1;"/></g><g class="points"/><g class="text"/></g><g class="trace scatter trace56576d" style="stroke-miterlimit: 2; opacity: 0.05;"><g class="fills"/><g class="errorbars"/><g class="lines"><path class="js-line" d="M0,16L1.01,59.76L1.51,63.21L2.52,63.21L3.02,80L4.53,80L5.04,86.5L7.05,86.5L7.55,95.16L9.06,99.45L9.57,99.45L10.57,99.45L11.08,101.24L12.08,106.3L12.59,108.12L14.6,108.12L15.11,109.83L16.11,125.69L16.62,125.69L25.68,126.05L26.18,128.57L30.21,128.57L30.71,133.44L37.26,133.44L37.76,140.17L40.78,140.17L41.29,141.95L56.39,141.95L56.9,148.99L65.46,148.99L65.96,152.16L68.48,152.77L68.98,153.03L75.53,153.03L76.03,159.66L83.08,159.66L83.58,164.36L85.09,164.36L85.6,167.71L89.62,167.71L90.13,172.37L92.14,172.59L92.64,172.59L94.16,172.59L94.66,180.89L95.67,185.64L96.17,185.64L113.29,186.37L113.79,191.95L114.3,191.95L114.8,195.71L130.41,195.71L130.91,230.03L220.53,230.03L221.04,234.28L221.54,234.28L222.05,235.47L250.24,235.47L250.74,237.28L449.13,237.31L449.63,240.53L450.64,241.47L451.14,241.47L487.39,241.47L487.89,246.27L488.9,247.61L489.41,248.05L503,248.05" style="vector-effect: none; fill: none; stroke: rgb(0, 0, 255); stroke-opacity: 1; stroke-width: 2px; opacity: 1;"/></g><g class="points"/><g class="text"/></g><g class="trace scatter traceb739bf" style="stroke-miterlimit: 2; opacity: 0.05;"><g class="fills"/><g class="errorbars"/><g class="lines"><path class="js-line" d="M0,82.77L1.51,93.34L2.01,98.14L2.52,98.14L3.02,105.95L9.57,106.03L10.07,107.07L11.08,107.07L11.58,107.97L19.64,107.97L20.14,110.17L21.15,110.17L21.65,111.52L22.66,114.82L23.16,114.82L25.68,114.91L26.18,121.74L27.69,122.2L28.2,127.1L37.26,127.59L37.76,131.26L40.28,131.4L40.78,133.1L46.83,133.1L47.33,135.62L49.34,135.62L49.85,137.74L50.35,137.74L50.85,147.82L58.91,147.82L59.41,150.87L60.42,152.49L60.92,152.49L68.48,152.49L68.98,154.39L70.49,160.32L70.99,160.32L73.01,160.32L73.51,163.99L82.07,164.57L82.57,169.74L83.08,169.74L83.58,175.65L84.59,178.35L85.09,178.35L86.6,178.35L87.11,192.33L104.23,192.33L104.73,204.67L107.25,204.67L107.75,223.87L128.39,223.87L128.9,225.37L129.9,226.43L130.41,226.43L165.15,226.63L165.65,227.28L174.21,227.92L174.72,228.15L197.37,228.67L197.88,228.67L216,229.16L216.51,230.14L218.52,230.51L219.02,230.51L222.05,230.99L222.55,231.3L226.07,231.41L226.58,231.41L277.93,231.72L278.44,233.13L304.62,233.13L305.12,234.03L307.14,234.48L307.64,234.48L503,234.81" style="vector-effect: none; fill: none; stroke: rgb(0, 0, 255); stroke-opacity: 1; stroke-width: 2px; opacity: 1;"/></g><g class="points"/><g class="text"/></g><g class="trace scatter tracef68884" style="stroke-miterlimit: 2; opacity: 0.05;"><g class="fills"/><g class="errorbars"/><g class="lines"><path class="js-line" d="M0,48.35L1.51,48.35L2.01,62L29.71,62L30.21,63.96L47.33,64.64L47.83,67.76L48.34,67.76L48.84,69.11L53.87,69.11L54.38,71.17L63.94,71.17L64.45,71.97L66.97,72.62L67.47,73.7L68.98,74.03L69.48,74.03L76.53,74.4L77.04,75.01L96.17,75.01L96.67,76.04L97.68,76.08L98.18,77.67L119.83,77.98L120.34,79.26L122.85,79.26L123.36,82.9L123.86,82.9L124.37,87.36L137.96,87.36L138.46,88.77L155.08,88.81L155.58,90.19L157.09,91.4L157.6,91.4L159.11,91.4L159.61,96.41L167.67,96.43L168.17,100.05L168.67,100.05L169.18,100.89L185.79,100.89L186.3,101.88L189.82,101.88L190.32,102.68L191.33,102.68L191.83,106.49L212.98,106.49L213.49,112.41L220.53,112.41L221.04,121.76L222.55,121.76L223.05,126.04L224.56,126.04L225.07,131.98L233.63,132.22L234.13,133.22L235.14,136.02L235.64,136.02L237.15,136.37L237.65,136.37L238.16,136.37L238.66,148.82L253.77,149.1L254.27,153.13L255.28,155.07L255.78,155.61L295.56,155.69L296.06,160.55L297.57,161.07L298.07,161.07L311.67,161.07L312.17,162.65L315.19,162.66L315.7,164.85L316.2,164.85L316.7,168.81L321.24,168.81L321.74,173.3L323.25,179.11L323.75,179.11L355.98,179.35L356.48,181.45L356.98,181.45L357.49,184.33L366.55,184.43L367.05,190.68L411.87,190.82L412.37,193.89L415.39,194.04L415.89,194.04L429.99,194.24L430.5,196.61L431.5,197.57L432.01,197.57L453.66,197.57L454.16,198.51L476.31,199.15L476.82,200.04L484.37,200.21L484.87,200.21L489.91,200.21L490.41,206.51L491.42,208.44L491.92,208.44L503,208.44" style="vector-effect: none; fill: none; stroke: rgb(0, 0, 255); stroke-opacity: 1; stroke-width: 2px; opacity: 1;"/></g><g class="points"/><g class="text"/></g><g class="trace scatter trace38b0d6" style="stroke-miterlimit: 2; opacity: 0.05;"><g class="fills"/><g class="errorbars"/><g class="lines"><path class="js-line" d="M0,102.63L0.5,102.63L1.01,105.25L2.01,107.15L2.52,107.15L4.03,107.15L4.53,111.04L15.11,111.04L15.61,118.91L28.7,118.91L29.2,119.77L33.73,119.77L34.24,121.72L35.25,126.87L35.75,126.87L36.25,126.87L36.76,136.52L61.93,137.21L62.43,141.54L63.94,141.54L64.45,143.62L69.48,143.62L69.99,146.72L73.01,146.72L73.51,149.09L74.02,149.09L74.52,162.1L80.06,162.1L80.56,181.85L84.59,181.85L85.09,182.76L86.1,183.51L86.6,183.51L96.67,183.51L97.18,185.77L98.69,187.19L99.19,187.19L106.74,187.19L107.25,192.83L108.25,193.91L108.76,193.91L109.26,193.91L109.76,196.61L114.3,196.68L114.8,198.01L119.83,198.01L120.34,199.84L121.34,200.55L121.85,208.08L169.68,208.21L170.18,212.86L214.49,212.87L215,219.07L226.07,219.73L226.58,232.36L227.58,236.88L228.09,236.88L318.21,236.88L318.72,241.3L337.35,241.44L337.85,249.81L362.52,249.93L363.03,252.45L503,252.68" style="vector-effect: none; fill: none; stroke: rgb(0, 0, 255); stroke-opacity: 1; stroke-width: 2px; opacity: 1;"/></g><g class="points"/><g class="text"/></g><g class="trace scatter trace9ed492" style="stroke-miterlimit: 2; opacity: 0.05;"><g class="fills"/><g class="errorbars"/><g class="lines"><path class="js-line" d="M0,64.66L1.51,105.53L2.01,106.4L3.52,107.74L4.03,107.74L11.08,107.92L11.58,109.06L13.59,109.42L14.1,109.86L15.11,121.29L15.61,121.29L25.18,121.87L25.68,122.66L28.2,122.66L28.7,128.21L33.73,128.21L34.24,130.51L36.25,130.51L36.76,136.7L41.79,136.7L42.29,139.21L45.82,139.21L46.32,143.31L47.83,143.31L48.34,147.5L51.86,147.5L52.36,148.87L66.97,149.33L67.47,154.99L68.98,158.55L69.48,158.55L75.53,158.7L76.03,159.91L82.07,160.4L82.57,160.4L84.59,160.4L85.09,165.86L105.74,165.86L106.24,167.44L110.77,168.15L111.27,169.02L114.8,169.07L115.3,170.57L116.31,170.57L116.81,174.09L117.82,182.35L118.32,182.35L145.01,182.49L145.51,183.8L148.03,184.09L148.53,184.09L161.12,184.09L161.62,185.91L166.16,186.16L166.66,187.23L181.76,187.48L182.27,191.33L184.28,191.53L184.79,191.53L230.1,192.2L230.6,195.79L231.61,204.35L232.12,204.35L241.68,204.35L242.19,208.42L243.7,208.81L244.2,209.33L253.26,209.54L253.77,211.6L274.91,211.6L275.42,214.69L278.94,214.69L279.44,217.49L375.11,218.24L375.61,218.27L422.44,218.54L422.94,218.54L453.15,218.54L453.66,219.37L454.66,219.99L455.17,219.99L490.92,219.99L491.42,221.91L492.43,224.15L492.93,224.15L503,224.15" style="vector-effect: none; fill: none; stroke: rgb(0, 0, 255); stroke-opacity: 1; stroke-width: 2px; opacity: 1;"/></g><g class="points"/><g class="text"/></g><g class="trace scatter trace6bcd6a" style="stroke-miterlimit: 2; opacity: 0.05;"><g class="fills"/><g class="errorbars"/><g class="lines"><path class="js-line" d="M0,50.5L1.01,56.87L1.51,56.94L3.02,68.44L3.52,68.44L6.04,68.99L6.55,70.47L9.06,70.47L9.57,71.93L15.11,71.93L15.61,73.06L17.12,73.53L17.62,73.53L20.14,73.53L20.64,74.44L21.15,74.44L21.65,75.33L22.66,82.29L23.16,82.29L32.73,82.99L33.23,87.62L41.29,88.06L41.79,91.53L43.3,91.53L43.8,92.66L44.81,95.69L45.32,95.69L45.82,95.69L46.32,97.4L47.33,104.78L47.83,104.78L61.93,105.25L62.43,107.79L63.44,107.79L63.94,114.93L69.48,114.93L69.99,119.9L70.99,122.06L71.5,122.06L72.5,122.06L73.01,126.01L74.52,126.01L75.02,128.63L76.03,131.34L76.53,131.34L77.54,131.34L78.04,133.6L80.56,134.22L81.06,134.5L83.08,134.5L83.58,136.46L88.62,137.03L89.12,148.12L90.13,148.12L90.63,149.42L91.64,150.37L92.14,150.37L96.17,150.37L96.67,171.14L108.25,171.14L108.76,179.12L109.76,179.96L110.27,179.96L111.27,181.86L111.78,181.86L129.9,182.36L130.41,184.11L136.95,184.11L137.46,190.75L142.99,190.9L143.5,194.45L158.6,194.45L159.11,199.89L160.62,199.89L161.12,200.68L162.13,207.55L162.63,207.55L195.86,208.29L196.37,208.37L197.37,208.37L197.88,215.95L205.43,215.95L205.93,220.64L206.94,244.89L207.44,244.89L220.03,244.89L220.53,246.29L251.25,246.63L251.75,250.77L269.88,250.8L270.38,268.77L345.4,268.77L345.91,283.14L346.41,283.14L346.91,285.27L376.12,285.27L376.62,286.29L377.63,288.19L378.13,288.87L503,288.87" style="vector-effect: none; fill: none; stroke: rgb(0, 0, 255); stroke-opacity: 1; stroke-width: 2px; opacity: 1;"/></g><g class="points"/><g class="text"/></g><g class="trace scatter tracea1bfc2" style="stroke-miterlimit: 2; opacity: 0.05;"><g class="fills"/><g class="errorbars"/><g class="lines"><path class="js-line" d="M0,25.15L0.5,25.15L1.01,37.2L2.01,73.36L2.52,75.76L4.03,78.11L4.53,78.11L28.2,78.12L28.7,82.22L85.6,82.62L86.1,84.18L87.11,86.06L87.61,86.06L111.27,86.69L111.78,87.18L144.51,87.51L145.01,90.49L192.34,90.84L192.84,93.39L217.51,93.61L218.02,94.29L219.02,95.1L219.53,95.1L273.4,95.1L273.91,96.26L274.91,98.07L275.42,98.07L359,98.78L359.5,99.65L376.12,99.66L376.62,103.17L378.13,103.63L378.63,103.63L439.06,104.28L439.56,104.67L459.7,105.14L460.2,105.14L473.29,105.85L473.8,106.37L479.34,106.54L479.84,107.64L499.98,107.72L500.48,113.37L503,113.37" style="vector-effect: none; fill: none; stroke: rgb(0, 0, 255); stroke-opacity: 1; stroke-width: 2px; opacity: 1;"/></g><g class="points"/><g class="text"/></g><g class="trace scatter trace04153f" style="stroke-miterlimit: 2; opacity: 0.05;"><g class="fills"/><g class="errorbars"/><g class="lines"><path class="js-line" d="M0,85.32L0.5,85.32L1.01,86.5L2.01,99.14L2.52,99.14L4.53,99.35L5.04,99.35L47.83,99.61L48.34,100.86L52.36,101.25L52.87,105.96L118.32,106.14L118.83,107.11L144,107.44L144.51,107.91L203.92,108.48L204.42,109.19L213.99,109.22L214.49,110.87L216,111.44L216.51,111.44L224.56,111.44L225.07,112.23L226.07,115.09L226.58,115.09L301.6,115.41L302.1,116.37L338.35,116.44L338.86,131.27L377.63,131.27L378.13,135.18L379.14,135.26L379.64,138.44L426.47,138.95L426.97,140.43L471.78,140.92L472.29,142.28L503,142.41" style="vector-effect: none; fill: none; stroke: rgb(0, 0, 255); stroke-opacity: 1; stroke-width: 2px; opacity: 1;"/></g><g class="points"/><g class="text"/></g><g class="trace scatter trace0cc071" style="stroke-miterlimit: 2; opacity: 0.05;"><g class="fills"/><g class="errorbars"/><g class="lines"><path class="js-line" d="M0,79.35L1.01,83.32L1.51,83.4L10.57,83.4L11.08,89.37L24.67,89.37L25.18,96.12L27.69,96.3L28.2,96.3L37.26,96.3L37.76,97.58L38.27,97.58L38.77,98.62L40.28,98.93L40.78,98.93L92.64,99.63L93.15,100.71L99.69,101.01L100.2,103.8L146.02,104.23L146.52,104.77L147.53,105.68L148.03,105.68L173.21,105.68L173.71,112.21L186.8,112.95L187.3,114.35L191.33,114.35L191.83,115.6L192.84,116.59L193.35,116.6L267.86,117.34L268.37,117.37L275.42,117.39L275.92,118.54L276.93,118.54L277.43,120.21L278.44,122.66L278.94,122.66L300.09,123.33L300.59,123.81L310.66,123.81L311.17,128.74L314.69,128.78L315.19,129.77L318.72,130.38L319.22,133.97L337.35,133.97L337.85,135.71L372.59,135.76L373.1,136.89L387.7,137.09L388.2,149.9L428.48,150.61L428.98,164.68L453.15,164.73L453.66,166.59L503,166.89" style="vector-effect: none; fill: none; stroke: rgb(0, 0, 255); stroke-opacity: 1; stroke-width: 2px; opacity: 1;"/></g><g class="points"/><g class="text"/></g><g class="trace scatter trace7d6870" style="stroke-miterlimit: 2; opacity: 0.05;"><g class="fills"/><g class="errorbars"/><g class="lines"><path class="js-line" d="M0,81.31L0.5,82.99L1.01,95.5L2.01,101.25L2.52,102.08L4.53,102.63L5.04,102.98L6.04,113.31L6.55,113.31L8.56,113.31L9.06,115.57L10.57,115.57L11.08,116.47L13.09,116.68L13.59,119.21L17.62,119.21L18.13,123.65L18.63,123.65L19.13,125.15L20.14,125.84L20.64,128.27L22.15,128.63L22.66,128.63L24.67,128.63L25.18,140.58L26.18,140.58L26.69,141.38L30.71,141.38L31.22,146.35L36.76,146.35L37.26,147.45L43.8,147.56L44.31,150.6L47.33,150.6L47.83,159.12L56.39,159.59L56.9,165L67.47,165.31L67.97,177.97L68.48,177.97L68.98,180.27L69.99,181.52L70.49,181.52L87.11,182.06L87.61,182.48L88.62,185.3L89.12,185.3L92.14,185.3L92.64,186.57L93.65,188.45L94.16,188.45L97.68,188.45L98.18,191.48L99.69,191.48L100.2,192.57L104.23,192.57L104.73,213.99L111.78,213.99L112.28,215.92L113.29,216.6L113.79,216.6L116.81,216.6L117.32,218.36L119.83,218.36L120.34,226.02L121.85,231.11L122.35,231.11L122.85,231.11L123.36,232.14L154.07,232.14L154.58,242.95L159.11,243.24L159.61,245.67L192.84,245.74L193.35,256.65L194.35,266.4L194.86,266.4L367.56,266.4L368.06,275.85L376.12,275.85L376.62,278.68L377.63,282.3L378.13,282.3L503,282.3" style="vector-effect: none; fill: none; stroke: rgb(0, 0, 255); stroke-opacity: 1; stroke-width: 2px; opacity: 1;"/></g><g class="points"/><g class="text"/></g><g class="trace scatter trace5ac0ae" style="stroke-miterlimit: 2; opacity: 0.05;"><g class="fills"/><g class="errorbars"/><g class="lines"><path class="js-line" d="M0,35.88L0.5,39.33L1.01,60.57L2.52,60.57L3.02,67.55L7.05,67.55L7.55,74.82L8.06,74.82L8.56,78.58L9.57,82.39L10.07,82.39L17.12,82.39L17.62,93.29L21.65,93.29L22.15,98.52L36.25,98.54L36.76,108.66L44.31,108.66L44.81,113.98L45.82,122.57L46.32,122.57L53.87,122.57L54.38,123.61L63.94,123.61L64.45,126.29L65.46,136.68L65.96,136.68L68.48,136.68L68.98,138.69L72,138.69L72.5,142.08L73.01,142.08L73.51,143.64L78.55,143.64L79.05,164.41L89.62,164.41L90.13,168.27L92.14,168.27L92.64,172.63L93.65,173.51L94.16,173.51L95.16,175.52L95.67,175.52L97.68,175.52L98.18,177.79L105.74,178.08L106.24,178.08L107.25,179.19L107.75,179.19L109.26,184.72L109.76,184.72L119.33,184.72L119.83,197.96L127.39,198.65L127.89,200.3L131.41,200.36L131.92,204.08L141.99,204.39L142.49,215.53L148.03,215.53L148.53,225.14L149.54,227.09L150.04,227.09L273.91,227.65L274.41,230.72L274.91,230.75L275.42,231.66L296.06,232.36L296.56,232.47L315.19,232.94L315.7,233.65L316.7,243.06L317.21,243.06L446.61,243.75L447.11,245.61L451.14,246.23L451.64,246.93L503,246.93" style="vector-effect: none; fill: none; stroke: rgb(0, 0, 255); stroke-opacity: 1; stroke-width: 2px; opacity: 1;"/></g><g class="points"/><g class="text"/></g><g class="trace scatter trace103b77" style="stroke-miterlimit: 2; opacity: 0.05;"><g class="fills"/><g class="errorbars"/><g class="lines"><path class="js-line" d="M0,36.73L1.01,78.07L1.51,88.67L10.07,89.34L10.57,94.92L14.6,94.92L15.11,99L20.64,99L21.15,111.41L25.68,111.63L26.18,112.21L29.71,112.27L30.21,114.34L32.22,114.34L32.73,116.86L33.23,116.86L33.73,121.69L42.29,122.31L42.8,122.53L43.8,122.53L44.31,123.94L44.81,123.94L45.32,125.46L45.82,125.46L46.32,126.56L46.83,126.56L47.33,130.3L49.85,130.31L50.35,132.79L54.88,133.39L55.39,135.45L55.89,135.45L56.39,137.13L56.9,137.14L57.4,138.11L59.92,138.22L60.42,141.67L68.98,141.67L69.48,145.66L70.99,146.05L71.5,146.05L72.5,162.89L73.01,162.89L75.53,162.89L76.03,167.41L81.06,167.41L81.57,183.81L82.07,183.81L82.57,186.54L91.64,186.54L92.14,188.44L101.2,188.44L101.71,191.79L102.71,196.01L103.22,196.01L105.23,209.28L105.74,209.28L106.74,209.28L107.25,211.37L108.25,212.46L108.76,215.58L165.65,215.58L166.16,225.58L167.67,245.57L168.17,245.57L172.2,245.57L172.7,256.42L193.85,256.81L194.35,258.08L400.29,258.08L400.79,271.03L401.8,274.5L402.3,274.94L405.82,275.05L406.33,275.05L503,275.05" style="vector-effect: none; fill: none; stroke: rgb(0, 0, 255); stroke-opacity: 1; stroke-width: 2px; opacity: 1;"/></g><g class="points"/><g class="text"/></g><g class="trace scatter trace351755" style="stroke-miterlimit: 2; opacity: 0.05;"><g class="fills"/><g class="errorbars"/><g class="lines"><path class="js-line" d="M0,59.91L1.01,87.89L1.51,91.66L2.52,94.38L3.02,94.38L7.55,94.53L8.06,95.39L16.11,95.85L16.62,104.68L29.2,104.68L29.71,111.72L45.32,112.38L45.82,132.11L52.36,132.11L52.87,140.27L53.37,140.27L53.87,170.73L55.39,171.2L55.89,173.98L61.43,173.98L61.93,188.85L70.99,188.85L71.5,193.19L72,193.59L72.5,201.22L75.53,201.22L76.03,216.81L80.56,216.81L81.06,227L134.94,227L135.44,238.78L136.45,247.93L136.95,247.93L144.51,247.93L145.01,248.83L146.02,248.83L146.52,249.84L356.98,249.92L357.49,252.4L474.8,252.57L475.31,258.9L476.31,264.48L476.82,264.48L503,264.48" style="vector-effect: none; fill: none; stroke: rgb(0, 0, 255); stroke-opacity: 1; stroke-width: 2px; opacity: 1;"/></g><g class="points"/><g class="text"/></g><g class="trace scatter trace0c2b57" style="stroke-miterlimit: 2; opacity: 0.05;"><g class="fills"/><g class="errorbars"/><g class="lines"><path class="js-line" d="M0,65.07L1.51,93.07L2.01,93.07L3.02,93.71L3.52,93.71L4.53,93.71L5.04,94.52L6.04,96.21L6.55,96.21L8.06,96.21L8.56,99.28L18.13,99.98L18.63,100.17L19.64,100.17L20.14,103.56L26.18,103.6L26.69,106.89L37.26,107.34L37.76,109.87L38.77,109.87L39.27,112.56L44.31,113.08L44.81,115.1L45.82,115.3L46.32,119.1L50.85,119.31L51.36,130.56L53.37,130.56L53.87,138.35L60.92,138.65L61.43,141.56L63.94,141.56L64.45,146.42L65.46,146.42L65.96,147.44L66.97,150.71L67.47,151.27L68.98,151.27L69.48,152.47L70.99,152.47L71.5,158.62L73.01,158.62L73.51,163.42L86.1,163.42L86.6,173.32L89.62,173.32L90.13,174.1L90.63,174.1L91.13,175.98L93.65,175.98L94.16,186.36L96.17,186.36L96.67,187.97L98.69,187.97L99.19,201.53L127.89,201.57L128.39,202.44L131.92,202.44L132.42,207.83L173.21,208.32L173.71,220.49L193.35,220.93L193.85,222.45L194.35,222.45L194.86,224.21L232.62,224.22L233.12,224.22L261.32,224.22L261.82,225.53L262.83,235.5L263.33,235.51L265.35,235.73L265.85,235.73L274.41,235.73L274.91,241.91L276.42,242.43L276.93,242.43L368.06,242.58L368.56,243.59L401.8,243.59L402.3,245.07L403.31,246.03L403.81,246.03L422.94,246.05L423.45,246.05L438.55,246.05L439.06,247.84L442.08,247.97L442.58,247.97L490.92,247.97L491.42,255.36L503,255.36" style="vector-effect: none; fill: none; stroke: rgb(0, 0, 255); stroke-opacity: 1; stroke-width: 2px; opacity: 1;"/></g><g class="points"/><g class="text"/></g><g class="trace scatter trace45c0be" style="stroke-miterlimit: 2; opacity: 0.05;"><g class="fills"/><g class="errorbars"/><g class="lines"><path class="js-line" d="M0,66.46L1.01,95.98L1.51,96.56L3.02,96.56L3.52,104.5L18.13,104.5L18.63,106.96L19.64,107.77L20.14,118.02L38.77,118.02L39.27,119.81L40.28,121.3L40.78,121.3L47.83,121.31L48.34,123.61L49.34,124.21L49.85,124.21L61.43,124.21L61.93,125.77L63.44,126.02L63.94,127.25L69.99,127.25L70.49,131.93L74.52,131.93L75.02,133.86L79.05,133.86L79.55,135L95.16,135L95.67,136.46L97.68,136.68L98.18,138.62L99.19,139.62L99.69,139.62L108.25,139.63L108.76,149.51L116.31,149.59L116.81,150.57L117.82,151.17L118.32,161.48L135.95,161.85L136.45,167.08L170.69,167.59L171.19,176.3L178.74,176.3L179.25,178.02L180.76,178.02L181.26,182.23L181.76,182.23L182.27,197.73L183.28,198.64L183.78,198.64L187.81,198.64L188.31,199.9L188.81,199.9L189.32,202.05L190.32,210.36L190.83,210.36L201.9,210.36L202.41,213.31L255.28,214L255.78,220.19L256.79,222.19L257.29,222.19L258.8,222.19L259.3,222.96L261.82,223.15L262.33,223.15L319.22,223.82L319.72,228.27L384.68,228.53L385.18,229.13L422.94,229.14L423.45,229.14L437.54,229.17L438.05,232.27L440.06,232.5L440.57,232.5L453.15,232.5L453.66,244.52L467.25,244.52L467.75,249.33L475.81,249.97L476.31,254.91L480.85,254.91L481.35,261.49L503,261.85" style="vector-effect: none; fill: none; stroke: rgb(0, 0, 255); stroke-opacity: 1; stroke-width: 2px; opacity: 1;"/></g><g class="points"/><g class="text"/></g><g class="trace scatter tracef4312b" style="stroke-miterlimit: 2; opacity: 0.05;"><g class="fills"/><g class="errorbars"/><g class="lines"><path class="js-line" d="M0,62.67L0.5,62.67L1.01,66.66L7.55,66.66L8.06,73.22L10.07,73.22L10.57,83.48L11.58,83.48L12.08,91.57L21.15,91.57L21.65,92.82L24.17,93.24L24.67,93.97L25.68,106.21L26.18,106.21L32.73,106.21L33.23,108.21L33.73,108.21L34.24,116.54L40.78,116.54L41.29,117.57L41.79,117.57L42.29,118.55L45.32,120.6L45.82,120.6L46.83,121.67L47.33,121.67L57.9,121.75L58.41,135.67L64.95,135.67L65.46,137.33L67.47,137.89L67.97,143.54L77.54,143.54L78.04,150.37L78.55,151.84L79.05,160.67L80.06,165.69L80.56,165.69L84.09,165.69L84.59,173.97L85.6,173.97L86.1,177.29L92.64,177.29L93.15,184.05L104.23,184.05L104.73,185.1L118.83,185.1L119.33,193.3L131.92,193.3L132.42,195.9L133.43,195.9L133.93,199.5L135.44,200.58L135.95,200.58L148.53,200.69L149.04,207.25L166.16,207.25L166.66,217.14L185.79,217.61L186.3,218.66L244.7,218.89L245.21,227.35L266.35,227.35L266.86,231.49L285.99,231.53L286.49,243.5L288,244.34L288.51,244.34L328.79,244.34L329.29,245.2L329.79,245.2L330.3,247.38L336.34,247.4L336.84,256.5L337.85,258.08L338.35,258.08L503,258.78" style="vector-effect: none; fill: none; stroke: rgb(0, 0, 255); stroke-opacity: 1; stroke-width: 2px; opacity: 1;"/></g><g class="points"/><g class="text"/></g><g class="trace scatter tracec3f44e" style="stroke-miterlimit: 2; opacity: 0.05;"><g class="fills"/><g class="errorbars"/><g class="lines"><path class="js-line" d="M0,103.45L1.01,108.56L1.51,108.56L6.04,108.88L6.55,109.4L9.06,109.99L9.57,127.76L24.67,127.76L25.18,128.73L36.25,128.73L36.76,131.3L39.27,131.3L39.78,134.65L41.29,135.18L41.79,140.1L45.82,140.1L46.32,153.14L50.85,153.14L51.36,159.89L62.43,159.89L62.94,167.31L63.94,168.2L64.45,168.2L78.55,168.2L79.05,178.87L80.06,185.2L80.56,188.13L93.15,188.16L93.65,189.36L95.16,189.36L95.67,198.65L99.69,199.24L100.2,199.57L126.38,199.79L126.88,200.76L136.45,200.76L136.95,205L148.03,205.75L148.53,207.59L149.54,209.51L150.04,209.51L167.67,209.66L168.17,214.09L169.18,214.09L169.68,216.02L170.69,223.56L171.19,223.56L173.71,224.27L174.21,224.27L181.26,224.39L181.76,225.74L182.77,227.5L183.28,227.5L188.31,227.5L188.81,244.26L254.27,244.27L254.77,251.61L331.81,251.77L332.31,255.47L503,255.49" style="vector-effect: none; fill: none; stroke: rgb(0, 0, 255); stroke-opacity: 1; stroke-width: 2px; opacity: 1;"/></g><g class="points"/><g class="text"/></g><g class="trace scatter traced54a57" style="stroke-miterlimit: 2; opacity: 1;"><g class="fills"/><g class="errorbars"/><g class="lines"><path class="js-line" d="M0,64.71L0.5,65.12L1.01,68.77L2.01,70.38L2.52,70.38L4.53,70.64L5.04,72.13L6.55,72.13L7.05,73.19L9.06,73.19L9.57,75.69L12.59,75.69L13.09,76.96L14.1,84.46L14.6,84.46L22.66,84.46L23.16,90.55L27.19,90.55L27.69,92.62L28.2,92.62L28.7,98.08L32.22,98.08L32.73,98.91L40.78,98.91L41.29,104.54L45.82,104.54L46.32,109.13L47.83,109.13L48.34,126.13L49.85,126.13L50.35,127.31L51.36,138.44L51.86,138.44L52.87,138.44L53.37,140.08L65.46,140.43L65.96,142.94L70.49,142.94L70.99,147.31L73.51,147.65L74.02,152.7L84.59,152.7L85.09,153.48L88.62,153.48L89.12,169.47L96.17,169.47L96.67,171.65L98.18,176.09L98.69,176.09L99.69,179.92L100.2,180.21L101.2,180.21L101.71,185.12L103.72,186.57L104.23,186.57L110.77,187.09L111.27,199.04L111.78,199.04L112.28,200.75L119.33,200.95L119.83,201.86L126.38,201.86L126.88,204.17L149.04,204.88L149.54,205.98L150.55,206.16L151.05,212.28L160.62,212.28L161.12,217.18L190.32,217.68L190.83,222.29L191.83,225.76L192.34,233.99L228.09,233.99L228.59,235.17L233.12,235.17L233.63,243.89L243.19,243.89L243.7,249.99L244.2,249.99L244.7,254.42L245.21,254.42L245.71,258.35L248.73,258.35L249.23,278.38L250.24,290.51L250.74,290.51L251.75,291.5L252.26,291.5L350.44,291.54L350.94,294.93L470.78,295.1L471.28,302.97L473.8,303.1L474.3,304L503,304" style="vector-effect: none; fill: none; stroke: rgb(255, 0, 0); stroke-opacity: 1; stroke-width: 2px; opacity: 1;"/></g><g class="points"/><g class="text"/></g><g class="trace scatter tracec25033" style="stroke-miterlimit: 2; opacity: 0.05;"><g class="fills"/><g class="errorbars"/><g class="lines"><path class="js-line" d="M0,129.76L0.5,130.78L1.01,135.63L1.51,135.63L2.01,142.75L3.02,144.73L3.52,144.73L6.04,144.73L6.55,149.85L8.06,150.25L8.56,154.18L10.57,154.18L11.08,178.83L14.1,179.31L14.6,181.33L15.61,181.33L16.11,192.68L18.13,211.95L18.63,212.25L22.66,212.25L23.16,214.61L24.67,215.15L25.18,215.15L26.69,215.15L27.19,216.46L28.7,217.46L29.2,220.7L30.21,230.08L30.71,230.08L59.92,230.08L60.42,233.03L71.5,233.05L72,257.68L73.01,259.76L73.51,259.76L285.99,259.76L286.49,265.7L503,265.95" style="vector-effect: none; fill: none; stroke: rgb(0, 0, 255); stroke-opacity: 1; stroke-width: 2px; opacity: 1;"/></g><g class="points"/><g class="text"/></g><g class="trace scatter tracea4b1f4" style="stroke-miterlimit: 2; opacity: 0.05;"><g class="fills"/><g class="errorbars"/><g class="lines"><path class="js-line" d="M0,74.58L0.5,74.58L1.01,83.49L2.01,93.03L2.52,93.03L3.52,97.78L4.03,97.78L5.54,98.14L6.04,98.14L7.05,106.65L7.55,110.21L14.1,110.5L14.6,111.05L17.62,111.29L18.13,112.65L18.63,112.65L19.13,115.44L19.64,115.44L20.14,122.66L22.66,130.52L23.16,130.52L24.17,131.25L24.67,131.25L26.18,162.37L26.69,162.37L27.19,162.37L27.69,163.83L32.22,164.34L32.73,170.97L33.23,170.97L33.73,171.87L34.24,171.87L34.74,172.9L42.29,172.9L42.8,197.54L43.8,197.97L44.31,203.25L47.83,203.9L48.34,219.66L86.6,220.1L87.11,222.16L88.11,222.77L88.62,222.77L100.2,222.77L100.7,223.85L101.71,225.88L102.21,225.9L132.92,225.9L133.43,233.34L145.51,233.44L146.02,235.58L147.02,244.05L147.53,244.05L180.76,244.05L181.26,249.88L231.11,249.92L231.61,255.21L232.62,257.93L233.12,257.93L273.4,257.98L273.91,275.46L503,275.46" style="vector-effect: none; fill: none; stroke: rgb(0, 0, 255); stroke-opacity: 1; stroke-width: 2px; opacity: 1;"/></g><g class="points"/><g class="text"/></g><g class="trace scatter trace9745ab" style="stroke-miterlimit: 2; opacity: 0.05;"><g class="fills"/><g class="errorbars"/><g class="lines"><path class="js-line" d="M0,57.45L0.5,61.27L1.01,97.91L2.01,114.13L2.52,114.13L6.04,114.13L6.55,115.5L7.05,115.5L7.55,118.39L8.56,123.7L9.06,123.7L18.13,123.75L18.63,128.7L19.13,128.7L19.64,129.75L20.14,129.75L20.64,130.97L21.65,130.97L22.15,135.22L24.17,135.22L24.67,136.55L26.18,136.55L26.69,139.45L30.21,140.16L30.71,144.57L33.73,144.57L34.24,148.77L35.25,153.03L35.75,153.03L41.29,153.03L41.79,154.17L42.29,154.17L42.8,157.38L51.86,157.38L52.36,163.27L54.38,163.27L54.88,166.04L55.39,166.04L55.89,174.12L57.4,176.93L57.9,176.93L64.45,176.93L64.95,178.26L69.99,178.47L70.49,179.58L75.02,179.67L75.53,179.67L80.06,179.67L80.56,182.75L85.09,182.75L85.6,185.85L86.6,190.63L87.11,190.63L90.63,190.63L91.13,193.27L92.14,196.66L92.64,197.06L153.57,197.24L154.07,201.5L156.59,201.5L157.09,202.48L195.86,202.49L196.37,217.17L204.42,217.31L204.93,233.91L205.93,233.91L206.44,235.89L230.1,235.89L230.6,237.24L348.42,237.28L348.93,239.04L353.96,239.25L354.47,250.66L421.43,250.74L421.94,264.55L503,265.09" style="vector-effect: none; fill: none; stroke: rgb(0, 0, 255); stroke-opacity: 1; stroke-width: 2px; opacity: 1;"/></g><g class="points"/><g class="text"/></g><g class="trace scatter tracef08fe8" style="stroke-miterlimit: 2; opacity: 0.05;"><g class="fills"/><g class="errorbars"/><g class="lines"><path class="js-line" d="M0,141.67L1.01,161.59L1.51,161.59L4.03,173.37L4.53,173.37L6.04,173.37L6.55,175.81L7.55,180.89L8.06,180.89L19.13,181.01L19.64,182.24L20.64,182.24L21.15,188.73L22.66,188.73L23.16,192.59L24.67,192.59L25.18,193.45L44.81,193.45L45.32,195.14L48.84,195.14L49.34,199.37L50.85,199.81L51.36,199.81L54.88,199.81L55.39,205.91L62.43,206.25L62.94,211.52L82.07,211.72L82.57,232.48L105.23,232.48L105.74,239.09L106.74,242.54L107.25,242.54L126.38,242.54L126.88,253.86L127.89,256.38L128.39,256.38L296.56,256.38L297.07,264.25L382.66,264.67L383.17,265.23L383.67,265.23L384.17,266.27L503,266.83" style="vector-effect: none; fill: none; stroke: rgb(0, 0, 255); stroke-opacity: 1; stroke-width: 2px; opacity: 1;"/></g><g class="points"/><g class="text"/></g><g class="trace scatter traceb9002b" style="stroke-miterlimit: 2; opacity: 0.05;"><g class="fills"/><g class="errorbars"/><g class="lines"><path class="js-line" d="M0,69.67L1.01,91.28L1.51,93.69L2.52,106.15L3.02,106.99L5.04,106.99L5.54,109.78L7.55,109.78L8.06,111.04L17.12,111.04L17.62,114.61L51.86,114.61L52.36,118.77L56.39,118.77L56.9,121.73L73.01,121.73L73.51,128.9L78.55,128.9L79.05,135.4L101.71,135.4L102.21,140.15L109.26,140.54L109.76,146.04L110.77,148.77L111.27,148.77L118.32,148.77L118.83,155.57L128.9,155.98L129.4,165.24L135.95,165.24L136.45,167.2L137.96,167.2L138.46,168.27L139.97,205.5L140.48,205.5L142.99,205.5L143.5,225.33L164.65,225.33L165.15,228.46L187.81,228.65L188.31,229.32L194.35,229.63L194.86,229.63L207.95,229.63L208.45,232.56L209.46,235.38L209.96,235.56L244.7,235.56L245.21,241.56L249.23,241.56L249.74,256.68L368.06,257.1L368.56,258.59L370.08,259.19L370.58,259.23L451.64,259.82L452.15,268.43L453.15,268.43L453.66,292.12L503,292.12" style="vector-effect: none; fill: none; stroke: rgb(0, 0, 255); stroke-opacity: 1; stroke-width: 2px; opacity: 1;"/></g><g class="points"/><g class="text"/></g><g class="trace scatter tracea29075" style="stroke-miterlimit: 2; opacity: 0.05;"><g class="fills"/><g class="errorbars"/><g class="lines"><path class="js-line" d="M0,49.97L1.01,55.15L1.51,59.8L4.03,59.8L4.53,63.15L5.54,69.57L6.04,69.57L9.06,69.57L9.57,71.3L12.08,71.3L12.59,76.3L20.14,76.67L20.64,78.96L22.66,79.41L23.16,80.14L25.18,80.14L25.68,85.96L28.2,85.96L28.7,88.48L30.21,88.48L30.71,90.47L34.24,90.76L34.74,92.98L37.26,93.47L37.76,94.26L38.77,98.75L39.27,98.75L48.34,98.75L48.84,106.91L59.41,106.91L59.92,114.08L70.99,114.12L71.5,125.23L76.53,125.23L77.04,131.83L84.59,131.83L85.09,134.31L86.6,134.31L87.11,146.73L91.13,146.73L91.64,151.35L100.2,151.35L100.7,158.18L101.71,158.18L102.21,176.14L106.24,176.14L106.74,194.63L112.28,194.63L112.78,200.8L120.34,200.8L120.84,221.83L121.34,221.83L121.85,226.56L131.41,226.56L131.92,227.4L134.94,227.55L135.44,227.55L148.53,227.55L149.04,229.84L150.04,231.24L150.55,231.24L173.21,231.24L173.71,237.88L174.72,245.56L175.22,245.56L213.49,245.56L213.99,247.64L216,247.97L216.51,247.97L264.34,247.97L264.84,253L354.97,253.1L355.47,254.03L413.88,254.03L414.38,255.97L415.39,256.58L415.89,256.58L464.23,256.58L464.73,270.29L468.76,270.29L469.27,280.78L503,280.78" style="vector-effect: none; fill: none; stroke: rgb(0, 0, 255); stroke-opacity: 1; stroke-width: 2px; opacity: 1;"/></g><g class="points"/><g class="text"/></g><g class="trace scatter trace595ebd" style="stroke-miterlimit: 2; opacity: 0.05;"><g class="fills"/><g class="errorbars"/><g class="lines"><path class="js-line" d="M0,50.72L0.5,50.72L1.01,60.66L2.01,72.1L2.52,74.33L3.52,79.07L4.03,79.47L5.04,82.94L5.54,82.94L6.55,83.04L7.05,84.29L34.24,85.01L34.74,85.28L36.25,85.7L36.76,85.7L50.35,85.7L50.85,87.84L53.87,87.84L54.38,94.51L72,94.51L72.5,96.84L74.52,97.23L75.02,97.23L84.59,97.23L85.09,101.9L86.6,102.36L87.11,102.36L100.2,102.36L100.7,103.54L102.21,103.91L102.71,103.91L110.27,104.65L110.77,120.75L126.88,120.75L127.39,121.98L129.4,122.04L129.9,137.82L148.03,138.06L148.53,152.23L149.04,152.23L149.54,154.85L161.62,155.52L162.13,156.13L170.69,156.25L171.19,162.81L176.23,163.34L176.73,169.38L196.37,170.11L196.87,170.74L199.89,171.57L200.39,172.88L215,172.98L215.5,174.02L217.01,174.17L217.51,177.77L219.02,178.17L219.53,178.17L221.04,178.17L221.54,182.23L222.55,182.23L223.05,183.45L225.07,183.72L225.57,183.72L233.63,183.72L234.13,187.26L248.73,187.54L249.23,189.67L260.81,189.95L261.32,200.32L261.82,200.32L262.33,201.44L263.33,205.37L263.84,205.37L272.9,205.37L273.4,207.46L300.59,208.19L301.1,208.25L305.12,208.27L305.63,209.13L307.14,209.45L307.64,209.45L318.21,209.82L318.72,210.4L320.23,210.75L320.73,210.75L339.86,210.75L340.37,217.36L341.38,217.36L341.88,231.55L381.15,231.55L381.66,234.04L383.17,234.73L383.67,234.73L385.68,234.73L386.19,236.28L396.76,236.48L397.26,236.48L423.45,236.48L423.95,242.97L425.96,244.51L426.47,244.51L503,244.51" style="vector-effect: none; fill: none; stroke: rgb(0, 0, 255); stroke-opacity: 1; stroke-width: 2px; opacity: 1;"/></g><g class="points"/><g class="text"/></g><g class="trace scatter trace268ef9" style="stroke-miterlimit: 2; opacity: 0.05;"><g class="fills"/><g class="errorbars"/><g class="lines"><path class="js-line" d="M0,26.18L0.5,26.18L1.01,37.54L8.56,37.68L9.06,40.74L11.58,40.74L12.08,58.07L14.1,58.07L14.6,62.11L15.61,62.57L16.11,68.25L17.62,68.25L18.13,86.04L20.64,86.04L21.15,97.72L25.68,97.72L26.18,101.44L29.71,101.64L30.21,103.65L31.22,107.78L31.72,107.78L35.75,107.78L36.25,111.24L40.28,111.55L40.78,112.31L41.29,112.31L41.79,115.53L42.8,115.53L43.3,116.58L50.35,116.58L50.85,120.81L56.9,120.81L57.4,122.49L58.41,131.06L58.91,131.06L61.43,131.69L61.93,143.69L72.5,143.96L73.01,145.66L73.51,145.66L74.02,146.78L75.53,155.76L76.03,155.76L93.15,156.34L93.65,159.67L97.18,160.25L97.68,177.54L98.69,194.75L99.19,194.75L101.71,194.75L102.21,196.25L107.75,196.25L108.25,210.17L109.26,217.08L109.76,217.08L110.77,224.42L111.27,224.42L115.81,224.42L116.31,226.75L159.61,226.81L160.11,229.53L233.12,229.53L233.63,231.51L234.63,233.8L235.14,233.8L235.64,233.8L236.14,238.88L237.15,241.32L237.65,241.32L249.74,241.32L250.24,249.93L293.04,250.29L293.54,253.44L294.55,254.27L295.05,254.27L314.69,254.29L315.19,254.29L337.35,254.29L337.85,255.12L338.86,257.92L339.36,257.92L351.95,257.92L352.45,259.68L429.99,259.68L430.5,265.47L503,265.61" style="vector-effect: none; fill: none; stroke: rgb(0, 0, 255); stroke-opacity: 1; stroke-width: 2px; opacity: 1;"/></g><g class="points"/><g class="text"/></g><g class="trace scatter trace166fe8" style="stroke-miterlimit: 2; opacity: 0.05;"><g class="fills"/><g class="errorbars"/><g class="lines"><path class="js-line" d="M0,58.39L1.01,79.73L1.51,79.78L3.02,80.33L3.52,80.33L7.05,80.75L7.55,82.67L12.08,82.67L12.59,83.78L31.72,84.46L32.22,84.96L33.23,85.59L33.73,85.59L38.27,85.59L38.77,90.24L44.31,90.24L44.81,100.64L47.33,100.74L47.83,101.62L91.13,102.22L91.64,105.69L92.14,105.69L92.64,108.07L117.32,108.2L117.82,112.46L118.83,116.24L119.33,116.24L153.07,116.3L153.57,129.93L182.77,129.93L183.28,133.03L184.28,135.84L184.79,135.84L188.81,135.84L189.32,137.17L190.32,138.6L190.83,138.65L223.05,139.26L223.56,140.12L235.14,140.25L235.64,141.04L251.75,141.04L252.26,142.63L256.28,142.73L256.79,142.73L271.39,142.73L271.89,147.65L285.99,147.7L286.49,149.51L289.51,150.06L290.02,151.93L328.79,152.14L329.29,155.93L332.31,156.07L332.82,156.07L364.03,156.32L364.54,157.23L365.54,166.05L366.05,166.12L368.06,166.12L368.56,168.51L369.07,168.51L369.57,169.78L390.72,169.78L391.22,173.12L420.93,173.53L421.43,176.88L475.81,177.26L476.31,179.08L479.34,179.44L479.84,179.44L503,179.5" style="vector-effect: none; fill: none; stroke: rgb(0, 0, 255); stroke-opacity: 1; stroke-width: 2px; opacity: 1;"/></g><g class="points"/><g class="text"/></g><g class="trace scatter trace2ee3e6" style="stroke-miterlimit: 2; opacity: 0.05;"><g class="fills"/><g class="errorbars"/><g class="lines"><path class="js-line" d="M0,35.77L0.5,35.77L1.01,80.07L2.01,80.07L2.52,86.22L3.02,86.22L3.52,89.66L4.03,89.66L4.53,92.01L5.04,92.56L5.54,98.16L7.55,98.16L8.06,115.17L9.57,115.17L10.07,138.61L17.12,139.36L17.62,139.85L22.66,139.93L23.16,139.93L27.19,139.93L27.69,152.19L38.77,152.55L39.27,155.04L54.88,155.36L55.39,156.25L57.9,156.43L58.41,158.19L59.41,159.73L59.92,159.73L64.95,159.73L65.46,164.44L66.46,165.51L66.97,165.51L67.97,165.51L68.48,169.16L69.99,169.72L70.49,171.09L72.5,172.44L73.01,179.31L90.63,179.31L91.13,183.56L92.14,187.05L92.64,187.05L99.19,187.05L99.69,189.45L100.2,189.45L100.7,196.3L109.76,196.3L110.27,200.15L110.77,200.15L111.27,214.73L112.28,216.38L112.78,216.38L113.79,216.38L114.3,229.71L115.3,230.47L115.81,230.47L130.41,230.47L130.91,239.47L211.97,239.58L212.48,241.25L260.31,241.53L260.81,242.35L270.38,243.05L270.88,246.18L280.95,246.22L281.46,246.22L328.79,246.22L329.29,257.02L499.48,257.07L499.98,257.89L500.99,260.89L501.49,260.89L503,260.89" style="vector-effect: none; fill: none; stroke: rgb(0, 0, 255); stroke-opacity: 1; stroke-width: 2px; opacity: 1;"/></g><g class="points"/><g class="text"/></g><g class="trace scatter trace7c340a" style="stroke-miterlimit: 2; opacity: 0.05;"><g class="fills"/><g class="errorbars"/><g class="lines"><path class="js-line" d="M0,80.99L1.01,109.81L1.51,117.07L2.01,117.07L2.52,119.12L5.54,119.84L6.04,120.71L6.55,120.71L7.05,127.18L7.55,127.45L8.06,128.71L8.56,128.96L9.06,134.74L13.09,134.74L13.59,144.5L18.13,144.5L18.63,146.43L19.13,146.43L19.64,148.04L26.18,148.04L26.69,149.27L27.69,149.27L28.2,151.33L35.75,151.37L36.25,152.61L44.81,152.61L45.32,153.87L51.86,154.25L52.36,156.19L53.37,160.14L53.87,160.14L55.89,160.14L56.39,163.47L57.4,164.08L57.9,164.08L61.93,164.08L62.43,175.75L83.08,175.93L83.58,178.7L87.11,178.7L87.61,179.69L119.33,180.29L119.83,182.92L120.84,195.08L121.34,195.08L136.95,195.08L137.46,197.26L138.46,199.65L138.97,199.65L154.58,199.65L155.08,203.52L194.86,203.55L195.36,205.71L196.37,206.56L196.87,206.56L206.94,206.56L207.44,214.34L208.45,217.38L208.95,224.22L255.78,224.22L256.28,231.3L258.8,231.43L259.3,233L302.1,233.22L302.61,234.35L303.11,235.55L303.61,243.73L342.38,243.73L342.89,247.57L415.39,247.59L415.89,248.38L436.03,248.56L436.54,248.56L503,249.01" style="vector-effect: none; fill: none; stroke: rgb(0, 0, 255); stroke-opacity: 1; stroke-width: 2px; opacity: 1;"/></g><g class="points"/><g class="text"/></g><g class="trace scatter traceeeeacd" style="stroke-miterlimit: 2; opacity: 0.05;"><g class="fills"/><g class="errorbars"/><g class="lines"><path class="js-line" d="M0,94.25L1.51,123.85L2.01,123.85L5.04,123.85L5.54,127.09L6.55,127.09L7.05,129.14L11.08,129.52L11.58,150.69L17.12,150.69L17.62,155.3L21.15,155.8L21.65,157.16L27.69,157.33L28.2,158.09L28.7,158.09L29.2,165.13L30.71,166.54L31.22,167.04L32.22,169.85L32.73,169.85L33.23,169.85L33.73,192.36L40.28,192.36L40.78,193.53L41.79,194.84L42.29,194.84L48.84,194.84L49.34,214.91L70.99,215.24L71.5,216.97L72.5,218.22L73.01,218.22L76.53,218.22L77.04,220.8L78.04,222.94L78.55,222.94L91.64,222.94L92.14,227.3L93.15,234.34L93.65,234.34L107.25,234.34L107.75,235.11L108.76,239.12L109.26,239.12L121.85,239.15L122.35,243.29L138.97,243.45L139.47,244.3L151.55,244.35L152.06,245.78L153.07,246.58L153.57,246.58L163.14,246.58L163.64,248.72L183.78,248.72L184.28,251.65L463.22,251.65L463.73,252.52L464.73,253.01L465.24,253.76L503,253.76" style="vector-effect: none; fill: none; stroke: rgb(0, 0, 255); stroke-opacity: 1; stroke-width: 2px; opacity: 1;"/></g><g class="points"/><g class="text"/></g><g class="trace scatter trace7cd932" style="stroke-miterlimit: 2; opacity: 0.05;"><g class="fills"/><g class="errorbars"/><g class="lines"><path class="js-line" d="M0,50.99L2.01,50.99L2.52,88.36L3.02,88.36L3.52,101.45L7.55,102.07L8.06,103.19L16.62,103.27L17.12,107.56L26.18,107.56L26.69,109.46L32.22,109.57L32.73,110.43L34.24,110.81L34.74,110.81L35.75,110.81L36.25,118.31L36.76,118.31L37.26,119.51L43.3,119.51L43.8,123.85L49.34,123.9L49.85,125.31L65.46,125.33L65.96,126.12L67.97,127.11L68.48,127.11L73.51,127.11L74.02,129.32L75.53,129.87L76.03,129.87L104.23,129.87L104.73,131.62L151.55,132.33L152.06,132.44L153.57,132.76L154.07,132.76L169.18,132.79L169.68,133.65L176.73,133.65L177.23,135.15L182.77,135.22L183.28,135.22L211.47,135.22L211.97,136.32L248.23,136.94L248.73,138.49L249.74,139.31L250.24,139.31L253.77,139.56L254.27,141.83L255.78,142.34L256.28,142.34L286.49,142.84L287,143.68L288.51,144.06L289.01,144.06L297.57,144.06L298.07,153.41L328.28,154.03L328.79,155L356.98,155.02L357.49,164.07L370.08,164.51L370.58,178.54L377.63,178.54L378.13,188.66L391.73,189.17L392.23,190.86L393.24,191.54L393.74,191.54L398.27,191.54L398.77,192.97L410.86,193.45L411.36,196.03L412.37,197.09L412.87,197.09L416.4,197.09L416.9,198.27L417.4,198.45L417.91,201.76L437.54,201.76L438.05,204.86L464.23,204.86L464.73,206.4L465.74,207.04L466.24,207.04L503,207.5" style="vector-effect: none; fill: none; stroke: rgb(0, 0, 255); stroke-opacity: 1; stroke-width: 2px; opacity: 1;"/></g><g class="points"/><g class="text"/></g><g class="trace scatter trace009856" style="stroke-miterlimit: 2; opacity: 0.05;"><g class="fills"/><g class="errorbars"/><g class="lines"><path class="js-line" d="M0,56.42L1.01,127L1.51,127L3.52,127L4.03,131.62L9.06,131.62L9.57,134.7L11.08,134.7L11.58,135.91L12.59,137.53L13.09,137.53L14.1,139.16L14.6,139.19L23.16,139.41L23.66,140.1L24.67,140.1L25.18,142.16L34.74,142.16L35.25,155.93L45.82,156.05L46.32,156.72L64.45,157.43L64.95,163.21L65.96,167.41L66.46,167.41L67.47,167.41L67.97,179.29L69.99,179.29L70.49,184.09L71.5,192.37L72,192.37L73.51,192.37L74.02,194.58L84.09,194.58L84.59,200.26L85.09,200.26L85.6,203.15L86.6,204.78L87.11,204.78L112.28,205.22L112.78,206.5L131.92,207.01L132.42,216.97L141.99,217.43L142.49,218.08L146.02,218.08L146.52,224.02L148.03,224.02L148.53,228.51L210.97,228.97L211.47,229.59L257.79,229.84L258.3,231.66L503,231.7" style="vector-effect: none; fill: none; stroke: rgb(0, 0, 255); stroke-opacity: 1; stroke-width: 2px; opacity: 1;"/></g><g class="points"/><g class="text"/></g><g class="trace scatter trace0c05d8" style="stroke-miterlimit: 2; opacity: 0.05;"><g class="fills"/><g class="errorbars"/><g class="lines"><path class="js-line" d="M0,76.53L0.5,81.4L1.01,102.57L1.51,102.57L2.01,104.15L3.02,124.77L3.52,124.77L26.18,124.77L26.69,153.66L32.22,153.66L32.73,155.24L33.73,162.73L34.24,162.73L42.8,162.73L43.3,169.79L43.8,169.79L44.31,173.7L50.35,173.7L50.85,181.68L53.87,182.38L54.38,182.79L54.88,182.79L55.39,183.89L57.4,183.89L57.9,192.61L75.02,192.61L75.53,195.67L77.04,195.67L77.54,200.66L78.04,200.66L78.55,203.97L81.06,203.97L81.57,205.13L94.66,205.75L95.16,205.75L103.72,205.75L104.23,221.09L138.46,221.33L138.97,222.21L142.49,223.47L142.99,223.47L163.14,223.47L163.64,229.36L175.72,229.36L176.23,243.51L177.74,248.35L178.24,248.35L230.1,248.35L230.6,253.55L232.62,253.81L233.12,262.56L323.75,262.65L324.26,275.21L338.35,275.42L338.86,280.62L432.51,280.62L433.01,282.46L434.02,294.78L434.52,295.77L503,295.77" style="vector-effect: none; fill: none; stroke: rgb(0, 0, 255); stroke-opacity: 1; stroke-width: 2px; opacity: 1;"/></g><g class="points"/><g class="text"/></g><g class="trace scatter trace2de395" style="stroke-miterlimit: 2; opacity: 0.05;"><g class="fills"/><g class="errorbars"/><g class="lines"><path class="js-line" d="M0,50.97L1.01,124.53L1.51,135.76L2.01,135.76L2.52,137.19L3.52,144.02L4.03,144.02L8.56,144.02L9.06,154.28L9.57,154.28L10.07,171.33L11.58,173.49L12.08,173.49L16.11,173.53L16.62,201.38L20.64,201.38L21.15,206.55L22.15,206.55L22.66,211.74L24.17,260.46L24.67,260.46L84.59,260.8L85.09,261.33L86.1,267.35L86.6,267.35L107.25,267.35L107.75,270.96L306.13,271.24L306.63,271.97L307.64,274.36L308.14,274.36L503,274.36" style="vector-effect: none; fill: none; stroke: rgb(0, 0, 255); stroke-opacity: 1; stroke-width: 2px; opacity: 1;"/></g><g class="points"/><g class="text"/></g><g class="trace scatter trace06e313" style="stroke-miterlimit: 2; opacity: 0.05;"><g class="fills"/><g class="errorbars"/><g class="lines"><path class="js-line" d="M0,73.3L1.01,97.5L1.51,97.5L2.01,97.5L2.52,107.4L3.52,107.4L4.03,108.53L5.04,114.46L5.54,116.29L6.55,116.29L7.05,124.22L14.1,124.71L14.6,135.68L26.69,136.08L27.19,140.53L28.7,140.53L29.2,142.92L35.75,143.32L36.25,150.03L45.32,150.03L45.82,151.58L47.33,151.96L47.83,151.96L52.36,151.96L52.87,154.31L53.37,154.72L53.87,160.33L55.39,161.65L55.89,161.76L61.43,161.79L61.93,163.22L62.94,165.34L63.44,165.34L71.5,165.34L72,184.81L98.18,184.81L98.69,185.98L99.19,185.98L99.69,192.47L103.72,192.47L104.23,202.7L117.82,203.42L118.32,203.65L119.33,212.52L119.83,212.52L132.42,212.59L132.92,214L181.76,214L182.27,230.48L200.39,231.17L200.9,236.13L405.82,236.6L406.33,239.95L408.34,240.52L408.84,240.52L459.7,240.52L460.2,258.36L461.71,258.36L462.22,259.16L503,259.16" style="vector-effect: none; fill: none; stroke: rgb(0, 0, 255); stroke-opacity: 1; stroke-width: 2px; opacity: 1;"/></g><g class="points"/><g class="text"/></g><g class="trace scatter traced5067d" style="stroke-miterlimit: 2; opacity: 0.05;"><g class="fills"/><g class="errorbars"/><g class="lines"><path class="js-line" d="M0,78.19L1.51,89.08L2.01,89.13L4.53,89.28L5.04,90.12L6.04,90.12L6.55,95.15L16.11,95.15L16.62,96.58L20.14,96.7L20.64,97.76L27.19,98.18L27.69,100.29L29.71,100.93L30.21,101.83L49.85,101.83L50.35,110.61L59.41,111.35L59.92,112.5L60.92,113.71L61.43,113.71L63.44,113.71L63.94,114.73L72.5,114.73L73.01,127.35L91.64,127.35L92.14,130.44L93.65,131.53L94.16,131.53L103.22,131.53L103.72,132.73L104.73,134.14L105.23,134.14L107.75,134.14L108.25,138.33L130.41,138.33L130.91,139.42L132.42,139.85L132.92,139.85L136.45,140.09L136.95,152.57L151.05,152.57L151.55,161.69L152.06,161.69L152.56,162.54L166.16,163.29L166.66,171.81L167.16,171.81L167.67,178.67L183.78,178.67L184.28,184.64L193.85,184.64L194.35,204.04L223.05,204.04L223.56,206.02L224.56,206.97L225.07,206.97L231.11,207.97L231.61,209.18L238.66,209.18L239.16,211.52L246.72,212.03L247.22,212.38L253.77,212.65L254.27,213.48L270.38,213.79L270.88,220.06L271.89,223.41L272.4,223.41L282.97,223.41L283.47,228.61L284.98,230.26L285.49,230.26L301.6,230.88L302.1,231.05L343.89,231.27L344.4,231.27L420.93,231.27L421.43,233.88L422.44,262.92L422.94,262.92L503,262.92" style="vector-effect: none; fill: none; stroke: rgb(0, 0, 255); stroke-opacity: 1; stroke-width: 2px; opacity: 1;"/></g><g class="points"/><g class="text"/></g><g class="trace scatter traceafc40b" style="stroke-miterlimit: 2; opacity: 0.05;"><g class="fills"/><g class="errorbars"/><g class="lines"><path class="js-line" d="M0,42.55L1.01,60.28L1.51,60.28L2.01,60.28L2.52,82.67L5.04,82.67L5.54,93.21L6.55,101.45L7.05,101.45L15.61,101.45L16.11,102.33L20.14,102.33L20.64,104.61L29.71,104.61L30.21,105.42L33.23,105.81L33.73,107.82L34.74,110.56L35.25,110.56L37.76,111.22L38.27,113.7L43.3,113.7L43.8,118.79L44.81,125.39L45.32,125.39L46.32,125.39L46.83,129.65L54.88,130.03L55.39,130.89L56.39,133.28L56.9,133.28L61.43,133.81L61.93,134.6L66.46,135.3L66.97,136.27L68.48,136.78L68.98,136.78L78.55,137.42L79.05,148.74L83.58,148.74L84.09,169.49L88.62,169.49L89.12,170.61L89.62,170.61L90.13,175.23L92.14,175.45L92.64,175.45L96.17,175.45L96.67,176.55L109.76,176.92L110.27,180.16L111.27,180.16L111.78,182.66L118.83,182.66L119.33,183.97L119.83,183.97L120.34,185.41L124.87,185.41L125.37,202.65L129.9,203.14L130.41,204.08L141.99,204.08L142.49,207.37L142.99,207.37L143.5,208.66L145.51,209.02L146.02,209.02L165.15,209.02L165.65,214.72L166.66,218.51L167.16,218.51L180.76,218.59L181.26,222.26L182.27,222.26L182.77,224.04L183.28,224.18L183.78,225.29L190.32,225.29L190.83,230.31L224.06,230.32L224.56,233.83L227.58,234.27L228.09,244.3L230.6,244.3L231.11,246.38L291.53,246.38L292.03,248.02L293.04,248.79L293.54,248.79L399.78,249.51L400.29,251.55L401.29,254.34L401.8,254.34L495.45,254.35L495.95,255.86L498.97,256.19L499.48,256.19L503,256.19" style="vector-effect: none; fill: none; stroke: rgb(0, 0, 255); stroke-opacity: 1; stroke-width: 2px; opacity: 1;"/></g><g class="points"/><g class="text"/></g><g class="trace scatter tracec7e9c0" style="stroke-miterlimit: 2; opacity: 0.05;"><g class="fills"/><g class="errorbars"/><g class="lines"><path class="js-line" d="M0,69.64L1.01,75.55L1.51,110.14L2.52,110.14L3.02,114.93L3.52,114.93L4.03,116.46L5.04,129.52L5.54,129.52L9.57,129.52L10.07,131.8L11.58,139.39L12.08,139.39L20.14,139.39L20.64,144.38L21.65,152.89L22.15,152.89L23.16,158.61L23.66,158.83L24.67,160.44L25.18,160.44L27.69,160.59L28.2,162.26L38.77,162.26L39.27,163.15L46.32,163.15L46.83,178.61L47.83,178.61L48.34,181.37L52.87,181.64L53.37,181.64L54.38,189.19L54.88,189.19L79.05,189.19L79.55,190.47L81.06,190.93L81.57,190.93L83.08,190.93L83.58,192.22L84.59,199.29L85.09,199.29L109.26,199.29L109.76,201.77L110.77,203.71L111.27,203.71L119.83,203.71L120.34,206.74L140.48,206.97L140.98,211.63L141.48,211.63L141.99,218.49L142.99,224.13L143.5,224.13L197.37,224.13L197.88,226.61L198.88,226.61L199.39,230.11L213.99,230.11L214.49,235.21L265.85,235.69L266.35,243.08L378.63,243.08L379.14,248.25L478.33,248.29L478.83,251.43L479.84,253.11L480.34,253.15L482.86,253.35L483.36,253.35L503,253.35" style="vector-effect: none; fill: none; stroke: rgb(0, 0, 255); stroke-opacity: 1; stroke-width: 2px; opacity: 1;"/></g><g class="points"/><g class="text"/></g><g class="trace scatter traceb38490" style="stroke-miterlimit: 2; opacity: 0.05;"><g class="fills"/><g class="errorbars"/><g class="lines"><path class="js-line" d="M0,69.49L1.01,77.65L1.51,80.15L2.52,81.32L3.02,81.32L4.03,87.83L4.53,87.83L6.55,87.83L7.05,90.64L9.06,91.26L9.57,94.05L12.08,94.05L12.59,94.82L14.1,94.82L14.6,97.85L17.12,97.85L17.62,100.21L18.13,100.21L18.63,110.63L20.14,110.63L20.64,112.41L22.15,112.41L22.66,115.23L25.18,115.23L25.68,118.83L26.69,130.68L27.19,130.68L33.23,130.85L33.73,132.54L37.76,133.11L38.27,133.91L44.81,134.19L45.32,136.04L48.34,136.04L48.84,137.8L49.85,140.2L50.35,140.2L54.38,140.2L54.88,141.01L55.39,141.01L55.89,142.09L58.41,142.09L58.91,147.59L62.94,147.59L63.44,158.49L65.96,158.49L66.46,162.58L71.5,162.96L72,171.73L73.01,188.65L73.51,188.65L77.04,189.24L77.54,190.52L112.28,190.54L112.78,191.7L113.29,191.7L113.79,230.79L117.32,230.79L117.82,233.43L119.83,234.03L120.34,234.05L206.44,234.79L206.94,234.81L302.61,235.11L303.11,239.75L304.12,241.77L304.62,241.77L503,241.77" style="vector-effect: none; fill: none; stroke: rgb(0, 0, 255); stroke-opacity: 1; stroke-width: 2px; opacity: 1;"/></g><g class="points"/><g class="text"/></g><g class="trace scatter trace05ddf0" style="stroke-miterlimit: 2; opacity: 0.05;"><g class="fills"/><g class="errorbars"/><g class="lines"><path class="js-line" d="M0,71.4L1.01,71.78L1.51,72.37L2.01,72.37L2.52,76.11L6.04,76.11L6.55,76.9L7.55,76.9L8.06,79.93L15.11,79.93L15.61,94.8L16.11,95.24L16.62,97.67L26.69,97.67L27.19,100.32L33.23,100.32L33.73,102.13L34.74,110.52L35.25,110.52L79.55,110.99L80.06,125.46L82.57,125.46L83.08,126.27L87.61,126.27L88.11,128.09L91.13,128.09L91.64,134.45L95.67,134.45L96.17,135.71L98.69,135.71L99.19,140.44L103.72,140.44L104.23,141.82L105.74,142.13L106.24,142.13L122.35,142.13L122.85,143.07L123.86,145.7L124.37,145.7L128.39,145.7L128.9,146.76L132.92,146.76L133.43,151.15L141.48,151.16L141.99,152.46L148.03,152.46L148.53,154.36L152.06,154.36L152.56,158.03L161.12,158.03L161.62,162.79L192.34,162.79L192.84,171.75L204.93,172.05L205.43,175.2L210.97,175.22L211.47,176.59L238.66,176.59L239.16,180.49L248.23,180.49L248.73,182.77L315.19,183.11L315.7,183.59L317.21,184.1L317.71,184.11L334.83,184.11L335.33,196.43L336.34,197.52L336.84,197.52L415.89,198L416.4,202.93L417.91,202.94L418.41,204.22L503,204.88" style="vector-effect: none; fill: none; stroke: rgb(0, 0, 255); stroke-opacity: 1; stroke-width: 2px; opacity: 1;"/></g><g class="points"/><g class="text"/></g><g class="trace scatter traceecf4ae" style="stroke-miterlimit: 2; opacity: 0.05;"><g class="fills"/><g class="errorbars"/><g class="lines"><path class="js-line" d="M0,30.22L1.51,30.22L2.01,31.35L2.52,31.35L3.02,47.02L5.04,47.02L5.54,51.25L6.55,51.82L7.05,54.36L10.57,54.74L11.08,55.91L11.58,56.79L12.08,67.36L14.6,67.36L15.11,71.24L22.15,71.24L22.66,72.28L23.66,77.84L24.17,77.84L36.25,78.45L36.76,81.34L37.76,82.35L38.27,82.35L42.8,82.35L43.3,89.12L49.85,89.12L50.35,93.72L57.4,93.72L57.9,94.7L58.91,96.53L59.41,96.53L60.42,96.53L60.92,97.71L62.43,97.71L62.94,98.77L72,98.77L72.5,99.71L78.55,100.35L79.05,101.77L80.06,101.8L80.56,103.02L84.09,103.68L84.59,113.73L97.68,114.21L98.18,114.6L100.2,114.86L100.7,114.86L101.71,115.49L102.21,121.01L111.78,121.01L112.28,124.82L116.81,124.82L117.32,130.05L120.84,130.05L121.34,136.53L122.35,137.63L122.85,137.63L135.44,137.63L135.95,142.18L137.46,147.48L137.96,147.48L140.98,147.48L141.48,148.53L142.49,157.41L142.99,157.41L143.5,157.41L144,158.29L155.58,158.6L156.09,161.62L164.14,161.62L164.65,164.19L168.17,164.65L168.67,168.77L169.68,169.75L170.18,169.75L175.72,169.75L176.23,172.34L178.74,173.03L179.25,173.03L180.25,178.14L180.76,178.14L187.81,178.85L188.31,179.3L189.32,180.58L189.82,180.58L191.33,180.58L191.83,182.83L193.85,183.42L194.35,183.6L202.91,183.8L203.42,187.95L205.93,187.95L206.44,199.85L224.06,199.85L224.56,223.88L266.86,224.39L267.36,231.36L304.62,231.71L305.12,232.2L361.52,232.39L362.02,233.61L363.53,234L364.03,234L366.05,234L366.55,241.74L367.56,242.98L368.06,242.98L383.17,242.98L383.67,246.61L469.77,246.77L470.27,248.16L503,248.16" style="vector-effect: none; fill: none; stroke: rgb(0, 0, 255); stroke-opacity: 1; stroke-width: 2px; opacity: 1;"/></g><g class="points"/><g class="text"/></g><g class="trace scatter trace0a3d5d" style="stroke-miterlimit: 2; opacity: 0.05;"><g class="fills"/><g class="errorbars"/><g class="lines"><path class="js-line" d="M0,95.36L1.01,100.78L1.51,140.47L2.01,140.47L2.52,172.74L3.52,188.34L4.03,190.98L4.53,190.98L5.04,195.25L7.55,195.25L8.06,210.87L50.35,210.87L50.85,215.99L51.86,217.22L52.36,217.48L57.4,217.65L57.9,228.35L58.41,228.4L58.91,230.59L120.34,230.59L120.84,235.38L122.85,235.66L123.36,235.66L284.48,236.25L284.98,236.58L293.04,236.66L293.54,236.66L334.83,236.66L335.33,238.36L433.01,238.39L433.52,239.7L503,239.77" style="vector-effect: none; fill: none; stroke: rgb(0, 0, 255); stroke-opacity: 1; stroke-width: 2px; opacity: 1;"/></g><g class="points"/><g class="text"/></g></g></g><g class="overplot"/><path class="xlines-above crisp" d="M0,0" style="fill: none;"/><path class="ylines-above crisp" d="M0,0" style="fill: none;"/><g class="overlines-above"/><g class="xaxislayer-above"><g class="xtick"><text text-anchor="middle" x="0" y="433" transform="translate(80,0)" style="font-family: 'Open Sans', verdana, arial, sans-serif; font-size: 12px; fill: rgb(42, 63, 95); fill-opacity: 1; white-space: pre; opacity: 1;">0</text></g><g class="xtick"><text text-anchor="middle" x="0" y="433" style="font-family: 'Open Sans', verdana, arial, sans-serif; font-size: 12px; fill: rgb(42, 63, 95); fill-opacity: 1; white-space: pre; opacity: 1;" transform="translate(180.7,0)">200</text></g><g class="xtick"><text text-anchor="middle" x="0" y="433" style="font-family: 'Open Sans', verdana, arial, sans-serif; font-size: 12px; fill: rgb(42, 63, 95); fill-opacity: 1; white-space: pre; opacity: 1;" transform="translate(281.4,0)">400</text></g><g class="xtick"><text text-anchor="middle" x="0" y="433" style="font-family: 'Open Sans', verdana, arial, sans-serif; font-size: 12px; fill: rgb(42, 63, 95); fill-opacity: 1; white-space: pre; opacity: 1;" transform="translate(382.1,0)">600</text></g><g class="xtick"><text text-anchor="middle" x="0" y="433" style="font-family: 'Open Sans', verdana, arial, sans-serif; font-size: 12px; fill: rgb(42, 63, 95); fill-opacity: 1; white-space: pre; opacity: 1;" transform="translate(482.8,0)">800</text></g></g><g class="yaxislayer-above"><g class="ytick"><text text-anchor="end" x="79" y="3.15" transform="translate(0,416)" style="font-family: 'Open Sans', verdana, arial, sans-serif; font-size: 9px; fill: rgb(42, 63, 95); fill-opacity: 1; white-space: pre; opacity: 1;">2</text></g><g class="ytick"><text text-anchor="end" x="79" y="3.15" style="font-family: 'Open Sans', verdana, arial, sans-serif; font-size: 9px; fill: rgb(42, 63, 95); fill-opacity: 1; white-space: pre; opacity: 1;" transform="translate(0,386.63)">5</text></g><g class="ytick"><text text-anchor="end" x="79" y="4.199999999999999" style="font-family: 'Open Sans', verdana, arial, sans-serif; font-size: 12px; fill: rgb(42, 63, 95); fill-opacity: 1; white-space: pre; opacity: 1;" transform="translate(0,364.42)">0.01</text></g><g class="ytick"><text text-anchor="end" x="79" y="3.15" style="font-family: 'Open Sans', verdana, arial, sans-serif; font-size: 9px; fill: rgb(42, 63, 95); fill-opacity: 1; white-space: pre; opacity: 1;" transform="translate(0,342.21000000000004)">2</text></g><g class="ytick"><text text-anchor="end" x="79" y="3.15" style="font-family: 'Open Sans', verdana, arial, sans-serif; font-size: 9px; fill: rgb(42, 63, 95); fill-opacity: 1; white-space: pre; opacity: 1;" transform="translate(0,312.84000000000003)">5</text></g><g class="ytick"><text text-anchor="end" x="79" y="4.199999999999999" style="font-family: 'Open Sans', verdana, arial, sans-serif; font-size: 12px; fill: rgb(42, 63, 95); fill-opacity: 1; white-space: pre; opacity: 1;" transform="translate(0,290.62)">0.1</text></g><g class="ytick"><text text-anchor="end" x="79" y="3.15" style="font-family: 'Open Sans', verdana, arial, sans-serif; font-size: 9px; fill: rgb(42, 63, 95); fill-opacity: 1; white-space: pre; opacity: 1;" transform="translate(0,268.40999999999997)">2</text></g><g class="ytick"><text text-anchor="end" x="79" y="3.15" style="font-family: 'Open Sans', verdana, arial, sans-serif; font-size: 9px; fill: rgb(42, 63, 95); fill-opacity: 1; white-space: pre; opacity: 1;" transform="translate(0,239.04)">5</text></g><g class="ytick"><text text-anchor="end" x="79" y="4.199999999999999" style="font-family: 'Open Sans', verdana, arial, sans-serif; font-size: 12px; fill: rgb(42, 63, 95); fill-opacity: 1; white-space: pre; opacity: 1;" transform="translate(0,216.82999999999998)">1</text></g><g class="ytick"><text text-anchor="end" x="79" y="3.15" style="font-family: 'Open Sans', verdana, arial, sans-serif; font-size: 9px; fill: rgb(42, 63, 95); fill-opacity: 1; white-space: pre; opacity: 1;" transform="translate(0,194.61)">2</text></g><g class="ytick"><text text-anchor="end" x="79" y="3.15" style="font-family: 'Open Sans', verdana, arial, sans-serif; font-size: 9px; fill: rgb(42, 63, 95); fill-opacity: 1; white-space: pre; opacity: 1;" transform="translate(0,165.25)">5</text></g><g class="ytick"><text text-anchor="end" x="79" y="4.199999999999999" style="font-family: 'Open Sans', verdana, arial, sans-serif; font-size: 12px; fill: rgb(42, 63, 95); fill-opacity: 1; white-space: pre; opacity: 1;" transform="translate(0,143.03)">10</text></g><g class="ytick"><text text-anchor="end" x="79" y="3.15" style="font-family: 'Open Sans', verdana, arial, sans-serif; font-size: 9px; fill: rgb(42, 63, 95); fill-opacity: 1; white-space: pre; opacity: 1;" transform="translate(0,120.82)">2</text></g></g><g class="overaxes-above"/></g></g><g class="polarlayer"/><g class="smithlayer"/><g class="ternarylayer"/><g class="geolayer"/><g class="funnelarealayer"/><g class="pielayer"/><g class="iciclelayer"/><g class="treemaplayer"/><g class="sunburstlayer"/><g class="glimages"/><defs id="topdefs-7e559b"><g class="clips"/><clipPath id="legend7e559b"><rect width="95" height="29" x="0" y="0"/></clipPath></defs><g class="layer-above"><g class="imagelayer"/><g class="shapelayer"/></g><g class="infolayer"><g class="legend" pointer-events="all" transform="translate(593.0600000000001,100)"><rect class="bg" shape-rendering="crispEdges" width="95" height="29" x="0" y="0" style="stroke: rgb(68, 68, 68); stroke-opacity: 1; fill: rgb(255, 255, 255); fill-opacity: 1; stroke-width: 0px;"/><g class="scrollbox" transform="" clip-path="url(#legend7e559b)"><g class="groups"><g class="traces" transform="translate(0,14.5)" style="opacity: 1;"><text class="legendtext" text-anchor="start" x="40" y="4.680000000000001" style="font-family: 'Open Sans', verdana, arial, sans-serif; font-size: 12px; fill: rgb(42, 63, 95); fill-opacity: 1; white-space: pre;">Best Run</text><g class="layers" style="opacity: 1;"><g class="legendfill"/><g class="legendlines"><path class="js-line" d="M5,0h30" style="fill: none; stroke: rgb(255, 0, 0); stroke-opacity: 1; stroke-width: 2px;"/></g><g class="legendsymbols"><g class="legendpoints"/></g></g><rect class="legendtoggle" x="0" y="-9.5" width="89.359375" height="19" style="fill: rgb(0, 0, 0); fill-opacity: 0;"/></g></g></g><rect class="scrollbar" rx="20" ry="3" width="0" height="0" x="0" y="0" style="fill: rgb(128, 139, 164); fill-opacity: 1;"/></g><g class="g-gtitle"><text class="gtitle" x="35" y="50" text-anchor="start" dy="0em" style="font-family: 'Open Sans', verdana, arial, sans-serif; font-size: 17px; fill: rgb(42, 63, 95); opacity: 1; white-space: pre;">Fitness history | GA - P2</text></g><g class="g-xtitle"><text class="xtitle" x="331.5" y="460.3" text-anchor="middle" style="font-family: 'Open Sans', verdana, arial, sans-serif; font-size: 14px; fill: rgb(42, 63, 95); opacity: 1; white-space: pre;">Generation</text></g><g class="g-ytitle"><text class="ytitle" transform="rotate(-90,36.240625,260)" x="36.240625" y="260" text-anchor="middle" style="font-family: 'Open Sans', verdana, arial, sans-serif; font-size: 14px; fill: rgb(42, 63, 95); opacity: 1; white-space: pre;">Fitness (log scale)</text></g></g></svg>